<svg width="21" height="21" viewBox="0 0 21 21" fill="none" xmlns="http://www.w3.org/2000/svg">
<path fill-rule="evenodd" clip-rule="evenodd" d="M10.5 1.75C5.66752 1.75 1.75 5.66747 1.75 10.5C1.75 15.3325 5.66752 19.25 10.5 19.25C15.3325 19.25 19.25 15.3325 19.25 10.5C19.25 5.66747 15.3325 1.75 10.5 1.75ZM10.5 17.5C6.64021 17.5 3.5 14.3598 3.5 10.5C3.5 6.64021 6.64021 3.5 10.5 3.5C14.3598 3.5 17.5 6.64021 17.5 10.5C17.5 14.3598 14.3598 17.5 10.5 17.5ZM11.5957 7C11.5957 7.63441 11.1338 8.09375 10.5089 8.09375C9.85874 8.09375 9.40817 7.63441 9.40817 6.98786C9.40817 6.36646 9.87094 5.90625 10.5089 5.90625C11.1338 5.90625 11.5957 6.36646 11.5957 7ZM9.62692 9.625H11.3769V14.875H9.62692V9.625Z" fill="black"/>
</svg>
