<svg width="19" height="19" viewBox="0 0 19 19" fill="none" xmlns="http://www.w3.org/2000/svg">
<g clip-path="url(#clip0_728_113)">
<path d="M9.50046 6.13391C11.1912 6.13391 12.5666 4.75804 12.5666 3.06683C12.5666 1.37574 11.1912 0 9.50046 0C7.80938 0 6.43359 1.37574 6.43359 3.06683C6.43359 4.75804 7.80938 6.13391 9.50046 6.13391Z" fill="#15416F"/>
<path d="M16.6906 11.9371H16.6072L12.8219 7.06388C12.5808 6.7176 12.185 6.51099 11.7624 6.51099C11.7546 6.51099 7.24842 6.51099 7.2371 6.51099C6.8145 6.51099 6.41865 6.7176 6.17764 7.06383L2.39229 11.9371H2.30905C1.83157 11.9371 1.44312 12.3255 1.44312 12.803V18.134C1.44312 18.6114 1.83157 18.9999 2.30905 18.9999H16.6906C17.1681 18.9999 17.5566 18.6114 17.5566 18.134V12.803C17.5565 12.3255 17.1681 11.9371 16.6906 11.9371ZM6.3572 10.9537V11.9371H5.5684L6.3572 10.9537ZM12.6423 10.9535L13.4312 11.9371H12.6423V10.9535ZM16.5777 18.021H2.42202V12.916H16.5777V18.021Z" fill="#15416F"/>
<path d="M6.63745 17.4451C6.97046 17.4451 7.29371 17.3449 7.57223 17.1555C7.69448 17.0723 7.72616 16.9058 7.64302 16.7836C7.55987 16.6613 7.39341 16.6298 7.27115 16.7128C7.08174 16.8416 6.8626 16.9097 6.63741 16.9097C5.98058 16.9097 5.44623 16.3334 5.44623 15.6249C5.44623 14.9163 5.98058 14.34 6.63741 14.34C6.84367 14.34 7.04687 14.3978 7.225 14.5071C7.35097 14.5844 7.51584 14.545 7.59315 14.4189C7.67046 14.2929 7.631 14.1282 7.50499 14.0508C7.24254 13.8898 6.94255 13.8047 6.63741 13.8047C5.68543 13.8047 4.91089 14.6213 4.91089 15.6249C4.91089 16.6285 5.68547 17.4451 6.63745 17.4451Z" fill="#15416F"/>
<path d="M9.46196 17.445C9.79497 17.445 10.1182 17.3449 10.3967 17.1554C10.519 17.0723 10.5507 16.9058 10.4675 16.7836C10.3844 16.6613 10.2179 16.6297 10.0957 16.7127C9.90625 16.8416 9.68711 16.9097 9.46191 16.9097C8.89022 16.9097 8.41145 16.4729 8.29693 15.8925H10.1043C10.2521 15.8925 10.372 15.7727 10.372 15.6249C10.372 15.477 10.2521 15.3572 10.1043 15.3572H8.29693C8.41145 14.7768 8.89022 14.34 9.46191 14.34C9.66818 14.34 9.87133 14.3978 10.0495 14.5071C10.1755 14.5844 10.3403 14.545 10.4176 14.4189C10.4949 14.293 10.4555 14.1282 10.3295 14.0508C10.0671 13.8898 9.76701 13.8047 9.46187 13.8047C8.50989 13.8047 7.73535 14.6213 7.73535 15.6249C7.73535 16.6285 8.50993 17.445 9.46196 17.445Z" fill="#15416F"/>
<path d="M12.3627 17.4449C13.3147 17.4449 14.0892 16.6283 14.0892 15.6247C14.0892 14.621 13.3147 13.8044 12.3627 13.8044C11.4108 13.8044 10.6362 14.621 10.6362 15.6247C10.6362 16.6283 11.4108 17.4449 12.3627 17.4449ZM12.3627 14.3398C13.0195 14.3398 13.5539 14.9162 13.5539 15.6247C13.5539 16.3332 13.0195 16.9095 12.3627 16.9095C11.7059 16.9095 11.1716 16.3332 11.1716 15.6247C11.1716 14.9162 11.7059 14.3398 12.3627 14.3398Z" fill="#15416F"/>
</g>
<defs>
<clipPath id="clip0_728_113">
<rect width="19" height="19" fill="white"/>
</clipPath>
</defs>
</svg>
