<svg width="195" height="195" viewBox="0 0 195 195" fill="none" xmlns="http://www.w3.org/2000/svg">
<g clip-path="url(#clip0_140_632)">
<path d="M194.011 148.38H0V148.477H194.011V148.38Z" fill="#E6E6E6"/>
<path d="M41.1265 152.982H20.0414V153.079H41.1265V152.982Z" fill="#E6E6E6"/>
<path d="M97.3937 150.875H89.4547V150.972H97.3937V150.875Z" fill="#E6E6E6"/>
<path d="M70.3407 150.875H58.7233V150.972H70.3407V150.875Z" fill="#E6E6E6"/>
<path d="M166.427 151.992H141.849V152.089H166.427V151.992Z" fill="#E6E6E6"/>
<path d="M92.8227 151.992H87.2778V152.089H92.8227V151.992Z" fill="#E6E6E6"/>
<path d="M50.0549 152.982H44.8826V153.079H50.0549V152.982Z" fill="#E6E6E6"/>
<path d="M172.899 151.992H169.597V152.089H172.899V151.992Z" fill="#E6E6E6"/>
<path d="M91.9613 131.074H17.038C16.4511 131.073 15.8885 130.839 15.4739 130.424C15.0592 130.008 14.8263 129.445 14.8263 128.858V23.5374C14.8314 22.9538 15.0666 22.3958 15.4807 21.9846C15.8948 21.5734 16.4544 21.3422 17.038 21.3412H91.9613C92.5489 21.3412 93.1124 21.5746 93.5279 21.9901C93.9434 22.4056 94.1769 22.9692 94.1769 23.5568V128.858C94.1769 129.446 93.9434 130.009 93.5279 130.425C93.1124 130.84 92.5489 131.074 91.9613 131.074ZM17.038 21.4188C16.4768 21.4198 15.9389 21.6435 15.5425 22.0407C15.146 22.4379 14.9233 22.9762 14.9233 23.5374V128.858C14.9233 129.42 15.146 129.958 15.5425 130.355C15.9389 130.752 16.4768 130.976 17.038 130.977H91.9613C92.5228 130.976 93.0611 130.752 93.4582 130.355C93.8553 129.958 94.0788 129.42 94.0799 128.858V23.5374C94.0788 22.9758 93.8553 22.4376 93.4582 22.0405C93.0611 21.6434 92.5228 21.4198 91.9613 21.4188H17.038Z" fill="#E6E6E6"/>
<path d="M175.894 131.074H100.967C100.38 131.073 99.8171 130.839 99.4018 130.424C98.9865 130.009 98.7527 129.446 98.7517 128.858V23.5374C98.7578 22.9535 98.9938 22.3955 99.4086 21.9844C99.8233 21.5733 100.383 21.3422 100.967 21.3412H175.894C176.477 21.3432 177.036 21.5749 177.449 21.986C177.863 22.3971 178.097 22.9545 178.102 23.5374V128.858C178.102 129.445 177.87 130.007 177.456 130.422C177.042 130.838 176.481 131.072 175.894 131.074ZM100.967 21.4188C100.406 21.4198 99.8675 21.6434 99.4704 22.0405C99.0733 22.4376 98.8497 22.9758 98.8487 23.5374V128.858C98.8497 129.42 99.0733 129.958 99.4704 130.355C99.8675 130.752 100.406 130.976 100.967 130.977H175.894C176.456 130.976 176.994 130.752 177.391 130.355C177.788 129.958 178.012 129.42 178.013 128.858V23.5374C178.012 22.9758 177.788 22.4376 177.391 22.0405C176.994 21.6434 176.456 21.4198 175.894 21.4188H100.967Z" fill="#E6E6E6"/>
<path d="M159.927 33.1991H73.441V83.4713H159.927V33.1991Z" fill="#E6E6E6"/>
<path d="M161.095 33.1991H74.6089V83.4713H161.095V33.1991Z" fill="#F5F5F5"/>
<path d="M158.996 81.1122V35.5583L76.7082 35.5583V81.1122H158.996Z" fill="white"/>
<path d="M159 81.1122V35.5583H158.115V81.1122H159Z" fill="#E6E6E6"/>
<path d="M160.23 66.9532H75.478V70.1195H160.23V66.9532Z" fill="#F5F5F5"/>
<path d="M98.1696 114.897H83.968V146.385H98.1696V114.897Z" fill="#E6E6E6"/>
<path d="M149.21 146.385H86.6919V148.38H149.21V146.385Z" fill="#E6E6E6"/>
<path d="M98.1657 146.385H151.938V114.897H98.1657V146.385Z" fill="#F5F5F5"/>
<path d="M103.753 129.099H146.358V118.774H103.753V129.099Z" fill="#E6E6E6"/>
<path d="M103.753 142.505H146.358V132.18H103.753V142.505Z" fill="#E6E6E6"/>
<path d="M131.443 123.228H118.669C118.324 123.228 118.044 123.508 118.044 123.853V124.02C118.044 124.365 118.324 124.644 118.669 124.644H131.443C131.788 124.644 132.067 124.365 132.067 124.02V123.853C132.067 123.508 131.788 123.228 131.443 123.228Z" fill="#F5F5F5"/>
<path d="M131.443 136.638H118.669C118.324 136.638 118.044 136.918 118.044 137.263V137.43C118.044 137.775 118.324 138.054 118.669 138.054H131.443C131.788 138.054 132.067 137.775 132.067 137.43V137.263C132.067 136.918 131.788 136.638 131.443 136.638Z" fill="#F5F5F5"/>
<path d="M55.6347 148.38H25.3806L21.2094 48.01H51.4634L55.6347 148.38Z" fill="#E6E6E6"/>
<path d="M60.0154 148.38H26.1566L21.9854 48.01H55.8442L60.0154 148.38Z" fill="#F5F5F5"/>
<path d="M29.5013 144.888L25.6211 51.5022H52.4955L56.3796 144.888H29.5013Z" fill="white"/>
<path d="M110.559 110.039C110.947 99.4385 111.335 84.7518 110.517 79.4359L109.178 78.3999C109.178 78.3999 109.469 79.3894 109.624 95.632C109.779 111.875 109.969 107.626 109.806 110.039H110.559Z" fill="#E0E0E0"/>
<path d="M113.05 74.9233C115.526 71.5669 120.737 69.1806 126.134 69.1922C128.253 69.1922 119.825 73.0957 116.414 77.3989C113.764 80.7397 110.842 86.3622 109.888 89.4819C110.346 82.9165 110.586 78.2758 113.05 74.9233Z" fill="#E0E0E0"/>
<path d="M108.084 83.6653C105.81 80.1731 100.746 77.4842 95.3604 77.1815C93.2457 77.0612 101.429 81.4497 104.584 85.9392C107.032 89.4314 109.628 95.2129 110.404 98.3869C110.319 91.8061 110.361 87.1614 108.084 83.6653Z" fill="#E0E0E0"/>
<path d="M109.1 69.3202C107.028 65.246 102.193 61.3153 96.9357 59.7167C94.8675 59.0881 103.431 66.2587 105.88 71.7454C107.781 76.0136 110.086 81.3761 110.691 84.7635C110.916 78.0818 111.168 73.3983 109.1 69.3202Z" fill="#E0E0E0"/>
<path d="M110.059 114.897C111.318 114.897 112.53 114.415 113.446 113.549C114.361 112.683 114.909 111.499 114.979 110.241L115.413 102.675H104.704L105.142 110.241C105.211 111.499 105.759 112.682 106.673 113.548C107.587 114.414 108.799 114.897 110.059 114.897Z" fill="#F0F0F0"/>
<path d="M104.013 104.401H116.108L116.453 101.262H103.664L104.013 104.401Z" fill="#EBEBEB"/>
<path d="M155.43 52.4451H163.439V30.7158H155.43V52.4451Z" fill="#E6E6E6"/>
<path d="M155.43 30.7197H151.461V50.7028H155.43V30.7197Z" fill="#F5F5F5"/>
<path d="M143.452 52.4451H151.461V30.7158H143.452V52.4451Z" fill="#E6E6E6"/>
<path d="M143.452 30.7197H139.482V50.7028H143.452V30.7197Z" fill="#F5F5F5"/>
<path d="M131.474 52.4451H139.482V30.7158H131.474V52.4451Z" fill="#E6E6E6"/>
<path d="M131.474 30.7197H127.504V50.7028H131.474V30.7197Z" fill="#F5F5F5"/>
<path d="M119.491 52.4451H127.5V30.7158H119.491V52.4451Z" fill="#E6E6E6"/>
<path d="M119.491 30.7197H115.522V50.7028H119.491V30.7197Z" fill="#F5F5F5"/>
<path d="M107.517 52.4451H115.526V30.7158H107.517V52.4451Z" fill="#E6E6E6"/>
<path d="M107.513 30.7197H103.544V50.7028H107.513V30.7197Z" fill="#F5F5F5"/>
<path d="M95.5349 52.4451H103.544V30.7158H95.5349V52.4451Z" fill="#E6E6E6"/>
<path d="M95.535 30.7197H91.5656V50.7028H95.535V30.7197Z" fill="#F5F5F5"/>
<path d="M83.5568 52.4451H91.5656V30.7158H83.5568V52.4451Z" fill="#E6E6E6"/>
<path d="M83.5567 30.7197H79.5873V50.7028H83.5567V30.7197Z" fill="#F5F5F5"/>
<path d="M71.5785 52.4451H79.5873V30.7158H71.5785V52.4451Z" fill="#E6E6E6"/>
<path d="M97.0056 165.903C138.556 165.903 172.239 163.936 172.239 161.51C172.239 159.085 138.556 157.118 97.0056 157.118C55.4552 157.118 21.772 159.085 21.772 161.51C21.772 163.936 55.4552 165.903 97.0056 165.903Z" fill="#F5F5F5"/>
<path d="M136.747 85.1826L138.396 87.7047L140.848 87.1964L138.997 84.0612L136.747 85.1826Z" fill="#9F5B53"/>
<path d="M141.422 63.5659C141.772 63.9888 142.063 64.3652 142.361 64.7765C142.66 65.1878 142.947 65.5836 143.231 65.9949C143.797 66.8136 144.336 67.6556 144.841 68.5209C145.345 69.3862 145.834 70.2709 146.261 71.1983C146.49 71.6523 146.684 72.1334 146.894 72.6029C147.103 73.0724 147.282 73.5652 147.433 74.0735L147.557 74.4615L147.619 74.6517C147.654 74.7642 147.689 74.8845 147.712 74.997C147.798 75.3998 147.826 75.8125 147.798 76.2232C147.746 76.8666 147.607 77.4998 147.382 78.1051C147.003 79.1137 146.516 80.0789 145.931 80.9842C144.841 82.6647 143.577 84.2255 142.16 85.6405L140.464 84.3134C141.396 82.7222 142.249 81.0853 143.017 79.4088C143.37 78.6435 143.652 77.8473 143.859 77.0302C143.937 76.7234 143.972 76.4075 143.964 76.0912C143.964 76.0243 143.949 75.9581 143.921 75.8972L143.859 75.7498L143.731 75.4549C143.005 73.8225 142.148 72.2512 141.17 70.7559C140.681 69.9799 140.165 69.231 139.645 68.4744C139.125 67.7177 138.559 66.9611 138.047 66.2743L141.422 63.5659Z" fill="#9F5B53"/>
<path d="M140.464 61.6568C143.138 62.2699 146.203 69.5531 146.203 69.5531L140.852 73.2315C139.516 71.3174 138.331 69.3027 137.306 67.2056C135.719 63.8724 137.748 61.0321 140.464 61.6568Z" fill="#1D5BA4"/>
<path opacity="0.8" d="M140.464 61.6568C143.138 62.2699 146.203 69.5531 146.203 69.5531L140.852 73.2315C139.516 71.3174 138.331 69.3027 137.306 67.2056C135.719 63.8724 137.748 61.0321 140.464 61.6568Z" fill="white"/>
<path d="M138.563 66.3015L141.1 73.0569L140.848 73.2315C140.848 73.2315 139.75 71.6795 138.563 69.6113V66.3015Z" fill="#1D5BA4"/>
<path opacity="0.6" d="M138.563 66.3015L141.1 73.0569L140.848 73.2315C140.848 73.2315 139.75 71.6795 138.563 69.6113V66.3015Z" fill="white"/>
<path d="M131.788 158.949H128.936L128.653 152.349H131.505L131.788 158.949Z" fill="#9F5B53"/>
<path d="M148.904 158.949H146.052L144.62 152.349H147.468L148.904 158.949Z" fill="#9F5B53"/>
<path d="M128.653 152.353L128.8 155.752H131.652L131.505 152.353H128.653Z" fill="#8A4743"/>
<path d="M147.472 152.353H144.62L145.357 155.752H148.209L147.472 152.353Z" fill="#8A4743"/>
<path d="M129.747 86.4437C129.747 86.4437 132.983 108.227 134.756 116.387C136.696 125.312 144.03 155.097 144.03 155.097H149.253C149.253 155.097 144.418 126.045 143.308 117.183C142.105 107.579 139.587 86.4282 139.587 86.4282L129.747 86.4437Z" fill="#1D5BA4"/>
<path opacity="0.5" d="M129.747 86.4437C129.747 86.4437 132.983 108.227 134.756 116.387C136.696 125.312 144.03 155.097 144.03 155.097H149.253C149.253 155.097 144.418 126.045 143.308 117.183C142.105 107.579 139.587 86.4282 139.587 86.4282L129.747 86.4437Z" fill="black"/>
<path opacity="0.4" d="M131.792 94.2041C135.532 94.9375 135.136 108.887 134.686 116.061C133.608 110.99 132.028 101.231 130.95 94.305C131.211 94.1764 131.508 94.1408 131.792 94.2041Z" fill="black"/>
<path d="M124.338 86.4436C124.338 86.4436 123.95 107.754 124.256 116.449C124.578 125.49 127.749 155.096 127.749 155.096H132.576C132.576 155.096 132.754 126.018 132.964 117.14C133.196 107.459 134.364 86.4436 134.364 86.4436H124.338Z" fill="#1D5BA4"/>
<path opacity="0.5" d="M124.338 86.4436C124.338 86.4436 123.95 107.754 124.256 116.449C124.578 125.49 127.749 155.096 127.749 155.096H132.576C132.576 155.096 132.754 126.018 132.964 117.14C133.196 107.459 134.364 86.4436 134.364 86.4436H124.338Z" fill="black"/>
<path d="M141.081 83.7042L138.997 84.0612L140.848 87.1964C140.848 87.1964 142.299 86.498 142.563 85.1438L141.081 83.7042Z" fill="#9F5B53"/>
<path d="M127.31 51.0639C127.31 51.2928 127.19 51.479 127.038 51.479C126.887 51.479 126.767 51.2928 126.767 51.0639C126.767 50.8349 126.887 50.6487 127.038 50.6487C127.19 50.6487 127.31 50.831 127.31 51.0639Z" fill="#263238"/>
<path d="M127.209 51.479C126.935 52.1817 126.565 52.8436 126.111 53.4462C126.268 53.5585 126.448 53.6351 126.637 53.6706C126.827 53.7062 127.022 53.6998 127.209 53.6519V51.479Z" fill="#892B29"/>
<path d="M128.125 49.7911C128.097 49.7914 128.069 49.7818 128.047 49.7639C127.912 49.6602 127.755 49.5902 127.587 49.5598C127.42 49.5295 127.248 49.5396 127.085 49.5893C127.069 49.5955 127.051 49.5984 127.034 49.5979C127.017 49.5973 126.999 49.5933 126.983 49.5861C126.968 49.5789 126.953 49.5686 126.941 49.5558C126.93 49.543 126.92 49.528 126.914 49.5117C126.907 49.4954 126.904 49.4779 126.904 49.4602C126.904 49.4425 126.907 49.425 126.914 49.4088C126.921 49.3925 126.931 49.3777 126.944 49.3654C126.957 49.3531 126.972 49.3435 126.988 49.3371C127.192 49.2712 127.41 49.2558 127.621 49.2923C127.833 49.3288 128.032 49.4161 128.203 49.5466C128.217 49.5563 128.23 49.569 128.24 49.5838C128.25 49.5987 128.256 49.6154 128.259 49.6329C128.262 49.6504 128.261 49.6683 128.257 49.6856C128.252 49.7028 128.245 49.7189 128.234 49.7329C128.222 49.7512 128.206 49.7662 128.187 49.7764C128.168 49.7866 128.147 49.7917 128.125 49.7911Z" fill="#263238"/>
<path d="M134.733 53.714C134.322 55.8016 133.914 59.6197 135.373 61.0127C135.373 61.0127 134.803 63.1274 130.926 63.1274C126.658 63.1274 128.893 61.0127 128.893 61.0127C131.221 60.4579 131.159 58.7312 130.752 57.1131L134.733 53.714Z" fill="#9F5B53"/>
<path d="M135.932 61.7383C136.238 61.0709 136.572 60.3026 135.878 60.062C135.102 59.7982 130.923 59.5304 129.479 60.0232C129.289 60.076 129.111 60.166 128.955 60.2881C128.8 60.4101 128.67 60.5618 128.574 60.7343C128.478 60.9068 128.416 61.0967 128.394 61.293C128.372 61.4893 128.388 61.6882 128.443 61.878L135.932 61.7383Z" fill="#1D5BA4"/>
<path d="M144.907 159.089C144.786 159.105 144.664 159.097 144.547 159.065C144.429 159.033 144.32 158.978 144.224 158.903C144.19 158.856 144.171 158.8 144.171 158.742C144.171 158.684 144.19 158.628 144.224 158.581C144.245 158.541 144.275 158.506 144.311 158.478C144.347 158.451 144.389 158.432 144.433 158.422C144.853 158.329 145.636 158.864 145.671 158.887C145.682 158.895 145.69 158.906 145.695 158.918C145.7 158.931 145.701 158.944 145.698 158.957C145.696 158.97 145.69 158.981 145.681 158.99C145.672 158.999 145.661 159.005 145.648 159.008C145.404 159.06 145.156 159.088 144.907 159.089ZM144.554 158.546H144.468C144.442 158.551 144.417 158.563 144.396 158.579C144.374 158.595 144.357 158.615 144.344 158.639C144.282 158.748 144.321 158.794 144.344 158.81C144.464 158.973 145.047 158.973 145.473 158.903C145.197 158.719 144.882 158.6 144.554 158.554V158.546Z" fill="#1D5BA4"/>
<path d="M145.636 159.019H145.605C145.31 158.856 144.74 158.243 144.798 157.917C144.808 157.867 144.835 157.822 144.875 157.789C144.914 157.757 144.964 157.739 145.015 157.739C145.067 157.733 145.118 157.738 145.168 157.753C145.217 157.767 145.263 157.792 145.303 157.824C145.632 158.096 145.691 158.918 145.691 158.953C145.692 158.966 145.69 158.978 145.685 158.989C145.679 159 145.67 159.009 145.66 159.015C145.652 159.018 145.644 159.02 145.636 159.019ZM145.062 157.855H145.031C144.942 157.855 144.934 157.91 144.93 157.925C144.895 158.115 145.26 158.585 145.551 158.806C145.531 158.482 145.414 158.171 145.217 157.913C145.173 157.88 145.118 157.862 145.062 157.863V157.855Z" fill="#1D5BA4"/>
<path d="M127.791 159.089C127.426 159.089 127.073 159.039 126.953 158.876C126.923 158.832 126.907 158.781 126.907 158.728C126.907 158.676 126.923 158.624 126.953 158.581C126.975 158.541 127.006 158.506 127.043 158.479C127.08 158.451 127.122 158.432 127.166 158.422C127.636 158.294 128.637 158.86 128.68 158.884C128.691 158.891 128.7 158.901 128.706 158.914C128.711 158.926 128.713 158.94 128.711 158.953C128.709 158.967 128.703 158.98 128.693 158.99C128.683 159 128.67 159.006 128.657 159.008C128.371 159.062 128.082 159.089 127.791 159.089ZM127.337 158.538C127.295 158.532 127.252 158.532 127.209 158.538C127.182 158.544 127.156 158.555 127.133 158.571C127.111 158.587 127.091 158.607 127.077 158.631C127.031 158.717 127.046 158.756 127.077 158.779C127.209 158.957 127.927 158.969 128.462 158.895C128.114 158.707 127.731 158.588 127.337 158.546V158.538Z" fill="#1D5BA4"/>
<path d="M128.653 159.019H128.625C128.28 158.868 127.601 158.243 127.651 157.929C127.651 157.851 127.717 157.758 127.904 157.739C127.973 157.728 128.044 157.733 128.111 157.753C128.178 157.774 128.24 157.808 128.292 157.855C128.656 158.15 128.73 158.918 128.734 158.953C128.736 158.965 128.734 158.977 128.729 158.988C128.724 158.999 128.717 159.009 128.707 159.015C128.699 159.02 128.69 159.023 128.68 159.023C128.671 159.024 128.661 159.023 128.653 159.019ZM127.958 157.855H127.915C127.795 157.855 127.787 157.917 127.783 157.933C127.752 158.127 128.218 158.612 128.559 158.821C128.526 158.496 128.39 158.189 128.171 157.945C128.112 157.893 128.036 157.865 127.958 157.863V157.855Z" fill="#1D5BA4"/>
<path d="M145.85 158.62H149.051C149.108 158.62 149.163 158.64 149.208 158.676C149.252 158.712 149.283 158.762 149.295 158.818L149.858 161.351C149.871 161.413 149.87 161.477 149.854 161.538C149.839 161.599 149.81 161.656 149.77 161.705C149.73 161.753 149.679 161.792 149.622 161.818C149.564 161.844 149.502 161.857 149.439 161.856C148.321 161.836 147.778 161.77 146.37 161.77C145.504 161.77 143.72 161.864 142.521 161.864C141.322 161.864 141.17 160.699 141.659 160.571C143.855 160.09 144.682 159.427 145.388 158.798C145.514 158.682 145.679 158.619 145.85 158.62Z" fill="#263238"/>
<path d="M128.955 158.62H132.059C132.117 158.62 132.172 158.64 132.216 158.676C132.261 158.712 132.292 158.762 132.304 158.818L132.867 161.351C132.88 161.413 132.879 161.476 132.865 161.537C132.85 161.598 132.822 161.655 132.783 161.703C132.743 161.752 132.693 161.791 132.637 161.817C132.58 161.843 132.518 161.857 132.455 161.856C131.334 161.836 129.712 161.77 128.3 161.77C126.65 161.77 125.223 161.864 123.286 161.864C122.122 161.864 121.792 160.7 122.281 160.572C124.512 160.083 126.332 160.032 128.261 158.845C128.466 158.705 128.707 158.627 128.955 158.62Z" fill="#263238"/>
<path d="M124.885 67.4888C123.756 69.1573 122.588 70.7133 121.327 72.2576C120.067 73.8178 118.72 75.305 117.291 76.7121L116.733 77.2398L116.589 77.3717L116.492 77.461L116.348 77.5851C116.164 77.7304 115.968 77.8601 115.763 77.9732C115.107 78.3177 114.387 78.5188 113.648 78.563C112.52 78.6331 111.389 78.5404 110.288 78.2875C108.293 77.8456 106.358 77.1656 104.525 76.262L105.235 74.2443C107.054 74.606 108.893 74.8561 110.742 74.9932C111.554 75.0593 112.371 75.0254 113.174 74.8923C113.405 74.8589 113.625 74.774 113.819 74.6439V74.6168L113.846 74.5857L113.962 74.4577L114.42 73.9533C115.634 72.568 116.81 71.0974 117.951 69.588C119.092 68.0786 120.233 66.542 121.323 65.0326L124.885 67.4888Z" fill="#9F5B53"/>
<path d="M126.2 67.935C125.804 70.3422 124.763 72.5973 123.189 74.4615C123.127 73.0957 123.104 71.8695 123.108 70.7714L126.2 67.935Z" fill="#BED3FC"/>
<path d="M134.977 50.5748C134.807 53.3997 134.849 55.0604 133.425 56.5116C131.28 58.6923 127.795 57.3963 127.12 54.5715C126.515 52.0338 126.899 47.8432 129.665 46.7179C130.274 46.4679 130.936 46.3776 131.589 46.4558C132.243 46.5339 132.865 46.7778 133.397 47.1644C133.93 47.5509 134.354 48.0672 134.631 48.6641C134.908 49.2611 135.027 49.9188 134.977 50.5748Z" fill="#9F5B53"/>
<path d="M129.491 48.6968C129.514 52.0183 130.593 56.0925 133.806 55.8093C135.94 55.623 137.562 51.7312 137.783 50.0821C138.12 47.5599 138.171 47.0788 136.751 46.7877C137.371 46.4502 137.597 44.8476 136.145 44.4596C134.128 43.928 130.325 43.4081 131.52 42.178C129.138 42.6087 128.54 43.5633 128.975 44.7235C127.582 44.6148 126.724 43.8853 126.767 42.7834C124.458 43.7185 122.96 49.0072 129.491 48.6968Z" fill="#263238"/>
<path d="M131.152 51.3975C130.994 52.0825 130.615 52.6963 130.073 53.1436C129.355 53.7257 128.781 53.2057 128.796 52.3676C128.796 51.6109 129.208 50.3964 130.015 50.1403C130.822 49.8842 131.349 50.571 131.152 51.3975Z" fill="#9F5B53"/>
<path d="M138.912 47.3659C138.532 47.1241 138.098 46.9805 137.649 46.9479C137.2 46.9154 136.75 46.9951 136.339 47.1797C136.339 47.1797 137.954 45.0106 138.912 47.3659Z" fill="#263238"/>
<path d="M143.18 153.172C143.157 153.172 143.72 155.178 143.72 155.178H149.594L149.486 153.389L143.18 153.172Z" fill="#1D5BA4"/>
<path d="M126.81 153.172C126.786 153.172 127.081 155.178 127.081 155.178H132.956L133.115 153.389L126.81 153.172Z" fill="#1D5BA4"/>
<path d="M128.742 151.628C128.73 151.628 128.719 151.623 128.71 151.615C128.702 151.607 128.696 151.597 128.695 151.585C127.842 143.39 125.836 123.562 125.591 116.45C125.331 109.19 125.568 92.9004 125.645 88.0812C125.645 88.054 125.669 88.0385 125.696 88.0346C125.708 88.0355 125.719 88.0407 125.728 88.0493C125.736 88.0578 125.742 88.0691 125.742 88.0812C125.665 92.9004 125.428 109.19 125.688 116.446C125.94 123.558 127.946 143.378 128.792 151.573C128.792 151.586 128.788 151.599 128.779 151.609C128.771 151.619 128.759 151.626 128.746 151.628H128.742Z" fill="#1D5BA4"/>
<path opacity="0.3" d="M128.742 151.628C128.73 151.628 128.719 151.623 128.71 151.615C128.702 151.607 128.696 151.597 128.695 151.585C127.842 143.39 125.836 123.562 125.591 116.45C125.331 109.19 125.568 92.9004 125.645 88.0812C125.645 88.054 125.669 88.0385 125.696 88.0346C125.708 88.0355 125.719 88.0407 125.728 88.0493C125.736 88.0578 125.742 88.0691 125.742 88.0812C125.665 92.9004 125.428 109.19 125.688 116.446C125.94 123.558 127.946 143.378 128.792 151.573C128.792 151.586 128.788 151.599 128.779 151.609C128.771 151.619 128.759 151.626 128.746 151.628H128.742Z" fill="black"/>
<path d="M127.516 64.113C127.904 66.8292 122.572 73.7088 122.572 73.7088L117.229 70.0303C117.229 70.0303 118.711 66.2316 121.206 63.7405C124.055 60.9196 127.104 61.1757 127.516 64.113Z" fill="#1D5BA4"/>
<path opacity="0.8" d="M127.516 64.113C127.904 66.8292 122.572 73.7088 122.572 73.7088L117.229 70.0303C117.229 70.0303 118.711 66.2316 121.206 63.7405C124.055 60.9196 127.104 61.1757 127.516 64.113Z" fill="white"/>
<path d="M124.509 61.8043C124.509 61.8043 121.474 65.2305 124.338 86.4437H139.587C139.692 84.1156 138.221 72.6844 140.476 61.6568C138.791 61.3323 137.086 61.1172 135.373 61.0127C133.215 60.8885 131.051 60.8885 128.893 61.0127C127.413 61.1618 125.947 61.4265 124.509 61.8043Z" fill="#1D5BA4"/>
<path opacity="0.8" d="M124.509 61.8043C124.509 61.8043 121.474 65.2305 124.338 86.4437H139.587C139.692 84.1156 138.221 72.6844 140.476 61.6568C138.791 61.3323 137.086 61.1172 135.373 61.0127C133.215 60.8885 131.051 60.8885 128.893 61.0127C127.413 61.1618 125.947 61.4265 124.509 61.8043Z" fill="white"/>
<path d="M79.645 46.2307C80.8628 40.8661 77.5012 35.5301 72.1367 34.3122C66.7721 33.0944 61.436 36.456 60.2182 41.8206C59.0004 47.1851 62.362 52.5212 67.7266 53.739C73.0911 54.9568 78.4272 51.5952 79.645 46.2307Z" fill="#1D5BA4"/>
<path opacity="0.2" d="M79.645 46.2307C80.8628 40.8661 77.5012 35.5301 72.1367 34.3122C66.7721 33.0944 61.436 36.456 60.2182 41.8206C59.0004 47.1851 62.362 52.5212 67.7266 53.739C73.0911 54.9568 78.4272 51.5952 79.645 46.2307Z" fill="white"/>
<path d="M68.9089 56.9422C66.3326 56.7432 63.8754 55.7749 61.8559 54.1629C59.8363 52.5509 58.3476 50.3694 57.5825 47.9013L57.9511 47.7849C58.6938 50.179 60.1383 52.295 62.0976 53.8586C64.0569 55.4221 66.4407 56.3612 68.9399 56.5542L68.9089 56.9422Z" fill="#1D5BA4"/>
<path opacity="0.2" d="M68.9089 56.9422C66.3326 56.7432 63.8754 55.7749 61.8559 54.1629C59.8363 52.5509 58.3476 50.3694 57.5825 47.9013L57.9511 47.7849C58.6938 50.179 60.1383 52.295 62.0976 53.8586C64.0569 55.4221 66.4407 56.3612 68.9399 56.5542L68.9089 56.9422Z" fill="white"/>
<path d="M57.8968 40.4397L57.5088 40.331C58.009 38.6598 58.8416 37.1068 59.9567 35.7652C61.0718 34.4236 62.4465 33.3212 63.9982 32.524C65.5499 31.7267 67.2466 31.2512 68.9866 31.1258C70.7266 31.0005 72.474 31.228 74.1239 31.7945L73.9997 32.1632C72.3981 31.6141 70.7022 31.3942 69.0135 31.5167C67.3248 31.6391 65.6783 32.1014 64.1727 32.8758C62.6671 33.6501 61.3334 34.7206 60.2516 36.0231C59.1698 37.3255 58.3623 38.833 57.8774 40.4552L57.8968 40.4397Z" fill="#1D5BA4"/>
<path opacity="0.2" d="M57.8968 40.4397L57.5088 40.331C58.009 38.6598 58.8416 37.1068 59.9567 35.7652C61.0718 34.4236 62.4465 33.3212 63.9982 32.524C65.5499 31.7267 67.2466 31.2512 68.9866 31.1258C70.7266 31.0005 72.474 31.228 74.1239 31.7945L73.9997 32.1632C72.3981 31.6141 70.7022 31.3942 69.0135 31.5167C67.3248 31.6391 65.6783 32.1014 64.1727 32.8758C62.6671 33.6501 61.3334 34.7206 60.2516 36.0231C59.1698 37.3255 58.3623 38.833 57.8774 40.4552L57.8968 40.4397Z" fill="white"/>
<path d="M81.9271 40.2728C81.0199 37.3717 79.0893 34.8991 76.4948 33.3155L76.6965 32.9818C79.3686 34.6172 81.3566 37.1664 82.2918 40.1564L81.9271 40.2728Z" fill="#1D5BA4"/>
<path opacity="0.2" d="M81.9271 40.2728C81.0199 37.3717 79.0893 34.8991 76.4948 33.3155L76.6965 32.9818C79.3686 34.6172 81.3566 37.1664 82.2918 40.1564L81.9271 40.2728Z" fill="white"/>
<path d="M79.6495 73.7256C80.8673 68.3611 77.5057 63.025 72.1412 61.8072C66.7766 60.5894 61.4406 63.951 60.2227 69.3155C59.0049 74.6801 62.3665 80.0161 67.7311 81.234C73.0956 82.4518 78.4317 79.0902 79.6495 73.7256Z" fill="#1D5BA4"/>
<path opacity="0.6" d="M79.6495 73.7256C80.8673 68.3611 77.5057 63.025 72.1412 61.8072C66.7766 60.5894 61.4406 63.951 60.2227 69.3155C59.0049 74.6801 62.3665 80.0161 67.7311 81.234C73.0956 82.4518 78.4317 79.0902 79.6495 73.7256Z" fill="white"/>
<path d="M79.6464 101.22C80.8642 95.8552 77.5026 90.5191 72.138 89.3013C66.7735 88.0835 61.4374 91.4451 60.2196 96.8096C59.0018 102.174 62.3634 107.51 67.7279 108.728C73.0925 109.946 78.4285 106.584 79.6464 101.22Z" fill="#1D5BA4"/>
<path opacity="0.6" d="M79.6464 101.22C80.8642 95.8552 77.5026 90.5191 72.138 89.3013C66.7735 88.0835 61.4374 91.4451 60.2196 96.8096C59.0018 102.174 62.3634 107.51 67.7279 108.728C73.0925 109.946 78.4285 106.584 79.6464 101.22Z" fill="white"/>
<path d="M79.647 128.719C80.8648 123.354 77.5032 118.018 72.1386 116.8C66.7741 115.582 61.438 118.944 60.2202 124.308C59.0024 129.673 62.364 135.009 67.7285 136.227C73.0931 137.445 78.4292 134.083 79.647 128.719Z" fill="#1D5BA4"/>
<path opacity="0.6" d="M79.647 128.719C80.8648 123.354 77.5032 118.018 72.1386 116.8C66.7741 115.582 61.438 118.944 60.2202 124.308C59.0024 129.673 62.364 135.009 67.7285 136.227C73.0931 137.445 78.4292 134.083 79.647 128.719Z" fill="white"/>
<path d="M52.151 46.2276C53.3688 40.863 50.0072 35.5269 44.6426 34.3091C39.2781 33.0913 33.942 36.4529 32.7242 41.8175C31.5064 47.182 34.868 52.5181 40.2326 53.7359C45.5971 54.9537 50.9332 51.5921 52.151 46.2276Z" fill="#1D5BA4"/>
<path opacity="0.6" d="M52.151 46.2276C53.3688 40.863 50.0072 35.5269 44.6426 34.3091C39.2781 33.0913 33.942 36.4529 32.7242 41.8175C31.5064 47.182 34.868 52.5181 40.2326 53.7359C45.5971 54.9537 50.9332 51.5921 52.151 46.2276Z" fill="#DD5A5A"/>
<path d="M52.1555 73.7264C53.3733 68.3618 50.0117 63.0258 44.6472 61.8079C39.2826 60.5901 33.9465 63.9517 32.7287 69.3163C31.5109 74.6808 34.8725 80.0169 40.2371 81.2347C45.6016 82.4525 50.9377 79.0909 52.1555 73.7264Z" fill="#1D5BA4"/>
<path opacity="0.6" d="M52.1555 73.7264C53.3733 68.3618 50.0117 63.0258 44.6472 61.8079C39.2826 60.5901 33.9465 63.9517 32.7287 69.3163C31.5109 74.6808 34.8725 80.0169 40.2371 81.2347C45.6016 82.4525 50.9377 79.0909 52.1555 73.7264Z" fill="#1D5BA4"/>
<path d="M52.1523 101.22C53.3701 95.8558 50.0085 90.5198 44.644 89.302C39.2794 88.0841 33.9434 91.4457 32.7256 96.8103C31.5077 102.175 34.8693 107.511 40.2339 108.729C45.5985 109.947 50.9345 106.585 52.1523 101.22Z" fill="#1D5BA4"/>
<path opacity="0.6" d="M52.1523 101.22C53.3701 95.8558 50.0086 90.5198 44.644 89.302C39.2794 88.0841 33.9434 91.4457 32.7256 96.8103C31.5077 102.175 34.8693 107.511 40.2339 108.729C45.5985 109.947 50.9345 106.585 52.1523 101.22Z" fill="#E38F2D"/>
<path d="M52.1529 128.715C53.3708 123.351 50.0092 118.015 44.6446 116.797C39.28 115.579 33.944 118.941 32.7262 124.305C31.5084 129.67 34.87 135.006 40.2345 136.224C45.5991 137.441 50.9351 134.08 52.1529 128.715Z" fill="#1D5BA4"/>
<path opacity="0.6" d="M52.1529 128.715C53.3708 123.351 50.0092 118.015 44.6446 116.797C39.28 115.579 33.944 118.941 32.7262 124.305C31.5084 129.67 34.87 135.006 40.2345 136.224C45.5991 137.441 50.9351 134.08 52.1529 128.715Z" fill="white"/>
<path d="M105.62 74.4538L103.528 72.2886L101.297 75.1677C101.297 75.1677 102.997 76.8052 105.018 76.3318L105.62 74.4538Z" fill="#9F5B53"/>
<path d="M100.653 71.1012L99.6984 74.12L101.297 75.1677L103.528 72.2885L100.653 71.1012Z" fill="#9F5B53"/>
<path d="M72.1721 71.2641C72.3451 70.7502 72.6273 70.2799 72.9993 69.8854C73.3714 69.4909 73.8244 69.1817 74.3273 68.9789C74.8301 68.7762 75.371 68.6847 75.9125 68.7107C76.4541 68.7368 76.9837 68.8799 77.4647 69.13L75.1366 67.9194C74.2748 67.4839 73.6085 66.7398 73.2706 65.8352C72.9326 64.9306 72.9477 63.932 73.3129 63.0381C73.5196 62.5668 73.8207 62.1429 74.1976 61.7926C74.5745 61.4423 75.0193 61.173 75.5044 61.0014C75.9895 60.8297 76.5047 60.7594 77.018 60.7947C77.5314 60.83 78.0321 60.9702 78.4891 61.2066L76.161 59.9998C75.2982 59.5643 74.6313 58.8195 74.2933 57.9141C73.9553 57.0086 73.971 56.009 74.3373 55.1146C74.5435 54.6392 74.8457 54.2116 75.2251 53.8585C75.6044 53.5055 76.0526 53.2346 76.5416 53.063C77.0305 52.8914 77.5497 52.8227 78.0665 52.8613C78.5832 52.8998 79.0865 53.0448 79.5445 53.2871L68.4898 47.5055C67.6764 47.099 67.0345 46.4161 66.679 45.5792C66.3234 44.7423 66.2776 43.8061 66.5497 42.9385C66.7237 42.4249 67.0066 41.9549 67.3791 41.5608C67.7516 41.1667 68.2048 40.8578 68.7078 40.6551C69.2108 40.4524 69.7517 40.3608 70.2933 40.3866C70.835 40.4124 71.3647 40.5549 71.8462 40.8044L95.1275 52.9766L92.7373 43.1674C92.5018 42.182 92.6491 41.1439 93.1493 40.2627C93.6495 39.3816 94.4654 38.7231 95.4323 38.4202C96.3991 38.1173 97.4449 38.1925 98.3585 38.6307C99.272 39.0689 99.9853 39.8374 100.354 40.7811L107.99 60.6168C108.644 62.3122 109.892 63.7119 111.502 64.5552L112.833 65.2498C113.037 65.3561 113.218 65.5017 113.365 65.6782C113.513 65.8546 113.624 66.0585 113.693 66.2781C113.761 66.4977 113.786 66.7286 113.765 66.9577C113.744 67.1867 113.678 67.4094 113.57 67.6128L104.258 85.4037C104.042 85.8148 103.672 86.1236 103.229 86.2626C102.786 86.4015 102.306 86.3591 101.895 86.1448L98.6275 84.4375C97.39 83.8024 96.0032 83.5154 94.6153 83.6071C91.2596 83.7946 87.9157 83.0706 84.9381 81.5118L74.0734 75.8311C73.2671 75.4182 72.6335 74.7326 72.2853 73.8963C71.9372 73.06 71.8971 72.1272 72.1721 71.2641Z" fill="#1D5BA4"/>
<path d="M102.725 86.917C102.349 86.9173 101.979 86.8268 101.646 86.6531L98.3791 84.9458C97.2344 84.3597 95.9533 84.0917 94.6696 84.1698C91.2093 84.3638 87.7609 83.6184 84.6897 82.0124L73.8251 76.3317C72.8944 75.8555 72.1626 75.0648 71.7598 74.1C71.357 73.1353 71.3092 72.059 71.625 71.0624C71.8244 70.4678 72.1508 69.9238 72.5817 69.4681C73.0126 69.0124 73.5375 68.6561 74.12 68.4238C74.2778 68.3585 74.4398 68.3041 74.605 68.2608C73.6979 67.7171 73.0163 66.8655 72.6844 65.8613C72.3525 64.857 72.3924 63.767 72.7968 62.7897C73.0314 62.242 73.378 61.7495 73.8144 61.3439C74.2508 60.9382 74.7673 60.6284 75.3306 60.4344C75.4354 60.3995 75.5401 60.3646 75.6449 60.3374C74.7372 59.7942 74.055 58.9427 73.7231 57.9382C73.3911 56.9338 73.4315 55.8435 73.8367 54.8663C74.0717 54.3193 74.4186 53.8276 74.8549 53.4226C75.2913 53.0177 75.8075 52.7085 76.3705 52.5149C76.4675 52.48 76.5684 52.4489 76.6654 52.4218L68.222 48.0061C67.2913 47.5299 66.5596 46.7392 66.1568 45.7744C65.754 44.8097 65.7062 43.7334 66.022 42.7367C66.2229 42.1438 66.5496 41.6012 66.9797 41.1462C67.4097 40.6912 67.933 40.3345 68.5138 40.1005C69.0945 39.8665 69.7189 39.7608 70.3443 39.7905C70.9697 39.8203 71.5813 39.9848 72.1372 40.2728L94.2894 51.8669L92.1979 43.3032C91.9297 42.1746 92.0998 40.9862 92.674 39.9782C93.2482 38.9702 94.1836 38.2177 95.2912 37.8728C96.3988 37.5279 97.5961 37.6163 98.6411 38.1201C99.686 38.624 100.501 39.5057 100.921 40.5871L108.557 60.4228C109.16 61.9866 110.312 63.2776 111.797 64.0547L113.124 64.7492C113.396 64.8908 113.637 65.0846 113.833 65.3195C114.03 65.5544 114.178 65.8258 114.27 66.1181C114.361 66.4104 114.394 66.718 114.367 67.0231C114.339 67.3282 114.252 67.6249 114.11 67.8961L104.797 85.6908C104.596 86.0646 104.297 86.3764 103.932 86.5925C103.567 86.8086 103.149 86.9208 102.725 86.917ZM95.1081 83.0018C96.4331 82.9946 97.7403 83.3074 98.9185 83.9137L102.186 85.621C102.322 85.6931 102.47 85.7375 102.624 85.7518C102.777 85.766 102.931 85.7498 103.078 85.7039C103.225 85.6581 103.361 85.5836 103.479 85.4848C103.597 85.386 103.694 85.2648 103.765 85.1282L113.077 67.3335C113.149 67.1975 113.193 67.0488 113.206 66.8959C113.22 66.743 113.203 66.5889 113.157 66.4424C113.111 66.296 113.036 66.1601 112.937 66.0427C112.838 65.9253 112.717 65.8285 112.581 65.7581L111.254 65.0635C109.523 64.1563 108.183 62.6501 107.482 60.8263L99.842 40.9906C99.5352 40.1737 98.9273 39.5052 98.1431 39.1225C97.3589 38.7397 96.458 38.6717 95.6252 38.9324C94.7924 39.1931 94.0911 39.7627 93.6651 40.5243C93.2392 41.286 93.121 42.1817 93.3348 43.0278L95.7328 52.8408C95.7594 52.9491 95.7542 53.0627 95.7177 53.168C95.6812 53.2734 95.615 53.3659 95.5272 53.4345C95.4395 53.5046 95.3333 53.5474 95.2216 53.5577C95.1099 53.5681 94.9976 53.5455 94.8986 53.4927L71.6172 41.3205C71.2115 41.1095 70.7649 40.9888 70.3081 40.9667C69.8513 40.9446 69.3952 41.0216 68.9709 41.1924C68.5413 41.3598 68.1544 41.6207 67.8383 41.9563C67.5222 42.2919 67.2848 42.6937 67.1433 43.1325C66.9116 43.8684 66.949 44.6627 67.249 45.3736C67.549 46.0844 68.0919 46.6654 68.7808 47.0127L79.8394 52.7943C79.9763 52.8658 80.0792 52.9888 80.1254 53.1361C80.1716 53.2835 80.1574 53.4431 80.0858 53.58C80.0504 53.6478 80.002 53.7079 79.9433 53.757C79.8847 53.806 79.8169 53.8431 79.744 53.8659C79.5966 53.9122 79.437 53.8979 79.3001 53.8264C78.9141 53.6261 78.491 53.5072 78.0571 53.4772C77.6233 53.4471 77.1879 53.5066 76.7779 53.6518C76.3663 53.7936 75.9887 54.0197 75.6693 54.3157C75.35 54.6117 75.0958 54.971 74.9232 55.3707C74.6143 56.129 74.6026 56.9759 74.8902 57.7425C75.1779 58.5091 75.7438 59.1391 76.4753 59.5071L78.8034 60.7177C78.9286 60.7952 79.0198 60.9172 79.0586 61.0592C79.0974 61.2012 79.0809 61.3526 79.0126 61.483C78.9442 61.6133 78.8289 61.7129 78.6901 61.7617C78.5512 61.8105 78.399 61.8049 78.2641 61.7459C77.8785 61.5464 77.4561 61.4279 77.023 61.3979C76.5899 61.3678 76.1552 61.4269 75.7458 61.5713C75.334 61.714 74.9564 61.9409 74.6371 62.2375C74.3177 62.5341 74.0637 62.894 73.891 63.2942C73.5833 64.052 73.5721 64.8979 73.8597 65.6636C74.1473 66.4293 74.7126 67.0587 75.4431 67.4266L77.7713 68.6372C77.9081 68.7087 78.011 68.8317 78.0572 68.9791C78.1034 69.1264 78.0892 69.2861 78.0177 69.423C77.9461 69.5598 77.8232 69.6627 77.6758 69.7089C77.5285 69.7551 77.3688 69.7409 77.2319 69.6694C76.8256 69.46 76.3789 69.3406 75.9223 69.3191C75.4657 69.2977 75.0098 69.3748 74.5856 69.5452C74.1576 69.7145 73.7722 69.9761 73.457 70.3115C73.1417 70.6468 72.9044 71.0476 72.7619 71.4853C72.5293 72.2212 72.5664 73.0158 72.8664 73.7268C73.1665 74.4378 73.7099 75.0188 74.3994 75.3655L85.264 81.0462C88.1427 82.5343 91.3684 83.2218 94.6037 83.0367C94.7744 83.0367 94.9413 83.0096 95.1081 83.0096V83.0018Z" fill="#1D5BA4"/>
<path d="M80.371 71.2292C80.2765 71.2299 80.1831 71.2073 80.0994 71.1632L77.2164 69.6461C77.1486 69.6107 77.0885 69.5622 77.0395 69.5036C76.9904 69.4449 76.9534 69.3772 76.9305 69.3042C76.9076 69.2313 76.8993 69.1545 76.9061 69.0783C76.9129 69.0022 76.9346 68.9281 76.97 68.8603C77.0054 68.7926 77.0539 68.7324 77.1125 68.6834C77.1712 68.6343 77.2389 68.5973 77.3119 68.5744C77.3848 68.5515 77.4616 68.5432 77.5377 68.55C77.6139 68.5568 77.688 68.5785 77.7558 68.6139L80.6543 70.1311C80.7697 70.1913 80.8616 70.2884 80.9153 70.4069C80.969 70.5255 80.9815 70.6586 80.9506 70.785C80.9198 70.9115 80.8475 71.0239 80.7452 71.1045C80.643 71.185 80.5167 71.2289 80.3866 71.2292H80.371Z" fill="#1D5BA4"/>
<path d="M81.411 63.3059C81.3163 63.3071 81.2229 63.2844 81.1393 63.2399L78.2408 61.7228C78.1676 61.6908 78.1017 61.644 78.0473 61.5855C77.993 61.5269 77.9512 61.4578 77.9247 61.3824C77.8983 61.307 77.8876 61.2269 77.8934 61.1472C77.8992 61.0675 77.9213 60.9898 77.9584 60.9191C77.9956 60.8483 78.0469 60.7859 78.1091 60.7358C78.1714 60.6858 78.2433 60.6491 78.3204 60.628C78.3975 60.6069 78.4781 60.6019 78.5572 60.6134C78.6363 60.6248 78.7122 60.6524 78.7802 60.6945L81.6787 62.2078C81.7941 62.268 81.886 62.3651 81.9397 62.4836C81.9934 62.6022 82.0058 62.7353 81.975 62.8617C81.9442 62.9882 81.8719 63.1006 81.7696 63.1811C81.6674 63.2617 81.5411 63.3056 81.411 63.3059Z" fill="#1D5BA4"/>
<path d="M82.4469 55.3863C82.3538 55.3852 82.2621 55.3626 82.1791 55.3203L79.2806 53.8032C79.2129 53.7678 79.1527 53.7193 79.1037 53.6607C79.0546 53.602 79.0176 53.5343 78.9947 53.4613C78.9718 53.3884 78.9635 53.3116 78.9703 53.2354C78.9771 53.1593 78.9988 53.0852 79.0342 53.0174C79.0696 52.9497 79.1181 52.8895 79.1767 52.8405C79.2354 52.7914 79.3031 52.7544 79.3761 52.7315C79.449 52.7086 79.5258 52.7003 79.602 52.7071C79.6781 52.7139 79.7522 52.7356 79.82 52.771L82.7185 54.2882C82.8342 54.3485 82.9263 54.446 82.9799 54.5649C83.0336 54.6839 83.0457 54.8174 83.0144 54.944C82.9831 55.0707 82.9101 55.1831 82.8072 55.2634C82.7042 55.3436 82.5774 55.3869 82.4469 55.3863Z" fill="#1D5BA4"/>
<path opacity="0.3" d="M102.725 86.917C102.349 86.9173 101.979 86.8268 101.646 86.6531L98.3791 84.9458C97.2344 84.3597 95.9533 84.0917 94.6696 84.1698C91.2093 84.3638 87.7609 83.6184 84.6897 82.0124L73.8251 76.3317C72.8944 75.8555 72.1626 75.0648 71.7598 74.1C71.357 73.1353 71.3092 72.059 71.625 71.0624C71.8244 70.4678 72.1508 69.9238 72.5817 69.4681C73.0126 69.0124 73.5375 68.6561 74.12 68.4238C74.2778 68.3585 74.4398 68.3041 74.605 68.2608C73.6979 67.7171 73.0163 66.8655 72.6844 65.8613C72.3525 64.857 72.3924 63.767 72.7968 62.7897C73.0314 62.242 73.378 61.7495 73.8144 61.3439C74.2508 60.9382 74.7673 60.6284 75.3306 60.4344C75.4354 60.3995 75.5401 60.3646 75.6449 60.3374C74.7372 59.7942 74.055 58.9427 73.7231 57.9382C73.3911 56.9338 73.4315 55.8435 73.8367 54.8663C74.0717 54.3193 74.4186 53.8276 74.8549 53.4226C75.2913 53.0177 75.8075 52.7085 76.3705 52.5149C76.4675 52.48 76.5684 52.4489 76.6654 52.4218L68.222 48.0061C67.2913 47.5299 66.5596 46.7392 66.1568 45.7744C65.754 44.8097 65.7062 43.7334 66.022 42.7367C66.2229 42.1438 66.5496 41.6012 66.9797 41.1462C67.4097 40.6912 67.933 40.3345 68.5138 40.1005C69.0945 39.8665 69.7189 39.7608 70.3443 39.7905C70.9697 39.8203 71.5813 39.9848 72.1372 40.2728L94.2894 51.8669L92.1979 43.3032C91.9297 42.1746 92.0998 40.9862 92.674 39.9782C93.2482 38.9702 94.1836 38.2177 95.2912 37.8728C96.3988 37.5279 97.5961 37.6163 98.6411 38.1201C99.686 38.624 100.501 39.5057 100.921 40.5871L108.557 60.4228C109.16 61.9866 110.312 63.2776 111.797 64.0547L113.124 64.7492C113.396 64.8908 113.637 65.0846 113.833 65.3195C114.03 65.5544 114.178 65.8258 114.27 66.1181C114.361 66.4104 114.394 66.718 114.367 67.0231C114.339 67.3282 114.252 67.6249 114.11 67.8961L104.797 85.6908C104.596 86.0646 104.297 86.3764 103.932 86.5925C103.567 86.8086 103.149 86.9208 102.725 86.917ZM95.1081 83.0018C96.4331 82.9946 97.7403 83.3074 98.9185 83.9137L102.186 85.621C102.322 85.6931 102.47 85.7375 102.624 85.7518C102.777 85.766 102.931 85.7498 103.078 85.7039C103.225 85.6581 103.361 85.5836 103.479 85.4848C103.597 85.386 103.694 85.2648 103.765 85.1282L113.077 67.3335C113.149 67.1975 113.193 67.0488 113.206 66.8959C113.22 66.743 113.203 66.5889 113.157 66.4424C113.111 66.296 113.036 66.1601 112.937 66.0427C112.838 65.9253 112.717 65.8285 112.581 65.7581L111.254 65.0635C109.523 64.1563 108.183 62.6501 107.482 60.8263L99.842 40.9906C99.5352 40.1737 98.9273 39.5052 98.1431 39.1225C97.3589 38.7397 96.458 38.6717 95.6252 38.9324C94.7924 39.1931 94.0911 39.7627 93.6651 40.5243C93.2392 41.286 93.121 42.1817 93.3348 43.0278L95.7328 52.8408C95.7594 52.9491 95.7542 53.0627 95.7177 53.168C95.6812 53.2734 95.615 53.3659 95.5272 53.4345C95.4395 53.5046 95.3333 53.5474 95.2216 53.5577C95.1099 53.5681 94.9976 53.5455 94.8986 53.4927L71.6172 41.3205C71.2115 41.1095 70.7649 40.9888 70.3081 40.9667C69.8513 40.9446 69.3952 41.0216 68.9709 41.1924C68.5413 41.3598 68.1544 41.6207 67.8383 41.9563C67.5222 42.2919 67.2848 42.6937 67.1433 43.1325C66.9116 43.8684 66.949 44.6627 67.249 45.3736C67.549 46.0844 68.0919 46.6654 68.7808 47.0127L79.8394 52.7943C79.9763 52.8658 80.0792 52.9888 80.1254 53.1361C80.1716 53.2835 80.1574 53.4431 80.0858 53.58C80.0504 53.6478 80.002 53.7079 79.9433 53.757C79.8847 53.806 79.8169 53.8431 79.744 53.8659C79.5966 53.9122 79.437 53.8979 79.3001 53.8264C78.9141 53.6261 78.491 53.5072 78.0571 53.4772C77.6233 53.4471 77.1879 53.5066 76.7779 53.6518C76.3663 53.7936 75.9887 54.0197 75.6693 54.3157C75.35 54.6117 75.0958 54.971 74.9232 55.3707C74.6143 56.129 74.6026 56.9759 74.8902 57.7425C75.1779 58.5091 75.7438 59.1391 76.4753 59.5071L78.8034 60.7177C78.9286 60.7952 79.0198 60.9172 79.0586 61.0592C79.0974 61.2012 79.0809 61.3526 79.0126 61.483C78.9442 61.6133 78.8289 61.7129 78.6901 61.7617C78.5512 61.8105 78.399 61.8049 78.2641 61.7459C77.8785 61.5464 77.4561 61.4279 77.023 61.3979C76.5899 61.3678 76.1552 61.4269 75.7458 61.5713C75.334 61.714 74.9564 61.9409 74.6371 62.2375C74.3177 62.5341 74.0637 62.894 73.891 63.2942C73.5833 64.052 73.5721 64.8979 73.8597 65.6636C74.1473 66.4293 74.7126 67.0587 75.4431 67.4266L77.7713 68.6372C77.9081 68.7087 78.011 68.8317 78.0572 68.9791C78.1034 69.1264 78.0892 69.2861 78.0177 69.423C77.9461 69.5598 77.8232 69.6627 77.6758 69.7089C77.5285 69.7551 77.3688 69.7409 77.2319 69.6694C76.8256 69.46 76.3789 69.3406 75.9223 69.3191C75.4657 69.2977 75.0098 69.3748 74.5856 69.5452C74.1576 69.7145 73.7722 69.9761 73.457 70.3115C73.1417 70.6468 72.9044 71.0476 72.7619 71.4853C72.5293 72.2212 72.5664 73.0158 72.8664 73.7268C73.1665 74.4378 73.7099 75.0188 74.3994 75.3655L85.264 81.0462C88.1427 82.5343 91.3684 83.2218 94.6037 83.0367C94.7744 83.0367 94.9413 83.0096 95.1081 83.0096V83.0018Z" fill="black"/>
</g>
<defs>
<clipPath id="clip0_140_632">
<rect width="194.011" height="194.011" fill="white"/>
</clipPath>
</defs>
</svg>
