<svg width="16" height="16" viewBox="0 0 16 16" fill="none" xmlns="http://www.w3.org/2000/svg">
<path fill-rule="evenodd" clip-rule="evenodd" d="M7.33334 1.33331C8.43791 1.33331 9.33334 2.22874 9.33334 3.33331L9.3334 4.11376C9.5419 4.04007 9.76627 3.99998 10 3.99998H12.6667C13.7712 3.99998 14.6667 4.89541 14.6667 5.99998V12.6666C14.6667 13.7712 13.7712 14.6666 12.6667 14.6666H3.33334C2.22877 14.6666 1.33334 13.7712 1.33334 12.6666V3.33331C1.33334 2.22874 2.22877 1.33331 3.33334 1.33331H7.33334ZM7.33334 2.66665H3.33334C2.96515 2.66665 2.66668 2.96512 2.66668 3.33331V12.6666C2.66668 13.0348 2.96515 13.3333 3.33334 13.3333H8.00001V3.33331C8.00001 2.96512 7.70153 2.66665 7.33334 2.66665ZM12.6667 5.33331H10C9.63182 5.33331 9.33334 5.63179 9.33334 5.99998V13.3333H12.6667C13.0349 13.3333 13.3333 13.0348 13.3333 12.6666V5.99998C13.3333 5.63179 13.0349 5.33331 12.6667 5.33331ZM6.00001 9.33331C6.3682 9.33331 6.66668 9.63179 6.66668 9.99998C6.66668 10.3682 6.3682 10.6666 6.00001 10.6666H4.66668C4.29849 10.6666 4.00001 10.3682 4.00001 9.99998C4.00001 9.63179 4.29849 9.33331 4.66668 9.33331H6.00001ZM12 9.33331C12.3682 9.33331 12.6667 9.63179 12.6667 9.99998C12.6667 10.3682 12.3682 10.6666 12 10.6666H10.6667C10.2985 10.6666 10 10.3682 10 9.99998C10 9.63179 10.2985 9.33331 10.6667 9.33331H12ZM6.00001 6.66665C6.3682 6.66665 6.66668 6.96512 6.66668 7.33331C6.66668 7.7015 6.3682 7.99998 6.00001 7.99998H4.66668C4.29849 7.99998 4.00001 7.7015 4.00001 7.33331C4.00001 6.96512 4.29849 6.66665 4.66668 6.66665H6.00001ZM12 6.66665C12.3682 6.66665 12.6667 6.96512 12.6667 7.33331C12.6667 7.7015 12.3682 7.99998 12 7.99998H10.6667C10.2985 7.99998 10 7.7015 10 7.33331C10 6.96512 10.2985 6.66665 10.6667 6.66665H12ZM6.00001 3.99998C6.3682 3.99998 6.66668 4.29846 6.66668 4.66665C6.66668 5.03484 6.3682 5.33331 6.00001 5.33331H4.66668C4.29849 5.33331 4.00001 5.03484 4.00001 4.66665C4.00001 4.29846 4.29849 3.99998 4.66668 3.99998H6.00001Z" fill="#0F325B"/>
</svg>
