<svg width="20" height="20" viewBox="0 0 20 20" fill="none" xmlns="http://www.w3.org/2000/svg">
<g clip-path="url(#clip0_728_120)">
<path d="M6.25 8.75H5V11.25H6.25V8.75Z" fill="#15416F"/>
<path d="M10 8.75H8.75V11.25H10V8.75Z" fill="#15416F"/>
<path d="M6.25 12.5H5V15H6.25V12.5Z" fill="#15416F"/>
<path d="M10 12.5H8.75V15H10V12.5Z" fill="#15416F"/>
<path d="M18.75 8.75H13.6437L15.2562 10.3688L14.375 11.25L11.25 8.125L14.375 5L15.2562 5.88125L13.6437 7.5H18.75V8.75Z" fill="#15416F"/>
<path fill-rule="evenodd" clip-rule="evenodd" d="M17.5 17.5V12.5H18.75V18.75H1.25V2.5C1.25 2.16848 1.3817 1.85054 1.61612 1.61612C1.85054 1.3817 2.16848 1.25 2.5 1.25H12.5C12.8315 1.25 13.1495 1.3817 13.3839 1.61612C13.6183 1.85054 13.75 2.16848 13.75 2.5V3.75H12.5V2.5H2.5V17.5H12.5V12.5H13.75V17.5H17.5ZM5.13871 6.11044V5.47612H6.29567V4.86414H4.37484V8H6.29567V7.38802H5.13871V6.70009H6.16166V6.11044H5.13871ZM7.30976 7.91959C7.49142 7.99404 7.6969 8.03127 7.92621 8.03127C8.16147 8.03127 8.36547 7.98809 8.53819 7.90173C8.71092 7.81536 8.84195 7.69922 8.93129 7.5533C9.02361 7.40737 9.06977 7.24507 9.06977 7.06639C9.06977 6.87877 9.02361 6.72541 8.93129 6.60628C8.83897 6.48716 8.72878 6.39633 8.60073 6.3338C8.47565 6.27126 8.31186 6.20574 8.10936 6.13725C7.90685 6.07173 7.75795 6.01068 7.66265 5.9541C7.56735 5.89751 7.51971 5.8186 7.51971 5.71734C7.51971 5.62503 7.548 5.55504 7.60458 5.50739C7.66116 5.45677 7.73561 5.43145 7.82793 5.43145C7.93514 5.43145 8.02299 5.46123 8.09149 5.52079C8.15998 5.57738 8.19721 5.65629 8.20316 5.75755H9.02956C9.01467 5.46272 8.90151 5.23342 8.69007 5.06962C8.47863 4.90285 8.20019 4.81947 7.85473 4.81947C7.51524 4.81947 7.23977 4.90285 7.02833 5.06962C6.81689 5.23342 6.71117 5.46123 6.71117 5.75308C6.71117 5.94963 6.75733 6.10895 6.84965 6.23105C6.94197 6.35315 7.05216 6.44547 7.18021 6.50801C7.30827 6.57055 7.47355 6.63309 7.67605 6.69563C7.81602 6.73732 7.92323 6.77454 7.99768 6.8073C8.07511 6.84006 8.13914 6.88175 8.18976 6.93238C8.24337 6.983 8.27017 7.04703 8.27017 7.12446C8.27017 7.21678 8.23741 7.28974 8.17189 7.34335C8.10638 7.39397 8.01704 7.41929 7.90387 7.41929C7.79368 7.41929 7.70434 7.3895 7.63585 7.32994C7.56735 7.26741 7.52715 7.17807 7.51524 7.06192H6.70224C6.70819 7.26741 6.76478 7.44311 6.87199 7.58903C6.98217 7.73496 7.1281 7.84514 7.30976 7.91959ZM11.7957 5.47612V4.86414H9.37011V5.47612H10.201V8H10.9648V5.47612H11.7957Z" fill="#15416F"/>
</g>
<defs>
<clipPath id="clip0_728_120">
<rect width="20" height="20" fill="white"/>
</clipPath>
</defs>
</svg>
