<svg width="16" height="16" viewBox="0 0 16 16" fill="none" xmlns="http://www.w3.org/2000/svg">
<path d="M9.47418 10.5849L8.33355 9.45381C7.80932 8.93397 7.54718 8.67401 7.24538 8.57651C6.97992 8.4907 6.69419 8.4907 6.42867 8.57651C6.1269 8.67401 5.86476 8.93397 5.34051 9.45381L2.68459 12.1288M9.47418 10.5849L9.70086 10.3601C10.2362 9.82926 10.5038 9.56386 10.8109 9.46702C11.0809 9.38181 11.3711 9.38513 11.6392 9.47652C11.9439 9.58046 12.2054 9.85191 12.7283 10.3949L13.2834 10.9585M9.47418 10.5849L12.1012 13.2583M2.68459 12.1288C2.70498 12.3017 2.74031 12.4376 2.80152 12.5577C2.92887 12.8076 3.13208 13.0109 3.38202 13.1382C3.66616 13.283 4.03813 13.283 4.78206 13.283H11.158C11.5707 13.283 11.8689 13.283 12.1012 13.2583M2.68459 12.1288C2.65674 11.8926 2.65674 11.5871 2.65674 11.1577V4.78168C2.65674 4.03775 2.65674 3.66578 2.80152 3.38163C2.92887 3.13169 3.13208 2.92848 3.38202 2.80113C3.66616 2.65635 4.03813 2.65635 4.78206 2.65635H7.30589M12.1012 13.2583C12.2876 13.2384 12.4316 13.2027 12.5581 13.1382C12.808 13.0109 13.0113 12.8076 13.1386 12.5577C13.2834 12.2736 13.2834 11.9016 13.2834 11.1577V8.63383M11.955 5.97717V3.98468M11.955 3.98468V1.99219M11.955 3.98468H13.9475M11.955 3.98468H9.96254" stroke="#1D5BA4" stroke-width="1.32833" stroke-linecap="round" stroke-linejoin="round"/>
</svg>
