<svg width="60" height="60" viewBox="0 0 60 60" fill="none" xmlns="http://www.w3.org/2000/svg">
<ellipse cx="29.4554" cy="32.9232" rx="28.3662" ry="27.0768" fill="#1C2D46"/>
<ellipse cx="29.8209" cy="28.3662" rx="29.8209" ry="28.3662" fill="#1D5BA4"/>
<path d="M19.0436 11.8341C23.1731 9.14483 28.3384 8.18721 33.1787 9.01397C36.7911 9.67212 40.1887 11.4009 42.8952 13.8764C45.7109 16.4771 47.7393 19.9375 48.5351 23.6954C49.0267 25.7585 49.0991 27.9006 48.9569 30.0098C48.9353 30.5852 48.4823 31.1651 47.8674 31.1284C42.7182 31.1303 37.5689 31.1256 32.4196 31.1275C28.4928 31.1181 24.5659 31.1473 20.6389 31.1115C20.9695 32.6595 21.6899 34.1425 22.7946 35.2866C23.8493 36.4108 25.3145 37.1839 26.8664 37.2657C28.151 37.3374 29.4382 37.2874 30.7246 37.2969C31.6362 37.2884 32.5525 37.3392 33.4612 37.2357C34.1486 37.1367 34.8079 36.8872 35.4171 36.5577C36.2194 36.1123 36.858 35.4381 37.455 34.7517C37.7498 34.3949 38.2856 34.2141 38.7178 34.4222C39.2461 34.6444 39.6737 35.0399 40.1389 35.3656C40.4976 35.6613 40.9478 35.9824 40.9779 36.4898C40.9723 37.0313 40.6116 37.4692 40.2952 37.874C39.1001 39.3401 37.47 40.4804 35.6299 40.9616C34.0017 41.4202 32.2981 41.2921 30.6286 41.3034C29.4043 41.3081 28.1811 41.3006 26.9568 41.3024C25.0517 41.326 23.1712 40.7214 21.5553 39.7328C20.1878 38.873 19.0522 37.6876 18.1443 36.3599C17.1877 34.9278 16.5933 33.2838 16.2421 31.6059C15.8852 29.7094 15.8645 27.7613 16.065 25.8461C16.3043 24.0203 16.7949 22.1974 17.7366 20.6013C18.7188 18.8857 20.152 17.414 21.8876 16.4574C22.9112 15.9112 24.0149 15.5223 25.1516 15.2917C26.3645 15.0609 27.6047 15.1344 28.8328 15.123C30.2462 15.1279 31.6607 15.1137 33.0742 15.1307C34.7467 15.1608 36.4049 15.6278 37.8552 16.4593C39.216 17.2107 40.3375 18.3368 41.2434 19.5892C41.9459 20.6606 42.6107 21.8207 42.7595 23.1164C42.8273 23.5636 42.6719 24.0787 42.2633 24.3159C41.7576 24.5871 41.1634 24.5147 40.6125 24.5287C40.2387 24.509 39.8422 24.5899 39.4881 24.4402C39.0426 24.2021 38.909 23.6738 38.698 23.2529C37.6895 21.0213 35.4717 19.3 32.9838 19.1899C31.1606 19.1579 29.3365 19.1899 27.5124 19.1804C26.0255 19.1437 24.5234 19.6409 23.3755 20.5919C22.8067 21.0486 22.3105 21.5928 21.8801 22.1804C21.1814 23.2604 20.7067 24.4845 20.5316 25.7613C20.412 26.3846 20.4619 27.0212 20.427 27.6511C25.9295 27.6549 31.4317 27.652 36.9342 27.6539C39.8262 27.6398 42.72 27.6728 45.612 27.6398C45.6233 25.4317 45.1759 23.2115 44.2569 21.2002C42.8368 18.027 40.2565 15.4414 37.1951 13.8285C35.5715 12.9884 33.8105 12.4038 32.0016 12.1317C30.4525 11.9263 28.8751 11.9254 27.326 12.1251C25.3371 12.4179 23.4009 13.0629 21.6418 14.0355C20.1107 14.9282 18.7254 16.0647 17.5209 17.3632C15.4765 19.6964 14.0828 22.6107 13.6449 25.6889C13.207 28.9148 13.6091 32.2894 15.0349 35.2357C16.5896 38.505 19.2679 41.2611 22.5638 42.7855C24.9425 43.9483 27.6197 44.4389 30.2566 44.3645C33.7409 44.2393 37.1989 42.9992 39.8874 40.7619C40.3356 40.3995 40.7632 40.0133 41.1709 39.6057C41.4695 39.3015 41.8791 39.1029 42.3114 39.1113C43.2624 39.02 44.1317 39.9757 43.9546 40.9144C43.8491 41.4606 43.4555 41.8788 43.0609 42.244C40.3497 44.9502 36.7657 46.7421 32.9847 47.3419C27.375 48.3446 21.3791 46.7034 17.019 43.0453C14.0329 40.4569 11.77 36.9871 10.8132 33.1378C9.70951 28.9148 10.0637 24.3273 11.8067 20.3244C13.3464 16.8857 15.8608 13.867 19.0436 11.8341Z" fill="white"/>
<path d="M36.3669 28.3676C36.3669 31.9829 33.4361 34.9136 29.8208 34.9136C26.2055 34.9136 23.2748 31.9829 23.2748 28.3676C23.2748 24.7523 26.2055 21.8215 29.8208 21.8215C33.4361 21.8215 36.3669 24.7523 36.3669 28.3676Z" fill="white"/>
</svg>
