<svg width="16" height="16" viewBox="0 0 16 16" fill="none" xmlns="http://www.w3.org/2000/svg">
<path d="M13.3333 3.33335C13.3333 3.15654 13.263 2.98697 13.138 2.86195C13.013 2.73693 12.8434 2.66669 12.6666 2.66669H9.33325C9.15644 2.66669 8.98687 2.73693 8.86185 2.86195C8.73682 2.98697 8.66659 3.15654 8.66659 3.33335C8.66659 3.51016 8.73682 3.67973 8.86185 3.80476C8.98687 3.92978 9.15644 4.00002 9.33325 4.00002H11.0466L8.85992 6.19335C8.79743 6.25533 8.74784 6.32906 8.71399 6.4103C8.68015 6.49154 8.66272 6.57868 8.66272 6.66669C8.66272 6.75469 8.68015 6.84183 8.71399 6.92307C8.74784 7.00431 8.79743 7.07805 8.85992 7.14002C8.92189 7.20251 8.99563 7.2521 9.07687 7.28595C9.15811 7.31979 9.24524 7.33722 9.33325 7.33722C9.42126 7.33722 9.5084 7.31979 9.58964 7.28595C9.67088 7.2521 9.74461 7.20251 9.80659 7.14002L11.9999 4.94669V6.66669C11.9999 6.8435 12.0702 7.01307 12.1952 7.13809C12.3202 7.26312 12.4898 7.33335 12.6666 7.33335C12.8434 7.33335 13.013 7.26312 13.138 7.13809C13.263 7.01307 13.3333 6.8435 13.3333 6.66669V3.33335Z" fill="#1D5BA4"/>
<path d="M7.13996 8.85998C7.07798 8.79749 7.00425 8.7479 6.92301 8.71405C6.84177 8.68021 6.75463 8.66278 6.66663 8.66278C6.57862 8.66278 6.49148 8.68021 6.41024 8.71405C6.329 8.7479 6.25527 8.79749 6.19329 8.85998L3.99996 11.0466V9.33331C3.99996 9.1565 3.92972 8.98693 3.8047 8.86191C3.67967 8.73688 3.5101 8.66665 3.33329 8.66665C3.15648 8.66665 2.98691 8.73688 2.86189 8.86191C2.73686 8.98693 2.66663 9.1565 2.66663 9.33331V12.6666C2.66663 12.8435 2.73686 13.013 2.86189 13.1381C2.98691 13.2631 3.15648 13.3333 3.33329 13.3333H6.66663C6.84344 13.3333 7.01301 13.2631 7.13803 13.1381C7.26305 13.013 7.33329 12.8435 7.33329 12.6666C7.33329 12.4898 7.26305 12.3203 7.13803 12.1952C7.01301 12.0702 6.84344 12 6.66663 12H4.94663L7.13996 9.80665C7.20245 9.74467 7.25204 9.67094 7.28589 9.5897C7.31973 9.50846 7.33716 9.42132 7.33716 9.33331C7.33716 9.24531 7.31973 9.15817 7.28589 9.07693C7.25204 8.99569 7.20245 8.92195 7.13996 8.85998Z" fill="#1D5BA4"/>
</svg>
