<svg width="21" height="22" viewBox="0 0 21 22" fill="none" xmlns="http://www.w3.org/2000/svg">
<g clip-path="url(#clip0_154_2064)">
<path d="M0 1.99872C0 1.7335 0.105357 1.47915 0.292893 1.29161C0.48043 1.10408 0.734784 0.998718 1 0.998718H13C13.2652 0.998718 13.5196 1.10408 13.7071 1.29161C13.8946 1.47915 14 1.7335 14 1.99872C14 2.26393 13.8946 2.51829 13.7071 2.70583C13.5196 2.89336 13.2652 2.99872 13 2.99872H1C0.734784 2.99872 0.48043 2.89336 0.292893 2.70583C0.105357 2.51829 0 2.26393 0 1.99872ZM11 6.99872H1C0.734784 6.99872 0.48043 7.10408 0.292893 7.29161C0.105357 7.47915 0 7.7335 0 7.99872C0 8.26393 0.105357 8.51829 0.292893 8.70582C0.48043 8.89336 0.734784 8.99872 1 8.99872H11C11.2652 8.99872 11.5196 8.89336 11.7071 8.70582C11.8946 8.51829 12 8.26393 12 7.99872C12 7.7335 11.8946 7.47915 11.7071 7.29161C11.5196 7.10408 11.2652 6.99872 11 6.99872ZM9 12.9987H1C0.734784 12.9987 0.48043 13.1041 0.292893 13.2916C0.105357 13.4791 0 13.7335 0 13.9987C0 14.2639 0.105357 14.5183 0.292893 14.7058C0.48043 14.8934 0.734784 14.9987 1 14.9987H9C9.26522 14.9987 9.51957 14.8934 9.70711 14.7058C9.89464 14.5183 10 14.2639 10 13.9987C10 13.7335 9.89464 13.4791 9.70711 13.2916C9.51957 13.1041 9.26522 12.9987 9 12.9987ZM7 18.9987H1C0.734784 18.9987 0.48043 19.1041 0.292893 19.2916C0.105357 19.4791 0 19.7335 0 19.9987C0 20.2639 0.105357 20.5183 0.292893 20.7058C0.48043 20.8934 0.734784 20.9987 1 20.9987H7C7.26522 20.9987 7.51957 20.8934 7.70711 20.7058C7.89464 20.5183 8 20.2639 8 19.9987C8 19.7335 7.89464 19.4791 7.70711 19.2916C7.51957 19.1041 7.26522 18.9987 7 18.9987ZM19.71 16.2887C19.617 16.195 19.5064 16.1206 19.3846 16.0698C19.2627 16.0191 19.132 15.9929 19 15.9929C18.868 15.9929 18.7373 16.0191 18.6154 16.0698C18.4936 16.1206 18.383 16.195 18.29 16.2887L17 17.5887V1.99872C17 1.7335 16.8946 1.47915 16.7071 1.29161C16.5196 1.10408 16.2652 0.998718 16 0.998718C15.7348 0.998718 15.4804 1.10408 15.2929 1.29161C15.1054 1.47915 15 1.7335 15 1.99872V17.5887L13.71 16.2887C13.6168 16.1955 13.5061 16.1215 13.3842 16.0711C13.2624 16.0206 13.1319 15.9946 13 15.9946C12.8681 15.9946 12.7376 16.0206 12.6158 16.0711C12.4939 16.1215 12.3832 16.1955 12.29 16.2887C12.1968 16.382 12.1228 16.4926 12.0723 16.6145C12.0219 16.7363 11.9959 16.8669 11.9959 16.9987C11.9959 17.1306 12.0219 17.2611 12.0723 17.383C12.1228 17.5048 12.1968 17.6155 12.29 17.7087L15.29 20.7087C15.383 20.8024 15.4936 20.8768 15.6154 20.9276C15.7373 20.9784 15.868 21.0045 16 21.0045C16.132 21.0045 16.2627 20.9784 16.3846 20.9276C16.5064 20.8768 16.617 20.8024 16.71 20.7087L19.71 17.7087C19.8037 17.6158 19.8781 17.5052 19.9289 17.3833C19.9797 17.2614 20.0058 17.1307 20.0058 16.9987C20.0058 16.8667 19.9797 16.736 19.9289 16.6141C19.8781 16.4923 19.8037 16.3817 19.71 16.2887Z" fill="#231F20"/>
</g>
<defs>
<clipPath id="clip0_154_2064">
<rect width="21" height="22" fill="white"/>
</clipPath>
</defs>
</svg>
