<svg width="23" height="22" viewBox="0 0 23 22" fill="none" xmlns="http://www.w3.org/2000/svg">
<g clip-path="url(#clip0_550_418)">
<path d="M10.6732 18.3678L8.52866 19.083V11.3589L4.45764 6.8808C4.15363 6.54633 3.98516 6.11058 3.98511 5.65859V3.63489H18.5245V5.60861C18.5244 6.09058 18.3328 6.55277 17.992 6.89353L13.9809 10.9046M18.7062 18.356L20.3419 19.9917M13.9809 16.3568C13.9809 17.0799 14.2681 17.7733 14.7794 18.2845C15.2906 18.7958 15.984 19.083 16.7071 19.083C17.4301 19.083 18.1235 18.7958 18.6347 18.2845C19.146 17.7733 19.4332 17.0799 19.4332 16.3568C19.4332 15.6338 19.146 14.9404 18.6347 14.4292C18.1235 13.9179 17.4301 13.6307 16.7071 13.6307C15.984 13.6307 15.2906 13.9179 14.7794 14.4292C14.2681 14.9404 13.9809 15.6338 13.9809 16.3568Z" stroke="black" stroke-width="2.72613" stroke-linecap="round" stroke-linejoin="round"/>
</g>
<defs>
<clipPath id="clip0_550_418">
<rect width="21.8091" height="21.8091" fill="white" transform="translate(0.350342)"/>
</clipPath>
</defs>
</svg>
