<svg width="32" height="32" viewBox="0 0 32 32" fill="none" xmlns="http://www.w3.org/2000/svg">
<path fill-rule="evenodd" clip-rule="evenodd" d="M14.4 0C17.051 0 19.2 2.14903 19.2 4.8L19.2001 6.67308C19.7005 6.49623 20.239 6.4 20.8 6.4H27.2C29.851 6.4 32 8.54903 32 11.2V27.2C32 29.851 29.851 32 27.2 32H4.8C2.14903 32 0 29.851 0 27.2V4.8C0 2.14903 2.14903 0 4.8 0H14.4ZM14.4 3.2H4.8C3.91634 3.2 3.2 3.91634 3.2 4.8V27.2C3.2 28.0837 3.91634 28.8 4.8 28.8H16V4.8C16 3.91634 15.2837 3.2 14.4 3.2ZM27.2 9.6H20.8C19.9163 9.6 19.2 10.3163 19.2 11.2V28.8H27.2C28.0837 28.8 28.8 28.0837 28.8 27.2V11.2C28.8 10.3163 28.0837 9.6 27.2 9.6ZM11.2 19.2C12.0837 19.2 12.8 19.9163 12.8 20.8C12.8 21.6837 12.0837 22.4 11.2 22.4H8C7.11634 22.4 6.4 21.6837 6.4 20.8C6.4 19.9163 7.11634 19.2 8 19.2H11.2ZM25.6 19.2C26.4837 19.2 27.2 19.9163 27.2 20.8C27.2 21.6837 26.4837 22.4 25.6 22.4H22.4C21.5163 22.4 20.8 21.6837 20.8 20.8C20.8 19.9163 21.5163 19.2 22.4 19.2H25.6ZM11.2 12.8C12.0837 12.8 12.8 13.5163 12.8 14.4C12.8 15.2837 12.0837 16 11.2 16H8C7.11634 16 6.4 15.2837 6.4 14.4C6.4 13.5163 7.11634 12.8 8 12.8H11.2ZM25.6 12.8C26.4837 12.8 27.2 13.5163 27.2 14.4C27.2 15.2837 26.4837 16 25.6 16H22.4C21.5163 16 20.8 15.2837 20.8 14.4C20.8 13.5163 21.5163 12.8 22.4 12.8H25.6ZM11.2 6.4C12.0837 6.4 12.8 7.11634 12.8 8C12.8 8.88366 12.0837 9.6 11.2 9.6H8C7.11634 9.6 6.4 8.88366 6.4 8C6.4 7.11634 7.11634 6.4 8 6.4H11.2Z" fill="#E38F2D"/>
</svg>
