<svg width="306" height="252" viewBox="0 0 306 252" fill="none" xmlns="http://www.w3.org/2000/svg">
<path d="M43.1973 225.44C-14.3991 190.646 -14.3991 134.229 43.1973 99.462C100.794 64.6946 194.18 64.668 251.796 99.462C309.411 134.256 309.392 190.673 251.796 225.44C194.199 260.207 100.8 260.241 43.1973 225.44Z" fill="#1D5BA4"/>
<path d="M90.5 240C104.031 240 115 233.06 115 224.5C115 215.94 104.031 209 90.5 209C76.969 209 66 215.94 66 224.5C66 233.06 76.969 240 90.5 240Z" fill="#E0E0E0"/>
<path d="M218.932 239.833H206.791V239.929H218.932V239.833Z" fill="#97C2F4"/>
<path d="M175.425 240.877H172.239V240.973H175.425V240.877Z" fill="#97C2F4"/>
<path d="M206.424 236.274H199.389V236.37H206.424V236.274Z" fill="#97C2F4"/>
<path d="M89.0648 236.918H73.2314V237.014H89.0648V236.918Z" fill="#97C2F4"/>
<path d="M94.6516 236.918H92.3311V237.014H94.6516V236.918Z" fill="#97C2F4"/>
<path d="M136.539 238.537H102.196V238.633H136.539V238.537Z" fill="#97C2F4"/>
<path d="M237.299 233.662H54V233.758H237.299V233.662Z" fill="#97C2F4"/>
<path d="M214.632 202.642H162.077C158.094 202.642 154.866 206.02 154.866 210.187V226.554C154.866 230.721 158.094 234.099 162.077 234.099H214.632C218.615 234.099 221.843 230.721 221.843 226.554V210.187C221.843 206.02 218.615 202.642 214.632 202.642Z" fill="#97C2F4"/>
<path d="M211.102 202.873H158.547C154.564 202.873 151.336 206.251 151.336 210.418V226.784C151.336 230.951 154.564 234.329 158.547 234.329H211.102C215.085 234.329 218.313 230.951 218.313 226.784V210.418C218.313 206.251 215.085 202.873 211.102 202.873Z" fill="#97C2F4"/>
<path d="M159.836 205.841H210.207C210.868 205.841 211.523 205.978 212.135 206.243C212.746 206.508 213.301 206.896 213.769 207.385C214.236 207.875 214.607 208.455 214.861 209.095C215.114 209.734 215.244 210.42 215.244 211.112V217.579H154.814V211.108C154.815 209.713 155.344 208.376 156.285 207.389C157.227 206.402 158.504 205.846 159.836 205.841Z" fill="#97C2F4"/>
<path d="M154.814 219.163H215.244V225.63C215.244 227.028 214.713 228.368 213.769 229.356C212.824 230.345 211.543 230.9 210.207 230.9H159.836C158.503 230.896 157.226 230.339 156.284 229.351C155.343 228.363 154.814 227.025 154.814 225.63V219.163Z" fill="#97C2F4"/>
<path d="M198.986 208.112H187.918V217.652H198.986V208.112Z" fill="#97C2F4"/>
<path d="M187.918 208.112H185.084V217.652H187.918V208.112Z" fill="#97C2F4"/>
<path d="M187.441 215.097C187.441 215.29 187.387 215.478 187.284 215.638C187.182 215.799 187.037 215.924 186.867 215.997C186.696 216.071 186.509 216.09 186.329 216.053C186.148 216.015 185.982 215.922 185.852 215.786C185.722 215.65 185.633 215.476 185.597 215.287C185.561 215.098 185.58 214.902 185.65 214.724C185.72 214.546 185.84 214.394 185.993 214.287C186.146 214.18 186.326 214.123 186.51 214.123C186.757 214.123 186.994 214.226 187.169 214.408C187.343 214.591 187.441 214.839 187.441 215.097Z" fill="#97C2F4"/>
<path d="M201.89 206.639H193.575V217.652H201.89V206.639Z" fill="#97C2F4"/>
<path d="M193.578 206.639H191.173V217.652H193.578V206.639Z" fill="#97C2F4"/>
<path d="M192.377 209.102C192.832 209.102 193.201 208.715 193.201 208.239C193.201 207.762 192.832 207.376 192.377 207.376C191.921 207.376 191.552 207.762 191.552 208.239C191.552 208.715 191.921 209.102 192.377 209.102Z" fill="#97C2F4"/>
<path d="M192.377 209.102C192.832 209.102 193.201 208.715 193.201 208.239C193.201 207.762 192.832 207.376 192.377 207.376C191.921 207.376 191.552 207.762 191.552 208.239C191.552 208.715 191.921 209.102 192.377 209.102Z" fill="#97C2F4"/>
<path d="M203.033 208.112H196.024V217.652H203.033V208.112Z" fill="#97C2F4"/>
<path d="M196.024 208.112H194.422V217.652H196.024V208.112Z" fill="#97C2F4"/>
<path d="M210.956 209.727H201.762V217.655H210.956V209.727Z" fill="#97C2F4"/>
<path d="M201.761 209.727H199.408V217.655H201.761V209.727Z" fill="#97C2F4"/>
<path d="M213.364 208.504H206.457V217.652H213.364V208.504Z" fill="#97C2F4"/>
<path d="M206.465 208.504H204.467V217.652H206.465V208.504Z" fill="#97C2F4"/>
<path d="M215.204 209.727H208.496V217.655H215.204V209.727Z" fill="#97C2F4"/>
<path d="M208.492 209.727H207.161V217.655H208.492V209.727Z" fill="#F0F0F0"/>
<path d="M172.533 220.996H163.965V230.536H172.533V220.996Z" fill="#97C2F4"/>
<path d="M163.969 220.996H161.773V230.536H163.969V220.996Z" fill="#97C2F4"/>
<path d="M174.776 219.523H168.342V230.536H174.776V219.523Z" fill="#97C2F4"/>
<path d="M168.345 219.523H166.487V230.536H168.345V219.523Z" fill="#97C2F4"/>
<path d="M201.758 220.996H193.191V230.536H201.758V220.996Z" fill="#97C2F4"/>
<path d="M193.193 220.996H190.998V230.536H193.193V220.996Z" fill="#97C2F4"/>
<path d="M204.001 219.523H197.567V230.536H204.001V219.523Z" fill="#97C2F4"/>
<path d="M197.575 219.523H195.712V230.536H197.575V219.523Z" fill="#97C2F4"/>
<path d="M175.666 220.996H170.241V230.536H175.666V220.996Z" fill="#97C2F4"/>
<path d="M170.242 220.996H169.002V230.536H170.242V220.996Z" fill="#97C2F4"/>
<path d="M181.796 222.611H174.681V230.54H181.796V222.611Z" fill="#97C2F4"/>
<path d="M174.681 222.611H172.859V230.54H174.681V222.611Z" fill="#97C2F4"/>
<path d="M183.663 221.388H178.318V230.536H183.663V221.388Z" fill="#97C2F4"/>
<path d="M178.321 221.388H176.774V230.536H178.321V221.388Z" fill="#97C2F4"/>
<path d="M185.089 222.611H179.894V230.54H185.089V222.611Z" fill="#97C2F4"/>
<path d="M179.89 222.611H178.859V230.54H179.89V222.611Z" fill="#F0F0F0"/>
<path d="M178.808 193.494C178.718 193.311 178.575 193.163 178.399 193.071C178.223 192.98 178.023 192.949 177.83 192.984C177.635 193.034 177.459 193.146 177.328 193.305C177.197 193.464 177.116 193.661 177.096 193.87C176.963 193.767 176.802 193.709 176.637 193.704C176.471 193.699 176.307 193.748 176.169 193.843C176.03 193.949 175.922 194.093 175.858 194.259C175.793 194.425 175.774 194.606 175.802 194.783C175.725 194.724 175.637 194.683 175.544 194.661C175.451 194.64 175.354 194.639 175.261 194.659C175.167 194.679 175.079 194.719 175.001 194.777C174.923 194.834 174.858 194.908 174.809 194.994C174.719 195.179 174.7 195.393 174.757 195.591C174.813 195.79 174.941 195.958 175.113 196.06C174.994 196.079 174.886 196.142 174.808 196.238C174.731 196.334 174.69 196.457 174.693 196.583C174.696 196.708 174.744 196.828 174.826 196.92C174.908 197.012 175.019 197.069 175.139 197.081C175.016 197.091 174.9 197.145 174.811 197.235C174.722 197.324 174.665 197.443 174.651 197.572C174.638 197.701 174.667 197.831 174.733 197.94C174.8 198.05 174.9 198.132 175.018 198.174C174.96 198.209 174.91 198.257 174.872 198.315C174.834 198.373 174.81 198.439 174.799 198.508C174.789 198.577 174.794 198.648 174.813 198.715C174.833 198.782 174.866 198.843 174.911 198.895C174.963 198.937 175.024 198.966 175.088 198.978C175.153 198.99 175.219 198.985 175.282 198.965C175.344 198.944 175.401 198.907 175.447 198.858C175.493 198.81 175.527 198.75 175.546 198.684C175.555 198.703 175.568 198.719 175.584 198.732C175.601 198.745 175.62 198.753 175.64 198.756C175.66 198.76 175.68 198.758 175.7 198.751C175.719 198.745 175.737 198.734 175.751 198.719C175.764 198.701 175.773 198.681 175.779 198.66C175.784 198.639 175.785 198.617 175.781 198.595C175.778 198.573 175.77 198.553 175.759 198.534C175.747 198.516 175.732 198.5 175.714 198.488C175.744 198.524 175.782 198.549 175.824 198.563C175.867 198.577 175.913 198.578 175.956 198.567C175.999 198.555 176.038 198.532 176.07 198.498C176.101 198.465 176.122 198.423 176.132 198.377C176.118 198.486 176.131 198.597 176.171 198.699C176.21 198.801 176.274 198.891 176.357 198.959C176.439 199.027 176.537 199.071 176.641 199.088C176.745 199.104 176.852 199.092 176.95 199.052C176.929 199.103 176.919 199.157 176.92 199.212C176.921 199.267 176.934 199.321 176.957 199.371C176.98 199.42 177.013 199.464 177.053 199.499C177.094 199.534 177.141 199.56 177.192 199.574C177.396 199.609 177.606 199.566 177.782 199.451C177.957 199.336 178.155 199.266 178.361 199.248C178.539 199.272 178.713 199.322 178.878 199.398C179.154 199.485 179.448 199.49 179.727 199.413C180.006 199.336 180.259 199.179 180.458 198.96C180.532 199.05 180.627 199.118 180.734 199.159C180.84 199.2 180.955 199.213 181.067 199.195C181.179 199.178 181.285 199.131 181.376 199.059C181.466 198.987 181.537 198.892 181.583 198.784C181.601 198.895 181.655 198.997 181.735 199.072C181.815 199.148 181.918 199.193 182.025 199.199C182.133 199.206 182.24 199.174 182.328 199.109C182.416 199.044 182.481 198.95 182.511 198.841V199.141C182.611 199.149 182.711 199.132 182.803 199.089C182.895 199.047 182.975 198.981 183.036 198.898C183.097 198.814 183.137 198.716 183.152 198.613C183.167 198.509 183.157 198.403 183.123 198.304C183.267 198.298 183.405 198.239 183.512 198.138C183.618 198.036 183.687 197.898 183.706 197.748C183.722 197.597 183.688 197.444 183.609 197.316C183.531 197.189 183.412 197.093 183.274 197.046C183.51 196.966 183.716 196.809 183.863 196.6C184.01 196.39 184.09 196.137 184.093 195.877C184.095 195.617 184.02 195.363 183.876 195.15C183.733 194.937 183.53 194.777 183.295 194.691C183.207 194.656 183.11 194.644 183.016 194.658C182.922 194.672 182.833 194.711 182.757 194.772C182.72 194.805 182.691 194.846 182.671 194.892C182.651 194.938 182.64 194.988 182.64 195.038C182.64 195.089 182.651 195.139 182.671 195.185C182.691 195.231 182.72 195.272 182.757 195.305C182.821 195.068 182.811 194.815 182.728 194.585C182.644 194.354 182.493 194.157 182.295 194.024C182.092 193.911 181.858 193.877 181.634 193.928C181.41 193.978 181.21 194.11 181.07 194.3C181.138 194.195 181.173 194.071 181.173 193.945C181.173 193.819 181.138 193.695 181.07 193.59C181.005 193.491 180.91 193.416 180.8 193.378C180.69 193.34 180.571 193.34 180.462 193.379C180.435 193.221 180.352 193.079 180.23 192.982C180.108 192.885 179.955 192.839 179.802 192.854C179.65 192.889 179.516 192.981 179.424 193.113C179.333 193.244 179.29 193.405 179.303 193.567C179.291 193.504 179.262 193.447 179.218 193.401C179.174 193.356 179.119 193.326 179.059 193.314C178.998 193.302 178.936 193.309 178.88 193.334C178.823 193.36 178.776 193.402 178.742 193.456C178.592 193.406 178.808 193.494 178.808 193.494Z" fill="#97C2F4"/>
<path d="M178.919 196.559C178.859 196.513 178.791 196.479 178.719 196.461C178.646 196.443 178.571 196.439 178.497 196.452C178.425 196.467 178.358 196.502 178.304 196.555C178.25 196.608 178.212 196.676 178.193 196.751C178.178 196.827 178.191 196.906 178.229 196.973C178.267 197.04 178.327 197.089 178.398 197.111C178.571 197.157 178.747 197.004 178.923 197.031C178.989 197.031 179.047 197.073 179.11 197.088C179.243 197.104 179.379 197.088 179.506 197.042C179.633 196.995 179.748 196.919 179.843 196.82C179.922 196.767 179.99 196.7 180.045 196.62C180.072 196.581 180.088 196.534 180.092 196.486C180.096 196.437 180.087 196.388 180.067 196.344C180.025 196.292 179.971 196.253 179.909 196.232C179.847 196.211 179.781 196.208 179.718 196.225C179.458 196.255 179.211 196.363 179.007 196.536L179.025 196.409L178.919 196.559Z" fill="#FAFAFA"/>
<path d="M182.632 196.329C182.567 196.272 182.491 196.23 182.409 196.206C182.368 196.193 182.325 196.192 182.284 196.204C182.243 196.215 182.206 196.239 182.178 196.271C182.148 196.324 182.139 196.386 182.151 196.446C182.163 196.505 182.196 196.558 182.244 196.594C182.339 196.661 182.451 196.701 182.566 196.709C182.687 196.728 182.834 196.732 182.892 196.624C182.91 196.583 182.914 196.536 182.904 196.492C182.894 196.448 182.871 196.408 182.837 196.379C182.77 196.322 182.691 196.281 182.606 196.26L182.632 196.329Z" fill="#FAFAFA"/>
<path d="M176.763 194.307C176.644 194.36 176.54 194.442 176.458 194.545C176.376 194.649 176.318 194.771 176.29 194.902C176.276 194.94 176.273 194.981 176.282 195.02C176.291 195.059 176.312 195.094 176.341 195.121C176.366 195.132 176.394 195.138 176.422 195.138C176.449 195.138 176.477 195.132 176.502 195.121L177.181 194.952C177.07 194.989 176.967 195.048 176.876 195.124C176.831 195.162 176.796 195.212 176.775 195.269C176.755 195.325 176.749 195.387 176.759 195.447C176.781 195.515 176.824 195.573 176.881 195.613C176.938 195.653 177.006 195.673 177.074 195.669C177.209 195.658 177.337 195.603 177.441 195.512C177.504 195.474 177.559 195.421 177.6 195.358C177.641 195.295 177.668 195.223 177.679 195.148C177.679 194.998 177.496 194.856 177.386 194.952C177.646 194.878 177.893 194.761 178.119 194.607C178.201 194.553 178.272 194.482 178.328 194.4C178.355 194.357 178.372 194.308 178.376 194.257C178.38 194.206 178.371 194.154 178.35 194.108C178.119 193.667 177.826 194.315 177.683 194.373C177.415 194.484 177.107 194.154 176.763 194.307Z" fill="#FAFAFA"/>
<path d="M175.711 196.191C175.697 196.234 175.695 196.28 175.705 196.325C175.716 196.369 175.738 196.409 175.769 196.44C175.786 196.453 175.805 196.463 175.826 196.468C175.846 196.473 175.867 196.473 175.888 196.469C175.908 196.464 175.927 196.455 175.944 196.442C175.961 196.43 175.975 196.413 175.986 196.394C175.829 196.425 175.686 196.509 175.579 196.632C175.554 196.664 175.537 196.701 175.527 196.741C175.518 196.781 175.517 196.822 175.525 196.863C175.532 196.903 175.548 196.941 175.572 196.974C175.595 197.007 175.625 197.034 175.66 197.054C175.709 197.063 175.759 197.062 175.807 197.05C175.856 197.038 175.902 197.016 175.942 196.985C176.188 196.845 176.422 196.683 176.642 196.502C176.576 196.667 176.737 196.851 176.906 196.885C177.077 196.882 177.243 196.821 177.379 196.713C177.558 196.597 177.745 196.425 177.716 196.214C177.68 196.128 177.616 196.059 177.535 196.019C177.454 195.98 177.362 195.973 177.276 195.999C177.108 196.073 176.96 196.19 176.847 196.34C176.943 196.199 176.811 195.98 176.642 195.957C176.56 195.953 176.479 195.969 176.405 196.005C176.331 196.041 176.266 196.096 176.217 196.164C176.407 196.053 176.448 195.78 176.195 195.738C176.026 195.696 175.747 196.049 175.711 196.191Z" fill="#FAFAFA"/>
<path d="M180.898 195.558C180.861 195.545 180.823 195.541 180.785 195.544C180.747 195.547 180.71 195.558 180.676 195.576C180.641 195.594 180.611 195.619 180.586 195.65C180.562 195.68 180.543 195.715 180.531 195.754C180.524 195.792 180.524 195.832 180.531 195.87C180.538 195.909 180.552 195.946 180.573 195.979C180.594 196.011 180.621 196.039 180.652 196.061C180.683 196.083 180.718 196.099 180.755 196.106C180.644 196.118 180.541 196.175 180.469 196.264C180.448 196.288 180.431 196.316 180.42 196.347C180.41 196.378 180.405 196.411 180.407 196.444C180.418 196.491 180.444 196.532 180.481 196.561C180.517 196.59 180.562 196.606 180.608 196.605C180.702 196.601 180.793 196.575 180.876 196.528C180.784 196.527 180.694 196.554 180.616 196.605C180.596 196.619 180.58 196.636 180.568 196.656C180.555 196.676 180.547 196.699 180.543 196.723C180.539 196.746 180.54 196.771 180.546 196.794C180.551 196.817 180.561 196.839 180.575 196.858C180.606 196.881 180.643 196.895 180.681 196.899C180.718 196.903 180.757 196.897 180.792 196.881C180.959 196.835 181.113 196.745 181.239 196.62C181.283 196.676 181.339 196.72 181.403 196.749C181.467 196.778 181.536 196.79 181.605 196.785C181.64 196.78 181.673 196.767 181.702 196.748C181.731 196.729 181.757 196.704 181.777 196.674C181.797 196.644 181.811 196.61 181.818 196.575C181.825 196.539 181.825 196.503 181.818 196.467C181.799 196.418 181.767 196.376 181.726 196.345C181.685 196.314 181.637 196.295 181.587 196.291C181.486 196.285 181.385 196.301 181.29 196.337C181.396 196.276 181.48 196.18 181.528 196.064C181.565 195.945 181.488 195.784 181.367 195.796C181.246 195.807 181.165 195.995 181.059 196.064C180.938 195.938 181.184 195.669 180.898 195.558Z" fill="#FAFAFA"/>
<path d="M178.476 194.971C178.404 195.032 178.348 195.111 178.313 195.201C178.278 195.291 178.266 195.389 178.278 195.485C178.278 195.593 178.305 195.698 178.356 195.791C178.408 195.884 178.482 195.961 178.571 196.015C178.634 196.035 178.701 196.041 178.767 196.033C178.833 196.024 178.896 196.001 178.953 195.965C179.009 195.928 179.058 195.88 179.095 195.822C179.132 195.765 179.157 195.699 179.168 195.631C179.182 195.491 179.154 195.35 179.088 195.227C179.023 195.104 178.923 195.006 178.802 194.944C178.749 194.922 178.692 194.913 178.636 194.918C178.579 194.922 178.524 194.941 178.476 194.971Z" fill="#FAFAFA"/>
<path d="M180.191 194.741L180.253 194.799C180.227 194.762 180.195 194.732 180.157 194.709C180.119 194.687 180.078 194.673 180.035 194.669C179.992 194.665 179.948 194.67 179.907 194.684C179.866 194.699 179.829 194.722 179.797 194.752C179.765 194.783 179.74 194.82 179.723 194.862C179.705 194.903 179.697 194.948 179.697 194.993C179.698 195.039 179.707 195.083 179.725 195.124C179.743 195.165 179.77 195.202 179.802 195.232C179.867 195.289 179.95 195.318 180.034 195.311C180.119 195.305 180.197 195.264 180.253 195.197C180.341 195.243 180.441 195.257 180.537 195.239C180.634 195.22 180.722 195.169 180.788 195.094C180.845 195.013 180.87 194.911 180.856 194.812C180.842 194.712 180.792 194.622 180.715 194.561C180.673 194.539 180.626 194.529 180.578 194.531C180.531 194.533 180.485 194.547 180.445 194.572C180.404 194.597 180.37 194.632 180.346 194.674C180.321 194.717 180.307 194.765 180.304 194.814L180.231 194.729L180.191 194.741Z" fill="#FAFAFA"/>
<path d="M182.086 195.063C181.953 195.176 181.852 195.325 181.793 195.493C181.767 195.578 181.773 195.67 181.809 195.751C181.845 195.832 181.908 195.896 181.987 195.93C182.152 195.972 182.306 195.83 182.401 195.685C182.449 195.621 182.482 195.548 182.499 195.47C182.516 195.392 182.517 195.31 182.5 195.232C182.453 195.079 182.244 194.99 182.134 195.105L182.086 195.063Z" fill="#FAFAFA"/>
<path d="M179.355 194.024C179.338 193.989 179.314 193.959 179.285 193.934C179.256 193.91 179.222 193.892 179.186 193.881C179.15 193.87 179.113 193.867 179.076 193.872C179.039 193.877 179.003 193.889 178.971 193.909C178.908 193.954 178.861 194.021 178.839 194.097C178.817 194.174 178.821 194.256 178.85 194.33C178.882 194.405 178.933 194.47 178.997 194.517C179.062 194.563 179.138 194.59 179.216 194.595C179.399 194.614 179.619 194.457 179.583 194.265C179.627 194.32 179.684 194.363 179.748 194.387C179.812 194.412 179.882 194.419 179.949 194.407C180.08 194.385 180.205 194.336 180.316 194.261C180.474 194.166 180.639 194.024 180.624 193.836C180.612 193.761 180.577 193.692 180.523 193.641C180.469 193.59 180.4 193.56 180.327 193.556C180.255 193.552 180.183 193.564 180.116 193.59C180.048 193.617 179.987 193.657 179.935 193.709C179.85 193.786 179.777 193.878 179.685 193.947C179.641 193.985 179.588 194.009 179.532 194.017C179.476 194.025 179.419 194.017 179.366 193.993L179.355 194.024Z" fill="#FAFAFA"/>
<path d="M181.686 202.746H176.99L176.532 197.794H182.144L181.686 202.746Z" fill="#F0F0F0"/>
<path d="M182.512 198.051H176.122L176.008 197.391H182.625L182.512 198.051Z" fill="#FAFAFA"/>
<path d="M176.81 217.64H171.421L173.111 211.948L173.357 211.119H174.578L176.81 217.64Z" fill="#97C2F4"/>
<path d="M173.358 211.119L173.112 211.948L171.422 217.64L166.44 217.563L164.838 211.948L164.592 211.119H173.358Z" fill="#97C2F4"/>
<path d="M173.357 211.119L173.112 211.948L171.422 217.64L161.19 217.483L163.371 211.119H173.357Z" fill="#FAFAFA"/>
<path d="M173.357 211.119L173.112 211.948H163.089L163.371 211.119H173.357Z" fill="#97C2F4"/>
<path d="M164.628 214.652H162.381L163.165 212.351L165.314 212.374L164.628 214.652ZM162.641 214.46H164.474L165.046 212.542L163.275 212.523L162.641 214.46Z" fill="#97C2F4"/>
<path d="M167.144 214.652H164.896L165.677 212.351L167.829 212.374L167.144 214.652ZM165.153 214.46H167.008L167.58 212.542L165.809 212.523L165.153 214.46Z" fill="#97C2F4"/>
<path d="M169.655 214.652H167.408L168.192 212.351L170.341 212.374L169.655 214.652ZM167.668 214.46H169.523L170.091 212.542L168.321 212.523L167.668 214.46Z" fill="#97C2F4"/>
<path d="M172.17 214.652H169.922L170.707 212.351L172.855 212.374L172.17 214.652ZM170.183 214.46H172.045L172.617 212.542L170.846 212.523L170.183 214.46Z" fill="#97C2F4"/>
<path d="M163.844 217.111H161.597L162.381 214.809L164.529 214.836L163.844 217.111ZM161.857 216.919H163.708L164.28 215.001H162.51L161.857 216.919Z" fill="#97C2F4"/>
<path d="M166.359 217.111H164.111L164.896 214.809L167.044 214.836L166.359 217.111ZM164.372 216.919H166.223L166.795 215.001H165.024L164.372 216.919Z" fill="#97C2F4"/>
<path d="M168.87 217.111H166.623L167.407 214.809L169.555 214.836L168.87 217.111ZM166.883 216.919H168.745L169.317 215.001H167.543L166.883 216.919Z" fill="#97C2F4"/>
<path d="M171.384 217.111H169.137L169.922 214.809L172.07 214.836L171.384 217.111ZM169.397 216.919H171.249L171.821 215.001H170.05L169.397 216.919Z" fill="#97C2F4"/>
<path d="M205.482 199.674C205.482 200.882 205.666 201.664 205.97 202.167C206.087 202.351 206.247 202.501 206.434 202.603C206.621 202.706 206.829 202.758 207.04 202.754H208.705C208.915 202.757 209.123 202.705 209.31 202.603C209.496 202.5 209.655 202.35 209.772 202.167C210.08 201.664 210.259 200.882 210.259 199.674C210.259 197.921 209.526 196.517 209.291 195.397C209.203 194.994 209.489 193.755 209.489 193.755H206.245C206.245 193.755 206.531 194.994 206.443 195.397C206.212 196.517 205.482 197.921 205.482 199.674Z" fill="#F0F0F0"/>
<path d="M208.957 185.294C208.618 185.392 208.317 185.597 208.092 185.88C207.773 186.325 208.323 187.369 208.323 187.369C208.475 187.524 208.66 187.64 208.862 187.707C209.065 187.773 209.279 187.789 209.489 187.752L210.138 187.587C210.138 187.587 209.438 185.562 208.961 185.428L208.957 185.294Z" fill="#97C2F4"/>
<path d="M211.508 185.781C211.424 186.675 210.705 187.676 209.943 187.599C209.18 187.522 208.671 186.383 208.755 185.493C208.84 184.603 209.463 184.634 210.222 184.726C210.98 184.818 211.596 184.891 211.508 185.781Z" fill="#97C2F4"/>
<path d="M209.365 185.09C209.365 185.09 209.852 185.681 211.081 185.635C211.081 185.635 208.987 186.563 209.365 185.09Z" fill="#97C2F4"/>
<path d="M209.899 185.017C209.899 185.017 210.581 185.017 210.541 185.317C210.541 185.317 211.106 185.393 211.073 185.133C211.04 184.872 209.899 185.017 209.899 185.017Z" fill="#97C2F4"/>
<path d="M209.365 185.09C209.365 185.09 209.852 185.681 211.081 185.635C211.081 185.635 208.987 186.563 209.365 185.09Z" fill="#97C2F4"/>
<path d="M209.899 185.017C209.899 185.017 210.581 185.017 210.541 185.317C210.541 185.317 211.106 185.393 211.073 185.133C211.04 184.872 209.899 185.017 209.899 185.017Z" fill="#97C2F4"/>
<path d="M208.639 187.626C208.73 187.849 208.878 188.041 209.068 188.18C209.258 188.319 209.481 188.399 209.713 188.412C209.944 188.421 210.175 188.38 210.39 188.291C210.605 188.202 210.8 188.067 210.963 187.894C211.286 187.546 211.512 187.113 211.615 186.64C211.645 186.517 211.711 186.214 211.564 186.134C211.417 186.053 211.304 186.252 211.223 186.337C210.989 186.58 210.731 186.796 210.453 186.981C210.18 187.162 209.887 187.308 209.581 187.415C209.497 187.445 208.668 187.706 208.639 187.626Z" fill="#97C2F4"/>
<path d="M212.165 186.51C212.202 186.703 212.191 186.902 212.134 187.09C212.076 187.277 211.973 187.446 211.835 187.58C211.647 187.749 211.429 187.879 211.194 187.963C211.032 188.025 210.827 188.075 210.706 187.963C210.585 187.852 210.629 187.599 210.706 187.419C210.812 187.142 210.922 186.87 211.043 186.598C211.129 186.325 211.252 186.066 211.41 185.831C211.564 185.67 211.718 185.831 211.879 185.984C212.017 186.129 212.116 186.311 212.165 186.51Z" fill="#97C2F4"/>
<path d="M208.917 187.177C208.774 187.14 208.644 187.061 208.542 186.95C208.44 186.838 208.37 186.699 208.341 186.548C208.301 186.322 208.396 185.781 208.668 185.781C208.666 186.258 208.751 186.732 208.917 187.177Z" fill="#97C2F4"/>
<path d="M210.981 187.334C211.126 187.319 211.264 187.268 211.385 187.183C211.506 187.099 211.605 186.985 211.674 186.851C211.747 186.701 211.835 185.888 211.546 186.18C211.45 186.276 211.403 186.632 211.337 186.767C211.241 186.97 211.121 187.161 210.981 187.334Z" fill="#97C2F4"/>
<path d="M209.849 187.622C209.94 187.735 210.064 187.813 210.202 187.844C210.34 187.876 210.484 187.858 210.612 187.795C210.557 187.944 210.065 187.983 209.915 187.998C209.515 188.04 209.35 187.825 209.013 187.595C209.013 187.595 209.574 187.802 209.849 187.622Z" fill="#97C2F4"/>
<path d="M207.426 201.791L208.364 191.887L209.603 188.37L209.82 188.454L208.584 191.952L207.605 202.063L207.426 201.791Z" fill="#97C2F4"/>
<path d="M208.577 191.868L208.372 191.975C208.224 191.641 208.102 191.294 208.005 190.94C207.826 190.237 207.561 189.562 207.217 188.93L207.411 188.803C207.766 189.452 208.039 190.145 208.225 190.867C208.319 191.209 208.436 191.544 208.577 191.868Z" fill="#97C2F4"/>
<path d="M209.072 190.568C209.393 190.543 209.695 190.397 209.922 190.157C210.16 189.869 210.339 189.532 210.446 189.168C210.028 189.214 209.643 188.93 209.226 188.899C209.059 188.888 208.892 188.917 208.738 188.984C208.583 189.05 208.446 189.152 208.335 189.283C208.052 189.628 207.887 190.05 208.041 190.257C208.333 190.498 208.703 190.609 209.072 190.568Z" fill="#F0F0F0"/>
<path d="M205.728 189.494C205.922 189.355 206.143 189.264 206.375 189.225C206.607 189.187 206.844 189.203 207.07 189.271C207.248 189.342 207.407 189.456 207.535 189.604C207.663 189.752 207.754 189.93 207.803 190.123C207.72 190.234 207.61 190.321 207.484 190.373C207.358 190.425 207.222 190.44 207.088 190.418C206.821 190.367 206.565 190.265 206.333 190.119C206.1 189.974 205.844 189.872 205.578 189.82L205.728 189.494Z" fill="#F0F0F0"/>
<path d="M207.796 189.682C207.253 189.747 206.765 189.858 206.271 189.214C205.941 188.78 206.047 188.124 206.069 187.607C206.683 187.812 207.278 188.075 207.847 188.393C207.969 188.45 208.077 188.536 208.162 188.644C208.247 188.751 208.307 188.878 208.338 189.014C208.356 189.147 208.325 189.281 208.251 189.391C208.178 189.501 208.067 189.577 207.942 189.605L207.796 189.682Z" fill="#F0F0F0"/>
<path d="M206.241 197.391C205.976 198.031 205.851 198.724 205.874 199.421C205.874 199.551 205.926 199.701 206.017 199.724C206.109 199.747 206.182 199.639 206.212 199.52C206.235 199.394 206.242 199.265 206.234 199.137C206.234 198.074 206.783 197.177 206.89 196.141C206.919 195.846 206.846 194.917 206.681 195.6C206.545 196.225 206.443 196.793 206.241 197.391Z" fill="#FAFAFA"/>
<path d="M91.924 221.554C91.924 221.554 92.9908 209.199 88.2983 203.177C83.6058 197.155 91.9643 202.637 93.4307 208.643C93.4307 208.643 93.7056 197.52 89.0315 190.328C84.3574 183.136 92.3309 188.517 93.7203 196.373C93.7203 196.373 93.9879 186.454 91.649 181.199C89.3101 175.944 92.7965 179.07 94.3398 182.349C95.8832 185.629 95.1207 194.374 95.1207 194.374C95.1207 194.374 96.7594 178.226 99.8865 179.101C103.014 179.975 96.5321 191.241 96.0152 196.745C96.0152 196.745 98.8453 189.073 101.664 190.224C104.484 191.375 97.7382 193.001 95.6523 204.167L95.029 209.334C95.029 209.334 97.5952 201.793 99.9268 203.776C102.258 205.759 94.2262 210.703 93.328 221.754L91.924 221.554Z" fill="#97C2F4"/>
<path d="M90.6422 221.252C90.6422 221.252 89.6414 205.974 95.5839 198.694C101.526 191.414 91.0784 197.908 89.0988 205.272C89.0988 205.272 89.0402 191.548 95.0047 182.818C100.969 174.088 90.9721 180.475 89.0622 190.106C89.0622 190.106 88.9888 177.862 91.9949 171.453C95.001 165.044 90.6312 168.787 88.6442 172.792C86.6573 176.796 87.3795 187.578 87.3795 187.578C87.3795 187.578 85.7664 167.598 81.9062 168.572C78.0459 169.547 85.7334 183.662 86.232 190.463C86.232 190.463 82.9326 180.904 79.4279 182.247C75.9233 183.589 84.1937 185.806 86.485 199.653L87.1192 206.089C87.1192 206.089 84.1571 196.703 81.2206 199.066C78.2842 201.429 88.076 207.804 88.9192 221.474L90.6422 221.252Z" fill="#F0F0F0"/>
<path d="M100.063 227.878C100.063 232.071 95.7186 235.473 90.3589 235.473C84.9992 235.473 80.6514 232.071 80.6514 227.878C80.6514 225.987 81.5312 224.265 82.9903 222.938L81.8428 217.856H98.8713L97.7385 222.938C99.1829 224.277 100.063 225.987 100.063 227.878Z" fill="#97C2F4"/>
<path d="M215.469 115.23L208.557 118.596C208.259 118.717 207.923 118.715 207.618 118.591C207.313 118.467 207.061 118.229 206.913 117.926C206.766 117.624 206.734 117.279 206.825 116.962C206.915 116.645 207.12 116.379 207.399 116.219L214.311 112.853C214.609 112.732 214.945 112.733 215.25 112.858C215.556 112.982 215.807 113.22 215.955 113.523C216.102 113.825 216.134 114.17 216.044 114.487C215.954 114.804 215.748 115.07 215.469 115.23Z" fill="#1D5BA4"/>
<g opacity="0.7">
<path d="M215.469 115.23L208.557 118.596C208.259 118.717 207.923 118.715 207.618 118.591C207.313 118.467 207.061 118.229 206.913 117.926C206.766 117.624 206.734 117.279 206.825 116.962C206.915 116.645 207.12 116.379 207.399 116.219L214.311 112.853C214.609 112.732 214.945 112.733 215.25 112.858C215.556 112.982 215.807 113.22 215.955 113.523C216.102 113.825 216.134 114.17 216.044 114.487C215.954 114.804 215.748 115.07 215.469 115.23Z" fill="white"/>
</g>
<path d="M252.694 127.255L251.048 191.183C251.037 191.578 250.874 191.947 250.594 192.208C250.314 192.47 249.941 192.603 249.556 192.579L191.975 188.89C191.59 188.864 191.225 188.683 190.961 188.386C190.696 188.089 190.553 187.7 190.564 187.305L192.71 104.172C192.721 103.777 192.884 103.408 193.164 103.146C193.443 102.884 193.816 102.751 194.201 102.776L232.973 105.261L252.694 127.255Z" fill="#1D5BA4"/>
<g opacity="0.2">
<path d="M252.694 127.255L251.048 191.183C251.037 191.578 250.874 191.947 250.594 192.208C250.314 192.47 249.941 192.603 249.556 192.579L191.975 188.89C191.59 188.864 191.225 188.683 190.961 188.386C190.696 188.089 190.553 187.7 190.564 187.305L192.71 104.172C192.721 103.777 192.884 103.408 193.164 103.146C193.443 102.884 193.816 102.751 194.201 102.776L232.973 105.261L252.694 127.255Z" fill="white"/>
</g>
<path d="M243.397 145.958L200.465 143.349L200.403 146.082L243.335 148.691L243.397 145.958Z" fill="#1D5BA4"/>
<path d="M243.143 157.121L200.211 154.512L200.149 157.245L243.081 159.854L243.143 157.121Z" fill="#1D5BA4"/>
<path d="M242.889 168.291L199.958 165.682L199.895 168.414L242.827 171.023L242.889 168.291Z" fill="#1D5BA4"/>
<path d="M233.023 105.206L232.529 124.483C232.518 124.878 232.661 125.267 232.926 125.564C233.191 125.861 233.555 126.042 233.94 126.067L252.664 127.264L233.023 105.206Z" fill="#1D5BA4"/>
<path opacity="0.7" d="M233.023 105.206L232.529 124.483C232.518 124.878 232.661 125.267 232.926 125.564C233.191 125.861 233.555 126.042 233.94 126.067L252.664 127.264L233.023 105.206Z" fill="white"/>
<path d="M258.765 122.174L257.124 186.099C257.113 186.494 256.949 186.863 256.67 187.125C256.39 187.386 256.017 187.52 255.632 187.495L198.061 183.826C197.675 183.802 197.31 183.622 197.044 183.325C196.779 183.028 196.635 182.639 196.644 182.244L198.783 99.0953C198.793 98.6998 198.955 98.33 199.235 98.0673C199.514 97.8046 199.887 97.6705 200.272 97.6945L239.068 100.168L258.765 122.174Z" fill="#1D5BA4"/>
<g opacity="0.5">
<path d="M258.765 122.174L257.124 186.099C257.113 186.494 256.949 186.863 256.67 187.125C256.39 187.386 256.017 187.52 255.632 187.495L198.061 183.826C197.675 183.802 197.31 183.622 197.044 183.325C196.779 183.028 196.635 182.639 196.644 182.244L198.783 99.0953C198.793 98.6998 198.955 98.33 199.235 98.0673C199.514 97.8046 199.887 97.6705 200.272 97.6945L239.068 100.168L258.765 122.174Z" fill="white"/>
</g>
<path d="M248.332 140.795L207.692 138.33C207.542 138.32 207.393 138.341 207.252 138.391C207.112 138.442 206.984 138.52 206.875 138.623C206.766 138.726 206.679 138.85 206.619 138.989C206.558 139.128 206.525 139.28 206.522 139.434L206.513 139.813C206.509 139.968 206.535 140.123 206.589 140.269C206.643 140.416 206.725 140.551 206.829 140.667C206.932 140.783 207.057 140.877 207.195 140.945C207.333 141.013 207.481 141.052 207.632 141.061L248.272 143.526C248.575 143.545 248.868 143.438 249.088 143.231C249.307 143.024 249.435 142.733 249.442 142.422L249.449 142.038C249.453 141.884 249.427 141.729 249.373 141.583C249.319 141.437 249.238 141.302 249.134 141.187C249.03 141.071 248.906 140.977 248.769 140.91C248.631 140.843 248.483 140.804 248.332 140.795Z" fill="#1D5BA4"/>
<path d="M248.074 151.971L207.43 149.501C206.798 149.462 206.274 149.957 206.259 150.606L206.25 150.989C206.236 151.638 206.736 152.195 207.368 152.233L248.011 154.703C248.643 154.742 249.168 154.247 249.182 153.598L249.191 153.215C249.206 152.566 248.706 152.009 248.074 151.971Z" fill="#1D5BA4"/>
<path d="M247.823 163.143L207.18 160.673C206.547 160.635 206.023 161.13 206.008 161.779L206 162.161C205.985 162.81 206.485 163.368 207.117 163.406L247.76 165.876C248.392 165.914 248.917 165.419 248.931 164.77L248.94 164.388C248.955 163.739 248.455 163.182 247.823 163.143Z" fill="#1D5BA4"/>
<path d="M239.1 100.127L238.601 119.406C238.595 119.602 238.628 119.798 238.696 119.984C238.764 120.169 238.867 120.34 238.998 120.487C239.13 120.633 239.287 120.753 239.462 120.838C239.636 120.923 239.824 120.973 240.015 120.984L258.738 122.18L239.1 100.127Z" fill="#1D5BA4"/>
<path opacity="0.7" d="M239.1 100.127L238.601 119.406C238.595 119.602 238.628 119.798 238.696 119.984C238.764 120.169 238.867 120.34 238.998 120.487C239.13 120.633 239.287 120.753 239.462 120.838C239.636 120.923 239.824 120.973 240.015 120.984L258.738 122.18L239.1 100.127Z" fill="white"/>
<path d="M225.875 77.6278L233.15 86.9C225.886 93.4347 222.57 105.87 221.142 116.783C220.582 121.299 220.6 125.892 221.194 130.445C221.194 130.445 230.374 106.035 239.303 100.52L247.19 117.857C247.19 117.857 247.258 93.2613 262.632 76.8079C262.649 76.7937 240.984 72.5837 225.875 77.6278Z" fill="#1D5BA4"/>
<path d="M224.796 42.8915C224.91 43.7074 228.05 47.0798 228.085 47.9375C228.084 48.0793 228.112 48.2193 228.167 48.3481C228.222 48.4768 228.304 48.5914 228.405 48.6841C228.507 48.7767 228.626 48.8453 228.756 48.8853C228.886 48.9253 229.023 48.9357 229.157 48.9158L232.778 48.4305C232.998 48.3933 233.222 48.445 233.405 48.575C233.241 48.4522 226.64 43.0229 226.427 42.8321C226.338 42.7647 226.237 42.7166 226.13 42.6905C226.023 42.6645 225.911 42.6609 225.802 42.6802L224.793 42.8149L224.796 42.8915Z" fill="#97C2F4"/>
<path opacity="0.2" d="M224.796 42.8915C224.91 43.7074 228.05 47.0798 228.085 47.9375C228.084 48.0793 228.112 48.2193 228.167 48.3481C228.222 48.4768 228.304 48.5914 228.405 48.6841C228.507 48.7767 228.626 48.8453 228.756 48.8853C228.886 48.9253 229.023 48.9357 229.157 48.9158L232.778 48.4305C232.998 48.3933 233.222 48.445 233.405 48.575C233.241 48.4522 226.64 43.0229 226.427 42.8321C226.338 42.7647 226.237 42.7166 226.13 42.6905C226.023 42.6645 225.911 42.6609 225.802 42.6802L224.793 42.8149L224.796 42.8915Z" fill="black"/>
<path d="M220.039 32.6917C220.471 33.12 223.948 36.1229 224.327 36.6195C224.509 36.8477 224.766 36.9966 225.048 37.0378C225.331 37.0789 225.62 37.0094 225.859 36.8425L229.721 34.1012C229.877 33.9821 230.066 33.9206 230.257 33.9265C230.449 33.9323 230.633 34.0051 230.778 34.1333L223.759 28.3768C223.613 28.2624 223.435 28.2009 223.251 28.2016C223.068 28.2023 222.888 28.2651 222.74 28.3806L220.106 30.2808L219.748 30.9899C219.629 31.2738 219.593 31.5873 219.644 31.8905C219.696 32.1937 219.834 32.4726 220.039 32.6917Z" fill="#97C2F4"/>
<path opacity="0.2" d="M220.039 32.6917C220.471 33.12 223.948 36.1229 224.327 36.6195C224.509 36.8477 224.766 36.9966 225.048 37.0378C225.331 37.0789 225.62 37.0094 225.859 36.8425L229.721 34.1012C229.877 33.9821 230.066 33.9206 230.257 33.9265C230.449 33.9323 230.633 34.0051 230.778 34.1333L223.759 28.3768C223.613 28.2624 223.435 28.2009 223.251 28.2016C223.068 28.2023 222.888 28.2651 222.74 28.3806L220.106 30.2808L219.748 30.9899C219.629 31.2738 219.593 31.5873 219.644 31.8905C219.696 32.1937 219.834 32.4726 220.039 32.6917Z" fill="black"/>
<path d="M183.392 88.7704L185.652 84.2886C185.783 84.0036 185.826 83.684 185.774 83.3748C185.723 83.0655 185.58 82.7821 185.365 82.5645C184.917 82.1314 184.498 81.6661 184.112 81.1719C183.93 80.9431 183.672 80.7937 183.388 80.7524C183.104 80.711 182.814 80.7806 182.574 80.9479L179.073 78.2079L176.391 83.0393C176.277 83.2571 176.24 83.5093 176.288 83.7506C176.335 83.9919 176.464 84.2065 176.65 84.3559L183.627 90.1062C183.441 89.9515 183.315 89.7318 183.272 89.4868C183.229 89.2418 183.271 88.9877 183.392 88.7704Z" fill="#97C2F4"/>
<path opacity="0.3" d="M183.392 88.7704L185.652 84.2886C185.783 84.0036 185.826 83.684 185.774 83.3748C185.723 83.0655 185.58 82.7821 185.365 82.5645C184.917 82.1314 184.498 81.6661 184.112 81.1719C183.93 80.9431 183.672 80.7937 183.388 80.7524C183.104 80.711 182.814 80.7806 182.574 80.9479L179.073 78.2079L176.391 83.0393C176.277 83.2571 176.24 83.5093 176.288 83.7506C176.335 83.9919 176.464 84.2065 176.65 84.3559L183.627 90.1062C183.441 89.9515 183.315 89.7318 183.272 89.4868C183.229 89.2418 183.271 88.9877 183.392 88.7704Z" fill="black"/>
<path d="M196.097 91.7541L196.354 87.9856C196.362 87.8427 196.342 87.7002 196.294 87.5666C196.247 87.433 196.175 87.3112 196.081 87.2085C195.987 87.1058 195.874 87.0244 195.748 86.9693C195.622 86.9142 195.487 86.8865 195.35 86.8879C194.781 86.8657 194.213 86.8135 193.649 86.7315C193.378 86.6921 193.107 86.6527 192.844 86.6143C192.584 86.5813 192.32 86.6392 192.092 86.7789C192.162 86.7364 192.235 86.7012 192.311 86.6738L189.105 86.0623C189.091 86.1944 189.106 86.3276 189.15 86.4515C189.194 86.5755 189.265 86.6867 189.357 86.7766C189.53 86.9388 196.171 92.3966 196.366 92.5545L196.437 92.5648C196.311 92.4799 196.211 92.3579 196.151 92.2139C196.09 92.07 196.072 91.9102 196.097 91.7541Z" fill="#97C2F4"/>
<path opacity="0.3" d="M196.097 91.7541L196.354 87.9856C196.362 87.8427 196.342 87.7002 196.294 87.5666C196.247 87.433 196.175 87.3112 196.081 87.2085C195.987 87.1058 195.874 87.0244 195.748 86.9693C195.622 86.9142 195.487 86.8865 195.35 86.8879C194.781 86.8657 194.213 86.8135 193.649 86.7315C193.378 86.6921 193.107 86.6527 192.844 86.6143C192.584 86.5813 192.32 86.6392 192.092 86.7789C192.162 86.7364 192.235 86.7012 192.311 86.6738L189.105 86.0623C189.091 86.1944 189.106 86.3276 189.15 86.4515C189.194 86.5755 189.265 86.6867 189.357 86.7766C189.53 86.9388 196.171 92.3966 196.366 92.5545L196.437 92.5648C196.311 92.4799 196.211 92.3579 196.151 92.2139C196.09 92.07 196.072 91.9102 196.097 91.7541Z" fill="black"/>
<path d="M210.843 85.9083L209.516 83.4772C209.447 83.3519 209.355 83.2426 209.245 83.1556C209.134 83.0686 209.008 83.0057 208.874 82.9705C208.739 82.9353 208.599 82.9286 208.462 82.9508C208.324 82.9729 208.192 83.0235 208.072 83.0996L207.555 83.4048L207.627 83.362L211.09 86.2107C210.988 86.1293 210.903 86.0263 210.843 85.9083Z" fill="#97C2F4"/>
<path opacity="0.3" d="M210.843 85.9083L209.516 83.4772C209.447 83.3519 209.355 83.2426 209.245 83.1556C209.134 83.0686 209.008 83.0057 208.874 82.9705C208.739 82.9353 208.599 82.9286 208.462 82.9508C208.324 82.9729 208.192 83.0235 208.072 83.0996L207.555 83.4048L207.627 83.362L211.09 86.2107C210.988 86.1293 210.903 86.0263 210.843 85.9083Z" fill="black"/>
<path d="M228.244 65.3314L225.204 62.826C225.229 63.0096 225.291 63.185 225.386 63.3406C225.481 63.4962 225.607 63.6285 225.756 63.7285L228.244 65.3314Z" fill="#97C2F4"/>
<path opacity="0.3" d="M228.244 65.3314L225.204 62.826C225.229 63.0096 225.291 63.185 225.386 63.3406C225.481 63.4962 225.607 63.6285 225.756 63.7285L228.244 65.3314Z" fill="black"/>
<path d="M213.103 30.8598C213.638 30.8844 214.177 30.9323 214.704 31.0091C214.996 31.0516 215.288 31.0941 215.573 31.1356C215.855 31.1639 216.141 31.1116 216.399 30.9844C216.657 30.8571 216.878 30.6595 217.039 30.4127L219.693 26.4222C219.87 26.1702 220.122 25.9871 220.409 25.903C220.697 25.819 221.001 25.839 221.274 25.9597L224.623 27.5433C224.74 27.5963 224.845 27.6738 224.931 27.771L224.856 27.6914L217.86 21.9231C217.793 21.8726 217.721 21.829 217.646 21.793L214.29 20.2083C214.019 20.0882 213.715 20.0687 213.429 20.1529C213.143 20.2372 212.892 20.4202 212.717 20.6719L210.062 24.6624C209.841 24.9809 209.528 25.2183 209.171 25.3395L212.115 29.7035C212.103 29.849 212.119 29.9952 212.162 30.1332C212.206 30.2713 212.276 30.3982 212.369 30.5064C212.461 30.6145 212.574 30.7016 212.7 30.7624C212.827 30.8231 212.964 30.8563 213.103 30.8598Z" fill="#97C2F4"/>
<path opacity="0.1" d="M215.57 31.158C215.852 31.1996 216.14 31.1455 216.393 31.0037L209.416 25.2534C209.336 25.2943 209.253 25.3305 209.168 25.3618L212.112 29.7259C212.103 29.8698 212.121 30.0139 212.166 30.1495C212.212 30.2851 212.283 30.4095 212.375 30.5152C212.468 30.621 212.58 30.706 212.705 30.7652C212.83 30.8244 212.966 30.8566 213.104 30.8598C213.638 30.8844 214.177 30.9324 214.704 31.0091C214.996 31.0516 215.287 31.1016 215.57 31.158Z" fill="black"/>
<path opacity="0.5" d="M224.928 27.7933L224.852 27.7137L217.856 21.9454C217.789 21.8949 217.718 21.8513 217.642 21.8153L214.286 20.2306C214.117 20.1543 213.934 20.1172 213.749 20.1217C213.563 20.1263 213.381 20.1724 213.213 20.257L220.218 26.0115C220.387 25.9264 220.571 25.8801 220.757 25.8758C220.944 25.8714 221.128 25.909 221.299 25.9861L224.647 27.5698C224.754 27.6249 224.849 27.7008 224.928 27.7933Z" fill="#FAFAFA"/>
<path opacity="0.2" d="M213.213 20.2571C213.012 20.3532 212.839 20.5043 212.713 20.6943L210.058 24.6848C209.891 24.9261 209.671 25.1214 209.415 25.2535L216.392 31.0038C216.649 30.8742 216.87 30.6784 217.035 30.4352L219.689 26.4447C219.813 26.2572 219.983 26.1082 220.181 26.0139L213.213 20.2571Z" fill="black"/>
<path d="M177.459 83.2557L175.889 79.3962C175.781 79.0973 175.76 78.7707 175.829 78.4572C175.898 78.1437 176.054 77.8572 176.276 77.6333L179.933 74.2531C180.16 74.0123 180.332 73.7226 180.439 73.405C180.546 73.0874 180.583 72.7499 180.55 72.417C180.423 71.5693 180.343 70.7139 180.312 69.8552C180.311 69.7135 180.281 69.574 180.225 69.4459C180.168 69.3179 180.086 69.2041 179.984 69.1123C179.882 69.0204 179.762 68.9525 179.632 68.913C179.502 68.8736 179.365 68.8634 179.231 68.8833L173.57 66.6891C173.603 67.0187 173.565 67.353 173.458 67.6668C173.35 67.9807 173.177 68.2661 172.95 68.5017L169.3 71.883C169.077 72.1068 168.922 72.3934 168.853 72.7069C168.784 73.0204 168.805 73.347 168.912 73.6459L170.482 77.5053C170.543 77.664 170.643 77.8022 170.773 77.9055L177.744 83.6473L177.836 83.714C177.666 83.608 177.534 83.4473 177.459 83.2557Z" fill="#97C2F4"/>
<path opacity="0.2" d="M180.549 72.4171C180.422 71.5693 180.342 70.7139 180.311 69.8552C180.31 69.7135 180.28 69.574 180.224 69.446C180.167 69.3179 180.085 69.2042 179.983 69.1123C179.881 69.0204 179.761 68.9525 179.631 68.913C179.501 68.8736 179.364 68.8635 179.23 68.8834L173.569 66.6891C173.614 67.1573 173.517 67.6303 173.292 68.0418L180.269 73.7921C180.499 73.3745 180.597 72.893 180.549 72.4171Z" fill="black"/>
<path opacity="0.3" d="M168.897 72.5476L175.881 78.299C175.951 78.0316 176.089 77.7884 176.281 77.5961L179.938 74.2159C180.075 74.0838 180.189 73.9277 180.275 73.7549L173.298 68.0045C173.21 68.1774 173.094 68.3331 172.955 68.4645L169.305 71.8458C169.11 72.0369 168.969 72.2798 168.897 72.5476Z" fill="black"/>
<path opacity="0.2" d="M177.743 83.6473L177.835 83.7139C177.665 83.6079 177.533 83.4473 177.458 83.2556L175.888 79.3961C175.759 79.0451 175.756 78.6553 175.881 78.2989L168.897 72.5475C168.775 72.9052 168.78 73.2953 168.912 73.6458L170.482 77.5053C170.542 77.664 170.643 77.8022 170.773 77.9054L177.743 83.6473Z" fill="black"/>
<path d="M174.799 68.3903L175.601 62.8818C175.665 62.5572 175.808 62.2541 176.015 62.0017C176.222 61.7493 176.488 61.556 176.786 61.4405L180.606 60.185C180.912 60.0638 181.191 59.8759 181.423 59.634C181.655 59.3921 181.836 59.1018 181.953 58.7825C182.282 57.7191 182.67 56.6566 183.1 55.6002C183.206 55.3131 183.215 54.9977 183.125 54.7073C183.035 54.4168 182.851 54.169 182.604 54.0057L180.21 52.462C180.087 52.3847 179.981 52.2823 179.897 52.1608C179.814 52.0394 179.754 51.9014 179.723 51.755C179.691 51.6085 179.688 51.4566 179.714 51.3081C179.739 51.1596 179.793 51.0176 179.871 50.8903L183.102 45.3395C183.269 45.0813 183.506 44.8818 183.783 44.7682C184.06 44.6546 184.363 44.6324 184.65 44.7047L187.429 45.604C187.723 45.6866 188.034 45.6818 188.327 45.5901C188.621 45.4983 188.885 45.3234 189.09 45.0847C189.848 44.0761 190.638 43.1025 191.456 42.1788C191.664 41.9211 191.811 41.617 191.886 41.2908C191.961 40.9646 191.963 40.6255 191.889 40.3008L190.994 37.2093C190.918 36.8953 190.929 36.5644 191.024 36.2541C191.119 35.9437 191.296 35.6663 191.533 35.4533L196.246 31.6178C196.349 31.5276 196.471 31.4623 196.601 31.427C196.731 31.3916 196.867 31.387 196.998 31.4134C197.13 31.4398 197.253 31.4966 197.36 31.5797C197.467 31.6628 197.555 31.77 197.617 31.8936L198.892 34.2259C198.961 34.3516 199.052 34.4615 199.162 34.5492C199.272 34.6368 199.398 34.7005 199.532 34.7363C199.667 34.7722 199.807 34.7796 199.945 34.7581C200.082 34.7365 200.215 34.6865 200.335 34.611C201.205 34.083 202.082 33.6018 202.958 33.1813C203.194 33.0633 203.42 32.9592 203.653 32.8561C203.891 32.7031 204.096 32.5009 204.256 32.2622C204.416 32.0235 204.527 31.7535 204.583 31.469L205.43 27.5961C205.516 27.2775 205.68 26.9867 205.906 26.7525C206.131 26.5184 206.41 26.3489 206.716 26.2609L211.377 25.181C211.498 25.146 211.624 25.1406 211.747 25.165C211.87 25.1895 211.985 25.2432 212.084 25.322C211.915 25.1832 205.296 19.721 205.1 19.5706C204.998 19.4973 204.88 19.4498 204.756 19.4318C204.633 19.4138 204.507 19.4258 204.388 19.4669L199.727 20.5468C199.421 20.6348 199.142 20.8042 198.917 21.0384C198.691 21.2726 198.527 21.5634 198.441 21.882L197.594 25.7549C197.536 26.0387 197.424 26.3081 197.265 26.5466C197.105 26.7851 196.901 26.9877 196.664 27.142C196.431 27.2451 196.198 27.3481 195.969 27.4672C195.191 27.8181 194.485 28.2178 193.751 28.6665L190.357 25.8889C190.197 25.7659 190 25.7034 189.8 25.7114C189.599 25.7195 189.406 25.7978 189.252 25.9336L184.533 29.768C184.297 29.9821 184.121 30.2595 184.026 30.5695C183.931 30.8795 183.919 31.2099 183.993 31.524L184.889 34.6155C184.964 34.9401 184.964 35.2796 184.888 35.6061C184.813 35.9326 184.665 36.2367 184.456 36.4935C183.644 37.4182 182.848 38.3908 182.09 39.3994C181.886 39.6395 181.621 39.8155 181.328 39.9073C181.034 39.9991 180.722 40.0031 180.428 39.9187L177.692 39.0256C177.405 38.9533 177.102 38.9755 176.825 39.0891C176.549 39.2027 176.311 39.4022 176.145 39.6604L172.914 45.2112C172.78 45.4447 172.729 45.7191 172.77 45.9857C172.811 46.2523 172.942 46.4938 173.138 46.6674L176.199 49.1834C176.233 49.4366 176.195 49.6958 176.09 49.9288C175.66 50.9851 175.272 52.0477 174.936 53.11C174.819 53.4283 174.639 53.7179 174.408 53.9598C174.178 54.2018 173.901 54.3905 173.597 54.5136L169.776 55.7691C169.496 55.8815 169.245 56.0628 169.045 56.2975C168.845 56.5321 168.701 56.8132 168.627 57.1166L167.825 62.6251C167.796 62.7707 167.805 62.9212 167.849 63.0614C167.894 63.2016 167.974 63.3264 168.08 63.4234C168.243 63.5537 174.859 68.9776 175.056 69.1737L175.106 69.181C174.99 69.0919 174.901 68.9712 174.847 68.8318C174.792 68.6924 174.776 68.5398 174.799 68.3903Z" fill="#97C2F4"/>
<path opacity="0.5" d="M197.38 31.5623L190.419 25.8066C190.258 25.6835 190.062 25.621 189.861 25.6291C189.661 25.6372 189.468 25.7154 189.314 25.8512L184.594 29.6857C184.35 29.899 184.171 30.1834 184.082 30.5018L191.066 36.2532C191.152 35.9334 191.331 35.6481 191.577 35.437L196.1 31.7566C196.28 31.6099 196.493 31.5147 196.717 31.4806C196.942 31.4465 197.17 31.4747 197.38 31.5623Z" fill="#FAFAFA"/>
<path opacity="0.5" d="M212.102 25.2942C211.933 25.1554 205.315 19.6932 205.118 19.5428C205.016 19.4695 204.898 19.422 204.775 19.404C204.651 19.386 204.525 19.398 204.406 19.4391L199.745 20.519C199.503 20.5852 199.277 20.7055 199.083 20.8717L206.066 26.623C206.258 26.4569 206.482 26.3361 206.722 26.2693L211.382 25.1894C211.503 25.1473 211.63 25.1349 211.755 25.153C211.88 25.1712 211.999 25.2195 212.102 25.2942Z" fill="#FAFAFA"/>
<path opacity="0.2" d="M199.101 20.8364C198.8 21.0883 198.582 21.4323 198.478 21.8189L197.631 25.6919C197.576 25.9302 197.487 26.1587 197.365 26.3687L204.348 32.1201C204.468 31.9093 204.555 31.6805 204.607 31.4422L205.455 27.5693C205.558 27.1809 205.78 26.8365 206.085 26.5877L199.101 20.8364Z" fill="black"/>
<path opacity="0.1" d="M197.365 26.3688C197.215 26.6723 196.981 26.9222 196.693 27.0855C196.46 27.1886 196.227 27.2916 195.998 27.4106C195.22 27.7616 194.514 28.1613 193.779 28.61L197.379 31.5699C197.478 31.6488 197.561 31.7489 197.62 31.8638L198.908 34.213C198.976 34.3388 199.067 34.4487 199.177 34.5364C199.287 34.624 199.413 34.6876 199.547 34.7235C199.682 34.7594 199.822 34.7668 199.96 34.7452C200.098 34.7237 200.23 34.6737 200.35 34.5981C201.22 34.0701 202.098 33.5889 202.974 33.1684C203.209 33.0505 203.435 32.9464 203.669 32.8433C203.956 32.6785 204.192 32.4297 204.347 32.1276L197.365 26.3688Z" fill="black"/>
<path opacity="0.2" d="M191.011 37.189C190.928 36.8815 190.938 36.5533 191.039 36.2492L184.056 30.4978C183.961 30.8032 183.952 31.1291 184.028 31.4377L184.924 34.5292C184.987 34.7786 185.001 35.0397 184.965 35.2963L191.941 41.0467C191.98 40.7909 191.968 40.5302 191.907 40.2805L191.011 37.189Z" fill="black"/>
<path opacity="0.1" d="M184.51 36.4102C183.699 37.3349 182.902 38.3075 182.144 39.3161C181.934 39.5764 181.653 39.7639 181.339 39.8534L188.315 45.6038C188.63 45.5156 188.911 45.3278 189.121 45.0664C189.879 44.0578 190.668 43.0842 191.486 42.1605C191.741 41.846 191.903 41.4623 191.953 41.0561L184.962 35.3037C184.916 35.709 184.759 36.0934 184.51 36.4102Z" fill="black"/>
<path opacity="0.2" d="M180.456 39.8697L177.72 38.9766C177.419 38.8946 177.099 38.9175 176.808 39.0418L183.785 44.7921C184.075 44.6679 184.395 44.645 184.696 44.7269L187.475 45.6263C187.757 45.7093 188.057 45.7026 188.337 45.607L181.36 39.8567C181.066 39.9586 180.75 39.9631 180.456 39.8697Z" fill="black"/>
<path opacity="0.5" d="M176.809 39.0416C176.535 39.1509 176.302 39.3494 176.144 39.6071L172.913 45.1579C172.78 45.3914 172.729 45.6658 172.77 45.9324C172.811 46.199 172.941 46.4405 173.138 46.6141L176.198 49.1301L180.026 52.2753C179.86 52.0997 179.755 51.8704 179.729 51.6239C179.703 51.3773 179.757 51.1277 179.882 50.9147L183.112 45.3639C183.272 45.1079 183.505 44.91 183.777 44.7984L176.809 39.0416Z" fill="#FAFAFA"/>
<path opacity="0.2" d="M176.2 49.1301C176.234 49.3833 176.196 49.6425 176.091 49.8755C175.661 50.9318 175.273 51.9944 174.937 53.0567C174.822 53.3838 174.637 53.6799 174.396 53.9219L181.373 59.6722C181.616 59.4313 181.803 59.1355 181.92 58.8081C182.25 57.7447 182.637 56.6821 183.068 55.6258C183.174 55.3387 183.183 55.0233 183.093 54.7328C183.002 54.4424 182.819 54.1946 182.572 54.0313L180.178 52.4876C180.106 52.4362 180.039 52.3781 179.978 52.3138L176.2 49.1301Z" fill="black"/>
<path opacity="0.1" d="M174.428 53.8963C174.203 54.1382 173.927 54.3222 173.623 54.4336L169.802 55.6891C169.477 55.8176 169.192 56.0402 168.981 56.3308L175.965 62.0822C176.172 61.7882 176.458 61.5647 176.786 61.4405L180.606 60.185C180.91 60.0736 181.186 59.8896 181.412 59.6477L174.428 53.8963Z" fill="black"/>
<path opacity="0.5" d="M175.099 69.2183C174.982 69.1278 174.891 69.0045 174.837 68.8622C174.783 68.7199 174.769 68.5643 174.795 68.4128L175.597 62.9042C175.647 62.6222 175.763 62.3566 175.935 62.1313L168.951 56.38C168.781 56.6057 168.667 56.8718 168.62 57.1539L167.818 62.6624C167.789 62.8081 167.798 62.9586 167.843 63.0987C167.887 63.2389 167.967 63.3638 168.073 63.4607C168.236 63.591 174.853 69.0149 175.05 69.2111L175.099 69.2183Z" fill="#FAFAFA"/>
<path d="M233.693 49.1956C233.689 49.1354 233.68 49.0756 233.668 49.0169C233.655 48.9617 233.633 48.9095 233.603 48.8628C233.577 48.8172 233.546 48.7746 233.512 48.7354C233.42 48.6463 233.31 48.5805 233.189 48.5431C233.068 48.5058 232.941 48.4978 232.816 48.5199L229.195 49.0051C229.06 49.025 228.924 49.0147 228.794 48.9747C228.664 48.9347 228.544 48.8661 228.443 48.7734C228.341 48.6808 228.26 48.5662 228.205 48.4374C228.15 48.3087 228.122 48.1687 228.123 48.0269C228.091 47.1854 228.019 46.3466 227.906 45.5139C227.877 45.2622 227.892 45.0064 227.951 44.7592C227.958 44.6816 227.969 44.6045 227.984 44.5281C227.984 44.5281 227.984 44.5281 227.991 44.4834L228.062 44.2958C228.108 44.2267 228.148 44.1535 228.181 44.0772L228.255 43.9662L228.311 43.883C228.36 43.8241 228.412 43.7681 228.466 43.7153L232.183 40.2752C232.296 40.1693 232.39 40.044 232.462 39.9049C232.584 39.6805 232.656 39.4304 232.671 39.174C232.693 38.9381 232.66 38.7007 232.575 38.4826L231.794 36.4506L231.005 34.5241C230.979 34.4615 230.949 34.4012 230.915 34.3435C230.882 34.2962 230.844 34.2525 230.803 34.2131C230.657 34.0848 230.474 34.012 230.282 34.0062C230.09 34.0003 229.901 34.0619 229.745 34.1809L225.883 36.9223C225.644 37.0891 225.355 37.1586 225.073 37.1175C224.79 37.0763 224.533 36.9274 224.352 36.6993C223.964 36.2044 223.546 35.7367 223.1 35.2992C222.89 35.0772 222.749 34.7927 222.698 34.4835C222.647 34.1742 222.688 33.8548 222.814 33.5676L223.172 32.8585L223.895 31.4414L225.071 29.1083C225.101 29.045 225.127 28.9803 225.15 28.9143L225.159 28.8546C225.169 28.808 225.176 28.7606 225.18 28.713C225.186 28.6913 225.19 28.6686 225.189 28.6459C225.202 28.6049 225.208 28.5621 225.208 28.5192C225.214 28.4974 225.218 28.4748 225.218 28.4521L225.192 28.3266C225.193 28.3065 225.195 28.2864 225.201 28.267C225.184 28.2155 225.162 28.1663 225.135 28.1204L225.027 27.9601L224.985 27.9538C224.898 27.8567 224.793 27.7792 224.676 27.7262L221.273 25.9597C221.001 25.839 220.696 25.819 220.409 25.9031C220.122 25.9871 219.869 26.1702 219.693 26.4223L217.039 30.4128C216.878 30.6595 216.657 30.8571 216.399 30.9844C216.141 31.1117 215.855 31.164 215.573 31.1357C215.288 31.0942 214.996 31.0516 214.704 31.0091C214.176 30.9324 213.642 30.8546 213.103 30.8598C212.965 30.8566 212.829 30.8244 212.704 30.7652C212.579 30.706 212.467 30.621 212.375 30.5152C212.282 30.4095 212.211 30.2851 212.166 30.1495C212.121 30.0139 212.102 29.8699 212.111 29.7259L212.24 27.8949L212.253 27.8054L212.381 26.0276C212.385 25.9531 212.381 25.8786 212.369 25.8052L212.378 25.7456C212.384 25.7008 212.391 25.6561 212.339 25.6105C212.288 25.565 212.345 25.5733 212.305 25.5447L212.231 25.4045L212.182 25.344L212.106 25.2645C212.007 25.1857 211.892 25.132 211.769 25.1075C211.647 25.0831 211.52 25.0885 211.399 25.1235L206.738 26.2034C206.433 26.2914 206.154 26.4609 205.928 26.695C205.703 26.9292 205.539 27.22 205.453 27.5386L204.605 31.4115C204.549 31.696 204.438 31.966 204.278 32.2047C204.118 32.4434 203.913 32.6456 203.676 32.7986C203.443 32.9017 203.216 33.0058 202.981 33.1238C202.105 33.5443 201.227 34.0255 200.357 34.5535C200.238 34.629 200.105 34.679 199.967 34.7006C199.829 34.7221 199.689 34.7147 199.555 34.6788C199.42 34.643 199.294 34.5793 199.185 34.4917C199.075 34.404 198.983 34.2941 198.915 34.1684L197.639 31.8361C197.578 31.7125 197.49 31.6053 197.383 31.5222C197.276 31.4392 197.152 31.3823 197.021 31.3559C196.889 31.3295 196.754 31.3341 196.623 31.3695C196.493 31.4049 196.372 31.4701 196.268 31.5603L191.555 35.3958C191.318 35.6088 191.142 35.8862 191.046 36.1966C190.951 36.5069 190.941 36.8378 191.016 37.1518L191.912 40.2433C191.985 40.568 191.984 40.9071 191.909 41.2333C191.833 41.5595 191.686 41.8636 191.478 42.1213C190.66 43.045 189.871 44.0186 189.113 45.0272C188.908 45.2659 188.643 45.4408 188.35 45.5326C188.056 45.6243 187.745 45.6291 187.451 45.5465L184.672 44.6472C184.385 44.5749 184.083 44.5971 183.806 44.7107C183.529 44.8243 183.291 45.0238 183.125 45.282L179.894 50.8328C179.815 50.9601 179.762 51.1021 179.736 51.2506C179.711 51.3991 179.714 51.551 179.745 51.6975C179.777 51.8439 179.836 51.9819 179.92 52.1033C180.004 52.2248 180.11 52.3272 180.233 52.4045L182.627 53.9482C182.873 54.1115 183.057 54.3593 183.147 54.6498C183.238 54.9402 183.229 55.2556 183.122 55.5427C182.692 56.5991 182.305 57.6616 181.975 58.725C181.858 59.0443 181.678 59.3346 181.446 59.5765C181.213 59.8184 180.935 60.0063 180.629 60.1275L176.808 61.383C176.51 61.4985 176.245 61.6918 176.037 61.9442C175.83 62.1966 175.688 62.4997 175.624 62.8243L174.822 68.3329C174.796 68.4844 174.81 68.64 174.864 68.7823C174.918 68.9246 175.009 69.0479 175.126 69.1384L175.191 69.1478L175.29 69.1623L175.354 69.1716L175.54 69.1986C175.603 69.215 175.667 69.2244 175.732 69.2266L176.674 69.1049L179.263 68.7587C179.398 68.7388 179.534 68.7489 179.664 68.7884C179.794 68.8278 179.914 68.8958 180.016 68.9876C180.118 69.0795 180.2 69.1932 180.257 69.3213C180.313 69.4494 180.343 69.5888 180.344 69.7305C180.375 70.5892 180.455 71.4447 180.582 72.2924C180.616 72.6253 180.578 72.9628 180.471 73.2804C180.365 73.598 180.192 73.8877 179.966 74.1285L176.309 77.5087C176.086 77.7325 175.93 78.0191 175.861 78.3326C175.793 78.6461 175.813 78.9727 175.921 79.2716L177.491 83.131C177.566 83.3227 177.698 83.4833 177.868 83.5894C177.916 83.6161 177.966 83.6387 178.018 83.6569L178.232 83.688L178.389 83.7108L178.526 83.6699L178.568 83.6761C178.628 83.6556 178.684 83.6252 178.734 83.5861L182.572 80.8639C182.812 80.6967 183.102 80.6271 183.386 80.6685C183.67 80.7098 183.928 80.8591 184.111 81.088C184.496 81.5821 184.915 82.0475 185.363 82.4806C185.578 82.6982 185.721 82.9816 185.772 83.2908C185.824 83.6001 185.781 83.9197 185.65 84.2047L183.39 88.6864C183.276 88.9072 183.241 89.1621 183.291 89.4052C183.341 89.6484 183.473 89.8638 183.662 90.0125C183.714 90.0532 183.77 90.0869 183.83 90.113L185.504 90.9049L187.186 91.6977C187.252 91.7313 187.321 91.7567 187.393 91.7736C187.463 91.7914 187.534 91.8018 187.607 91.8047C187.753 91.8111 187.901 91.7941 188.043 91.7541C188.187 91.7122 188.324 91.6474 188.45 91.562C188.572 91.4741 188.677 91.3628 188.759 91.2341L190.101 89.2143L191.443 87.1945C191.491 87.1223 191.545 87.0538 191.603 86.9896L191.663 86.9298L191.796 86.8122L191.863 86.7534L192.016 86.6538L192.079 86.6174C192.307 86.4777 192.571 86.4198 192.831 86.4528C193.095 86.4912 193.365 86.5306 193.636 86.57C194.201 86.7068 194.774 86.8129 195.35 86.8881C195.488 86.889 195.624 86.9195 195.749 86.9774C195.874 87.0354 195.986 87.1197 196.079 87.2251C196.171 87.3306 196.242 87.4549 196.286 87.5905C196.33 87.7261 196.347 87.87 196.336 88.0135L196.078 91.782C196.053 91.9381 196.072 92.0979 196.132 92.2419C196.193 92.3859 196.292 92.5078 196.419 92.5928L196.483 92.6021L196.59 92.6176L196.696 92.6332C196.739 92.6432 196.781 92.6494 196.825 92.6519L196.889 92.6612C196.956 92.6604 197.023 92.6523 197.089 92.637L201.749 91.5572C201.898 91.5155 202.041 91.4545 202.176 91.3757C202.315 91.2877 202.445 91.1841 202.563 91.0666C202.62 91.0042 202.673 90.9382 202.723 90.8691C202.873 90.6811 202.98 90.4595 203.035 90.2219L203.908 86.2233C203.946 86.0721 203.994 85.9239 204.053 85.78C204.14 85.5709 204.254 85.3749 204.392 85.1976C204.498 85.0523 204.635 84.9342 204.792 84.8524L205.431 84.5572L206.042 84.258L206.279 84.1326L206.641 83.9417L206.942 83.7724L207.228 83.6085C207.346 83.5495 207.457 83.4821 207.569 83.4146L208.086 83.1093C208.206 83.0333 208.338 82.9827 208.476 82.9605C208.614 82.9384 208.754 82.9451 208.888 82.9802C209.023 83.0154 209.149 83.0783 209.259 83.1653C209.369 83.2524 209.461 83.3617 209.53 83.4869L210.857 85.918C210.92 86.0408 211.009 86.1473 211.117 86.2299L211.16 86.2361L211.273 86.306L211.33 86.3143L211.451 86.3319L211.501 86.3392C211.554 86.3547 211.61 86.3627 211.665 86.363C211.713 86.3618 211.761 86.3533 211.807 86.338L211.857 86.3452L211.979 86.3022L212.029 86.3095C212.087 86.2812 212.141 86.2456 212.19 86.2035L216.91 82.369C217.091 82.2159 217.234 82.02 217.328 81.7981C217.398 81.648 217.448 81.4888 217.477 81.325C217.521 81.088 217.511 80.8442 217.449 80.6131L216.515 77.3865C216.47 77.2335 216.449 77.0737 216.453 76.9132C216.46 76.7396 216.485 76.5672 216.528 76.3988C216.568 76.2312 216.626 76.0686 216.7 75.9139C216.769 75.7672 216.857 75.6314 216.963 75.5106C217.355 75.0654 217.742 74.6041 218.12 74.1567C218.498 73.7094 218.875 73.2162 219.244 72.7295C219.42 72.5106 219.644 72.3401 219.897 72.2334C220.151 72.1267 220.424 72.0872 220.694 72.1184C220.768 72.1215 220.842 72.1322 220.915 72.1506L223.769 73.0837L223.99 73.1159C224.215 73.1402 224.442 73.1053 224.652 73.0144C224.758 72.9746 224.859 72.9202 224.952 72.8525C225.048 72.7891 225.135 72.7121 225.211 72.6238C225.261 72.566 225.307 72.5039 225.347 72.4381L228.578 66.8873C228.724 66.6307 228.769 66.3253 228.702 66.0376C228.671 65.8945 228.613 65.7596 228.532 65.6406C228.45 65.5216 228.347 65.4209 228.228 65.3444L225.74 63.7415C225.592 63.6414 225.465 63.5092 225.37 63.3536C225.275 63.198 225.213 63.0225 225.188 62.8389C225.188 62.8389 225.188 62.8389 225.195 62.7868C225.2 62.7342 225.207 62.6819 225.218 62.6302C225.218 62.6075 225.221 62.5849 225.228 62.5631C225.231 62.5155 225.238 62.4681 225.248 62.4215C225.248 62.3988 225.252 62.3761 225.258 62.3544C225.261 62.2865 225.271 62.2191 225.288 62.1532C225.391 61.8942 225.494 61.6352 225.589 61.3826C225.787 60.8709 225.979 60.3509 226.156 59.8361C226.244 59.5825 226.325 59.3278 226.406 59.0657C226.417 58.9912 226.428 58.9166 226.497 58.8429C226.765 58.3043 227.212 57.8846 227.753 57.6632L229.723 57.0214L231.702 56.3732C231.999 56.2606 232.263 56.0679 232.467 55.8147C232.678 55.5634 232.821 55.258 232.879 54.9308L233.686 49.3925C233.692 49.327 233.694 49.2612 233.693 49.1956ZM214.368 65.2982C214.097 65.7079 213.645 66.3652 213.361 66.7654C210.782 70.4608 207.384 73.4524 203.464 75.479C201.287 76.6295 198.846 77.1015 196.435 76.8382C195.402 76.7054 194.408 76.3561 193.512 75.8111C192.617 75.2661 191.838 74.5366 191.222 73.6663C191.126 73.5305 191.035 73.4031 190.954 73.2618C190.325 72.239 189.879 71.1041 189.637 69.9112C189.638 69.8885 189.641 69.866 189.647 69.8441L189.56 69.39L189.536 69.257L189.478 68.8528L189.46 68.6826L189.414 68.2954L189.4 68.0954C189.417 67.9761 189.384 67.8496 189.374 67.7187L189.361 67.5112L189.351 67.1292C189.361 67.0621 189.372 66.9876 189.383 66.913C189.393 66.8385 189.384 66.6544 189.381 66.5246C189.378 66.3948 189.401 66.383 189.412 66.3084C189.423 66.2339 189.452 66.0326 189.437 65.8858L189.466 65.692C189.495 65.4907 189.525 65.282 189.557 65.0659C190.141 60.267 191.892 55.689 194.643 51.7697C197.288 47.7531 200.871 44.5023 205.045 42.3304C207.223 41.182 209.664 40.71 212.075 40.9712C212.246 40.9961 212.417 41.021 212.588 41.0458L212.723 41.0656L213.095 41.1578L213.231 41.1775L213.614 41.2942L213.706 41.3077C213.859 41.3603 214.01 41.4204 214.16 41.4879C217.751 43.0611 219.662 47.2215 219.121 52.6918C218.543 57.2235 216.911 61.5523 214.368 65.2982Z" fill="#97C2F4"/>
<path d="M219.076 52.7386C219.379 50.3309 219.056 47.8909 218.14 45.6753C217.351 43.8099 215.914 42.3318 214.116 41.5347C213.966 41.4671 213.815 41.407 213.662 41.3544L213.569 41.3409L213.186 41.2242L213.051 41.2045L212.679 41.1123L212.543 41.0926C212.372 41.0677 212.202 41.0428 212.031 41.0179L211.525 40.9443C212.135 42.9063 212.328 44.9888 212.091 47.0479C211.514 51.5614 209.887 55.8724 207.353 59.6031C207.09 60.0138 206.638 60.6711 206.347 61.0703C203.77 64.7651 200.374 67.757 196.457 69.785C194.431 70.8393 192.183 71.328 189.936 71.2029C190.179 71.9475 190.508 72.6574 190.915 73.3171L191.184 73.7215C191.801 74.5923 192.581 75.322 193.478 75.8671C194.375 76.4123 195.37 76.7617 196.404 76.8945C198.815 77.1557 201.256 76.6837 203.433 75.5353C207.353 73.5086 210.751 70.517 213.33 66.8216C213.614 66.4215 214.066 65.7641 214.337 65.3544C216.877 61.6045 218.504 57.2724 219.076 52.7386Z" fill="#97C2F4"/>
<path opacity="0.35" d="M219.076 52.7386C219.379 50.3309 219.056 47.8909 218.14 45.6753C217.351 43.8099 215.914 42.3318 214.116 41.5347C213.966 41.4671 213.815 41.407 213.662 41.3544L213.569 41.3409L213.186 41.2242L213.051 41.2045L212.679 41.1123L212.543 41.0926C212.372 41.0677 212.202 41.0428 212.031 41.0179L211.525 40.9443C212.135 42.9063 212.328 44.9888 212.091 47.0479C211.514 51.5614 209.887 55.8724 207.353 59.6031C207.09 60.0138 206.638 60.6711 206.347 61.0703C203.77 64.7651 200.374 67.757 196.457 69.785C194.431 70.8393 192.183 71.328 189.936 71.2029C190.179 71.9475 190.508 72.6574 190.915 73.3171L191.184 73.7215C191.801 74.5923 192.581 75.322 193.478 75.8671C194.375 76.4123 195.37 76.7617 196.404 76.8945C198.815 77.1557 201.256 76.6837 203.433 75.5353C207.353 73.5086 210.751 70.517 213.33 66.8216C213.614 66.4215 214.066 65.7641 214.337 65.3544C216.877 61.6045 218.504 57.2724 219.076 52.7386Z" fill="black"/>
<path d="M138.802 66.3168C142.038 70.8755 143.501 77.3684 142.745 85.0607C141.876 93.8783 138.254 103.513 132.506 112.366C131.924 113.264 130.945 114.689 130.317 115.557C124.135 124.088 116.555 130.779 108.811 134.501C103.335 137.137 98.1929 138.124 93.5265 137.444C91.9734 137.223 90.4563 136.795 89.0121 136.171C90.3548 138.065 92.0535 139.652 94.0063 140.836C95.9591 142.02 98.1259 142.777 100.377 143.062C105.043 143.741 110.185 142.754 115.661 140.119C123.407 136.39 131.001 129.701 137.175 121.176C137.796 120.307 138.774 118.881 139.356 117.984C145.112 109.132 148.733 99.4971 149.595 90.6785C150.753 78.7818 146.599 69.7354 138.802 66.3168Z" fill="#97C2F4"/>
<path opacity="0.35" d="M138.802 66.3168C142.038 70.8755 143.501 77.3684 142.745 85.0607C141.876 93.8783 138.254 103.513 132.506 112.366C131.924 113.264 130.945 114.689 130.317 115.557C124.135 124.088 116.555 130.779 108.811 134.501C103.335 137.137 98.1929 138.124 93.5265 137.444C91.9734 137.223 90.4563 136.795 89.0121 136.171C90.3548 138.065 92.0535 139.652 94.0063 140.836C95.9591 142.02 98.1259 142.777 100.377 143.062C105.043 143.741 110.185 142.754 115.661 140.119C123.407 136.39 131.001 129.701 137.175 121.176C137.796 120.307 138.774 118.881 139.356 117.984C145.112 109.132 148.733 99.4971 149.595 90.6785C150.753 78.7818 146.599 69.7354 138.802 66.3168Z" fill="black"/>
<path d="M139.812 71.3735L139.77 71.3673L132.579 65.4411L132.515 65.4318C127.912 62.067 121.18 61.8787 113.329 65.6836C97.5634 73.284 83.3464 93.9818 81.5748 111.947C80.6934 120.9 83.0747 127.481 87.6343 130.893L87.677 130.899L94.874 136.834L94.931 136.842C99.5327 140.214 106.271 140.403 114.125 136.629C129.891 129.029 144.108 108.331 145.872 90.3648C146.75 81.3353 144.372 74.7852 139.812 71.3735Z" fill="#37474F"/>
<path d="M94.5348 136.51L87.679 130.831L87.6291 130.824C83.0777 127.405 80.6965 120.824 81.5768 111.879C82.3685 103.842 85.6383 95.2747 90.4012 87.5949L97.6196 93.5326C92.8637 101.214 89.5808 109.771 88.7923 117.786C87.9096 126.548 90.1663 133.035 94.5348 136.51Z" fill="#263238"/>
<path d="M135.24 117.353C147.64 99.2846 149.67 78.6852 139.773 71.3429C129.876 64.0005 111.801 72.6957 99.4004 90.764C86.9999 108.832 84.9701 129.432 94.8669 136.774C104.764 144.116 122.839 135.421 135.24 117.353Z" fill="#455A64"/>
<path d="M102.265 133.593C93.7394 132.786 93.8142 122.627 94.2409 118.297C95.8193 102.458 108.864 83.4164 122.766 76.7246C126.309 75.0253 129.629 74.2602 132.378 74.5158C140.904 75.3231 140.829 85.4819 140.402 89.8119C138.824 105.651 125.779 124.693 111.87 131.384C108.334 133.084 105.014 133.849 102.265 133.593Z" fill="#FAFAFA"/>
<path d="M118.555 107.245C118.453 107.231 118.354 107.199 118.263 107.149C118.09 107.059 117.948 106.914 117.859 106.735C117.771 106.555 117.739 106.35 117.769 106.148L121.084 83.3762C121.092 83.2407 121.127 83.1081 121.187 82.9868C121.247 82.8655 121.33 82.7582 121.431 82.6717C121.532 82.5852 121.65 82.5214 121.775 82.4844C121.9 82.4474 122.032 82.4379 122.16 82.4566C122.289 82.4753 122.411 82.5218 122.521 82.593C122.631 82.6643 122.725 82.7588 122.797 82.8706C122.87 82.9823 122.919 83.1089 122.941 83.2422C122.964 83.3755 122.96 83.5126 122.929 83.6449L120.023 103.607L132.161 91.4439C132.345 91.3075 132.569 91.2446 132.792 91.2666C133.015 91.2886 133.222 91.3941 133.374 91.5637C133.527 91.7332 133.614 91.9554 133.622 92.1893C133.629 92.4232 133.555 92.6531 133.413 92.8365L119.335 106.985C119.231 107.087 119.108 107.164 118.972 107.209C118.837 107.254 118.695 107.266 118.555 107.245Z" fill="#37474F"/>
<path d="M110.906 123.311C110.863 123.312 110.82 123.306 110.778 123.293C110.732 123.271 110.69 123.24 110.655 123.201C110.62 123.162 110.593 123.117 110.575 123.067C110.557 123.017 110.549 122.963 110.551 122.91C110.554 122.856 110.566 122.804 110.587 122.755L118.318 105.482C118.364 105.384 118.445 105.309 118.543 105.272C118.641 105.235 118.748 105.24 118.842 105.284C118.934 105.329 119.006 105.411 119.04 105.512C119.074 105.612 119.069 105.723 119.025 105.821L111.302 123.095C111.261 123.166 111.203 123.224 111.133 123.262C111.063 123.3 110.985 123.317 110.906 123.311Z" fill="#97C2F4"/>
<path d="M119.069 101.664C120.924 100.769 122.256 101.762 122.05 103.879C121.874 105.022 121.444 106.11 120.795 107.055C120.146 108 119.295 108.775 118.311 109.318C116.457 110.213 115.125 109.219 115.331 107.103C115.505 105.959 115.934 104.87 116.584 103.925C117.233 102.98 118.085 102.206 119.069 101.664Z" fill="#97C2F4"/>
<path d="M168.784 87.1009C168.789 87.0867 168.791 87.0714 168.79 87.0562C168.786 86.9528 168.769 86.8506 168.74 86.752L168.748 86.6998C168.724 86.606 168.688 86.5162 168.641 86.4331C168.592 86.3544 168.537 86.2802 168.477 86.2113C168.316 86.0525 168.122 85.9352 167.91 85.8686C167.697 85.802 167.472 85.788 167.252 85.8275L160.923 86.6721C160.689 86.7068 160.451 86.6891 160.225 86.62C159.999 86.551 159.79 86.4323 159.612 86.2717C159.435 86.1112 159.292 85.9126 159.195 85.689C159.097 85.4655 159.046 85.2222 159.046 84.9754C158.991 83.5033 158.863 82.0363 158.66 80.5803C158.611 80.1169 158.645 79.6469 158.76 79.1943C158.788 79.0598 158.827 78.9279 158.876 78.8C158.876 78.7723 158.88 78.7446 158.888 78.718C158.904 78.6062 158.971 78.4942 159.022 78.395C159.073 78.2959 159.072 78.3033 159.094 78.2532C159.115 78.2031 159.175 78.0901 159.223 78.0133C159.262 77.9458 159.306 77.8809 159.353 77.8191C159.361 77.7669 159.419 77.7145 159.455 77.6665C159.539 77.5653 159.629 77.469 159.723 77.3781L166.222 71.3668C166.417 71.1816 166.582 70.9636 166.709 70.7222C166.907 70.3452 167.027 69.9293 167.061 69.5022C167.104 69.0866 167.048 68.6675 166.896 68.2832L165.525 64.9094L164.127 61.4707C164.08 61.3636 164.024 61.2612 163.96 61.1648C163.9 61.0813 163.834 61.0029 163.762 60.9304L163.712 60.9231C163.462 60.6891 163.14 60.5552 162.802 60.545C162.465 60.5349 162.133 60.6489 161.865 60.8673L155.115 65.6546C154.694 65.9424 154.187 66.0567 153.694 65.975C153.201 65.8934 152.758 65.6218 152.451 65.2135C151.789 64.3588 151.079 63.5463 150.324 62.7801C149.953 62.3939 149.706 61.8967 149.616 61.3555C149.525 60.8144 149.596 60.2551 149.819 59.7531L150.452 58.5055L151.718 56.0028L153.767 51.9242C153.823 51.8143 153.867 51.6981 153.898 51.5778C153.898 51.5778 153.908 51.5033 153.914 51.466C153.919 51.4287 153.937 51.3094 153.947 51.2349C153.958 51.1604 153.96 51.1455 153.966 51.1082C153.969 51.0343 153.967 50.9604 153.962 50.8868C153.968 50.8421 153.974 50.8048 153.979 50.7676C153.968 50.6931 153.952 50.6196 153.931 50.5474L153.904 50.4369C153.872 50.3491 153.833 50.2644 153.788 50.184C153.792 50.167 153.795 50.1495 153.795 50.1318C153.737 50.0366 153.672 49.9458 153.602 49.8601L153.532 49.7891C153.381 49.6244 153.2 49.4921 153 49.3994L147.146 46.6291C146.675 46.4018 146.142 46.3501 145.635 46.4825C145.128 46.6148 144.676 46.9233 144.356 47.357L139.702 54.3372C139.414 54.7642 139.023 55.1042 138.569 55.3219C138.115 55.5397 137.615 55.6271 137.121 55.5752C136.622 55.5026 136.123 55.3842 135.617 55.3106C134.691 55.1758 133.751 55.0846 132.812 55.0392C132.571 55.0369 132.333 54.9832 132.114 54.8815C131.895 54.7797 131.698 54.6321 131.536 54.4475C131.375 54.2629 131.251 54.0453 131.173 53.808C131.095 53.5707 131.065 53.3186 131.084 53.0673L131.302 49.8716L131.324 49.715L131.538 46.6023C131.547 46.4723 131.544 46.3418 131.529 46.2128L131.495 46.0937C131.485 46.0156 131.467 45.939 131.441 45.8651C131.425 45.824 131.403 45.7851 131.378 45.7493C131.354 45.6881 131.323 45.63 131.287 45.5762C131.258 45.5392 131.226 45.5041 131.193 45.4712C131.159 45.4219 131.119 45.3776 131.074 45.3397C130.903 45.2041 130.704 45.1109 130.493 45.067C130.281 45.023 130.062 45.0294 129.852 45.0857L121.688 46.9952C121.156 47.1487 120.671 47.4437 120.278 47.8511C119.886 48.2585 119.601 48.7643 119.451 49.3185L117.97 56.0908C117.869 56.5909 117.671 57.065 117.387 57.4835C117.103 57.902 116.74 58.2558 116.321 58.5226L115.108 59.1072C113.545 59.849 112.018 60.6821 110.525 61.6066C110.316 61.7386 110.084 61.8261 109.844 61.8642C109.603 61.9022 109.358 61.89 109.124 61.8282C108.889 61.7664 108.669 61.6562 108.476 61.5042C108.284 61.3521 108.123 61.1612 108.003 60.9425L105.774 56.8578C105.666 56.6427 105.512 56.4561 105.325 56.3117C105.138 56.1673 104.922 56.0686 104.692 56.0229C104.463 55.9771 104.226 55.9853 103.998 56.047C103.771 56.1087 103.559 56.2222 103.378 56.3794L95.126 63.087C94.7095 63.4559 94.3997 63.9386 94.2321 64.4798C94.0645 65.0209 94.046 65.5986 94.1787 66.1462L95.7298 71.533C95.8611 72.0992 95.8612 72.6917 95.7302 73.2616C95.5992 73.8314 95.3407 74.3624 94.9762 74.8106C93.5473 76.4295 92.1712 78.1195 90.8478 79.8806C90.4945 80.313 90.0332 80.6345 89.5164 80.8083C88.9997 80.9821 88.4484 81.0012 87.9256 80.8634L83.1396 79.3065C82.6299 79.1657 82.0884 79.1986 81.5935 79.4002C81.0985 79.6018 80.6758 79.9618 80.3864 80.428L74.7393 90.1334C74.4792 90.5784 74.3961 91.1102 74.508 91.6138C74.6199 92.1173 74.9177 92.5519 75.337 92.8237L79.528 95.5195C79.9573 95.8081 80.2764 96.2437 80.4315 96.7529C80.5867 97.2622 80.5683 97.814 80.3795 98.3153C79.6246 100.169 78.9519 102.025 78.3613 103.883C78.1587 104.44 77.8448 104.947 77.4407 105.37C77.0365 105.794 76.5515 106.122 76.0182 106.335L69.3412 108.522C68.8218 108.725 68.359 109.063 67.997 109.503C67.6349 109.943 67.3855 110.472 67.2727 111.038L65.8706 120.668C65.8167 120.937 65.8367 121.216 65.9282 121.472C66.0197 121.727 66.179 121.95 66.3877 122.114L66.5308 122.18L66.6942 122.257L66.8082 122.274C66.8781 122.292 66.9497 122.302 67.0219 122.305L67.1288 122.32C67.2454 122.331 67.3631 122.328 67.4794 122.311L69.119 122.093L73.6449 121.488C73.8804 121.452 74.1199 121.469 74.3474 121.538C74.5749 121.606 74.7851 121.725 74.9641 121.886C75.1431 122.046 75.2867 122.246 75.3854 122.47C75.4841 122.694 75.5356 122.939 75.5365 123.187C75.5958 124.686 75.7329 126.18 75.9472 127.661C76.0111 128.243 75.948 128.834 75.7625 129.389C75.577 129.945 75.274 130.451 74.8763 130.87L68.4852 136.791C68.0972 137.183 67.8266 137.685 67.7067 138.233C67.5868 138.781 67.623 139.351 67.8107 139.874L70.5533 146.622C70.6834 146.953 70.9138 147.23 71.2097 147.41C71.2943 147.459 71.3839 147.497 71.4767 147.525L71.5551 147.537C71.6274 147.555 71.7014 147.565 71.7759 147.569L71.8472 147.579C71.9452 147.58 72.0433 147.574 72.1408 147.561L72.1978 147.569C72.2786 147.549 72.3579 147.523 72.4349 147.49L72.5198 147.456C72.621 147.409 72.7189 147.355 72.8127 147.293L79.5145 142.537C79.9381 142.251 80.4461 142.137 80.9407 142.217C81.4354 142.298 81.8817 142.567 82.1938 142.973C82.8621 143.826 83.5802 144.634 84.3439 145.394C84.7198 145.782 84.9698 146.284 85.0597 146.83C85.1496 147.376 85.0748 147.94 84.8458 148.444L80.895 156.242C80.685 156.63 80.6172 157.084 80.7042 157.517C80.7911 157.95 81.027 158.333 81.3674 158.594L81.4101 158.6C81.5019 158.675 81.6032 158.736 81.7112 158.781L84.6379 160.167L87.5645 161.552C87.6793 161.608 87.7999 161.651 87.9241 161.68C88.0498 161.714 88.1788 161.732 88.3089 161.736C88.5582 161.746 88.808 161.715 89.0495 161.646C89.3004 161.576 89.5386 161.461 89.7536 161.307C89.9668 161.153 90.1525 160.961 90.3018 160.74L92.6484 157.215L95.0109 153.73C95.0959 153.601 95.1914 153.48 95.2964 153.368L95.391 153.267L95.6335 153.051C95.6686 153.017 95.7072 152.987 95.7484 152.962L96.015 152.78L96.1184 152.719C96.5291 152.474 97.0033 152.374 97.4692 152.436C97.9322 152.503 98.397 152.609 98.8886 152.68C99.8736 152.824 100.866 152.915 101.861 152.953C102.101 152.957 102.337 153.011 102.556 153.112C102.774 153.214 102.97 153.361 103.132 153.544C103.293 153.728 103.417 153.944 103.496 154.18C103.575 154.416 103.607 154.667 103.59 154.918L103.131 161.519C103.097 161.785 103.135 162.054 103.241 162.296C103.348 162.538 103.518 162.742 103.732 162.885L103.839 162.954L104.019 163.018L104.14 163.036L104.353 163.067L104.46 163.083C104.58 163.078 104.699 163.062 104.816 163.036L112.966 161.177C113.237 161.121 113.498 161.018 113.738 160.871C113.982 160.719 114.209 160.537 114.413 160.33C114.509 160.222 114.606 160.107 114.696 159.99C114.953 159.658 115.138 159.272 115.239 158.859L116.766 151.865C116.83 151.6 116.914 151.339 117.018 151.087C117.172 150.726 117.371 150.386 117.608 150.077C117.794 149.824 118.033 149.619 118.307 149.479L119.387 148.905L120.455 148.368L120.871 148.154L121.502 147.82L122.032 147.524L122.531 147.247L123.127 146.9L124.035 146.362C124.244 146.23 124.475 146.142 124.716 146.104C124.957 146.066 125.201 146.078 125.436 146.14C125.671 146.202 125.891 146.312 126.083 146.464C126.276 146.616 126.437 146.807 126.557 147.026L128.848 151.28C128.962 151.494 129.119 151.68 129.307 151.826L129.378 151.836L129.573 151.949L129.673 151.963L129.881 152.031L129.959 152.043C130.057 152.068 130.157 152.083 130.259 152.086L130.316 152.095L130.561 152.054L130.66 152.031L130.875 151.948L130.962 151.9C131.065 151.849 131.162 151.787 131.251 151.713L139.503 145.006C139.819 144.74 140.073 144.401 140.244 144.017C140.362 143.753 140.447 143.473 140.495 143.186C140.575 142.774 140.56 142.349 140.45 141.947L138.819 136.312C138.744 136.041 138.709 135.758 138.715 135.475C138.722 135.175 138.766 134.877 138.844 134.588C138.909 134.292 139.007 134.005 139.136 133.732C139.254 133.478 139.409 133.244 139.594 133.038C140.283 132.255 140.959 131.455 141.625 130.631C142.291 129.807 142.949 128.982 143.589 128.131C143.898 127.751 144.291 127.455 144.733 127.27C145.175 127.085 145.652 127.016 146.123 127.069C146.253 127.072 146.382 127.091 146.508 127.125L151.503 128.743C151.627 128.772 151.753 128.791 151.881 128.798C152.275 128.839 152.675 128.782 153.047 128.632C153.233 128.558 153.409 128.458 153.57 128.336C153.736 128.226 153.887 128.095 154.02 127.944C154.108 127.844 154.187 127.736 154.256 127.621L159.903 117.916C160.163 117.47 160.245 116.937 160.132 116.433C160.019 115.929 159.719 115.495 159.299 115.224L154.949 112.422C154.691 112.245 154.473 112.013 154.308 111.741C154.143 111.469 154.036 111.164 153.992 110.844C153.992 110.844 154.001 110.784 154.005 110.754C153.994 110.665 153.99 110.576 153.994 110.486C153.996 110.446 154.002 110.406 154.011 110.367C154.024 110.277 154.036 110.195 154.049 110.106C154.05 110.071 154.056 110.036 154.064 110.002C154.088 109.882 154.122 109.765 154.166 109.651C154.348 109.198 154.53 108.753 154.704 108.306C155.046 107.404 155.373 106.508 155.686 105.61C155.838 105.16 155.984 104.709 156.13 104.258C156.17 104.125 156.221 103.995 156.281 103.869C156.748 102.925 157.532 102.191 158.48 101.807L161.925 100.68L165.371 99.5521C165.889 99.3474 166.351 99.0092 166.712 98.5693C167.074 98.1293 167.324 97.602 167.439 97.0368L168.833 87.4658C168.829 87.3426 168.812 87.2203 168.784 87.1009ZM139.334 117.981C138.752 118.878 137.774 120.304 137.153 121.173C130.964 129.703 123.384 136.394 115.639 140.116C110.163 142.751 105.021 143.738 100.355 143.059C98.1039 142.774 95.9371 142.017 93.9843 140.833C92.0315 139.649 90.3328 138.062 88.9901 136.168C88.7919 135.88 88.5948 135.585 88.3862 135.318C87.0177 133.099 86.0432 130.637 85.5087 128.049C85.5152 128.004 85.4872 127.947 85.4734 127.891C85.4043 127.567 85.343 127.238 85.2895 126.905C85.2669 126.811 85.2526 126.71 85.2371 126.616L85.1043 125.729C85.1217 125.61 85.0749 125.481 85.0638 125.358C85.0316 125.079 84.9994 124.8 84.9755 124.515C84.995 124.381 84.9504 124.238 84.9354 124.091L84.8795 123.276L84.8602 122.809C84.8483 122.54 84.8446 122.266 84.8409 121.991C84.8637 121.835 84.8295 121.67 84.8309 121.51C84.8283 121.228 84.8318 120.955 84.8374 120.666C84.8602 120.51 84.8402 120.347 84.8488 120.188C84.8922 119.89 84.8725 119.575 84.8885 119.265C84.9092 119.124 84.9287 118.99 84.9137 118.843C84.9788 118.396 84.9738 117.931 85.0186 117.473C85.9454 108.108 89.965 97.8382 96.337 88.5505C102.709 79.2628 110.748 71.9686 118.969 68.0197C124.444 65.3914 129.587 64.3969 134.254 65.0763C134.624 65.1302 134.966 65.18 135.365 65.2381L135.657 65.2806C135.935 65.321 136.206 65.4062 136.472 65.4829L136.756 65.5244L137.591 65.7905L137.784 65.8642C138.123 65.9821 138.474 66.117 138.782 66.2531C146.578 69.6717 150.732 78.7182 149.554 90.6117C148.711 99.4942 145.09 109.129 139.334 117.981Z" fill="#97C2F4"/>
<path d="M158.604 80.5264C158.807 81.9823 158.936 83.4494 158.99 84.9214C158.99 85.1683 159.041 85.4116 159.139 85.6351C159.236 85.8586 159.379 86.0573 159.556 86.2178C159.734 86.3783 159.943 86.4971 160.169 86.5661C160.395 86.6351 160.633 86.6529 160.868 86.6182L167.196 85.7736C167.385 85.7389 167.578 85.7438 167.764 85.7879C167.95 85.8319 168.125 85.9143 168.279 86.0302C168.005 85.8152 161.835 80.7227 161.456 80.424C161.302 80.3058 161.126 80.2215 160.939 80.1759C160.752 80.1304 160.558 80.1246 160.367 80.1589L158.601 80.3966C158.601 80.3966 158.604 80.4806 158.604 80.5264Z" fill="#97C2F4"/>
<path opacity="0.2" d="M158.604 80.5264C158.807 81.9823 158.936 83.4494 158.99 84.9214C158.99 85.1683 159.041 85.4116 159.139 85.6351C159.236 85.8586 159.379 86.0573 159.556 86.2178C159.734 86.3783 159.943 86.4971 160.169 86.5661C160.395 86.6351 160.633 86.6529 160.868 86.6182L167.196 85.7736C167.385 85.7389 167.578 85.7438 167.764 85.7879C167.95 85.8319 168.125 85.9143 168.279 86.0302C168.005 85.8152 161.835 80.7227 161.456 80.424C161.302 80.3058 161.126 80.2215 160.939 80.1759C160.752 80.1304 160.558 80.1246 160.367 80.1589L158.601 80.3966C158.601 80.3966 158.604 80.4806 158.604 80.5264Z" fill="black"/>
<path d="M150.3 62.7002C151.055 63.4664 151.765 64.2789 152.427 65.1336C152.734 65.5419 153.177 65.8135 153.67 65.8952C154.163 65.9768 154.67 65.8625 155.091 65.5747L161.841 60.7875C162.109 60.5691 162.441 60.455 162.778 60.4652C163.116 60.4754 163.438 60.6092 163.688 60.8432L163.631 60.8349L156.789 55.2107C156.534 55.0103 156.223 54.9019 155.902 54.9018C155.58 54.9017 155.267 55.0098 155.007 55.2101L150.422 58.4629L149.79 59.7105C149.576 60.2084 149.51 60.7603 149.601 61.2939C149.692 61.8274 149.936 62.3176 150.3 62.7002Z" fill="#97C2F4"/>
<path opacity="0.2" d="M150.3 62.7002C151.055 63.4664 151.765 64.2789 152.427 65.1336C152.734 65.5419 153.177 65.8135 153.67 65.8952C154.163 65.9768 154.67 65.8625 155.091 65.5747L161.841 60.7875C162.109 60.5691 162.441 60.455 162.778 60.4652C163.116 60.4754 163.438 60.6092 163.688 60.8432L163.631 60.8349L156.789 55.2107C156.534 55.0103 156.223 54.9019 155.902 54.9018C155.58 54.9017 155.267 55.0098 155.007 55.2101L150.422 58.4629L149.79 59.7105C149.576 60.2084 149.51 60.7603 149.601 61.2939C149.692 61.8274 149.936 62.3176 150.3 62.7002Z" fill="black"/>
<path d="M80.896 156.242L84.8468 148.444C85.0682 147.942 85.1377 147.383 85.0459 146.843C84.9541 146.303 84.7054 145.807 84.3335 145.423C83.5697 144.663 82.8517 143.854 82.1833 143.002C81.8713 142.596 81.4249 142.327 80.9303 142.246C80.4357 142.166 79.9276 142.28 79.504 142.566L77.3863 144.069L74.0596 150.679C73.8597 151.061 73.7952 151.503 73.8774 151.926C73.9597 152.35 74.1835 152.727 74.5089 152.99C74.6202 153.075 80.6811 158.068 81.3388 158.598C81.0026 158.332 80.7721 157.946 80.6906 157.513C80.6091 157.079 80.6822 156.627 80.896 156.242Z" fill="#97C2F4"/>
<path opacity="0.3" d="M80.896 156.242L84.8468 148.444C85.0682 147.942 85.1377 147.383 85.0459 146.843C84.9541 146.303 84.7054 145.807 84.3335 145.423C83.5697 144.663 82.8517 143.854 82.1833 143.002C81.8713 142.596 81.4249 142.327 80.9303 142.246C80.4357 142.166 79.9276 142.28 79.504 142.566L77.3863 144.069L74.0596 150.679C73.8597 151.061 73.7952 151.503 73.8774 151.926C73.9597 152.35 74.1835 152.727 74.5089 152.99C74.6202 153.075 80.6811 158.068 81.3388 158.598C81.0026 158.332 80.7721 157.946 80.6906 157.513C80.6091 157.079 80.6822 156.627 80.896 156.242Z" fill="black"/>
<path d="M103.114 161.486L103.573 154.885C103.59 154.634 103.558 154.383 103.479 154.147C103.401 153.911 103.277 153.695 103.115 153.511C102.954 153.328 102.758 153.181 102.539 153.079C102.321 152.978 102.084 152.923 101.844 152.92C100.849 152.882 99.8568 152.791 98.8718 152.647C98.4016 152.579 97.9314 152.51 97.4524 152.403C96.9865 152.341 96.5123 152.441 96.1016 152.686C96.2278 152.617 96.3581 152.557 96.4915 152.506L96.2568 155.867C96.2326 156.099 96.2601 156.332 96.337 156.549C96.4139 156.767 96.5383 156.962 96.7002 157.119C97.0014 157.399 103.243 162.502 103.574 162.778L103.694 162.849C103.484 162.703 103.319 162.498 103.216 162.257C103.113 162.016 103.078 161.749 103.114 161.486Z" fill="#97C2F4"/>
<path opacity="0.3" d="M103.114 161.486L103.573 154.885C103.59 154.634 103.558 154.383 103.479 154.147C103.401 153.911 103.277 153.695 103.115 153.511C102.954 153.328 102.758 153.181 102.539 153.079C102.321 152.978 102.084 152.923 101.844 152.92C100.849 152.882 99.8568 152.791 98.8718 152.647C98.4016 152.579 97.9314 152.51 97.4524 152.403C96.9865 152.341 96.5123 152.441 96.1016 152.686C96.2278 152.617 96.3581 152.557 96.4915 152.506L96.2568 155.867C96.2326 156.099 96.2601 156.332 96.337 156.549C96.4139 156.767 96.5383 156.962 96.7002 157.119C97.0014 157.399 103.243 162.502 103.574 162.778L103.694 162.849C103.484 162.703 103.319 162.498 103.216 162.257C103.113 162.016 103.078 161.749 103.114 161.486Z" fill="black"/>
<path d="M128.865 151.274L126.574 147.021C126.454 146.802 126.293 146.611 126.1 146.459C125.908 146.307 125.688 146.197 125.453 146.135C125.218 146.073 124.973 146.061 124.733 146.099C124.492 146.137 124.261 146.225 124.052 146.357L123.144 146.894L123.27 146.829L129.326 151.806C129.138 151.664 128.981 151.483 128.865 151.274Z" fill="#97C2F4"/>
<path opacity="0.3" d="M128.865 151.274L126.574 147.021C126.454 146.802 126.293 146.611 126.1 146.459C125.908 146.307 125.688 146.197 125.453 146.135C125.218 146.073 124.973 146.061 124.733 146.099C124.492 146.137 124.261 146.225 124.052 146.357L123.144 146.894L123.27 146.829L129.326 151.806C129.138 151.664 128.981 151.483 128.865 151.274Z" fill="black"/>
<path d="M159.266 115.311L153.959 110.93C154.003 111.25 154.11 111.556 154.275 111.827C154.44 112.099 154.658 112.331 154.916 112.508L159.266 115.311Z" fill="#97C2F4"/>
<path opacity="0.3" d="M159.266 115.311L153.959 110.93C154.003 111.25 154.11 111.556 154.275 111.827C154.44 112.099 154.658 112.331 154.916 112.508L159.266 115.311Z" fill="black"/>
<path d="M132.81 55.0615C133.749 55.1069 134.689 55.198 135.615 55.3328C136.121 55.4065 136.627 55.4801 137.119 55.5974C137.612 55.6431 138.11 55.55 138.561 55.3279C139.011 55.1057 139.399 54.7626 139.682 54.334L144.336 47.3538C144.644 46.9139 145.085 46.5944 145.586 46.4475C146.087 46.3006 146.619 46.335 147.094 46.5451L152.948 49.3154C153.148 49.4081 153.329 49.5404 153.48 49.7051L153.354 49.5725L146.493 43.9303C146.378 43.8383 146.252 43.7612 146.119 43.7008L140.266 40.9304C139.79 40.7204 139.258 40.686 138.757 40.8329C138.256 40.9798 137.815 41.2993 137.507 41.7391L132.853 48.7193C132.469 49.2744 131.924 49.6866 131.3 49.8938L131.082 53.0896C131.063 53.3409 131.094 53.5929 131.171 53.8302C131.249 54.0675 131.373 54.2851 131.535 54.4697C131.696 54.6543 131.893 54.802 132.112 54.9037C132.332 55.0055 132.569 55.0592 132.81 55.0615Z" fill="#97C2F4"/>
<path opacity="0.1" d="M137.121 55.5752C137.615 55.6443 138.118 55.5469 138.559 55.2973L131.729 49.69C131.592 49.7629 131.449 49.8237 131.302 49.8715L131.084 53.0673C131.065 53.3186 131.096 53.5706 131.174 53.8079C131.252 54.0453 131.375 54.2629 131.537 54.4474C131.699 54.632 131.895 54.7797 132.115 54.8815C132.334 54.9832 132.571 55.0369 132.812 55.0392C133.752 55.0846 134.691 55.1757 135.618 55.3106C136.117 55.4289 136.623 55.5026 137.121 55.5752Z" fill="black"/>
<path opacity="0.5" d="M153.473 49.7041L153.347 49.5715L146.485 43.9293C146.37 43.8373 146.245 43.7603 146.111 43.6998L140.258 40.9294C139.961 40.7948 139.638 40.7298 139.313 40.739C138.987 40.7481 138.667 40.8312 138.373 40.9824L145.195 46.596C145.488 46.4448 145.809 46.3617 146.135 46.3526C146.46 46.3435 146.783 46.4085 147.08 46.5431L152.933 49.3134C153.136 49.4056 153.319 49.5383 153.473 49.7041Z" fill="#FAFAFA"/>
<path opacity="0.2" d="M138.358 40.9803C138.019 41.1521 137.73 41.4149 137.52 41.7413L132.866 48.7215C132.577 49.1472 132.189 49.4893 131.739 49.7145L138.569 55.3217C139.018 55.0984 139.405 54.759 139.695 54.3362L144.348 47.356C144.562 47.0345 144.85 46.775 145.186 46.6025L138.358 40.9803Z" fill="black"/>
<path d="M65.8747 120.653L67.2767 111.023C67.3896 110.457 67.6389 109.928 68.001 109.488C68.3631 109.048 68.8259 108.71 69.3453 108.507L76.0222 106.32C76.5556 106.107 77.0406 105.779 77.4447 105.356C77.8489 104.933 78.1628 104.425 78.3654 103.868C78.9559 102.01 79.6287 100.154 80.3836 98.3004C80.5779 97.8011 80.6023 97.2494 80.4528 96.7382C80.3032 96.227 79.9889 95.7875 79.5627 95.4938L75.3718 92.798C74.9524 92.5262 74.6546 92.0915 74.5427 91.588C74.4308 91.0845 74.5139 90.5527 74.774 90.1076L80.4211 80.4023C80.7105 79.936 81.1333 79.5761 81.6282 79.3744C82.1231 79.1728 82.6646 79.14 83.1744 79.2807L87.9603 80.8376C88.4799 80.9781 89.0286 80.9632 89.5443 80.7948C90.06 80.6264 90.5221 80.3111 90.8782 79.8846C92.1969 78.1228 93.573 76.4329 95.0065 74.8147C95.3711 74.3664 95.6296 73.8355 95.7606 73.2657C95.8916 72.6958 95.8915 72.1033 95.7602 71.537L94.1981 66.1258C94.0654 65.5782 94.0839 65.0006 94.2515 64.4594C94.4191 63.9182 94.7289 63.4355 95.1454 63.0667L103.397 56.3591C103.578 56.2019 103.79 56.0883 104.018 56.0266C104.245 55.9649 104.482 55.9567 104.712 56.0025C104.941 56.0483 105.157 56.1469 105.344 56.2914C105.532 56.4358 105.685 56.6223 105.794 56.8374L108.022 60.9221C108.142 61.1408 108.303 61.3317 108.496 61.4838C108.688 61.6359 108.908 61.746 109.143 61.8078C109.378 61.8696 109.623 61.8819 109.863 61.8438C110.104 61.8058 110.335 61.7182 110.544 61.5862C112.061 60.6652 113.589 59.832 115.128 59.0869L116.341 58.5022C116.76 58.2354 117.123 57.8817 117.406 57.4632C117.69 57.0447 117.889 56.5705 117.99 56.0705L119.47 49.2982C119.62 48.7439 119.905 48.2381 120.298 47.8307C120.69 47.4233 121.176 47.1284 121.707 46.9748L129.862 45.0792C130.072 45.0229 130.291 45.0165 130.503 45.0604C130.714 45.1044 130.913 45.1976 131.084 45.3332C130.777 45.0906 124.588 39.9801 124.249 39.71C124.078 39.584 123.882 39.499 123.675 39.461C123.469 39.423 123.256 39.4329 123.052 39.49L114.909 41.3494C114.377 41.5016 113.89 41.7961 113.498 42.2037C113.105 42.6113 112.821 43.1178 112.672 43.6727L111.165 50.4792C111.066 50.9794 110.87 51.4541 110.587 51.873C110.304 52.2919 109.942 52.6457 109.523 52.912C109.119 53.0891 108.741 53.2853 108.31 53.4966C107.012 54.1196 105.72 54.8095 104.436 55.5665C104.436 55.5665 98.6943 50.8332 98.51 50.6998C98.23 50.484 97.8876 50.3735 97.5375 50.386C97.1874 50.3985 96.85 50.5333 96.5793 50.7688L88.3237 57.453C87.9083 57.8228 87.5997 58.3061 87.4333 58.8474C87.267 59.3888 87.2497 59.9661 87.3834 60.5132L88.9456 65.9244C89.0745 66.4909 89.0735 67.0828 88.9425 67.6522C88.8116 68.2217 88.5545 68.7526 88.1919 69.2021C86.7631 70.821 85.3846 72.5106 84.0565 74.271C83.7039 74.7023 83.2438 75.0232 82.7285 75.1971C82.2131 75.3711 81.6632 75.3911 81.1414 75.2548L76.3554 73.6979C75.8457 73.556 75.3038 73.5883 74.8086 73.79C74.3134 73.9917 73.8908 74.3524 73.6021 74.8195L67.9479 84.5238C67.7138 84.9317 67.6256 85.4116 67.6992 85.8771C67.7727 86.3427 68.0033 86.7635 68.3493 87.0638L73.6971 91.458C73.7687 91.8809 73.7227 92.3179 73.5647 92.7176C72.8097 94.5716 72.137 96.4274 71.5464 98.285C71.3425 98.8428 71.0273 99.3501 70.622 99.7729C70.2166 100.196 69.7305 100.524 69.1961 100.736L62.5181 102.931C61.9996 103.132 61.5376 103.468 61.1767 103.908C60.8158 104.347 60.5682 104.875 60.4578 105.44L59.0557 115.07C59.0087 115.326 59.0255 115.589 59.1046 115.834C59.1836 116.079 59.3223 116.297 59.507 116.468L66.3298 122.074L66.4088 122.132C66.1914 121.968 66.0251 121.741 65.9303 121.478C65.8354 121.216 65.8161 120.929 65.8747 120.653Z" fill="#97C2F4"/>
<path opacity="0.5" d="M131.066 45.3534C130.759 45.1108 124.57 40.0003 124.231 39.7302C124.06 39.6042 123.864 39.5192 123.657 39.4812C123.451 39.4432 123.238 39.4531 123.034 39.5102L114.891 41.3696C114.472 41.478 114.08 41.6808 113.742 41.9636L120.546 47.605C120.88 47.3211 121.27 47.1178 121.687 47.0099L129.842 45.1143C130.051 45.0556 130.27 45.0466 130.482 45.0879C130.694 45.1293 130.893 45.22 131.066 45.3534Z" fill="#FAFAFA"/>
<path opacity="0.2" d="M113.709 41.9893C113.179 42.4238 112.797 43.026 112.623 43.7038L111.164 50.4792C111.07 50.8944 110.916 51.2931 110.708 51.6612L117.506 57.2866C117.717 56.9191 117.873 56.5209 117.969 56.1056L119.45 49.3333C119.627 48.6554 120.011 48.0538 120.543 47.62L113.709 41.9893Z" fill="black"/>
<path opacity="0.1" d="M110.68 51.657C110.411 52.1857 109.998 52.621 109.494 52.9078C109.09 53.0849 108.712 53.2811 108.281 53.4924C106.983 54.1154 105.694 54.8057 104.415 55.5633L105.35 56.3388C105.524 56.4769 105.67 56.6508 105.777 56.8502L108.006 60.9349C108.126 61.1536 108.287 61.3445 108.479 61.4966C108.672 61.6486 108.892 61.7588 109.127 61.8206C109.361 61.8824 109.606 61.8946 109.847 61.8566C110.087 61.8185 110.319 61.731 110.528 61.599C112.044 60.6779 113.572 59.8448 115.111 59.0996L116.324 58.515C116.825 58.2359 117.237 57.8082 117.507 57.2866L110.68 51.657Z" fill="black"/>
<path opacity="0.5" d="M105.279 56.2679L98.4854 50.7116C98.2055 50.4958 97.863 50.3853 97.513 50.3979C97.1629 50.4104 96.8255 50.5452 96.5547 50.7807L88.3227 57.4531C87.9009 57.8158 87.5919 58.3013 87.436 58.8464L94.2648 64.4611C94.434 63.9128 94.7581 63.429 95.1943 63.074L103.446 56.3664C103.706 56.1516 104.022 56.0265 104.351 56.0089C104.68 55.9912 105.005 56.0818 105.279 56.2679Z" fill="#FAFAFA"/>
<path opacity="0.2" d="M94.1978 66.1257C94.0583 65.5916 94.0751 65.0243 94.2459 64.4961L87.3885 58.8772C87.2262 59.4097 87.2193 59.9786 87.3689 60.511L88.931 65.9222C89.0459 66.3605 89.0682 66.8208 88.9965 67.2715L95.8254 72.8861C95.9019 72.4357 95.8795 71.9743 95.7599 71.5369L94.1978 66.1257Z" fill="black"/>
<path opacity="0.1" d="M88.1768 69.2C86.748 70.8189 85.3695 72.5085 84.0413 74.2689C83.6762 74.7252 83.1892 75.0576 82.6439 75.2225L89.4727 80.8372C90.0201 80.673 90.5096 80.3411 90.8773 79.8846C92.196 78.1228 93.5721 76.4329 95.0056 74.8147C95.4541 74.268 95.7391 73.597 95.8247 72.8863L88.9959 67.2716C88.9102 67.9823 88.6252 68.6534 88.1768 69.2Z" fill="black"/>
<path opacity="0.2" d="M81.126 75.2528L76.34 73.6959C75.8177 73.5397 75.2576 73.5764 74.7535 73.7998L81.5823 79.4145C82.0866 79.1917 82.6465 79.155 83.1689 79.3106L87.9549 80.8675C88.451 81.0107 88.9782 81.0002 89.4725 80.8372L82.6437 75.2226C82.1493 75.3855 81.6222 75.396 81.126 75.2528Z" fill="black"/>
<path opacity="0.5" d="M74.7536 73.8C74.2767 73.9926 73.8694 74.3387 73.5913 74.7878L67.937 84.4921C67.7029 84.9 67.6147 85.3798 67.6883 85.8454C67.7619 86.311 67.9924 86.7317 68.3384 87.032L73.6862 91.4263L74.9863 92.4909C74.7007 92.1806 74.5222 91.7793 74.4783 91.3492C74.4344 90.919 74.5276 90.4839 74.7434 90.1111L80.3905 80.4057C80.6687 79.9567 81.076 79.6106 81.5529 79.4179L74.7536 73.8Z" fill="#FAFAFA"/>
<path opacity="0.2" d="M73.685 91.4262C73.7566 91.8491 73.7106 92.2861 73.5526 92.6858C72.7977 94.5398 72.1249 96.3956 71.5344 98.2532C71.336 98.8248 71.0116 99.341 70.5875 99.7596L77.4164 105.374C77.8404 104.956 78.1649 104.439 78.3632 103.868C78.9538 102.01 79.6265 100.154 80.3814 98.3004C80.5757 97.8012 80.6001 97.2495 80.4506 96.7383C80.3011 96.2271 79.9867 95.7876 79.5605 95.4939L75.3696 92.7981C75.2421 92.7122 75.125 92.6109 75.0207 92.4961L73.685 91.4262Z" fill="black"/>
<path opacity="0.1" d="M70.5894 99.7595C70.198 100.185 69.7171 100.509 69.1859 100.705L62.5079 102.899C61.9145 103.121 61.3983 103.526 61.0291 104.061L67.858 109.676C68.2317 109.141 68.7499 108.733 69.345 108.507L76.0219 106.32C76.5499 106.121 77.028 105.797 77.4182 105.374L70.5894 99.7595Z" fill="black"/>
<path opacity="0.5" d="M66.3982 122.1C66.1895 121.936 66.0302 121.714 65.9387 121.458C65.8472 121.202 65.8272 120.923 65.8811 120.654L67.2832 111.024C67.3712 110.534 67.5707 110.072 67.8648 109.677L61.0359 104.063C60.7391 104.456 60.5393 104.918 60.4543 105.409L59.0523 115.04C59.0052 115.295 59.022 115.558 59.1011 115.803C59.1802 116.048 59.3188 116.266 59.5035 116.437L66.3264 122.044L66.3982 122.1Z" fill="#FAFAFA"/>
<path d="M70.523 146.64L67.7836 139.87C67.5959 139.347 67.5597 138.777 67.6796 138.229C67.7995 137.681 68.0701 137.179 68.4581 136.786L74.8492 130.866C75.247 130.447 75.5499 129.941 75.7354 129.385C75.9209 128.829 75.984 128.239 75.9201 127.657C75.7058 126.176 75.5687 124.682 75.5094 123.183C75.5085 122.934 75.457 122.69 75.3583 122.466C75.2596 122.241 75.116 122.042 74.937 121.881C74.758 121.721 74.5478 121.602 74.3203 121.533C74.0928 121.465 73.8533 121.448 73.6178 121.484L69.0919 122.088C69.1479 122.663 69.0801 123.245 68.8935 123.792C68.7068 124.339 68.4061 124.837 68.0132 125.25L61.6292 131.172C61.2418 131.565 60.971 132.065 60.85 132.613C60.7289 133.16 60.7629 133.731 60.9476 134.254L63.6973 141.003C63.8051 141.275 63.9785 141.513 64.2008 141.693C64.6966 142.085 70.8151 147.132 71.0165 147.298L71.1826 147.406C70.889 147.232 70.6577 146.964 70.523 146.64Z" fill="#97C2F4"/>
<path opacity="0.2" d="M75.9146 127.687C75.7003 126.205 75.5632 124.712 75.5038 123.212C75.503 122.964 75.4515 122.72 75.3528 122.495C75.2541 122.271 75.1104 122.072 74.9314 121.911C74.7525 121.75 74.5422 121.632 74.3147 121.563C74.0873 121.495 73.8478 121.478 73.6122 121.513L69.0863 122.118C69.1604 122.934 68.9923 123.757 68.6048 124.476L75.4337 130.091C75.835 129.361 76.0036 128.518 75.9146 127.687Z" fill="black"/>
<path opacity="0.3" d="M60.9263 132.348L67.7623 137.964C67.8911 137.523 68.13 137.124 68.4543 136.809L74.8454 130.888C75.0847 130.657 75.2843 130.385 75.4354 130.083L68.6065 124.469C68.4555 124.772 68.2531 125.044 68.0094 125.272L61.6254 131.194C61.3016 131.51 61.0607 131.908 60.9263 132.348Z" fill="black"/>
<path opacity="0.2" d="M71.0122 147.32L71.1784 147.428C70.8824 147.248 70.652 146.971 70.5219 146.64L67.7826 139.87C67.5537 139.253 67.5475 138.568 67.7651 137.941L60.9291 132.326C60.7185 132.954 60.7247 133.636 60.9466 134.254L63.6963 141.003C63.8041 141.275 63.9775 141.512 64.1997 141.693C64.6924 142.107 70.8098 147.161 71.0122 147.32Z" fill="black"/>
</svg>
