<svg width="295" height="246" viewBox="0 0 295 246" fill="none" xmlns="http://www.w3.org/2000/svg">
<path d="M43.1973 219.44C-14.3991 184.646 -14.3991 128.229 43.1973 93.462C100.794 58.6946 194.18 58.668 251.796 93.462C309.411 128.256 309.392 184.673 251.796 219.44C194.199 254.207 100.8 254.241 43.1973 219.44Z" fill="#4EE0BD"/>
<path d="M144.004 50.1354L136.078 41.0746C134.563 39.3542 133.339 36.1428 133.339 33.8489V24.1C133.339 18.0212 128.269 13.032 122.092 13.032H112.185C109.913 13.032 106.591 11.8278 104.843 10.3368L95.6352 2.53759C91.6143 -0.845864 85.0292 -0.845864 80.9499 2.53759L71.8005 10.3941C70.0522 11.8278 66.7306 13.032 64.4578 13.032H54.3762C48.1991 13.032 43.1291 18.0212 43.1291 24.1V33.9063C43.1291 36.1428 41.9054 39.3542 40.4485 41.0746L32.5814 50.1928C29.2014 54.1497 29.2014 60.5726 32.5814 64.5295L40.4485 73.6476C41.9054 75.368 43.1291 78.5794 43.1291 80.816V90.6223C43.1291 96.701 48.1991 101.69 54.3762 101.69H64.4578C66.7306 101.69 70.0522 102.894 71.8005 104.385L81.0082 112.185C85.0292 115.568 91.6143 115.568 95.6935 112.185L104.901 104.385C106.649 102.894 109.913 101.69 112.244 101.69H122.15C128.328 101.69 133.398 96.701 133.398 90.6223V80.8733C133.398 78.6368 134.621 75.368 136.136 73.6476L144.062 64.5868C147.442 60.6299 147.442 54.0924 144.004 50.1354ZM112.535 46.5226L84.3882 74.2211C83.5723 75.0239 82.4651 75.4827 81.2996 75.4827C80.1341 75.4827 79.0268 75.0239 78.211 74.2211L64.1082 60.3432C62.4182 58.6801 62.4182 55.9275 64.1082 54.2644C65.7982 52.6014 68.5954 52.6014 70.2854 54.2644L81.2996 65.103L106.358 40.4438C108.048 38.7807 110.845 38.7807 112.535 40.4438C114.225 42.1068 114.225 44.8595 112.535 46.5226Z" fill="#292D32"/>
<path d="M85.0197 182.694C48.1419 160.417 48.1419 124.294 85.0197 102.033C121.897 79.7723 181.691 79.7552 218.581 102.033C255.471 124.311 255.459 160.434 218.581 182.694C181.703 204.955 121.902 204.977 85.0197 182.694Z" fill="#F5F5F5"/>
<path d="M114.535 183.77C130.538 183.77 143.512 175.934 143.512 166.268C143.512 156.601 130.538 148.765 114.535 148.765C98.5315 148.765 85.5581 156.601 85.5581 166.268C85.5581 175.934 98.5315 183.77 114.535 183.77Z" fill="#E0E0E0"/>
<path d="M181.508 158.087C201.602 146.748 213.518 129.075 208.125 118.614C202.733 108.152 182.072 108.863 161.979 120.201C141.886 131.54 129.969 149.213 135.362 159.675C140.755 170.137 161.415 169.426 181.508 158.087Z" fill="#E0E0E0"/>
<path d="M201.503 133.235C205.52 128.224 211.814 124.959 218.891 123.03C225.882 121.131 227.135 116.629 222.501 115.173C217.251 113.517 210.701 116.556 206.475 120.785C199.116 128.156 198.19 133.785 198.19 133.785L201.503 133.235Z" fill="#4EE0BD"/>
<path opacity="0.15" d="M201.503 133.235C205.52 128.224 211.814 124.959 218.891 123.03C225.882 121.131 227.135 116.629 222.501 115.173C217.251 113.517 210.701 116.556 206.475 120.785C199.116 128.156 198.19 133.785 198.19 133.785L201.503 133.235Z" fill="black"/>
<path d="M199.434 132.931C199.404 132.938 199.374 132.938 199.344 132.931C199.32 132.919 199.298 132.902 199.281 132.881C199.263 132.86 199.249 132.835 199.241 132.809C199.232 132.782 199.228 132.754 199.23 132.726C199.232 132.698 199.239 132.671 199.25 132.645C205.214 119.842 218.421 116.692 221.619 116.931C221.673 116.936 221.722 116.962 221.757 117.004C221.793 117.047 221.81 117.102 221.807 117.158C221.802 117.214 221.776 117.266 221.735 117.302C221.694 117.339 221.641 117.358 221.587 117.354C218.454 117.106 205.487 120.226 199.617 132.833C199.597 132.865 199.57 132.89 199.538 132.907C199.506 132.924 199.47 132.933 199.434 132.931Z" fill="white"/>
<path d="M198.19 134.566C198.191 134.772 198.243 134.974 198.342 135.152C198.441 135.329 198.584 135.477 198.755 135.578C198.926 135.68 199.12 135.732 199.317 135.729C199.514 135.727 199.706 135.67 199.875 135.565C203.611 133.29 209.061 132.031 217.88 134.66C222.57 136.055 224.879 135.121 225.866 133.123C226.967 130.904 224.642 128.757 221.991 127.746C212.964 124.293 204.819 126.649 198.19 133.537V134.566Z" fill="#4EE0BD"/>
<path d="M198.708 134.749C198.679 134.75 198.65 134.744 198.623 134.732C198.597 134.721 198.573 134.703 198.553 134.681C198.515 134.641 198.494 134.586 198.494 134.53C198.494 134.473 198.515 134.419 198.553 134.378C206.348 127.089 218.421 128.51 222.99 131.352C223.036 131.381 223.07 131.427 223.084 131.482C223.097 131.536 223.09 131.594 223.063 131.642C223.035 131.691 222.99 131.727 222.937 131.741C222.885 131.755 222.829 131.748 222.782 131.719C218.295 128.932 206.466 127.545 198.826 134.707C198.791 134.733 198.75 134.747 198.708 134.749Z" fill="white"/>
<path d="M110.978 151.56C107.552 146.089 101.67 142.069 94.8579 139.282C88.1358 136.533 87.3975 131.911 92.1617 131.032C97.5622 130.038 103.726 133.866 107.446 138.586C113.923 146.815 114.204 152.529 114.204 152.529L110.978 151.56Z" fill="#4EE0BD"/>
<path opacity="0.15" d="M110.978 151.56C107.552 146.089 101.67 142.069 94.8579 139.282C88.1358 136.533 87.3975 131.911 92.1617 131.032C97.5622 130.038 103.726 133.866 107.446 138.586C113.923 146.815 114.204 152.529 114.204 152.529L110.978 151.56Z" fill="black"/>
<path d="M113.05 151.526C113.079 151.532 113.11 151.532 113.139 151.526C113.19 151.507 113.232 151.468 113.256 151.417C113.279 151.366 113.283 151.307 113.266 151.253C108.779 137.805 96.0362 133.047 92.822 132.902C92.7686 132.899 92.7164 132.919 92.6768 132.957C92.6371 132.994 92.6131 133.046 92.6099 133.102C92.6087 133.159 92.6283 133.214 92.6648 133.256C92.7012 133.298 92.7516 133.324 92.8057 133.328C95.9465 133.465 108.469 138.164 112.878 151.407C112.894 151.441 112.918 151.47 112.948 151.491C112.979 151.512 113.013 151.524 113.05 151.526Z" fill="white"/>
<path d="M114.232 152.269C114.2 152.572 114.094 152.862 113.924 153.11C113.754 153.357 113.526 153.555 113.261 153.684C112.997 153.813 112.705 153.868 112.414 153.844C112.124 153.821 111.844 153.719 111.601 153.549C108.142 151.125 102.991 149.55 94.5514 150.989C89.7382 151.795 87.5519 150.562 86.8014 148.475C85.9611 146.136 88.5145 144.297 91.2597 143.618C100.613 141.305 108.436 144.651 114.24 152.303L114.232 152.269Z" fill="#4EE0BD"/>
<path d="M113.588 153.417C113.617 153.421 113.646 153.419 113.673 153.41C113.701 153.401 113.726 153.386 113.747 153.366C113.785 153.325 113.806 153.271 113.806 153.214C113.806 153.158 113.785 153.103 113.747 153.063C106.813 144.864 94.6781 144.783 89.82 147.041C89.7703 147.064 89.7314 147.107 89.7119 147.16C89.6924 147.213 89.6939 147.273 89.716 147.325C89.7382 147.377 89.7792 147.417 89.8301 147.438C89.881 147.458 89.9375 147.457 89.9873 147.434C94.7474 145.219 106.658 145.3 113.441 153.344C113.459 153.367 113.481 153.386 113.507 153.398C113.532 153.411 113.56 153.417 113.588 153.417Z" fill="white"/>
<path d="M202.13 41.7971L202.057 41.759L184.697 31.3048L184.592 31.2524C176.481 26.964 165.661 28.2553 154.021 36.1269C130.64 51.9464 112.825 88.3597 114.227 117.459C114.924 131.959 120.271 141.903 128.345 146.277L128.413 146.315L145.778 156.774L145.86 156.822C153.971 161.11 164.8 159.838 176.45 151.957C199.83 136.137 217.646 99.724 216.243 70.6248C215.555 56.1157 210.209 46.1713 202.13 41.7971Z" fill="#37474F"/>
<path d="M145.181 156.436L128.436 146.306L128.354 146.253C120.279 141.869 114.938 131.925 114.236 117.445C113.612 104.465 116.814 90.0416 122.616 76.6475L122.73 76.3521L139.98 87.1017C134.169 100.496 130.977 114.919 131.601 127.899C132.261 142.093 137.394 151.919 145.181 156.436Z" fill="#263238"/>
<path d="M176.459 151.947C199.839 136.128 217.655 99.7143 216.252 70.6151C214.849 41.5158 194.757 30.7567 171.376 46.5762C147.996 62.3956 130.176 98.809 131.578 127.904C132.981 156.998 153.078 167.767 176.459 151.947Z" fill="#C4D4DB"/>
<path d="M196.259 39.5388L166.954 102.707L160.646 95.5597C158.766 93.5109 156.192 92.3156 153.478 92.2305C150.764 92.1454 148.127 93.1773 146.132 95.1045C144.138 97.0317 142.945 99.7006 142.811 102.538C142.676 105.375 143.61 108.154 145.413 110.278L162.031 129.114C163.858 131.191 166.39 132.437 169.085 132.583C169.276 132.583 169.467 132.583 169.659 132.583C170.162 132.582 170.664 132.544 171.162 132.469C172.834 132.214 174.422 131.534 175.786 130.489C177.15 129.444 178.248 128.066 178.985 126.474L212.594 54.0479C209.147 46.0047 203.409 41.0206 196.259 39.5388Z" fill="#C4D4DB"/>
<path d="M220.059 18.735C219.877 18.6254 219.685 18.5206 219.494 18.4253C217.346 17.3363 214.873 17.1832 212.617 17.9997C210.362 18.8161 208.508 20.5354 207.462 22.7804L170.173 103.145L168.051 100.763C167.439 100.063 166.726 99.4661 165.938 98.995C164.827 98.3279 160.1 95.4642 159.335 95.002C157.47 93.8732 155.28 93.4814 153.163 93.8979C151.045 94.3144 149.141 95.5114 147.795 97.2718C146.45 99.0321 145.752 101.239 145.828 103.492C145.905 105.744 146.752 107.894 148.214 109.549L164.832 128.38C165.455 129.087 166.178 129.69 166.976 130.167C168.06 130.81 172.769 133.669 173.543 134.136C174.614 134.785 175.801 135.196 177.031 135.343C178.26 135.49 179.505 135.371 180.689 134.992C181.872 134.614 182.968 133.984 183.908 133.142C184.849 132.3 185.613 131.265 186.154 130.1L230.269 35.0262C231.261 32.8834 231.442 30.4275 230.775 28.151C230.109 25.8745 228.644 23.9459 226.676 22.7518L220.059 18.735Z" fill="#1D5BA4"/>
<path opacity="0.15" d="M220.059 18.735C219.877 18.6254 219.685 18.5206 219.494 18.4253C217.346 17.3363 214.873 17.1832 212.617 17.9997C210.362 18.8161 208.508 20.5354 207.462 22.7804L170.173 103.145L168.051 100.763C167.439 100.063 166.726 99.4661 165.938 98.995C164.827 98.3279 160.1 95.4642 159.335 95.002C157.47 93.8732 155.28 93.4814 153.163 93.8979C151.045 94.3144 149.141 95.5114 147.795 97.2718C146.45 99.0321 145.752 101.239 145.828 103.492C145.905 105.744 146.752 107.894 148.214 109.549L164.832 128.38C165.455 129.087 166.178 129.69 166.976 130.167C168.06 130.81 172.769 133.669 173.543 134.136C174.614 134.785 175.801 135.196 177.031 135.343C178.26 135.49 179.505 135.371 180.689 134.992C181.872 134.614 182.968 133.984 183.908 133.142C184.849 132.3 185.613 131.265 186.154 130.1L230.269 35.0262C231.261 32.8834 231.442 30.4275 230.775 28.151C230.109 25.8745 228.644 23.9459 226.676 22.7518L220.059 18.735Z" fill="#64F59E"/>
<path opacity="0.15" d="M173.521 134.117C172.756 133.641 168.056 130.782 166.959 130.148C166.16 129.671 165.437 129.068 164.814 128.361L148.196 109.53C147.463 108.694 146.881 107.725 146.479 106.671L153.087 110.659C153.488 111.716 154.073 112.686 154.813 113.518L171.426 132.349C172.037 133.043 172.743 133.639 173.521 134.117Z" fill="black"/>
<path opacity="0.15" d="M216.161 23.8767C215.293 24.6918 214.584 25.6757 214.075 26.7737L175.721 109.435L170.174 103.146L207.463 22.7807C207.971 21.6808 208.681 20.6963 209.553 19.8837L216.161 23.8767Z" fill="#4CF399"/>
<path d="M226.106 22.4185C223.958 21.3321 221.486 21.1804 219.231 21.9966C216.976 22.8129 215.122 24.5305 214.075 26.7737L175.72 109.435L168.056 100.744C166.416 99.0007 164.191 97.9937 161.854 97.9364C159.516 97.879 157.249 98.7758 155.533 100.437C153.816 102.098 152.785 104.393 152.657 106.835C152.53 109.278 153.316 111.677 154.849 113.523L171.462 132.359C172.457 133.485 173.699 134.34 175.081 134.849C176.463 135.359 177.942 135.508 179.392 135.283C180.841 135.059 182.216 134.468 183.398 133.561C184.579 132.655 185.532 131.46 186.172 130.081L230.287 35.0074C231.327 32.7577 231.47 30.1683 230.686 27.8079C229.903 25.4475 228.255 23.5091 226.106 22.4185Z" fill="#4EE0BD"/>
<path d="M157.519 32.2503C165.865 32.2503 172.631 26.0499 172.631 18.4014C172.631 10.7528 165.865 4.55237 157.519 4.55237C149.172 4.55237 142.406 10.7528 142.406 18.4014C142.406 26.0499 149.172 32.2503 157.519 32.2503Z" fill="#4EE0BD"/>
<path d="M145.457 26.4121C145.372 28.2686 143.871 31.5889 141.158 32.8138C141.122 32.8299 141.091 32.8576 141.071 32.8928C141.051 32.9281 141.041 32.9691 141.045 33.0102C141.048 33.0513 141.063 33.0903 141.089 33.1217C141.114 33.1531 141.148 33.1752 141.187 33.1851C142.737 33.5446 144.355 33.4228 145.84 32.8345C147.325 32.2462 148.614 31.217 149.549 29.8733L145.457 26.4121Z" fill="#4EE0BD"/>
<path d="M147.272 17.3044C147.306 16.6975 147.444 16.1019 147.679 15.5461C147.902 15.0023 148.233 14.5148 148.65 14.1164C149.092 13.6939 149.607 13.3649 150.168 13.1476C151.513 12.6696 152.971 12.6696 154.316 13.1476C154.882 13.3639 155.403 13.6929 155.85 14.1164C156.265 14.5229 156.594 15.0176 156.812 15.5674C157.048 16.1232 157.186 16.7188 157.22 17.3258C157.241 17.8037 157.249 18.3031 157.249 18.8237C157.249 19.3444 157.249 19.8352 157.22 20.2876C157.186 20.8946 157.048 21.4902 156.812 22.0459C156.588 22.5907 156.257 23.0806 155.841 23.4842C155.398 23.9117 154.876 24.2412 154.308 24.453C152.961 24.9195 151.506 24.9195 150.16 24.453C149.593 24.2416 149.074 23.9119 148.634 23.4842C148.217 23.0818 147.886 22.5917 147.663 22.0459C147.428 21.4902 147.289 20.8946 147.255 20.2876C147.235 19.8352 147.223 19.3444 147.223 18.8237C147.223 18.3031 147.251 17.7824 147.272 17.3044ZM154.247 20.1852C154.247 19.9846 154.267 19.7584 154.279 19.5194C154.291 19.2804 154.279 19.0243 154.279 18.7683C154.279 18.5122 154.279 18.2647 154.279 18.0257C154.279 17.7867 154.255 17.5989 154.247 17.3855C154.229 17.1233 154.173 16.8656 154.079 16.6216C153.992 16.3935 153.861 16.1861 153.696 16.0113C153.522 15.8325 153.313 15.6943 153.084 15.6058C152.527 15.4068 151.923 15.4068 151.367 15.6058C151.137 15.6952 150.927 15.8333 150.751 16.0113C150.587 16.1862 150.458 16.3937 150.372 16.6216C150.278 16.8656 150.222 17.1233 150.204 17.3855C150.179 17.5979 150.166 17.8116 150.164 18.0257C150.164 18.2647 150.164 18.5122 150.164 18.7683C150.164 19.0243 150.164 19.2719 150.164 19.5194C150.166 19.7419 150.179 19.9642 150.204 20.1852C150.229 20.6982 150.422 21.1865 150.751 21.5679C150.946 21.7614 151.178 21.9099 151.432 22.004C151.686 22.0981 151.955 22.1356 152.223 22.1142C152.491 22.1366 152.759 22.0994 153.012 22.0053C153.264 21.9111 153.494 21.7621 153.688 21.5679C154.014 21.1835 154.21 20.6977 154.247 20.1852Z" fill="#FAFAFA"/>
<path d="M168.522 24.0647C168.556 24.119 168.572 24.1835 168.567 24.2482C168.568 24.2959 168.559 24.3432 168.541 24.3872C168.524 24.4313 168.498 24.4711 168.465 24.5043C168.434 24.5391 168.396 24.5669 168.354 24.586C168.312 24.6051 168.266 24.615 168.22 24.6152H165.667C165.538 24.6202 165.41 24.5845 165.3 24.5128C165.194 24.4318 165.098 24.3372 165.014 24.2311L161.996 20.2621V24.1586C161.994 24.2736 161.951 24.3839 161.876 24.4676C161.8 24.5513 161.698 24.6024 161.588 24.611H159.5C159.443 24.6114 159.387 24.5994 159.335 24.5759C159.283 24.5524 159.236 24.5178 159.198 24.4744C159.157 24.4337 159.125 24.3847 159.103 24.3303C159.081 24.276 159.07 24.2175 159.071 24.1586V13.408C159.07 13.3491 159.081 13.2906 159.103 13.2362C159.125 13.1819 159.157 13.1328 159.198 13.0922C159.236 13.0487 159.283 13.0142 159.335 12.9907C159.387 12.9671 159.443 12.9552 159.5 12.9556H161.588C161.698 12.9641 161.8 13.0153 161.876 13.099C161.951 13.1827 161.994 13.2929 161.996 13.408V16.9204L164.798 13.3226C164.862 13.2423 164.93 13.1653 165.002 13.0922C165.124 12.989 165.279 12.94 165.435 12.9556H167.915C167.961 12.9552 168.007 12.9649 168.05 12.984C168.093 13.0031 168.131 13.0312 168.163 13.0666C168.196 13.0997 168.222 13.1396 168.24 13.1836C168.257 13.2276 168.266 13.2749 168.265 13.3226C168.27 13.3879 168.252 13.4526 168.216 13.5062L164.301 18.555L168.522 24.0647Z" fill="#FAFAFA"/>
<path d="M196.514 31.4947L194.225 32.2159L192.573 26.4416L194.853 25.7246L196.514 31.4947Z" fill="#E0E0E0"/>
<path d="M203.657 26.3691C203.676 26.6034 203.623 26.8379 203.507 27.0388C203.39 27.2398 203.216 27.3968 203.008 27.4873C203.157 27.6638 203.267 27.8721 203.33 28.0976C203.461 28.5244 203.114 29.1432 202.425 29.3779L197.192 31.0253L195.654 25.6607C195.654 25.6607 196.539 23.2921 196.584 22.9336C196.629 22.5751 196.107 21.2606 196.033 21.0131C195.96 20.7655 196.808 20.4412 197.477 20.7229C197.633 20.7952 197.772 20.9014 197.885 21.0344C198.126 21.3025 198.328 21.6059 198.485 21.9349C198.707 22.4039 198.816 22.9225 198.803 23.4457L201.972 22.4342C202.191 22.3514 202.43 22.3514 202.649 22.4342C202.792 22.4934 202.919 22.5904 203.015 22.7156C203.112 22.8408 203.177 22.9902 203.202 23.149C203.227 23.3079 203.213 23.471 203.161 23.6224C203.108 23.7739 203.019 23.9085 202.902 24.0133C203.091 23.999 203.279 24.0514 203.435 24.1621C203.592 24.2727 203.709 24.4353 203.767 24.6236C203.815 24.8426 203.79 25.0724 203.694 25.2739C203.599 25.4754 203.44 25.6362 203.245 25.729C203.456 25.8783 203.604 26.1079 203.657 26.3691Z" fill="#E0E0E0"/>
<path d="M229.301 91.3678L226.368 90.6295L228.077 83.2291L231.01 83.9675L229.301 91.3678Z" fill="#E0E0E0"/>
<path d="M240.219 90.5357C240.097 90.8038 239.898 91.0246 239.648 91.1665C239.399 91.3083 239.113 91.3639 238.832 91.3253C238.885 91.6165 238.878 91.9162 238.812 92.2044C238.681 92.7806 237.935 93.2031 237.054 92.9769L230.34 91.2698L231.922 84.3944C231.922 84.3944 234.333 82.4013 234.598 82.0386C234.863 81.6758 235.092 79.9047 235.165 79.576C235.239 79.2474 236.36 79.4693 236.919 80.2247C237.055 80.4082 237.15 80.6211 237.197 80.8478C237.296 81.2995 237.331 81.7639 237.303 82.2263C237.258 82.887 237.062 83.5268 236.732 84.0914L240.786 85.1156C241.074 85.1795 241.331 85.3472 241.512 85.5894C241.613 85.7276 241.684 85.8866 241.721 86.0558C241.758 86.2251 241.761 86.4006 241.728 86.5709C241.674 86.7953 241.561 86.9993 241.401 87.1599C241.242 87.3206 241.043 87.4314 240.827 87.48C241.041 87.5899 241.214 87.7722 241.318 87.9975C241.422 88.2227 241.45 88.4779 241.398 88.7219C241.315 88.9917 241.147 89.2236 240.92 89.3789C240.694 89.5343 240.423 89.6037 240.154 89.5755C240.294 89.8745 240.318 90.219 240.219 90.5357Z" fill="#E0E0E0"/>
<path d="M46.6338 127.277L49.8358 128.285L52.1526 120.201L48.9547 119.194L46.6338 127.277Z" fill="#E0E0E0"/>
<path d="M36.6289 120.095C36.6022 120.423 36.6759 120.751 36.8394 121.033C37.0029 121.315 37.2477 121.534 37.5385 121.661C37.3329 121.909 37.18 122.2 37.0898 122.514C36.9062 123.142 37.3957 123.983 38.3543 124.281L45.6964 126.59L47.8419 119.066C47.8419 119.066 46.5978 115.746 46.5366 115.225C46.4755 114.704 47.2097 112.886 47.3076 112.536C47.3891 112.255 46.2226 111.738 45.2681 112.135C45.0412 112.228 44.8375 112.374 44.6726 112.562C44.3336 112.943 44.0505 113.374 43.8323 113.842C43.5198 114.505 43.3658 115.237 43.3836 115.976L38.9783 114.585C38.6677 114.478 38.3309 114.49 38.028 114.619C37.8272 114.702 37.6503 114.837 37.5147 115.013C37.379 115.188 37.2891 115.398 37.2537 115.62C37.2184 115.843 37.2388 116.071 37.313 116.283C37.3873 116.495 37.5127 116.684 37.6772 116.83C37.4109 116.806 37.1448 116.877 36.9225 117.032C36.7002 117.187 36.5348 117.417 36.4535 117.683C36.3857 117.991 36.4213 118.313 36.5543 118.596C36.6873 118.879 36.9096 119.105 37.1836 119.237C36.9041 119.442 36.7066 119.747 36.6289 120.095Z" fill="#E0E0E0"/>
</svg>
