<svg width="257" height="253" viewBox="0 0 257 253" fill="none" xmlns="http://www.w3.org/2000/svg">
<path d="M47.8757 219.674C0.0414248 184.741 0.0414248 128.097 47.8757 93.1902C95.71 58.2833 173.268 58.2565 221.118 93.1902C268.968 128.124 268.953 184.767 221.118 219.674C173.284 254.581 95.7153 254.615 47.8757 219.674Z" fill="#9F2828"/>
<path d="M222.999 133.463C224.011 120.018 220.884 105.982 216.694 93.4886C210.496 74.888 198.392 55.827 178.051 51.4248C166.322 48.8948 154.385 51.607 144.326 57.9623C134.657 64.0748 127.122 71.9735 115.226 73.5016C103.198 75.05 90.8572 74.4276 78.7688 74.4276C47.6852 74.4276 22.4611 107.08 28.7659 141.093C35.0707 175.106 64.8032 198.691 90.0273 198.691C112.696 198.691 131.347 185.095 152.878 181.442C163.554 179.63 174.276 181.775 184.842 179.063C197.122 175.906 208.669 168.382 215.475 157.487C220.11 150.059 222.367 141.877 222.999 133.463Z" fill="#9F2828"/>
<path opacity="0.7" d="M222.999 133.463C224.011 120.018 220.884 105.982 216.694 93.4886C210.496 74.888 198.392 55.827 178.051 51.4248C166.322 48.8948 154.385 51.607 144.326 57.9623C134.657 64.0748 127.122 71.9735 115.226 73.5016C103.198 75.05 90.8572 74.4276 78.7688 74.4276C47.6852 74.4276 22.4611 107.08 28.7659 141.093C35.0707 175.106 64.8032 198.691 90.0273 198.691C112.696 198.691 131.347 185.095 152.878 181.442C163.554 179.63 174.276 181.775 184.842 179.063C197.122 175.906 208.669 168.382 215.475 157.487C220.11 150.059 222.367 141.877 222.999 133.463Z" fill="white"/>
<path d="M219.36 128.742C219.36 128.742 219.36 126.212 215.818 122.705C212.276 119.198 210.03 117.164 210.03 117.164C210.03 117.164 208.269 122.953 211.548 126.48C213.955 128.957 216.565 131.228 219.35 133.27L219.36 128.742Z" fill="#9F2828"/>
<path d="M214.25 144.458C214.25 144.458 214.25 141.928 210.708 138.421C207.166 134.915 204.93 132.881 204.93 132.881C204.93 132.881 203.164 138.669 206.448 142.196C208.855 144.673 211.465 146.945 214.25 148.987V144.458Z" fill="#9F2828"/>
<path d="M219.138 133.027C219.138 133.027 219.406 130.528 223.282 127.396C227.158 124.264 229.623 122.503 229.623 122.503C229.623 122.503 230.761 128.443 227.138 131.611C224.483 133.82 221.648 135.804 218.663 137.541L219.138 133.027Z" fill="#9F2828"/>
<path d="M212.965 151.587C212.965 151.587 213.471 149.128 217.676 146.421C221.881 143.714 224.492 142.221 224.492 142.221C224.492 142.221 224.998 148.253 221.066 151.011C218.193 152.929 215.165 154.605 212.014 156.02L212.965 151.587Z" fill="#9F2828"/>
<path d="M214.124 171.827C214.124 171.827 214.124 169.297 217.666 165.786C221.208 162.274 223.449 160.25 223.449 160.25C223.449 160.25 225.215 166.039 221.931 169.561C219.525 172.04 216.915 174.313 214.129 176.356L214.124 171.827Z" fill="#9F2828"/>
<path d="M214.069 176.766C214.069 176.766 214.423 174.276 211.437 170.289C208.452 166.302 206.494 163.984 206.494 163.984C206.494 163.984 203.928 169.464 206.666 173.416C208.695 176.211 210.955 178.831 213.421 181.249L214.069 176.766Z" fill="#9F2828"/>
<path d="M210.592 191.405C210.592 191.405 210.592 188.875 214.134 185.368C217.676 181.861 219.922 179.827 219.922 179.827C219.922 179.827 221.683 185.616 218.404 189.143C215.997 191.621 213.387 193.894 210.602 195.938L210.592 191.405Z" fill="#9F2828"/>
<path d="M212.945 204.677C212.945 204.677 212.308 202.243 214.822 197.942C217.337 193.641 219.022 191.121 219.022 191.121C219.022 191.121 222.19 196.272 219.918 200.513C218.218 203.519 216.27 206.378 214.094 209.059L212.945 204.677Z" fill="#9F2828"/>
<path d="M219.68 128.099C219.503 130.719 219.182 133.327 218.718 135.912C217.322 143.107 213.841 147.752 212.449 154.249C211.058 160.746 215.055 169.12 213.967 177.469C212.879 185.818 209.651 190.458 210.577 196.029C211.503 201.601 216.381 216.689 216.381 216.689" stroke="#263238" stroke-width="0.506" stroke-linecap="round" stroke-linejoin="round"/>
<path d="M219.108 134.702L222.903 131.788" stroke="#263238" stroke-width="0.506" stroke-linecap="round" stroke-linejoin="round"/>
<path d="M219.285 131.347L217.691 128.519" stroke="#263238" stroke-width="0.506" stroke-linecap="round" stroke-linejoin="round"/>
<path d="M212.662 153.95C212.662 153.95 215.839 151.567 219.108 149.184" stroke="#263238" stroke-width="0.506" stroke-linecap="round" stroke-linejoin="round"/>
<path d="M214.25 148.987C214.25 148.987 211.599 143.795 208.598 140.354" stroke="#263238" stroke-width="0.506" stroke-linecap="round" stroke-linejoin="round"/>
<path d="M214.25 175.41C216.063 172.06 218.354 168.992 221.051 166.302" stroke="#263238" stroke-width="0.506" stroke-linecap="round" stroke-linejoin="round"/>
<path d="M213.633 178.942C212.669 176.67 211.516 174.484 210.187 172.404C208.335 169.667 208.067 169.313 208.067 169.313" stroke="#263238" stroke-width="0.506" stroke-linecap="round" stroke-linejoin="round"/>
<path d="M210.592 196.029C211.399 194.035 212.356 192.105 213.456 190.256C214.556 188.537 215.797 186.913 217.165 185.398" stroke="#263238" stroke-width="0.506" stroke-linecap="round" stroke-linejoin="round"/>
<path d="M214.093 209.059C213.909 207.152 214.237 205.23 215.045 203.493C216.37 200.933 217.868 197.578 218.485 196.252" stroke="#263238" stroke-width="0.506" stroke-linecap="round" stroke-linejoin="round"/>
<path d="M190.61 162.365C190.61 162.365 190.337 160.787 192.164 158.191C193.99 155.595 195.2 154.092 195.2 154.092C195.2 154.092 196.93 157.533 195.26 160.093C194.02 161.909 192.631 163.619 191.106 165.204L190.61 162.365Z" fill="#9F2828"/>
<path d="M195.524 171.666C195.524 171.666 195.251 170.087 197.077 167.491C198.904 164.895 200.113 163.392 200.113 163.392C200.113 163.392 201.844 166.833 200.174 169.399C198.933 171.213 197.543 172.92 196.02 174.504L195.524 171.666Z" fill="#9F2828"/>
<path d="M191.212 165.027C191.212 165.027 190.777 163.509 188.004 161.945C185.231 160.382 183.501 159.562 183.501 159.562C183.501 159.562 183.43 163.413 186.031 165.002C187.935 166.098 189.927 167.034 191.986 167.8L191.212 165.027Z" fill="#9F2828"/>
<path d="M197.102 175.997C197.102 175.997 196.505 174.509 193.591 173.265C190.676 172.02 188.854 171.372 188.854 171.372C188.854 171.372 189.188 175.208 191.961 176.513C193.971 177.403 196.051 178.124 198.18 178.669L197.102 175.997Z" fill="#9F2828"/>
<path d="M198.57 188.814C198.57 188.814 198.301 187.235 195.706 185.408C193.11 183.582 191.476 182.565 191.476 182.565C191.476 182.565 191 186.385 193.434 188.237C195.212 189.532 197.096 190.674 199.066 191.653L198.57 188.814Z" fill="#9F2828"/>
<path d="M199.146 191.906C199.146 191.906 198.64 190.388 200.093 187.554C201.545 184.72 202.506 183.066 202.506 183.066C202.506 183.066 204.707 186.223 203.422 189.001C202.454 190.973 201.321 192.861 200.037 194.643L199.146 191.906Z" fill="#9F2828"/>
<path d="M203.569 204.631C203.569 204.631 203.751 203.043 206.235 201.089C208.72 199.136 210.283 198.008 210.283 198.008C210.283 198.008 210.976 201.798 208.654 203.786C206.953 205.178 205.138 206.426 203.229 207.516L203.569 204.631Z" fill="#9F2828"/>
<path d="M202.906 200.705C202.906 200.705 202.632 199.126 200.042 197.3C197.451 195.473 195.822 194.456 195.822 194.456C195.822 194.456 195.346 198.276 197.78 200.133C199.559 201.426 201.443 202.568 203.412 203.549L202.906 200.705Z" fill="#9F2828"/>
<path d="M202.906 209.287C202.906 209.287 203.038 207.688 200.993 205.264C198.949 202.84 197.623 201.444 197.623 201.444C197.623 201.444 196.191 205.016 198.079 207.43C199.462 209.129 200.985 210.71 202.633 212.156L202.906 209.287Z" fill="#9F2828"/>
<path d="M190.342 161.991C190.738 163.615 191.223 165.217 191.794 166.788C193.449 171.149 196.135 173.684 197.714 177.606C199.293 181.527 197.714 187.22 199.273 192.336C200.831 197.451 203.412 200.012 203.412 203.604C203.412 207.197 202.015 217.19 202.015 217.19" stroke="#263238" stroke-width="0.506" stroke-linecap="round" stroke-linejoin="round"/>
<path d="M191.42 166.069L188.723 164.657" stroke="#263238" stroke-width="0.506" stroke-linecap="round" stroke-linejoin="round"/>
<path d="M190.944 163.984L191.633 162.041" stroke="#263238" stroke-width="0.506" stroke-linecap="round" stroke-linejoin="round"/>
<path d="M197.547 177.444C197.547 177.444 195.295 176.295 192.993 175.152" stroke="#263238" stroke-width="0.506" stroke-linecap="round" stroke-linejoin="round"/>
<path d="M196.014 174.504C196.678 172.419 197.551 170.407 198.62 168.498" stroke="#263238" stroke-width="0.506" stroke-linecap="round" stroke-linejoin="round"/>
<path d="M198.883 191.071C197.382 189.171 195.613 187.499 193.631 186.107" stroke="#263238" stroke-width="0.506" stroke-linecap="round" stroke-linejoin="round"/>
<path d="M199.652 193.216C200.012 191.689 200.498 190.195 201.105 188.748C201.97 186.83 202.117 186.577 202.117 186.577" stroke="#263238" stroke-width="0.506" stroke-linecap="round" stroke-linejoin="round"/>
<path d="M203.291 206.332C204.168 205.244 205.14 204.237 206.195 203.321C206.866 202.827 207.496 202.278 208.077 201.681" stroke="#263238" stroke-width="0.506" stroke-linecap="round" stroke-linejoin="round"/>
<path d="M203.412 203.604C202.689 202.438 201.879 201.329 200.988 200.285C200.111 199.328 199.157 198.444 198.134 197.644" stroke="#263238" stroke-width="0.506" stroke-linecap="round" stroke-linejoin="round"/>
<path d="M202.633 212.156C202.542 210.939 202.128 209.768 201.434 208.765C200.326 207.303 199.02 205.36 198.489 204.596" stroke="#263238" stroke-width="0.506" stroke-linecap="round" stroke-linejoin="round"/>
<path d="M46.8906 140.324L44.6743 133.994L46.8906 136.681L45.15 127.183L47.8419 133.994L48.7932 120.691L50.3769 133.356L52.1176 130.826V133.994L54.177 129.718L53.0689 137.156L54.9664 135.891L51.9607 140.005L46.8906 140.324Z" fill="#9F2828"/>
<path d="M53.8586 138.74H45.626L47.1086 155.362H52.376L53.8586 138.74Z" fill="#263238" stroke="#263238" stroke-width="0.506" stroke-linecap="round" stroke-linejoin="round"/>
<path d="M69.3015 155.175H41.2539V214.579H69.3015V155.175Z" fill="white" stroke="#263238" stroke-width="0.506" stroke-linecap="round" stroke-linejoin="round"/>
<path d="M70.8349 155.175H55.2754V214.579H70.8349V155.175Z" fill="white" stroke="#263238" stroke-width="0.506" stroke-linecap="round" stroke-linejoin="round"/>
<path d="M69.0841 155.175H55.2754V214.579H69.0841V155.175Z" fill="#263238" stroke="#263238" stroke-width="0.506" stroke-linecap="round" stroke-linejoin="round"/>
<path d="M67.5307 200.766H55.2754V212.93H67.5307V200.766Z" fill="#9F2828" stroke="#263238" stroke-width="0.506" stroke-linecap="round" stroke-linejoin="round"/>
<path d="M67.5307 201.423H55.2754V202.982H67.5307V201.423Z" fill="white" stroke="#263238" stroke-width="0.506" stroke-linecap="round" stroke-linejoin="round"/>
<path d="M67.5307 210.38H55.2754V211.938H67.5307V210.38Z" fill="white" stroke="#263238" stroke-width="0.506" stroke-linecap="round" stroke-linejoin="round"/>
<path d="M57.5981 201.019V216.401" stroke="#263238" stroke-width="0.506" stroke-linecap="round" stroke-linejoin="round"/>
<path d="M61.8735 201.019V216.401" stroke="#263238" stroke-width="0.506" stroke-linecap="round" stroke-linejoin="round"/>
<path d="M65.6279 201.019V216.401" stroke="#263238" stroke-width="0.506" stroke-linecap="round" stroke-linejoin="round"/>
<path d="M67.5307 157.381H55.2754V175.268H67.5307V157.381Z" fill="#9F2828" stroke="#263238" stroke-width="0.506" stroke-linecap="round" stroke-linejoin="round"/>
<path d="M67.5307 158.13H55.2754V159.901H67.5307V158.13Z" fill="white" stroke="#263238" stroke-width="0.506" stroke-linecap="round" stroke-linejoin="round"/>
<path d="M67.5307 169.596H55.2754V171.367H67.5307V169.596Z" fill="white" stroke="#263238" stroke-width="0.506" stroke-linecap="round" stroke-linejoin="round"/>
<path d="M57.5981 157.665V175.147" stroke="#263238" stroke-width="0.506" stroke-linecap="round" stroke-linejoin="round"/>
<path d="M61.8735 157.665V175.147" stroke="#263238" stroke-width="0.506" stroke-linecap="round" stroke-linejoin="round"/>
<path d="M65.6279 157.665V175.147" stroke="#263238" stroke-width="0.506" stroke-linecap="round" stroke-linejoin="round"/>
<path d="M67.5307 178.937H55.2754V196.824H67.5307V178.937Z" fill="#9F2828" stroke="#263238" stroke-width="0.506" stroke-linecap="round" stroke-linejoin="round"/>
<path d="M67.5307 179.686H55.2754V181.457H67.5307V179.686Z" fill="white" stroke="#263238" stroke-width="0.506" stroke-linecap="round" stroke-linejoin="round"/>
<path d="M67.5307 191.152H55.2754V192.923H67.5307V191.152Z" fill="white" stroke="#263238" stroke-width="0.506" stroke-linecap="round" stroke-linejoin="round"/>
<path d="M57.5981 179.225V196.702" stroke="#263238" stroke-width="0.506" stroke-linecap="round" stroke-linejoin="round"/>
<path d="M61.8735 179.225V196.702" stroke="#263238" stroke-width="0.506" stroke-linecap="round" stroke-linejoin="round"/>
<path d="M65.6279 179.225V196.702" stroke="#263238" stroke-width="0.506" stroke-linecap="round" stroke-linejoin="round"/>
<path d="M69.2966 175.02H55.2754V177.054H69.2966V175.02Z" fill="white" stroke="#263238" stroke-width="0.506" stroke-linecap="round" stroke-linejoin="round"/>
<path d="M69.2966 196.713H55.2754V198.747H69.2966V196.713Z" fill="white" stroke="#263238" stroke-width="0.506" stroke-linecap="round" stroke-linejoin="round"/>
<path d="M69.2964 155.175V214.574" stroke="#263238" stroke-width="0.506" stroke-linecap="round" stroke-linejoin="round"/>
<path d="M53.2969 155.175V214.574H55.2753V157.381H69.0537V155.15L53.2969 155.175Z" fill="white" stroke="#263238" stroke-width="0.506" stroke-linecap="round" stroke-linejoin="round"/>
<path d="M55.2754 157.381V155.175" stroke="#263238" stroke-width="0.506" stroke-linecap="round" stroke-linejoin="round"/>
<path d="M186.536 38H72.9338C69.1044 38 66 41.1044 66 44.9338V110.116C66 113.946 69.1044 117.05 72.9338 117.05H186.536C190.366 117.05 193.47 113.946 193.47 110.116V44.9338C193.47 41.1044 190.366 38 186.536 38Z" fill="#9F2828"/>
<path d="M133.808 100.28C147.937 98.0093 157.551 84.714 155.28 70.5843C153.009 56.4545 139.714 46.8409 125.584 49.1117C111.454 51.3825 101.841 64.6778 104.112 78.8076C106.382 92.9374 119.678 102.551 133.808 100.28Z" fill="#263238"/>
<path d="M129.499 79.4865L120.865 90.5715C120.571 91.0329 120.167 91.4141 119.69 91.6807C119.212 91.9473 118.676 92.091 118.129 92.0987C117.379 92.109 116.655 91.8224 116.115 91.3015C115.841 91.0498 115.624 90.7418 115.479 90.3986C115.334 90.0555 115.265 89.6851 115.276 89.3128C115.303 88.479 115.597 87.6759 116.115 87.0219L125.958 74.8461L116.728 62.6618C116.299 62.09 116.064 61.3962 116.056 60.6815C116.054 60.2552 116.14 59.8331 116.309 59.4417C116.478 59.0503 116.727 58.6982 117.038 58.4074C117.331 58.1017 117.683 57.8586 118.072 57.6927C118.462 57.5269 118.881 57.4417 119.304 57.4424C119.846 57.4512 120.377 57.5956 120.849 57.8623C121.321 58.1291 121.719 58.5098 122.006 58.9696L130.347 69.9539L138.738 59.1543C139.038 58.6504 139.458 58.2283 139.96 57.9253C140.462 57.6224 141.031 57.4478 141.617 57.4172C141.98 57.4163 142.34 57.4904 142.673 57.6348C143.007 57.7792 143.307 57.9908 143.555 58.2564C143.819 58.5054 144.03 58.8057 144.174 59.139C144.319 59.4723 144.393 59.8316 144.394 60.1948C144.385 60.8447 144.161 61.4733 143.756 61.9821L133.88 74.6195L143.421 87.2066C143.872 87.7692 144.123 88.4659 144.134 89.1869C144.137 89.6038 144.049 90.0164 143.876 90.396C143.704 90.7756 143.451 91.1132 143.135 91.3855C142.52 91.9775 141.699 92.3083 140.845 92.3085C140.3 92.3017 139.765 92.1584 139.29 91.8916C138.815 91.6247 138.415 91.243 138.126 90.7813L129.499 79.4865Z" fill="white"/>
<path d="M173.366 113.164H180.851" stroke="white" stroke-width="1.83595" stroke-linecap="round" stroke-linejoin="round"/>
<path d="M69.5557 58.0548V107.766C69.5557 109.206 70.1276 110.587 71.1456 111.605C72.1636 112.623 73.5443 113.195 74.984 113.195H166.261" stroke="white" stroke-width="1.83595" stroke-linecap="round" stroke-linejoin="round"/>
<path d="M69.5557 44.8726V52.3265" stroke="white" stroke-width="1.83595" stroke-linecap="round" stroke-linejoin="round"/>
</svg>
