<svg width="2373" height="2373" viewBox="0 0 2373 2373" fill="none" xmlns="http://www.w3.org/2000/svg">
<g clip-path="url(#clip0_126_471)">
<path d="M871.859 179.92C940.002 256.698 972.327 378.801 940.439 468.066C908.115 557.331 812.016 614.22 718.975 652.146C625.934 689.609 535.513 708.11 461.255 676.197C386.997 643.821 328.9 561.493 314.049 473.616C299.197 386.201 327.59 293.236 381.318 219.697C435.046 146.62 514.109 92.5055 606.277 81.4052C698.008 70.7674 803.28 102.681 871.859 179.92Z" fill="#DD5A5A"/>
<path d="M2373 1814.41H0.697754V1815.6H2373V1814.41Z" fill="#EBEBEB"/>
<path d="M1697.75 1846.72H1540.6V1847.91H1697.75V1846.72Z" fill="#EBEBEB"/>
<path d="M2075.32 1857.12H2034.09V1858.31H2075.32V1857.12Z" fill="#EBEBEB"/>
<path d="M1793.54 1890.75H1702.49V1891.93H1793.54V1890.75Z" fill="#EBEBEB"/>
<path d="M1186.85 1874.72H981.932V1875.91H1186.85V1874.72Z" fill="#EBEBEB"/>
<path d="M939.652 1874.72H909.619V1875.91H939.652V1874.72Z" fill="#EBEBEB"/>
<path d="M811.977 1854.69H367.503V1855.87H811.977V1854.69Z" fill="#EBEBEB"/>
<path d="M2151.48 1602.8H1235.29C1228.11 1602.79 1221.23 1599.93 1216.15 1594.85C1211.07 1589.78 1208.21 1582.89 1208.2 1575.71V287.886C1208.28 280.746 1211.16 273.923 1216.23 268.896C1221.31 263.869 1228.15 261.043 1235.29 261.031H2151.48C2158.6 261.056 2165.43 263.889 2170.49 268.915C2175.54 273.942 2178.41 280.758 2178.47 287.886V1575.71C2178.47 1582.88 2175.63 1589.76 2170.57 1594.84C2165.51 1599.91 2158.64 1602.78 2151.48 1602.8ZM1235.29 261.98C1228.43 261.993 1221.85 264.726 1216.99 269.582C1212.13 274.437 1209.4 281.019 1209.39 287.886V1575.71C1209.4 1582.58 1212.13 1589.16 1216.99 1594.02C1221.85 1598.87 1228.43 1601.6 1235.29 1601.62H2151.48C2158.34 1601.6 2164.92 1598.87 2169.78 1594.02C2174.64 1589.16 2177.37 1582.58 2177.38 1575.71V287.886C2177.37 281.019 2174.64 274.437 2169.78 269.582C2164.92 264.726 2158.34 261.993 2151.48 261.98H1235.29Z" fill="#EBEBEB"/>
<path d="M757.174 1388.45L2069.34 1388.45V382.879L757.174 382.879L757.174 1388.45Z" fill="#E6E6E6"/>
<path d="M682.59 359.098H2114.37C2115.3 359.066 2116.22 359.222 2117.09 359.555C2117.96 359.889 2118.75 360.394 2119.42 361.041C2120.09 361.687 2120.62 362.462 2120.98 363.318C2121.35 364.174 2121.53 365.095 2121.53 366.025C2121.53 366.932 2121.35 367.831 2121 368.669C2120.66 369.506 2120.14 370.267 2119.5 370.906C2118.86 371.546 2118.09 372.052 2117.25 372.395C2116.41 372.738 2115.51 372.911 2114.6 372.905H682.59C681.683 372.911 680.783 372.738 679.943 372.395C679.103 372.052 678.339 371.546 677.695 370.906C677.051 370.267 676.54 369.506 676.191 368.669C675.843 367.831 675.663 366.932 675.663 366.025C675.663 364.188 676.393 362.426 677.692 361.127C678.991 359.828 680.753 359.098 682.59 359.098Z" fill="#F5F5F5"/>
<path d="M727.669 1388.45L2055.54 1388.45V382.879L727.669 382.879L727.669 1388.45Z" fill="#EBEBEB"/>
<path d="M2014.16 1347.11V424.238L768.992 424.238V1347.11H2014.16Z" fill="#FAFAFA"/>
<path d="M1758.38 1347.11L1471.14 424.238H1303.99L1591.28 1347.11H1758.38Z" fill="white"/>
<path d="M1474.75 1347.11L1187.46 424.238H1122.32L1409.56 1347.11H1474.75Z" fill="white"/>
<path d="M774.212 1347.11V424.238H768.945V1347.11H774.212Z" fill="#E6E6E6"/>
<g opacity="0.4">
<path d="M1956.51 1319.6H2084.85V346.722H1956.51V1319.6Z" fill="#F0F0F0"/>
<path d="M1906.5 1319.6H2006.52L2006.52 346.722H1906.5V1319.6Z" fill="#E6E6E6"/>
<path d="M1828.17 1319.6H1956.51L1956.51 346.722H1828.17V1319.6Z" fill="#F0F0F0"/>
<path d="M1778.11 1319.6H1878.13L1878.13 346.722H1778.11V1319.6Z" fill="#E6E6E6"/>
<path d="M1699.83 1319.6H1828.17L1828.17 346.722H1699.83V1319.6Z" fill="#F0F0F0"/>
</g>
<g opacity="0.4">
<path d="M795.513 1319.6H836.506L836.506 346.722H795.513L795.513 1319.6Z" fill="#F0F0F0"/>
<path d="M779.525 1319.6H811.456L811.456 346.722H779.525L779.525 1319.6Z" fill="#E6E6E6"/>
<path d="M754.471 1319.6H795.464L795.464 346.722H754.471L754.471 1319.6Z" fill="#F0F0F0"/>
<path d="M738.53 1319.6H770.461L770.461 346.722H738.53L738.53 1319.6Z" fill="#E6E6E6"/>
<path d="M713.483 1319.6H754.477L754.477 346.722H713.483L713.483 1319.6Z" fill="#F0F0F0"/>
</g>
<path d="M358.396 880.684H652.372V511.127L358.396 511.127L358.396 880.684Z" fill="#F0F0F0"/>
<path d="M293.438 880.684H641.075V511.127L293.438 511.127L293.438 880.684Z" fill="#F5F5F5"/>
<path d="M322.571 540.256V851.549H611.944V540.256H322.571Z" fill="white"/>
<path d="M1930.89 1790.69H1989.01V1479.06H1930.89V1790.69Z" fill="#F0F0F0"/>
<path d="M1089.68 1819.63H1964.96V1790.69H1089.68V1819.63Z" fill="#F0F0F0"/>
<path d="M1930.85 1479.12H1065.67V1790.74H1930.85V1479.12Z" fill="#FAFAFA"/>
<path d="M1881.7 1517.02H1114.92V1612.91H1881.7V1517.02Z" fill="#F0F0F0"/>
<path d="M1881.7 1640.19H1114.92V1736.08H1881.7V1640.19Z" fill="#F0F0F0"/>
<path d="M1282.74 1525.65H1713.83C1718.65 1525.65 1722.56 1521.74 1722.56 1516.92V1513.84C1722.56 1509.02 1718.65 1505.11 1713.83 1505.11H1282.74C1277.92 1505.11 1274.01 1509.02 1274.01 1513.84V1516.92C1274.01 1521.74 1277.92 1525.65 1282.74 1525.65Z" fill="#FAFAFA"/>
<path d="M1282.74 1648.82H1713.83C1718.65 1648.82 1722.56 1644.91 1722.56 1640.09V1637.01C1722.56 1632.18 1718.65 1628.28 1713.83 1628.28H1282.74C1277.92 1628.28 1274.01 1632.18 1274.01 1637.01V1640.09C1274.01 1644.91 1277.92 1648.82 1282.74 1648.82Z" fill="#FAFAFA"/>
<path d="M1048.97 1479.12H1930.85V1451.17H1048.97V1479.12Z" fill="#F0F0F0"/>
<path d="M2006.52 1451.16H1930.89V1479.11H2006.52V1451.16Z" fill="#E6E6E6"/>
<path d="M476.438 1672.83H504.62C504.62 1647.64 504.62 1518.96 506.613 1372.5C508.321 1236.75 511.358 1182.38 514.11 1161.6L491.478 1201.07C483.602 1231.96 470.507 1284.77 469.368 1317.22C465.667 1419.33 479.901 1565.79 476.438 1672.83Z" fill="#E6E6E6"/>
<path d="M455.043 1182.38C417.513 1108.99 342.311 1070.65 265.829 1034.4C235.748 1020.17 320.202 1195.72 381.644 1275.57C429.09 1337.25 475.445 1336.06 489.299 1397.17C491.956 1326.38 487.401 1245.68 455.043 1182.38Z" fill="#E6E6E6"/>
<path d="M526.355 1306.6C559.567 1263.18 614.415 1252.08 670.116 1242.83C691.941 1239.22 615.98 1344.17 565.735 1386.97C526.829 1420.18 495.847 1409.65 479.905 1449.41C485.931 1399.35 497.698 1343.98 526.355 1306.6Z" fill="#E6E6E6"/>
<path d="M459.312 1389.58C433.454 1355.85 390.894 1347.21 347.624 1340.05C330.638 1337.25 389.756 1418.71 428.614 1451.92C458.837 1477.78 482.892 1469.57 495.038 1500.46C490.768 1461.65 481.611 1418.71 459.312 1389.58Z" fill="#E6E6E6"/>
<path d="M512.545 1521.77C530.385 1498.99 559.422 1493.3 588.933 1488.55C600.51 1486.75 559.801 1541.88 533.089 1564.47C512.356 1581.83 496.034 1576.09 487.399 1597.06C490.72 1570.54 497.22 1541.41 512.545 1521.77Z" fill="#E6E6E6"/>
<path d="M495.752 1185.13C516.533 1113.16 598.52 1001.19 682.926 977.842C716.138 968.827 597.002 1150.97 556.198 1241.59C524.457 1312.19 494.518 1355.04 490.39 1405.62C469.324 1342.04 475.16 1257.11 495.752 1185.13Z" fill="#E6E6E6"/>
<path d="M502.773 1814.41C444.32 1814.41 396.02 1805.73 392.651 1747.42L383.162 1647.78H622.812L613.323 1747.42C609.479 1805.73 561.179 1814.41 502.773 1814.41Z" fill="#F0F0F0"/>
<path d="M638.09 1668.05H367.411L359.677 1612.87H645.824L638.09 1668.05Z" fill="#F0F0F0"/>
<path d="M1186.85 2028.68C1694.91 2028.68 2106.78 2004.63 2106.78 1974.97C2106.78 1945.31 1694.91 1921.26 1186.85 1921.26C678.784 1921.26 266.917 1945.31 266.917 1974.97C266.917 2004.63 678.784 2028.68 1186.85 2028.68Z" fill="#F5F5F5"/>
<path d="M1800.04 656.864C1799.82 656.91 1799.59 656.91 1799.37 656.864C1798.77 656.688 1798.26 656.279 1797.96 655.727C1797.65 655.176 1797.58 654.526 1797.76 653.922C1840.22 512.486 1809.71 388.225 1716.15 320.899C1630.37 259.457 1513.37 260.405 1424.98 323.366C1174.89 501.431 983.728 535.924 785.593 438.802C785.313 438.665 785.062 438.474 784.856 438.24C784.649 438.006 784.491 437.734 784.389 437.439C784.288 437.144 784.246 436.832 784.265 436.52C784.285 436.209 784.365 435.904 784.502 435.624C784.639 435.343 784.83 435.092 785.064 434.886C785.298 434.679 785.57 434.521 785.866 434.42C786.161 434.318 786.473 434.276 786.785 434.295C787.096 434.315 787.401 434.395 787.681 434.532C984.013 530.8 1173.75 496.212 1422.22 319.476C1512.37 255.376 1631.51 254.427 1718.9 317.056C1814.22 385.378 1845.39 511.585 1802.31 655.298C1802.15 655.765 1801.83 656.166 1801.43 656.447C1801.02 656.728 1800.53 656.874 1800.04 656.864Z" fill="#1D5BA4"/>
<path d="M1643.04 1383.92C1595.08 1383.7 1547.85 1372.21 1505.16 1350.38C1329.61 1261.99 1193.06 1265.97 1140.44 1361.01C1140.29 1361.28 1140.09 1361.52 1139.85 1361.72C1139.6 1361.92 1139.32 1362.06 1139.02 1362.15C1138.72 1362.24 1138.41 1362.27 1138.1 1362.23C1137.79 1362.2 1137.49 1362.11 1137.21 1361.96C1136.67 1361.65 1136.26 1361.14 1136.09 1360.53C1135.91 1359.93 1135.97 1359.29 1136.26 1358.73C1190.31 1261.18 1328.99 1256.48 1507.29 1346.11C1549.92 1368.17 1597.28 1379.52 1645.28 1379.16C1693.28 1378.8 1740.47 1366.76 1782.76 1344.07C1887.57 1289.55 1966.24 1179.62 1983.18 1064.14C1983.22 1063.83 1983.33 1063.53 1983.49 1063.26C1983.65 1063 1983.86 1062.76 1984.11 1062.58C1984.37 1062.39 1984.65 1062.26 1984.95 1062.19C1985.26 1062.11 1985.57 1062.1 1985.88 1062.14C1986.5 1062.25 1987.05 1062.59 1987.42 1063.09C1987.79 1063.6 1987.96 1064.23 1987.87 1064.85C1970.7 1181.95 1891.04 1293.21 1784.95 1348.39C1741.21 1371.52 1692.52 1383.72 1643.04 1383.92Z" fill="#1D5BA4"/>
<path d="M1937.44 1106.74H1936.64C1936.04 1106.52 1935.56 1106.08 1935.3 1105.51C1935.03 1104.94 1935 1104.29 1935.21 1103.7C1986.12 963.783 1913.48 907.891 1843.21 853.803C1776.79 802.561 1707.76 749.422 1746.99 626.347C1747.09 626.047 1747.24 625.769 1747.44 625.53C1747.64 625.29 1747.89 625.093 1748.17 624.951C1748.44 624.81 1748.75 624.726 1749.06 624.704C1749.37 624.683 1749.69 624.726 1749.98 624.829C1750.28 624.92 1750.55 625.069 1750.79 625.267C1751.02 625.465 1751.22 625.708 1751.36 625.982C1751.5 626.256 1751.58 626.555 1751.61 626.862C1751.63 627.169 1751.6 627.478 1751.5 627.77C1713.5 747.714 1777.79 797.152 1846.35 849.912C1917.94 904.997 1992.01 961.98 1939.91 1105.17C1939.75 1105.68 1939.41 1106.12 1938.96 1106.4C1938.51 1106.69 1937.97 1106.81 1937.44 1106.74Z" fill="#1D5BA4"/>
<path opacity="0.1" d="M1892.51 1129.57C1857.82 1247.48 1725.54 1337.82 1605.88 1309.87C1460.79 1275.76 1384.31 1152.11 1410.03 1031.93C1435.74 911.75 1569.68 973.477 1689.96 947.714C1844.25 914.455 1927 1011.62 1892.51 1129.57Z" fill="#1D5BA4"/>
<path d="M1201.98 452.044C1202.38 455.265 1201.82 458.533 1200.36 461.432C1198.9 464.332 1196.61 466.733 1193.79 468.329C1190.96 469.925 1187.72 470.645 1184.49 470.397C1181.25 470.149 1178.16 468.945 1175.61 466.937C1173.06 464.928 1171.16 462.208 1170.16 459.12C1169.16 456.032 1169.1 452.716 1169.99 449.594C1170.88 446.472 1172.68 443.685 1175.16 441.587C1177.63 439.489 1180.68 438.174 1183.9 437.81C1188.18 437.328 1192.48 438.551 1195.86 441.215C1199.25 443.88 1201.44 447.77 1201.98 452.044Z" fill="white"/>
<path d="M1185.71 472.538C1182.1 472.534 1178.57 471.486 1175.55 469.521C1172.52 467.556 1170.13 464.757 1168.66 461.463C1167.19 458.169 1166.7 454.52 1167.26 450.956C1167.82 447.392 1169.39 444.065 1171.8 441.377C1174.21 438.689 1177.34 436.755 1180.82 435.807C1184.3 434.859 1187.98 434.939 1191.42 436.036C1194.85 437.133 1197.9 439.201 1200.18 441.991C1202.47 444.78 1203.9 448.172 1204.31 451.756C1204.79 456.676 1203.34 461.59 1200.25 465.453C1197.17 469.316 1192.7 471.824 1187.79 472.443C1187.1 472.521 1186.4 472.553 1185.71 472.538ZM1185.71 439.848H1184.19C1181.45 440.155 1178.86 441.268 1176.75 443.045C1174.64 444.823 1173.11 447.185 1172.34 449.834C1171.58 452.483 1171.61 455.3 1172.45 457.929C1173.28 460.557 1174.88 462.879 1177.03 464.602C1179.18 466.325 1181.8 467.371 1184.55 467.607C1187.29 467.844 1190.05 467.261 1192.47 465.932C1194.88 464.603 1196.85 462.588 1198.12 460.141C1199.39 457.694 1199.91 454.925 1199.61 452.183C1199.15 448.803 1197.5 445.697 1194.95 443.433C1192.4 441.169 1189.12 439.897 1185.71 439.848Z" fill="#1D5BA4"/>
<path d="M1765.69 625.117C1766.09 628.34 1765.53 631.61 1764.07 634.512C1762.61 637.413 1760.32 639.815 1757.49 641.411C1754.66 643.007 1751.42 643.725 1748.18 643.474C1744.94 643.223 1741.85 642.014 1739.3 640.002C1736.75 637.989 1734.86 635.263 1733.86 632.172C1732.87 629.08 1732.82 625.762 1733.71 622.64C1734.61 619.517 1736.41 616.732 1738.89 614.639C1741.38 612.545 1744.43 611.238 1747.66 610.883C1751.93 610.414 1756.21 611.643 1759.59 614.306C1762.96 616.97 1765.15 620.853 1765.69 625.117Z" fill="white"/>
<path d="M1749.22 645.663C1746.21 645.693 1743.24 644.997 1740.55 643.632C1737.86 642.268 1735.54 640.276 1733.79 637.825C1732.04 635.374 1730.9 632.536 1730.48 629.553C1730.06 626.57 1730.36 623.528 1731.36 620.687C1732.37 617.845 1734.04 615.287 1736.24 613.23C1738.44 611.173 1741.11 609.677 1744.01 608.868C1746.91 608.06 1749.97 607.964 1752.92 608.587C1755.86 609.211 1758.62 610.536 1760.94 612.451C1764.81 615.573 1767.3 620.088 1767.87 625.024C1768.39 629.955 1766.96 634.894 1763.89 638.783C1760.76 642.511 1756.3 644.863 1751.45 645.331C1750.72 645.496 1749.98 645.607 1749.22 645.663ZM1749.22 612.973C1748.7 612.926 1748.18 612.926 1747.66 612.973C1745.81 613.144 1744.02 613.686 1742.39 614.566C1740.76 615.447 1739.32 616.648 1738.17 618.097C1737.02 619.531 1736.16 621.179 1735.65 622.946C1735.13 624.713 1734.98 626.564 1735.18 628.393C1735.66 632.044 1737.53 635.369 1740.4 637.67C1743.28 639.97 1746.93 641.066 1750.6 640.729C1754.32 640.319 1757.73 638.461 1760.09 635.557C1761.24 634.13 1762.09 632.489 1762.59 630.729C1763.1 628.97 1763.25 627.127 1763.03 625.309C1762.68 621.886 1761.06 618.718 1758.5 616.42C1755.94 614.122 1752.62 612.86 1749.18 612.878L1749.22 612.973Z" fill="#1D5BA4"/>
<path d="M1928.67 1233.66C1929.06 1236.87 1928.49 1240.12 1927.03 1243.01C1925.57 1245.9 1923.28 1248.28 1920.46 1249.87C1917.64 1251.45 1914.42 1252.17 1911.19 1251.91C1907.97 1251.66 1904.89 1250.46 1902.35 1248.45C1899.81 1246.45 1897.93 1243.74 1896.93 1240.66C1895.94 1237.58 1895.88 1234.27 1896.77 1231.16C1897.66 1228.05 1899.45 1225.28 1901.92 1223.19C1904.39 1221.1 1907.42 1219.79 1910.64 1219.42C1914.91 1218.95 1919.19 1220.18 1922.57 1222.85C1925.94 1225.51 1928.13 1229.39 1928.67 1233.66Z" fill="white"/>
<path d="M1912.39 1254.3C1908.77 1254.29 1905.23 1253.24 1902.2 1251.27C1899.16 1249.3 1896.76 1246.49 1895.29 1243.19C1893.81 1239.88 1893.33 1236.22 1893.89 1232.64C1894.45 1229.07 1896.04 1225.73 1898.46 1223.04C1900.87 1220.35 1904.02 1218.41 1907.51 1217.46C1911.01 1216.52 1914.7 1216.61 1918.14 1217.71C1921.59 1218.82 1924.64 1220.9 1926.93 1223.71C1929.21 1226.51 1930.64 1229.92 1931.04 1233.52C1931.31 1235.96 1931.09 1238.43 1930.41 1240.79C1929.72 1243.15 1928.57 1245.35 1927.04 1247.27C1925.5 1249.19 1923.6 1250.78 1921.44 1251.96C1919.29 1253.14 1916.92 1253.89 1914.48 1254.15C1913.79 1254.25 1913.09 1254.3 1912.39 1254.3ZM1912.39 1221.61C1911.87 1221.56 1911.34 1221.56 1910.82 1221.61C1908.09 1221.92 1905.5 1223.04 1903.4 1224.82C1901.3 1226.61 1899.77 1228.97 1899.02 1231.62C1898.26 1234.27 1898.3 1237.08 1899.14 1239.71C1899.98 1242.33 1901.57 1244.65 1903.73 1246.37C1905.88 1248.09 1908.5 1249.13 1911.24 1249.36C1913.99 1249.6 1916.74 1249.01 1919.15 1247.68C1921.57 1246.35 1923.53 1244.34 1924.8 1241.89C1926.07 1239.45 1926.59 1236.68 1926.29 1233.94C1925.88 1230.22 1924.02 1226.81 1921.12 1224.45C1918.63 1222.56 1915.57 1221.55 1912.44 1221.61H1912.39Z" fill="#1D5BA4"/>
<path d="M1761.27 1231.39C1759.77 1234.25 1757.45 1236.59 1754.62 1238.13C1751.78 1239.67 1748.55 1240.34 1745.34 1240.05C1742.13 1239.75 1739.08 1238.51 1736.57 1236.49C1734.06 1234.46 1732.2 1231.73 1731.24 1228.65C1730.28 1225.57 1730.26 1222.28 1731.17 1219.18C1732.08 1216.09 1733.89 1213.33 1736.37 1211.26C1738.84 1209.19 1741.88 1207.91 1745.09 1207.56C1748.29 1207.22 1751.53 1207.83 1754.39 1209.33C1756.3 1210.31 1758 1211.67 1759.38 1213.32C1760.76 1214.96 1761.81 1216.87 1762.45 1218.92C1763.09 1220.97 1763.31 1223.13 1763.11 1225.27C1762.91 1227.42 1762.28 1229.49 1761.27 1231.39Z" fill="white"/>
<path d="M1746.71 1242.53C1743.68 1242.52 1740.71 1241.79 1738.02 1240.4C1733.67 1238.04 1730.42 1234.08 1728.95 1229.35C1727.47 1224.63 1727.91 1219.52 1730.15 1215.11C1732.5 1210.78 1736.45 1207.55 1741.16 1206.12C1745.86 1204.68 1750.95 1205.15 1755.31 1207.43C1759.67 1209.71 1762.96 1213.62 1764.46 1218.3C1765.97 1222.99 1765.57 1228.08 1763.36 1232.47C1761.75 1235.5 1759.35 1238.03 1756.42 1239.8C1753.49 1241.57 1750.13 1242.51 1746.71 1242.53ZM1746.71 1209.84C1744.24 1209.84 1741.81 1210.5 1739.67 1211.74C1737.54 1212.99 1735.77 1214.78 1734.56 1216.93C1733.34 1219.08 1732.72 1221.52 1732.75 1223.99C1732.79 1226.46 1733.48 1228.88 1734.76 1230.99C1736.03 1233.11 1737.85 1234.85 1740.02 1236.03C1742.19 1237.22 1744.64 1237.8 1747.11 1237.73C1749.58 1237.66 1751.98 1236.93 1754.08 1235.63C1756.18 1234.32 1757.89 1232.48 1759.04 1230.29C1760.73 1226.98 1761.06 1223.15 1759.96 1219.6C1758.86 1216.06 1756.42 1213.08 1753.16 1211.31C1751.15 1210.35 1748.94 1209.88 1746.71 1209.94V1209.84Z" fill="#1D5BA4"/>
<path d="M1807.96 1166.63C1807.52 1166.62 1807.1 1166.45 1806.78 1166.15L1711.03 1079.71C1710.76 1079.38 1710.61 1078.96 1710.62 1078.53C1710.63 1078.1 1710.79 1077.69 1711.08 1077.37C1711.37 1077.04 1711.76 1076.84 1712.18 1076.78C1712.61 1076.72 1713.04 1076.82 1713.4 1077.05L1806.63 1161.22L1819.49 1059.64C1819.52 1059.41 1819.6 1059.18 1819.71 1058.98C1819.83 1058.78 1819.98 1058.6 1820.17 1058.46C1820.35 1058.32 1820.57 1058.22 1820.79 1058.16C1821.02 1058.1 1821.25 1058.09 1821.48 1058.12C1821.72 1058.15 1821.94 1058.22 1822.14 1058.34C1822.34 1058.46 1822.52 1058.61 1822.66 1058.8C1822.8 1058.98 1822.91 1059.19 1822.96 1059.42C1823.02 1059.65 1823.04 1059.88 1823 1060.11L1809.72 1165.06C1809.68 1165.38 1809.56 1165.69 1809.35 1165.94C1809.15 1166.19 1808.88 1166.38 1808.58 1166.49C1808.39 1166.58 1808.18 1166.63 1807.96 1166.63Z" fill="#263238"/>
<path d="M1746.71 1225.6C1746.47 1225.6 1746.23 1225.54 1746.01 1225.45C1745.79 1225.35 1745.59 1225.21 1745.43 1225.03C1745.1 1224.69 1744.92 1224.24 1744.92 1223.77C1744.92 1223.3 1745.1 1222.85 1745.43 1222.51L1806.58 1163.54C1806.92 1163.21 1807.37 1163.03 1807.84 1163.03C1808.31 1163.03 1808.76 1163.21 1809.1 1163.54C1809.27 1163.7 1809.4 1163.9 1809.49 1164.11C1809.58 1164.33 1809.63 1164.56 1809.63 1164.8C1809.63 1165.03 1809.58 1165.26 1809.49 1165.48C1809.4 1165.69 1809.27 1165.89 1809.1 1166.05L1747.94 1225.03C1747.79 1225.2 1747.6 1225.34 1747.38 1225.44C1747.17 1225.54 1746.94 1225.59 1746.71 1225.6Z" fill="#263238"/>
<path d="M1724.83 1084.97C1723.56 1087.5 1721.56 1089.59 1719.1 1090.97C1716.63 1092.36 1713.81 1092.98 1710.99 1092.75C1708.17 1092.53 1705.48 1091.47 1703.27 1089.71C1701.05 1087.95 1699.41 1085.57 1698.56 1082.87C1697.7 1080.18 1697.67 1077.29 1698.46 1074.57C1699.26 1071.86 1700.84 1069.44 1703.01 1067.63C1705.19 1065.82 1707.85 1064.7 1710.66 1064.41C1713.47 1064.11 1716.31 1064.67 1718.81 1066C1722.09 1067.74 1724.57 1070.71 1725.69 1074.26C1726.82 1077.8 1726.51 1081.65 1724.83 1084.97Z" fill="#1D5BA4"/>
<path d="M1830.16 1064.52C1829.24 1066.28 1827.82 1067.73 1826.08 1068.69C1824.33 1069.65 1822.34 1070.06 1820.36 1069.89C1818.38 1069.71 1816.49 1068.96 1814.94 1067.71C1813.39 1066.46 1812.25 1064.79 1811.65 1062.89C1811.05 1060.99 1811.03 1058.96 1811.59 1057.05C1812.15 1055.14 1813.26 1053.44 1814.78 1052.16C1816.31 1050.88 1818.18 1050.09 1820.15 1049.87C1822.13 1049.65 1824.13 1050.03 1825.89 1050.95C1827.06 1051.56 1828.1 1052.4 1828.95 1053.41C1829.8 1054.42 1830.44 1055.59 1830.84 1056.85C1831.24 1058.11 1831.38 1059.44 1831.26 1060.75C1831.15 1062.07 1830.77 1063.35 1830.16 1064.52Z" fill="#263238"/>
<path d="M1254.93 863.305C1255 860.078 1256.03 856.946 1257.89 854.305C1259.75 851.664 1262.34 849.633 1265.35 848.468C1268.36 847.303 1271.65 847.056 1274.8 847.759C1277.95 848.463 1280.82 850.084 1283.05 852.419C1285.28 854.754 1286.77 857.697 1287.32 860.876C1287.88 864.056 1287.48 867.329 1286.18 870.281C1284.87 873.234 1282.72 875.734 1280 877.465C1277.27 879.196 1274.1 880.08 1270.87 880.006C1268.72 879.963 1266.61 879.496 1264.64 878.632C1262.68 877.768 1260.91 876.524 1259.42 874.972C1257.94 873.42 1256.78 871.59 1256.01 869.587C1255.24 867.585 1254.87 865.45 1254.93 863.305Z" fill="white"/>
<path d="M1271.25 882.57H1270.77C1265.85 882.458 1261.16 880.398 1257.75 876.841C1254.33 873.285 1252.47 868.521 1252.55 863.591C1252.67 858.658 1254.72 853.969 1258.28 850.547C1261.84 847.126 1266.6 845.248 1271.53 845.325C1276.34 845.62 1280.84 847.751 1284.12 851.278C1287.39 854.805 1289.18 859.456 1289.12 864.268C1289.06 869.08 1287.15 873.684 1283.79 877.127C1280.43 880.569 1275.87 882.586 1271.06 882.759L1271.25 882.57ZM1271.25 849.879C1267.61 849.878 1264.11 851.302 1261.5 853.847C1258.89 856.391 1257.39 859.855 1257.3 863.496C1257.22 867.188 1258.61 870.759 1261.17 873.428C1263.72 876.096 1267.22 877.643 1270.92 877.73C1272.75 877.802 1274.58 877.499 1276.3 876.838C1278.01 876.177 1279.57 875.173 1280.88 873.887C1282.89 871.972 1284.29 869.5 1284.89 866.788C1285.49 864.075 1285.26 861.246 1284.24 858.662C1283.22 856.078 1281.45 853.857 1279.17 852.284C1276.88 850.711 1274.17 849.857 1271.39 849.832L1271.25 849.879Z" fill="#1D5BA4"/>
<path d="M1210.95 863.592C1210.51 863.596 1210.08 863.439 1209.75 863.15C1209.42 862.862 1209.2 862.462 1209.15 862.026L1203.69 812.682C1203.64 812.448 1203.64 812.206 1203.69 811.971L1222.67 746.021C1222.83 745.611 1223.14 745.276 1223.53 745.083C1223.93 744.889 1224.38 744.852 1224.8 744.977C1225.26 745.109 1225.65 745.419 1225.88 745.837C1226.11 746.255 1226.17 746.748 1226.04 747.207L1207.34 812.825L1212.8 861.789C1212.84 862.258 1212.7 862.725 1212.41 863.095C1212.12 863.466 1211.7 863.711 1211.23 863.782L1210.95 863.592Z" fill="#263238"/>
<path d="M1271.25 865.489C1270.86 865.479 1270.48 865.346 1270.16 865.11L1204.35 813.82C1203.98 813.523 1203.75 813.092 1203.7 812.621C1203.64 812.151 1203.78 811.678 1204.07 811.306C1204.21 811.125 1204.39 810.974 1204.59 810.862C1204.79 810.75 1205.01 810.679 1205.24 810.652C1205.47 810.626 1205.7 810.645 1205.93 810.708C1206.15 810.771 1206.35 810.878 1206.54 811.021L1272.25 862.31C1272.61 862.6 1272.85 863.018 1272.91 863.477C1272.97 863.937 1272.85 864.402 1272.58 864.777C1272.42 864.985 1272.22 865.156 1271.99 865.279C1271.76 865.402 1271.51 865.473 1271.25 865.489Z" fill="#263238"/>
<path d="M1210 746.113C1210.06 743.299 1210.96 740.567 1212.58 738.264C1214.2 735.961 1216.46 734.19 1219.09 733.174C1221.71 732.158 1224.58 731.944 1227.33 732.557C1230.07 733.171 1232.58 734.585 1234.52 736.621C1236.47 738.658 1237.76 741.224 1238.25 743.997C1238.73 746.77 1238.38 749.624 1237.25 752.199C1236.11 754.774 1234.23 756.954 1231.86 758.463C1229.48 759.973 1226.71 760.744 1223.9 760.679C1222.03 760.636 1220.18 760.225 1218.47 759.469C1216.76 758.714 1215.22 757.629 1213.93 756.276C1212.64 754.923 1211.63 753.329 1210.95 751.586C1210.28 749.842 1209.95 747.982 1210 746.113Z" fill="#1D5BA4"/>
<path d="M1201.08 861.496C1201.11 859.494 1201.75 857.548 1202.89 855.906C1204.04 854.264 1205.65 852.999 1207.51 852.273C1209.38 851.546 1211.42 851.39 1213.37 851.825C1215.33 852.26 1217.11 853.265 1218.49 854.714C1219.87 856.164 1220.79 857.991 1221.14 859.964C1221.48 861.937 1221.23 863.967 1220.41 865.797C1219.6 867.627 1218.26 869.173 1216.57 870.241C1214.87 871.308 1212.9 871.848 1210.9 871.792C1208.23 871.717 1205.71 870.594 1203.87 868.666C1202.03 866.737 1201.02 864.161 1201.08 861.496Z" fill="#263238"/>
<path d="M1678.71 797.548L1714.39 878.206C1714.87 879.299 1715.13 880.475 1715.15 881.667C1715.17 882.859 1714.95 884.043 1714.51 885.151C1714.07 886.259 1713.41 887.268 1712.58 888.12C1711.74 888.972 1710.75 889.65 1709.65 890.115C1707.44 891.053 1704.95 891.081 1702.72 890.192C1700.49 889.304 1698.7 887.571 1697.74 885.371L1662.01 804.712C1661.08 802.503 1661.05 800.012 1661.94 797.782C1662.82 795.552 1664.56 793.763 1666.76 792.803C1668.97 791.851 1671.48 791.815 1673.72 792.705C1675.96 793.594 1677.76 795.336 1678.71 797.548Z" fill="#1D5BA4"/>
<path d="M1445.66 1262.9L1567.55 1254.36C1569 1254.27 1570.43 1254.75 1571.52 1255.71C1572.62 1256.67 1573.29 1258.03 1573.38 1259.48C1573.48 1260.93 1572.99 1262.35 1572.04 1263.44C1571.09 1264.53 1569.75 1265.21 1568.31 1265.32L1446.42 1273.86C1445.7 1273.91 1444.97 1273.82 1444.29 1273.59C1443.6 1273.36 1442.97 1272.99 1442.43 1272.51C1441.89 1272.04 1441.44 1271.46 1441.13 1270.81C1440.81 1270.16 1440.63 1269.45 1440.58 1268.73C1440.53 1268.02 1440.62 1267.3 1440.85 1266.61C1441.08 1265.93 1441.44 1265.3 1441.91 1264.76C1442.38 1264.22 1442.95 1263.77 1443.6 1263.45C1444.24 1263.13 1444.94 1262.95 1445.66 1262.9Z" fill="#263238"/>
<path d="M1234.76 594.043L1352.38 627.255C1353.07 627.452 1353.72 627.784 1354.29 628.232C1354.85 628.68 1355.32 629.236 1355.67 629.866C1356.02 630.497 1356.24 631.191 1356.32 631.907C1356.39 632.623 1356.33 633.348 1356.13 634.04C1355.73 635.431 1354.8 636.61 1353.54 637.32C1352.28 638.031 1350.79 638.216 1349.39 637.836L1231.77 604.623C1231.08 604.427 1230.43 604.095 1229.87 603.647C1229.3 603.199 1228.83 602.643 1228.48 602.012C1228.14 601.382 1227.92 600.688 1227.84 599.972C1227.76 599.255 1227.82 598.53 1228.02 597.839C1228.42 596.447 1229.35 595.269 1230.61 594.558C1231.87 593.848 1233.36 593.663 1234.76 594.043Z" fill="#263238"/>
<path d="M1147.04 526.722L1085.36 566.102C1083.69 567.155 1081.67 567.506 1079.74 567.08C1077.82 566.653 1076.13 565.484 1075.06 563.825C1074 562.151 1073.64 560.121 1074.06 558.182C1074.49 556.243 1075.67 554.552 1077.34 553.482L1139.02 514.101C1140.7 513.051 1142.73 512.706 1144.67 513.141C1146.61 513.576 1148.29 514.756 1149.36 516.426C1149.89 517.254 1150.25 518.178 1150.41 519.144C1150.58 520.111 1150.56 521.1 1150.34 522.057C1150.12 523.013 1149.72 523.918 1149.15 524.719C1148.59 525.519 1147.87 526.2 1147.04 526.722Z" fill="#1D5BA4"/>
<path d="M1466.44 812.067C1466.06 812.063 1465.69 811.937 1465.38 811.706C1465.07 811.476 1464.85 811.153 1464.74 810.786C1464.62 810.326 1464.69 809.84 1464.93 809.432C1465.17 809.023 1465.56 808.726 1466.02 808.603L1547.62 786.636C1548.07 786.556 1548.52 786.646 1548.9 786.886C1549.28 787.126 1549.56 787.5 1549.68 787.934C1549.8 788.368 1549.75 788.831 1549.55 789.231C1549.34 789.632 1548.99 789.942 1548.57 790.099L1466.78 812.019L1466.44 812.067Z" fill="#263238"/>
<path d="M1542.69 791.319C1542.11 790.282 1541.85 789.096 1541.94 787.91C1542.03 786.725 1542.47 785.592 1543.2 784.656C1543.94 783.72 1544.93 783.022 1546.06 782.649C1547.19 782.276 1548.4 782.246 1549.55 782.563C1550.7 782.879 1551.72 783.527 1552.5 784.426C1553.28 785.325 1553.78 786.434 1553.92 787.614C1554.07 788.794 1553.87 789.991 1553.34 791.056C1552.81 792.121 1551.98 793.005 1550.95 793.597C1550.26 794 1549.5 794.261 1548.7 794.364C1547.91 794.468 1547.11 794.412 1546.34 794.2C1545.57 793.987 1544.85 793.623 1544.22 793.128C1543.6 792.634 1543.08 792.019 1542.69 791.319Z" fill="#1D5BA4"/>
<path d="M1461.17 813.293C1460.39 811.889 1460.19 810.232 1460.63 808.685C1461.07 807.137 1462.1 805.825 1463.5 805.037C1464.19 804.642 1464.95 804.387 1465.73 804.288C1466.52 804.188 1467.32 804.246 1468.08 804.458C1468.84 804.67 1469.56 805.032 1470.18 805.522C1470.8 806.012 1471.32 806.622 1471.71 807.315C1472.17 808.009 1472.49 808.792 1472.64 809.614C1472.79 810.437 1472.77 811.282 1472.58 812.096C1472.39 812.91 1472.03 813.676 1471.53 814.345C1471.03 815.014 1470.39 815.573 1469.67 815.986C1468.94 816.398 1468.13 816.657 1467.3 816.744C1466.47 816.831 1465.63 816.746 1464.83 816.493C1464.04 816.24 1463.3 815.825 1462.67 815.275C1462.04 814.724 1461.53 814.049 1461.17 813.293Z" fill="#1D5BA4"/>
<path d="M1601.48 1002.99C1602.25 1001.09 1602.41 998.996 1601.94 996.999C1601.48 995.003 1600.4 993.2 1598.87 991.839L1455.48 877.067C1454.83 876.489 1454.05 876.081 1453.2 875.881C1452.35 875.681 1451.47 875.694 1450.63 875.92C1449.78 876.146 1449.01 876.577 1448.38 877.174C1447.74 877.772 1447.27 878.518 1446.99 879.345L1401.3 983.726L1310.2 1052.19C1309.45 1052.64 1308.82 1053.27 1308.38 1054.03C1307.93 1054.78 1307.68 1055.64 1307.64 1056.51C1307.61 1057.39 1307.8 1058.26 1308.19 1059.05C1308.58 1059.83 1309.16 1060.51 1309.87 1061.02L1453.25 1175.79C1454.92 1176.97 1456.91 1177.61 1458.95 1177.61C1460.99 1177.61 1462.98 1176.97 1464.64 1175.79L1555.98 1107.18L1601.48 1002.99Z" fill="#1D5BA4"/>
<path d="M1551.38 1103.67L1396.89 980.026L1442.63 875.645C1442.9 874.819 1443.37 874.073 1444 873.474C1444.63 872.875 1445.4 872.443 1446.24 872.217C1447.07 871.991 1447.96 871.978 1448.8 872.179C1449.65 872.38 1450.43 872.788 1451.08 873.368L1594.5 988.14C1596.03 989.506 1597.1 991.311 1597.56 993.308C1598.01 995.304 1597.84 997.394 1597.07 999.289L1551.38 1103.67Z" fill="#1D5BA4"/>
<path d="M1547.82 1090.06C1547.55 1090.06 1547.3 1089.96 1547.1 1089.78L1408.47 978.846C1408.02 978.385 1407.71 977.806 1407.57 977.177C1407.44 976.547 1407.49 975.892 1407.71 975.288L1447.8 883.48C1447.88 883.312 1447.99 883.162 1448.13 883.039C1448.27 882.916 1448.43 882.824 1448.61 882.768C1448.79 882.733 1448.97 882.736 1449.15 882.777C1449.33 882.818 1449.5 882.896 1449.65 883.006L1588.24 993.934C1588.7 994.386 1589.02 994.965 1589.16 995.598C1589.29 996.232 1589.24 996.891 1589 997.493L1548.72 1089.35C1548.65 1089.52 1548.53 1089.66 1548.39 1089.78C1548.25 1089.89 1548.09 1089.97 1547.91 1090.01L1547.82 1090.06ZM1410.22 977.044L1547.44 1086.98L1587.05 996.449C1587.12 996.184 1587.12 995.907 1587.05 995.642L1449.7 885.757L1409.84 976.237C1409.75 976.498 1409.75 976.782 1409.84 977.044H1410.22Z" fill="white"/>
<path d="M1551.38 1103.67L1396.89 980.029L1305.46 1048.64C1304.72 1049.09 1304.1 1049.73 1303.66 1050.48C1303.22 1051.24 1302.97 1052.09 1302.94 1052.96C1302.91 1053.83 1303.09 1054.7 1303.47 1055.48C1303.85 1056.27 1304.42 1056.95 1305.13 1057.46L1448.56 1172.23C1450.22 1173.42 1452.21 1174.06 1454.25 1174.06C1456.3 1174.06 1458.29 1173.42 1459.95 1172.23L1551.38 1103.67Z" fill="#1D5BA4"/>
<path opacity="0.3" d="M1352.91 1029.66L1389.97 1001.85C1391.76 1000.56 1393.91 999.865 1396.11 999.865C1398.32 999.865 1400.47 1000.56 1402.26 1001.85L1523.24 1098.64C1524 1099.2 1524.6 1099.93 1525.01 1100.78C1525.41 1101.62 1525.6 1102.55 1525.57 1103.49C1525.53 1104.42 1525.26 1105.34 1524.79 1106.15C1524.32 1106.96 1523.66 1107.64 1522.86 1108.13L1485.86 1135.94C1484.06 1137.22 1481.9 1137.91 1479.69 1137.91C1477.48 1137.91 1475.32 1137.22 1473.52 1135.94L1352.58 1039.15C1351.84 1038.58 1351.25 1037.85 1350.86 1037.01C1350.46 1036.17 1350.27 1035.24 1350.31 1034.32C1350.34 1033.39 1350.59 1032.48 1351.05 1031.67C1351.5 1030.86 1352.14 1030.17 1352.91 1029.66Z" fill="white"/>
<path opacity="0.3" d="M1359.55 1085.21L1378.24 1070.98C1379.05 1070.39 1380.02 1070.08 1381.02 1070.08C1382.01 1070.08 1382.99 1070.39 1383.79 1070.98L1433.56 1110.97C1433.92 1111.21 1434.21 1111.53 1434.4 1111.91C1434.6 1112.29 1434.71 1112.71 1434.71 1113.13C1434.71 1113.56 1434.6 1113.98 1434.4 1114.35C1434.21 1114.73 1433.92 1115.05 1433.56 1115.29L1414.59 1129.29C1413.78 1129.87 1412.81 1130.18 1411.81 1130.18C1410.81 1130.18 1409.84 1129.87 1409.04 1129.29L1359.36 1089.53C1359.02 1089.27 1358.74 1088.94 1358.56 1088.55C1358.38 1088.17 1358.29 1087.74 1358.31 1087.32C1358.33 1086.89 1358.45 1086.48 1358.67 1086.11C1358.88 1085.74 1359.19 1085.43 1359.55 1085.21Z" fill="white"/>
<path opacity="0.4" d="M1704.01 545.085C1710.95 520.387 1711.52 494.332 1705.67 469.352C1699.81 444.373 1687.73 421.285 1670.53 402.243C1653.34 383.201 1631.6 368.826 1607.35 360.462C1583.09 352.097 1557.11 350.015 1531.84 354.41C1506.56 358.805 1482.81 369.534 1462.8 385.594C1442.8 401.655 1427.18 422.523 1417.43 446.251C1407.67 469.979 1404.08 495.793 1407.01 521.282C1409.93 546.771 1419.26 571.104 1434.13 592.009C1439.47 599.308 1443.12 607.704 1444.81 616.586C1446.75 627.381 1451.67 637.416 1459.03 645.551C1466.38 653.686 1475.87 659.596 1486.42 662.609L1534.77 676.321C1545.32 679.329 1556.51 679.309 1567.06 676.264C1577.6 673.219 1587.08 667.27 1594.41 659.098C1600.42 652.455 1607.87 647.264 1616.18 643.915C1637.33 635.13 1656.21 621.676 1671.42 604.562C1686.63 587.447 1697.77 567.114 1704.01 545.085Z" fill="#407BFF"/>
<path d="M1541.03 713.941L1461.61 691.356C1458.73 690.528 1456.3 688.597 1454.84 685.984C1453.39 683.372 1453.02 680.289 1453.83 677.407C1454.24 675.956 1454.94 674.601 1455.88 673.422C1456.82 672.242 1457.99 671.262 1459.31 670.538C1460.64 669.814 1462.09 669.361 1463.6 669.204C1465.1 669.047 1466.61 669.191 1468.06 669.626L1547.44 692.21C1550.31 693.039 1552.74 694.97 1554.2 697.583C1555.66 700.195 1556.02 703.278 1555.22 706.16C1554.81 707.609 1554.12 708.963 1553.18 710.142C1552.24 711.321 1551.08 712.301 1549.76 713.026C1548.44 713.75 1546.98 714.204 1545.49 714.361C1543.99 714.518 1542.47 714.375 1541.03 713.941Z" fill="#407BFF"/>
<path d="M1524.33 743.308L1460.37 725.136C1457.49 724.297 1455.06 722.357 1453.6 719.736C1452.14 717.116 1451.78 714.027 1452.59 711.139C1453.42 708.264 1455.35 705.834 1457.96 704.376C1460.57 702.919 1463.65 702.553 1466.54 703.358L1530.49 721.577C1533.37 722.406 1535.8 724.337 1537.26 726.95C1538.71 729.562 1539.08 732.645 1538.27 735.527C1537.45 738.401 1535.52 740.832 1532.9 742.29C1530.29 743.747 1527.21 744.113 1524.33 743.308Z" fill="#407BFF"/>
<path d="M1534.95 678.548H1534.53C1533.91 678.432 1533.36 678.08 1533 677.566C1532.63 677.052 1532.48 676.417 1532.58 675.796C1533.34 671.051 1545.72 598.174 1569.26 543.184C1562.71 541.951 1555.64 540.29 1548.05 538.155C1540.46 536.02 1533.53 533.695 1527.31 531.275C1518.44 590.393 1490.54 658.952 1488.79 663.365C1488.55 663.95 1488.09 664.416 1487.5 664.661C1486.92 664.906 1486.27 664.909 1485.68 664.67C1485.1 664.431 1484.63 663.969 1484.38 663.386C1484.14 662.803 1484.14 662.147 1484.38 661.562C1484.8 660.471 1513.84 589.064 1522.76 529.425C1476.69 510.446 1469.86 485.585 1469.24 474.814C1468.73 468.868 1470.07 462.91 1473.09 457.76C1476.11 452.611 1480.65 448.524 1486.08 446.062C1496.9 441.602 1508.91 445.208 1518.2 455.551C1530.73 469.785 1532.01 496.545 1528.03 526.436C1534.34 528.95 1541.45 531.18 1549.33 533.6C1557.21 536.02 1564.51 537.491 1571.25 538.724C1583.59 511.206 1598.82 489.001 1616.89 483.592C1630.32 479.559 1642.42 482.833 1649.25 492.275C1652.54 497.226 1654.23 503.072 1654.07 509.016C1653.92 514.959 1651.94 520.711 1648.4 525.487C1642.18 534.359 1623.39 551.724 1574.1 543.801C1550.37 599.218 1537.47 675.179 1537.28 676.365C1537.24 676.957 1536.98 677.512 1536.55 677.918C1536.12 678.323 1535.55 678.549 1534.95 678.548ZM1576.09 539.531C1623.3 546.648 1640.09 529.283 1644.51 523.02C1647.54 519.03 1649.25 514.198 1649.41 509.19C1649.57 504.183 1648.17 499.25 1645.41 495.074C1639.81 487.293 1629.66 484.683 1618.22 488.147C1601.85 493.176 1587.71 513.768 1575.9 539.673L1576.09 539.531ZM1495.24 448.956C1492.67 448.954 1490.12 449.453 1487.74 450.427C1483.2 452.527 1479.41 455.987 1476.91 460.33C1474.41 464.673 1473.32 469.684 1473.8 474.672C1474.27 482.358 1479.39 505.939 1523.33 524.68C1527.03 496.545 1525.84 471.636 1514.5 458.825C1512.18 455.909 1509.25 453.522 1505.93 451.82C1502.61 450.119 1498.97 449.143 1495.24 448.956Z" fill="white"/>
<path opacity="0.3" d="M1044.15 1343.93C1156.1 1288.34 1158.32 1065 1049.11 845.099C939.903 625.195 760.62 491.997 648.674 547.592C536.727 603.187 534.508 826.523 643.717 1046.43C752.926 1266.33 932.208 1399.53 1044.15 1343.93Z" fill="#1D5BA4"/>
<path d="M749.014 1939.02L784.124 1938.45L792.19 1857.03L757.08 1857.55L749.014 1939.02Z" fill="#D29F9A"/>
<path d="M513.114 1874.9L546.563 1885.53L584.283 1812.23L550.833 1801.6L513.114 1874.9Z" fill="#D29F9A"/>
<path opacity="0.2" d="M792.19 1857.03L788.014 1899.02L752.904 1899.59L757.08 1857.6L792.19 1857.03Z" fill="black"/>
<path opacity="0.2" d="M550.79 1801.6L584.287 1812.23L564.834 1849.99L531.337 1839.41L550.79 1801.6Z" fill="black"/>
<path d="M801.065 1890.71L741.615 1891.61C741.615 1891.61 765.338 1660.69 772.787 1551.57C774.743 1508.03 774.236 1464.42 771.268 1420.95C767.71 1357.27 765.433 1331.8 760.641 1251.33C757.224 1193.92 753.049 1156.77 753.049 1156.77L876.077 1166.87C876.077 1166.87 880.821 1445.43 866.967 1551.66C852.449 1662.11 801.065 1890.71 801.065 1890.71Z" fill="#1D5BA4"/>
<path opacity="0.2" d="M786.874 1233.92C802.294 1291.24 787.349 1419.48 772.878 1454.36C772.451 1443.44 771.882 1432.29 771.265 1421.14C767.706 1357.47 765.381 1331.99 760.589 1251.52C760.589 1249.91 760.589 1248.35 760.589 1246.78C768.546 1241.01 777.438 1236.66 786.874 1233.92Z" fill="black"/>
<path d="M809.701 1161.42C809.701 1161.42 752.766 1447.61 724.298 1546.44C693.174 1654.71 582.767 1847.2 582.767 1847.2L521.467 1827.8C521.467 1827.8 592.066 1664.82 618.114 1558.16C647.815 1436.6 688.904 1151.5 688.904 1151.5L809.701 1161.42Z" fill="#1D5BA4"/>
<path d="M553.681 1883.21L514.965 1864.99C514.331 1864.7 513.614 1864.62 512.933 1864.79C512.252 1864.95 511.647 1865.34 511.217 1865.9L491.717 1891.18C491.24 1891.8 490.91 1892.52 490.752 1893.29C490.593 1894.06 490.611 1894.85 490.803 1895.61C490.994 1896.36 491.356 1897.07 491.859 1897.67C492.363 1898.27 492.995 1898.74 493.71 1899.06C506.283 1904.66 515.677 1908.22 531.382 1915.57C540.871 1920.32 563.455 1931.61 576.787 1937.87C590.12 1944.13 597.853 1932.08 593.156 1928C572.233 1909.88 562.459 1898.3 557.951 1887.58C557.118 1885.64 555.597 1884.09 553.681 1883.21Z" fill="#263238"/>
<path d="M783.839 1934.36L745.503 1934.98C744.803 1934.99 744.129 1935.24 743.593 1935.69C743.057 1936.14 742.692 1936.76 742.561 1937.44L736.109 1968.71C735.942 1969.47 735.95 1970.25 736.132 1971C736.315 1971.75 736.667 1972.45 737.161 1973.05C737.655 1973.64 738.279 1974.12 738.985 1974.43C739.691 1974.75 740.459 1974.9 741.233 1974.88C755.087 1974.45 775.014 1973.31 792.427 1973.03C812.734 1972.74 815.059 1973.55 838.877 1973.03C853.11 1973.03 857.048 1958.18 851.023 1956.94C823.457 1951.39 816.292 1951.11 792.332 1936.83C789.775 1935.25 786.841 1934.4 783.839 1934.36Z" fill="#263238"/>
<path d="M720.64 841.911C764.743 838.681 809.067 840.272 852.825 846.656C865.851 848.728 877.784 855.169 886.665 864.921C895.546 874.673 900.846 887.155 901.694 900.317C904.683 946.577 903.64 1037.48 881.862 1208C854.818 1219.87 736.772 1208.43 678.793 1190.21C681.924 1170.71 700.286 1013.38 686.811 881.813C686.35 876.96 686.865 872.064 688.325 867.413C689.785 862.761 692.162 858.45 695.314 854.731C698.467 851.013 702.332 847.963 706.681 845.761C711.031 843.559 715.777 842.25 720.64 841.911Z" fill="#263238"/>
<path d="M730.373 904.927L723.161 919.682C720.789 924.743 718.464 929.867 716.187 935.055C711.442 945.351 707.409 955.741 703.376 966.179C699.343 976.617 695.88 987.15 692.701 997.636C689.689 1008 687.218 1018.52 685.299 1029.14L680.555 1012.96C684.608 1018.28 690.039 1022.38 696.259 1024.82C704.233 1028 712.622 1030.01 721.168 1030.8C730.622 1031.81 740.14 1032.08 749.636 1031.61C759.449 1031.23 769.236 1030.34 778.958 1028.95H779.669C782.507 1028.56 785.391 1029.21 787.783 1030.79C790.175 1032.36 791.913 1034.76 792.673 1037.52C793.434 1040.28 793.164 1043.23 791.915 1045.8C790.667 1048.38 788.523 1050.42 785.885 1051.53C780.334 1053.91 775.352 1055.66 769.99 1057.37C764.629 1059.08 759.362 1060.6 753.906 1061.83C742.791 1064.49 731.447 1066.08 720.03 1066.58C707.649 1067.19 695.25 1065.81 683.306 1062.49C669.434 1058.7 656.947 1050.99 647.342 1040.29C645.566 1038.25 644.229 1035.87 643.412 1033.29C642.596 1030.71 642.319 1027.99 642.598 1025.3V1024.11C643.816 1011.34 645.861 998.661 648.718 986.154C651.613 973.961 654.981 961.957 658.967 950.285C662.952 938.613 667.365 927.084 672.252 915.839C674.719 910.193 677.233 904.642 679.89 899.091C682.547 893.54 685.204 888.178 688.478 882.295C691.534 877.036 696.492 873.152 702.33 871.444C708.167 869.737 714.438 870.337 719.845 873.12C725.253 875.903 729.386 880.657 731.389 886.399C733.392 892.142 733.113 898.435 730.61 903.978L730.373 904.927Z" fill="#D29F9A"/>
<path d="M767.377 1031.32L786.356 1010.02L817.433 1038.49C817.433 1038.49 796.32 1061.92 773.925 1049.64L767.377 1031.32Z" fill="#D29F9A"/>
<path d="M817.337 1001.81L829.815 1014.86C830.834 1015.93 831.613 1017.21 832.098 1018.61C832.583 1020 832.765 1021.49 832.63 1022.96C832.495 1024.44 832.048 1025.86 831.317 1027.15C830.586 1028.44 829.588 1029.55 828.392 1030.42L817.337 1038.44L786.26 1009.97L804.859 999.819C806.87 998.741 809.18 998.353 811.434 998.713C813.687 999.073 815.761 1000.16 817.337 1001.81Z" fill="#D29F9A"/>
<path d="M703.752 847.421C675.284 864.881 646.816 957.543 646.816 957.543L721.781 985.062C735.663 963.061 746.08 939.058 752.668 913.893C764.008 870.954 735.208 828.205 703.752 847.421Z" fill="#263238"/>
<path d="M865.12 848.839C864.503 848.839 865.974 848.839 866.686 848.839L869.58 849.076C871.667 849.076 873.755 849.361 875.985 849.361C880.397 849.361 885 849.361 889.602 849.361C899.091 849.076 908.58 848.033 918.07 846.894C922.814 846.277 927.559 845.565 932.303 844.664C937.048 843.762 941.793 842.908 946.822 842.007L961.435 838.781L976.001 835.175L958.446 856.525C959.935 847.959 960.54 839.262 960.249 830.572C959.909 821.129 958.974 811.716 957.45 802.39C955.931 792.9 953.954 783.221 951.519 773.353C949.194 763.863 946.252 753.71 943.548 744.553L943.263 743.699C942.344 740.483 942.587 737.047 943.948 733.992C945.309 730.937 947.703 728.46 950.709 726.993C953.715 725.527 957.141 725.166 960.386 725.974C963.632 726.782 966.489 728.706 968.457 731.41C974.921 740.667 980.693 750.389 985.727 760.495C990.807 770.599 995.214 781.028 998.917 791.714C1002.77 802.743 1005.69 814.075 1007.65 825.591C1009.76 837.838 1010.38 850.296 1009.5 862.693C1009.13 867.308 1007.44 871.718 1004.63 875.396C1001.82 879.074 998.007 881.862 993.651 883.427L991.943 884.044L976.096 889.738C970.735 891.493 965.373 893.154 959.917 894.482C948.994 897.695 937.907 900.324 926.705 902.358C915.199 904.491 903.565 905.87 891.879 906.486C885.901 906.486 879.923 906.913 873.708 906.486C870.624 906.486 867.445 906.154 864.218 905.822L859.189 905.205C857.291 904.92 856.105 904.778 852.879 904.066C845.736 902.244 839.579 897.723 835.703 891.454C831.826 885.185 830.532 877.656 832.093 870.452C833.654 863.249 837.949 856.931 844.073 852.829C850.198 848.727 857.674 847.161 864.93 848.46L865.12 848.839Z" fill="#D29F9A"/>
<path d="M938.851 743.707L925.044 720.554L965.374 708.645C965.374 708.645 973.629 727.243 970.118 740.006C969.389 742.451 967.957 744.628 965.999 746.265C964.042 747.902 961.646 748.926 959.111 749.211L951.899 750.112C949.337 750.422 946.741 749.981 944.425 748.844C942.109 747.707 940.173 745.923 938.851 743.707Z" fill="#D29F9A"/>
<path d="M934.911 683.64L946.06 682.359C949.418 682.016 952.788 682.878 955.568 684.79C958.349 686.702 960.361 689.539 961.243 692.797L965.371 708.644L925.042 720.553L922.527 699.249C922.138 695.545 923.217 691.835 925.532 688.916C927.847 685.998 931.214 684.104 934.911 683.64Z" fill="#D29F9A"/>
<path d="M821.941 840.348C855.153 843.242 927.366 834.939 927.366 834.939L931.541 925.656C906.979 933.662 880.642 934.485 855.628 928.028C812.357 917.021 785.265 837.169 821.941 840.348Z" fill="#263238"/>
<path d="M766.48 751.492C770.37 777.398 773.265 824.606 754.523 840.928C767.856 855.399 787.166 874.14 817.627 876.655C836.937 868.162 841.824 855.968 834.28 844.534C805.813 836.421 807.663 815.212 813.546 795.522L766.48 751.492Z" fill="#D29F9A"/>
<path opacity="0.2" d="M785.689 769.469L813.54 795.469C812.091 800.115 811.043 804.877 810.409 809.703C799.591 807.663 785.12 794.947 784.456 783.465C783.972 778.764 784.39 774.013 785.689 769.469Z" fill="black"/>
<path d="M822.46 664.324C857.949 688.047 827.584 726.004 827.584 726.004C827.584 726.004 809.981 694.879 822.46 664.324Z" fill="white"/>
<path d="M747.734 723.827C756.179 757.608 759.405 777.82 779.902 792.149C810.789 813.737 850.075 790.251 851.925 754.619C853.538 722.546 839.447 672.633 803.483 665.231C795.548 663.539 787.312 663.909 779.561 666.308C771.811 668.706 764.804 673.052 759.212 678.93C753.62 684.807 749.628 692.021 747.619 699.882C745.609 707.742 745.649 715.986 747.734 723.827Z" fill="#D29F9A"/>
<path opacity="0.2" d="M803.771 722.349C801.203 722.161 798.622 722.483 796.179 723.298C793.736 724.112 791.479 725.402 789.537 727.094C794.547 726.463 799.384 724.85 803.771 722.349Z" fill="black"/>
<path opacity="0.2" d="M804.673 726.002C802.365 726.32 800.154 727.139 798.195 728.401C796.236 729.663 794.577 731.338 793.333 733.309C797.594 731.715 801.461 729.223 804.673 726.002Z" fill="black"/>
<path opacity="0.2" d="M805.622 747.827C804.851 747.5 804.016 747.352 803.18 747.394C802.343 747.435 801.527 747.665 800.792 748.067C800.057 748.468 799.423 749.031 798.937 749.713C798.45 750.394 798.124 751.177 797.983 752.002C800.127 749.976 802.758 748.538 805.622 747.827Z" fill="black"/>
<path opacity="0.2" d="M825.739 686.252C813.461 687.516 801.326 689.914 789.49 693.416C809.845 690.048 825.739 686.252 825.739 686.252Z" fill="black"/>
<path opacity="0.2" d="M831.808 688.576C831.808 688.576 804.194 694.27 792.048 701.007C805.533 697.646 818.809 693.495 831.808 688.576Z" fill="black"/>
<path d="M757.315 747.409C771.549 745.985 765.191 724.208 759.688 719.273C770.743 714.529 780.042 695.977 772.308 686.061C813.254 689.24 836.645 684.875 839.776 648.104C828.057 650.477 815.721 638.615 799.969 649.67C801.116 647.39 801.779 644.898 801.919 642.35C802.058 639.802 801.67 637.253 800.78 634.862C799.889 632.47 798.515 630.289 796.743 628.453C794.97 626.617 792.838 625.166 790.48 624.191C790.48 624.191 787.918 647.914 769.936 651.473C751.954 655.031 732.928 667.652 731.742 680.937C727.472 669.977 723.059 669.265 723.059 669.265C725.081 673.368 726.132 677.881 726.132 682.455C726.132 687.029 725.081 691.542 723.059 695.645C716.322 710.78 727.804 715.762 727.804 715.762C727.804 715.762 713.096 715.762 722.348 735.595C729.18 749.449 754.136 767.241 757.315 747.409Z" fill="white"/>
<path d="M738.533 755.569C743.005 762.491 750.031 767.368 758.08 769.138C768.756 771.368 773.358 761.642 769.8 751.915C766.573 743.185 757.179 731.513 746.741 733.649C744.469 734.15 742.359 735.211 740.602 736.735C738.845 738.26 737.497 740.2 736.682 742.379C735.866 744.557 735.608 746.905 735.931 749.209C736.255 751.512 737.149 753.699 738.533 755.569Z" fill="#D29F9A"/>
<path d="M589.742 1850.86L517.577 1827.99L524.409 1806.45L605.494 1824.53L589.742 1850.86Z" fill="#1D5BA4"/>
<path opacity="0.3" d="M589.742 1850.86L517.577 1827.99L524.409 1806.45L605.494 1824.53L589.742 1850.86Z" fill="black"/>
<path d="M808.562 1891.95L737.725 1893.09L737.345 1870.18L813.116 1867.76L808.562 1891.95Z" fill="#1D5BA4"/>
<path opacity="0.3" d="M808.562 1891.95L737.725 1893.09L737.345 1870.18L813.116 1867.76L808.562 1891.95Z" fill="black"/>
<path d="M806.665 722.735C807.092 725.534 808.895 727.479 810.745 727.479C812.596 727.479 813.734 724.728 813.307 721.928C812.88 719.129 811.077 717.184 809.227 717.184C807.377 717.184 806.238 719.935 806.665 722.735Z" fill="#263238"/>
<path d="M838.308 718.038C838.735 720.837 840.538 722.782 842.389 722.782C844.239 722.782 845.378 720.03 844.951 717.231C844.524 714.432 842.721 712.486 840.871 712.486C839.02 712.486 837.881 715.238 838.308 718.038Z" fill="#263238"/>
<path d="M828.487 720.887C833.081 728.963 838.783 736.357 845.425 742.854C843.717 744.507 841.669 745.766 839.424 746.545C837.178 747.323 834.79 747.602 832.425 747.362L828.487 720.887Z" fill="#A02724"/>
<path d="M822.129 758.126C818.982 758.611 815.768 758.439 812.69 757.623C809.612 756.806 806.736 755.362 804.242 753.382C804.161 753.31 804.095 753.223 804.048 753.126C804 753.029 803.973 752.923 803.966 752.815C803.959 752.707 803.974 752.599 804.009 752.497C804.044 752.395 804.099 752.3 804.171 752.219C804.243 752.138 804.33 752.072 804.427 752.025C804.524 751.977 804.63 751.95 804.738 751.943C804.845 751.936 804.954 751.951 805.056 751.986C805.158 752.021 805.252 752.076 805.333 752.148C808.16 754.248 811.442 755.651 814.912 756.245C818.383 756.838 821.945 756.605 825.308 755.564C825.411 755.535 825.519 755.527 825.624 755.541C825.73 755.554 825.833 755.588 825.925 755.641C826.018 755.694 826.099 755.765 826.164 755.849C826.229 755.934 826.277 756.03 826.305 756.134C826.341 756.239 826.355 756.351 826.345 756.463C826.336 756.574 826.303 756.682 826.249 756.781C826.196 756.879 826.123 756.965 826.034 757.033C825.946 757.101 825.844 757.151 825.735 757.177C824.558 757.58 823.353 757.897 822.129 758.126Z" fill="#263238"/>
<path d="M789.774 715.375C789.51 715.446 789.232 715.446 788.968 715.375C788.767 715.284 788.586 715.153 788.438 714.99C788.289 714.826 788.176 714.634 788.105 714.425C788.033 714.216 788.006 713.995 788.024 713.774C788.042 713.554 788.105 713.34 788.209 713.145C789.339 710.762 791.023 708.684 793.119 707.083C795.215 705.481 797.663 704.404 800.26 703.941C800.699 703.9 801.136 704.03 801.481 704.304C801.825 704.579 802.051 704.975 802.11 705.412C802.151 705.85 802.021 706.288 801.747 706.632C801.473 706.977 801.076 707.203 800.64 707.262C798.577 707.636 796.636 708.505 794.983 709.794C793.33 711.083 792.015 712.754 791.15 714.664C790.988 714.877 790.781 715.052 790.543 715.175C790.305 715.298 790.042 715.366 789.774 715.375Z" fill="white"/>
<path d="M844.383 704.562C844.109 704.577 843.836 704.524 843.588 704.409C843.339 704.293 843.123 704.117 842.959 703.898C841.773 702.178 840.195 700.766 838.355 699.776C836.516 698.786 834.467 698.247 832.379 698.204C831.938 698.204 831.516 698.029 831.205 697.718C830.893 697.406 830.718 696.984 830.718 696.543C830.718 696.103 830.893 695.681 831.205 695.369C831.516 695.058 831.938 694.883 832.379 694.883C835.015 694.896 837.61 695.541 839.946 696.763C842.282 697.984 844.291 699.747 845.806 701.905C845.937 702.079 846.032 702.278 846.086 702.489C846.14 702.7 846.152 702.92 846.121 703.136C846.091 703.352 846.018 703.56 845.906 703.747C845.795 703.935 845.648 704.099 845.474 704.23C845.157 704.459 844.773 704.576 844.383 704.562Z" fill="white"/>
<path d="M561.608 1893.7C558.83 1892.31 556.219 1890.61 553.827 1888.62C553.695 1888.53 553.596 1888.4 553.544 1888.24C553.493 1888.09 553.492 1887.92 553.542 1887.77C553.587 1887.61 553.679 1887.46 553.805 1887.35C553.932 1887.24 554.088 1887.17 554.254 1887.15C555.725 1887.15 568.962 1885.49 571.619 1888.95C571.92 1889.34 572.106 1889.8 572.156 1890.29C572.207 1890.78 572.119 1891.27 571.904 1891.71C571.64 1892.48 571.191 1893.18 570.596 1893.74C570 1894.31 569.277 1894.71 568.488 1894.93C566.121 1895.31 563.698 1894.87 561.608 1893.7ZM556.484 1888.43C559.593 1891.44 563.737 1893.14 568.061 1893.18C568.597 1893.03 569.086 1892.74 569.484 1892.35C569.882 1891.96 570.176 1891.48 570.338 1890.95C570.338 1890.33 570.338 1890.05 570.338 1889.86C568.915 1888.43 561.798 1888.15 556.484 1888.43Z" fill="#1D5BA4"/>
<path d="M553.968 1888.76C553.835 1888.68 553.722 1888.57 553.636 1888.43C553.566 1888.3 553.529 1888.15 553.529 1888.01C553.529 1887.86 553.566 1887.71 553.636 1887.58C553.636 1887.2 558.903 1878.42 564.027 1877.09C564.641 1876.92 565.285 1876.88 565.915 1876.98C566.546 1877.08 567.148 1877.31 567.68 1877.66C568.232 1877.94 568.675 1878.4 568.941 1878.95C569.207 1879.51 569.281 1880.14 569.151 1880.75C568.155 1884.59 558.523 1888.57 554.395 1888.81L553.968 1888.76ZM566.447 1878.9C565.788 1878.66 565.066 1878.66 564.407 1878.9C561.133 1879.75 557.622 1884.59 556.009 1887.1C560.421 1886.15 566.921 1882.79 567.538 1880.51C567.538 1880.51 567.538 1879.84 566.779 1879.23L566.447 1878.9Z" fill="#1D5BA4"/>
<path d="M787.354 1939.16C787.214 1939.11 787.088 1939.03 786.988 1938.92C786.889 1938.81 786.818 1938.68 786.785 1938.54C786.765 1938.36 786.795 1938.19 786.87 1938.03C786.946 1937.87 787.064 1937.73 787.212 1937.64C788.777 1936.83 802.821 1929.43 807.092 1931.75C807.502 1931.96 807.851 1932.27 808.101 1932.65C808.352 1933.04 808.495 1933.48 808.515 1933.94C808.606 1934.69 808.516 1935.45 808.251 1936.16C807.987 1936.87 807.557 1937.51 806.997 1938.02C803.201 1941.48 793.142 1940.25 787.449 1939.2L787.354 1939.16ZM806 1933.08C803.343 1932.18 795.752 1935.22 790.201 1937.83C797.982 1939.01 803.77 1938.59 805.905 1936.64C806.264 1936.3 806.537 1935.87 806.702 1935.4C806.867 1934.93 806.919 1934.43 806.854 1933.94C806.861 1933.76 806.816 1933.58 806.723 1933.43C806.63 1933.28 806.494 1933.16 806.332 1933.08H806Z" fill="#1D5BA4"/>
<path d="M787.35 1939.16H787.113C786.99 1939.08 786.893 1938.97 786.834 1938.83C786.775 1938.7 786.757 1938.55 786.781 1938.4C786.781 1938.02 787.587 1928.53 792 1924.83C792.642 1924.26 793.395 1923.83 794.212 1923.57C795.029 1923.31 795.892 1923.22 796.744 1923.31C799.022 1923.31 799.734 1924.64 799.876 1925.59C800.588 1929.58 792.332 1937.26 788.109 1939.26C787.987 1939.31 787.85 1939.34 787.716 1939.32C787.581 1939.3 787.455 1939.25 787.35 1939.16ZM797.314 1924.93H796.46C795.854 1924.87 795.242 1924.94 794.663 1925.12C794.083 1925.31 793.548 1925.62 793.091 1926.02C790.512 1929.11 788.953 1932.92 788.631 1936.93C792.901 1934.27 798.5 1928.2 798.12 1925.83C798.073 1925.64 798.026 1925.26 797.314 1925.02V1924.93Z" fill="#1D5BA4"/>
<path d="M482.984 765.204C477.364 714.876 479.944 663.97 490.622 614.468L495.367 615.56C484.815 664.566 482.267 714.957 487.823 764.777L482.984 765.204ZM506.707 577.223L502.294 575.61C506.671 563.718 511.871 552.144 517.856 540.975L522.079 543.205C516.153 554.178 510.985 565.544 506.612 577.223H506.707Z" fill="#1D5BA4"/>
<path d="M650.281 457.471C808.181 425.919 1021.36 607.115 1126.5 862.137C1231.64 1117.16 1188.89 1349.5 1031.08 1381.01C873.277 1412.51 660.197 1231.36 554.867 976.34C449.537 721.318 492.475 488.785 650.281 457.471ZM637.85 959.781C730.749 1185.2 908.292 1347.56 1033.83 1322.41C1159.38 1297.26 1186.23 1094.2 1093.33 868.78C1000.43 643.364 822.889 480.956 697.3 506.103C571.71 531.249 544.903 734.318 637.85 959.781ZM511.217 837.039C521.085 819.721 579.491 796.662 592.397 809.52L511.217 837.039ZM1100.07 1284.31C1114.92 1282.51 1129.53 1318.28 1119.62 1331.52L1100.07 1284.31ZM879.872 569.775C889.836 567.071 898.566 553.359 899.752 545.341L879.872 569.775Z" fill="white"/>
<path d="M994.451 1386.93C840.868 1386.93 650.04 1213.42 552.681 977.239C484.928 812.981 476.341 648.39 530.192 547.71C557.094 497.417 598.467 465.391 649.803 455.143C808.463 423.449 1023.3 605.594 1128.68 861.233C1196.38 1025.54 1205.02 1190.13 1151.12 1290.76C1143.09 1305.98 1133.14 1320.11 1121.51 1332.8C1097.74 1358.77 1066.26 1376.44 1031.7 1383.19C1019.44 1385.67 1006.96 1386.92 994.451 1386.93ZM513.87 837.273C524.075 884.533 538.525 930.775 557.046 975.436C661.427 1229.03 874.033 1409.95 1030.6 1378.73C1064.17 1372.16 1094.74 1355.01 1117.86 1329.81C1122.6 1322.55 1119.8 1307.56 1114.01 1297.59C1110.03 1290.67 1105.24 1286.68 1100.97 1286.68C1083.46 1306.24 1060.06 1319.56 1034.31 1324.64C907.672 1350.02 728.848 1186.62 635.759 960.585C615.637 912.257 600.426 862.028 590.353 810.656C587.317 808.188 581.196 807.477 572.941 808.568C551.068 811.415 521.462 826.028 513.87 837.273ZM640.029 958.877C732.407 1182.92 908.858 1344.99 1033.4 1320.08C1070.03 1312.78 1098.59 1290.38 1118.33 1253.66C1163.98 1168.26 1153.54 1021.17 1091.1 869.868C998.721 645.781 822.317 483.753 697.771 508.615C661.095 515.921 632.485 538.363 612.748 575.039C567.152 660.347 577.59 807.382 640.029 958.877ZM1104.62 1282.46C1110.54 1284.88 1115.36 1289.41 1118.14 1295.17C1122.84 1303.13 1125.27 1312.22 1125.16 1321.46C1133.54 1311.24 1140.87 1300.21 1147.04 1288.53C1200.27 1189.13 1191.59 1026.06 1124.41 863.036C1070.93 733.319 989.184 622.627 901.409 549.608C898.36 558.32 892.415 565.722 884.566 570.579C965.651 635.817 1043.94 742.144 1095.8 867.876C1158.76 1020.6 1169.1 1169.21 1122.84 1255.7C1117.68 1265.21 1111.58 1274.18 1104.62 1282.46ZM650.705 459.793C600.791 469.756 560.557 500.928 534.32 549.94C496.98 619.733 490.1 720.746 512.589 831.247C524.166 818.911 552.681 806.528 572.134 803.918C577.769 802.874 583.571 803.167 589.072 804.772C572.276 711.778 578.397 629.222 608.525 572.762C628.69 535.089 659.198 511.082 696.775 503.728C751.765 492.768 816.623 517.345 880.011 567.21C887.982 564.411 895.336 553.404 897.092 546.287C814.204 478.771 726.001 444.752 650.705 459.793Z" fill="#1D5BA4"/>
<path d="M864.597 727.193L1012.49 711.915L1008.98 685.061L862.13 708.214L864.597 727.193Z" fill="#1D5BA4"/>
<path opacity="0.2" d="M947.53 694.74L950.614 718.273L1012.44 711.915L1008.92 685.061L947.53 694.74Z" fill="black"/>
<path d="M958.585 716.895C958.777 718.009 959.36 719.018 960.23 719.74C961.1 720.462 962.199 720.85 963.33 720.833L1134.85 704.986C1141.68 704.085 1135.84 659.438 1129.06 660.34L959.154 688.807C958.016 689.047 957.005 689.696 956.314 690.632C955.623 691.568 955.3 692.725 955.406 693.884L958.585 716.895Z" fill="#1D5BA4"/>
<path d="M865.118 731.089C865.891 730.994 866.596 730.596 867.076 729.982C867.556 729.368 867.773 728.589 867.68 727.815L864.928 706.844C864.821 706.066 864.413 705.362 863.792 704.882C863.171 704.403 862.386 704.187 861.607 704.281C860.838 704.399 860.145 704.812 859.675 705.432C859.206 706.052 858.997 706.831 859.092 707.603L861.844 728.574C861.89 728.955 862.013 729.324 862.203 729.657C862.394 729.991 862.649 730.283 862.954 730.517C863.258 730.752 863.607 730.923 863.978 731.021C864.35 731.119 864.737 731.142 865.118 731.089Z" fill="#1D5BA4"/>
<path d="M1483.91 1448.17C1484.22 1446.94 1485 1445.89 1486.09 1445.24C1487.17 1444.59 1488.47 1444.4 1489.7 1444.71C1490.92 1445.02 1491.98 1445.8 1492.63 1446.89C1493.28 1447.97 1493.47 1449.27 1493.16 1450.5C1493.89 1465.32 1490.61 1480.07 1483.67 1493.2C1468.68 1518.96 1437.51 1528.12 1437.51 1528.12L1483.91 1448.17Z" fill="#1D5BA4"/>
<path d="M1445.48 1583.87C1419.1 1584.24 1393.33 1575.9 1372.17 1560.15C1354.95 1545.72 1341.15 1527.63 1331.8 1507.2C1331.4 1506.71 1331.09 1506.14 1330.91 1505.53C1330.73 1504.92 1330.67 1504.28 1330.73 1503.65C1330.79 1503.02 1330.98 1502.41 1331.28 1501.85C1331.58 1501.29 1331.99 1500.79 1332.49 1500.39C1332.98 1499.99 1333.54 1499.69 1334.15 1499.5C1334.76 1499.32 1335.4 1499.26 1336.03 1499.32C1336.66 1499.39 1337.28 1499.58 1337.84 1499.88C1338.4 1500.18 1338.89 1500.59 1339.29 1501.08L1445.48 1583.87Z" fill="#1D5BA4"/>
<path d="M1535.15 1643.6C1507.68 1684.02 1455.44 1695.36 1455.44 1695.36L1546.83 1561.04C1547.27 1559.95 1548.1 1559.06 1549.16 1558.55C1550.22 1558.04 1551.43 1557.93 1552.56 1558.27C1553.69 1558.6 1554.66 1559.34 1555.27 1560.34C1555.89 1561.35 1556.11 1562.54 1555.89 1563.7C1556.22 1582.35 1553.8 1616.13 1535.15 1643.6Z" fill="#1D5BA4"/>
<path d="M1454.3 1860.77H1454.02C1453.74 1860.73 1453.47 1860.64 1453.22 1860.5C1452.98 1860.36 1452.77 1860.17 1452.6 1859.94C1452.43 1859.72 1452.31 1859.46 1452.24 1859.18C1452.18 1858.91 1452.17 1858.63 1452.21 1858.35C1466.45 1757.57 1440.4 1488.74 1409.84 1422.51C1409.72 1422.25 1409.66 1421.98 1409.65 1421.7C1409.63 1421.41 1409.68 1421.13 1409.78 1420.87C1409.87 1420.6 1410.02 1420.36 1410.21 1420.15C1410.4 1419.95 1410.63 1419.78 1410.89 1419.66C1411.14 1419.54 1411.42 1419.48 1411.7 1419.46C1411.98 1419.45 1412.26 1419.5 1412.53 1419.59C1412.79 1419.69 1413.03 1419.84 1413.24 1420.03C1413.45 1420.22 1413.62 1420.45 1413.73 1420.71C1444.53 1487.13 1470.67 1757.57 1456.44 1858.96C1456.36 1859.47 1456.1 1859.93 1455.7 1860.26C1455.31 1860.59 1454.81 1860.77 1454.3 1860.77Z" fill="#263238"/>
<path d="M1394.76 1741.35H1513.85C1515.33 1741.35 1516.81 1741.65 1518.17 1742.24C1519.53 1742.84 1520.76 1743.71 1521.77 1744.8C1522.77 1745.9 1523.54 1747.19 1524.03 1748.6C1524.51 1750 1524.69 1751.49 1524.57 1752.98L1507.73 1965.77C1507.51 1968.46 1506.29 1970.98 1504.3 1972.81C1502.31 1974.64 1499.7 1975.65 1497 1975.64H1411.6C1408.9 1975.65 1406.29 1974.64 1404.3 1972.81C1402.32 1970.98 1401.09 1968.46 1400.88 1965.77L1383.99 1752.98C1383.87 1751.49 1384.06 1750 1384.55 1748.59C1385.04 1747.18 1385.81 1745.89 1386.82 1744.8C1387.83 1743.71 1389.06 1742.84 1390.43 1742.25C1391.79 1741.65 1393.27 1741.35 1394.76 1741.35Z" fill="#1D5BA4"/>
<path d="M1394.09 1433.47C1396.45 1436.98 1399.79 1439.71 1403.7 1441.31C1407.61 1442.92 1411.9 1443.33 1416.04 1442.49C1420.18 1441.66 1423.98 1439.61 1426.96 1436.62C1429.94 1433.62 1431.96 1429.81 1432.77 1425.66C1433.58 1421.52 1433.15 1417.22 1431.52 1413.33C1429.88 1409.43 1427.14 1406.1 1423.61 1403.77C1420.09 1401.44 1415.96 1400.2 1411.73 1400.22C1407.51 1400.23 1403.39 1401.5 1399.88 1403.86C1395.19 1407.02 1391.95 1411.92 1390.86 1417.47C1389.78 1423.02 1390.94 1428.77 1394.09 1433.47Z" fill="white"/>
<path d="M1411.84 1445.76C1406.04 1445.77 1400.43 1443.69 1396.03 1439.92C1391.63 1436.14 1388.73 1430.9 1387.87 1425.17C1387.01 1419.43 1388.23 1413.57 1391.32 1408.67C1394.41 1403.76 1399.16 1400.12 1404.71 1398.42C1410.26 1396.73 1416.23 1397.08 1421.54 1399.41C1426.85 1401.74 1431.14 1405.91 1433.64 1411.14C1436.14 1416.38 1436.67 1422.34 1435.14 1427.93C1433.61 1433.53 1430.13 1438.39 1425.32 1441.63C1421.33 1444.31 1416.64 1445.75 1411.84 1445.76ZM1411.84 1403.06C1407.73 1403.07 1403.73 1404.46 1400.5 1407C1397.26 1409.54 1394.97 1413.09 1393.98 1417.08C1392.99 1421.07 1393.37 1425.28 1395.04 1429.04C1396.72 1432.8 1399.61 1435.89 1403.24 1437.81C1406.88 1439.74 1411.05 1440.4 1415.1 1439.69C1419.15 1438.97 1422.85 1436.93 1425.61 1433.87C1428.36 1430.81 1430.01 1426.92 1430.31 1422.82C1430.6 1418.72 1429.51 1414.63 1427.21 1411.22C1425.5 1408.7 1423.19 1406.64 1420.49 1405.23C1417.8 1403.81 1414.79 1403.08 1411.75 1403.1L1411.84 1403.06Z" fill="#1D5BA4"/>
<path d="M1413.31 1494.05C1413.48 1495.83 1414.18 1497.51 1415.31 1498.88C1416.44 1500.26 1417.96 1501.27 1419.66 1501.79C1421.37 1502.3 1423.19 1502.3 1424.89 1501.79C1426.6 1501.27 1428.11 1500.26 1429.24 1498.88C1430.37 1497.51 1431.07 1495.83 1431.25 1494.06C1431.42 1492.28 1431.07 1490.5 1430.24 1488.93C1429.4 1487.35 1428.12 1486.06 1426.55 1485.22C1424.98 1484.38 1423.19 1484.02 1421.42 1484.19C1420.24 1484.3 1419.09 1484.64 1418.04 1485.2C1417 1485.76 1416.07 1486.52 1415.31 1487.43C1414.56 1488.35 1413.99 1489.41 1413.65 1490.54C1413.31 1491.68 1413.19 1492.87 1413.31 1494.05Z" fill="#263238"/>
<path d="M1436.55 1677.14C1436.55 1678.93 1437.08 1680.67 1438.07 1682.15C1439.06 1683.63 1440.47 1684.79 1442.12 1685.47C1443.77 1686.15 1445.58 1686.33 1447.33 1685.99C1449.08 1685.64 1450.68 1684.78 1451.94 1683.52C1453.2 1682.26 1454.06 1680.65 1454.41 1678.9C1454.76 1677.15 1454.58 1675.34 1453.9 1673.69C1453.22 1672.05 1452.06 1670.64 1450.58 1669.65C1449.09 1668.66 1447.35 1668.13 1445.57 1668.13C1443.18 1668.13 1440.89 1669.08 1439.19 1670.77C1437.5 1672.46 1436.55 1674.75 1436.55 1677.14Z" fill="#263238"/>
<path d="M1463.08 1618.69C1465.69 1618.31 1468.14 1617.16 1470.1 1615.39C1472.06 1613.62 1473.46 1611.31 1474.11 1608.75C1474.76 1606.19 1474.64 1603.5 1473.76 1601C1472.88 1598.51 1471.29 1596.33 1469.17 1594.75C1467.06 1593.16 1464.52 1592.24 1461.88 1592.09C1459.24 1591.95 1456.62 1592.59 1454.35 1593.93C1452.07 1595.27 1450.24 1597.26 1449.09 1599.64C1447.95 1602.02 1447.53 1604.69 1447.89 1607.3C1448.4 1610.83 1450.28 1614 1453.13 1616.14C1455.98 1618.28 1459.55 1619.19 1463.08 1618.69Z" fill="#263238"/>
<path d="M1186.85 2217.66C1218.61 2217.66 1244.37 2191.9 1244.37 2160.14C1244.37 2128.37 1218.61 2102.62 1186.85 2102.62C1155.08 2102.62 1129.33 2128.37 1129.33 2160.14C1129.33 2191.9 1155.08 2217.66 1186.85 2217.66ZM1244.37 2246.42H1129.33C1097.56 2246.42 1071.8 2272.18 1071.8 2303.94V2332.7H1301.89V2303.94C1301.89 2272.18 1276.14 2246.42 1244.37 2246.42Z" fill="#DD5A5A"/>
</g>
<defs>
<clipPath id="clip0_126_471">
<rect width="2372.3" height="2372.3" fill="white" transform="translate(0.697754 0.0761719)"/>
</clipPath>
</defs>
</svg>
