<svg width="80" height="80" viewBox="0 0 80 80" fill="none" xmlns="http://www.w3.org/2000/svg">
<path d="M26.6667 60L33.3334 53.3333H40L44.5327 48.798C46.7667 49.5767 49.1674 50 51.6667 50C63.633 50 73.3334 40.2997 73.3334 28.3333C73.3334 16.3672 63.633 6.66667 51.6667 6.66667C39.7004 6.66667 30 16.3672 30 28.3333C30 30.8414 30.4262 33.25 31.2101 35.4907L6.66669 60V73.3333H20L26.6667 66.6667V60Z" stroke="black" stroke-width="6.66667" stroke-linecap="round" stroke-linejoin="round"/>
<path d="M56.6666 26.6667C58.5076 26.6667 60 25.1743 60 23.3333C60 21.4924 58.5076 20 56.6666 20C54.8257 20 53.3333 21.4924 53.3333 23.3333C53.3333 25.1743 54.8257 26.6667 56.6666 26.6667Z" stroke="black" stroke-width="6.66667" stroke-linecap="round" stroke-linejoin="round"/>
</svg>
