<svg width="255" height="183" viewBox="0 0 255 183" fill="none" xmlns="http://www.w3.org/2000/svg">
<path d="M229.122 174.93H212.255V175.057H229.122V174.93Z" fill="#EBEBEB"/>
<path d="M168.681 176.315H164.256V176.443H168.681V176.315Z" fill="#EBEBEB"/>
<path d="M211.745 170.204H201.972V170.331H211.745V170.204Z" fill="#EBEBEB"/>
<path d="M48.7119 171.06H26.7164V171.187H48.7119V171.06Z" fill="#EBEBEB"/>
<path d="M56.4732 171.06H53.2495V171.187H56.4732V171.06Z" fill="#EBEBEB"/>
<path d="M114.663 173.209H66.9541V173.336H114.663V173.209Z" fill="#EBEBEB"/>
<path d="M121.411 144.022H23.0701C22.2988 144.022 21.5592 143.716 21.0138 143.171C20.4685 142.625 20.1621 141.886 20.1621 141.114V2.88248C20.1688 2.11567 20.4782 1.38255 21.0228 0.842696C21.5674 0.302845 22.3032 -2.93982e-05 23.0701 2.14024e-09H121.411C121.792 2.14025e-09 122.171 0.0752156 122.523 0.221354C122.876 0.367492 123.197 0.58169 123.467 0.851718C123.737 1.12175 123.951 1.44232 124.097 1.79512C124.243 2.14793 124.319 2.52607 124.319 2.90795V141.114C124.319 141.496 124.243 141.874 124.097 142.227C123.951 142.58 123.737 142.901 123.467 143.171C123.197 143.441 122.876 143.655 122.523 143.801C122.171 143.947 121.792 144.022 121.411 144.022ZM23.0701 0.101855C22.333 0.103201 21.6265 0.396591 21.1053 0.917768C20.5842 1.43895 20.2908 2.14543 20.2894 2.88248V141.114C20.2908 141.851 20.5842 142.558 21.1053 143.079C21.6265 143.6 22.333 143.894 23.0701 143.895H121.411C122.148 143.894 122.854 143.6 123.375 143.079C123.896 142.558 124.19 141.851 124.191 141.114V2.88248C124.19 2.14543 123.896 1.43895 123.375 0.917768C122.854 0.396591 122.148 0.103201 121.411 0.101855H23.0701Z" fill="#EBEBEB"/>
<path d="M231.566 144.022H133.226C132.454 144.022 131.715 143.716 131.169 143.171C130.624 142.625 130.318 141.886 130.318 141.114V2.88248C130.324 2.11567 130.634 1.38255 131.178 0.842696C131.723 0.302845 132.459 -2.93982e-05 133.226 2.14024e-09H231.566C232.337 2.14025e-09 233.077 0.306372 233.622 0.851718C234.168 1.39706 234.474 2.13671 234.474 2.90795V141.114C234.474 141.886 234.168 142.625 233.622 143.171C233.077 143.716 232.337 144.022 231.566 144.022ZM133.226 0.101855C132.489 0.103201 131.782 0.396591 131.261 0.917768C130.74 1.43895 130.446 2.14543 130.445 2.88248V141.114C130.446 141.851 130.74 142.558 131.261 143.079C131.782 143.6 132.489 143.894 133.226 143.895H231.566C232.303 143.894 233.01 143.6 233.531 143.079C234.052 142.558 234.346 141.851 234.347 141.114V2.88248C234.346 2.14543 234.052 1.43895 233.531 0.917768C233.01 0.396591 232.303 0.103201 231.566 0.101855H133.226Z" fill="#EBEBEB"/>
<path d="M254.636 166.736H0V166.863H254.636V166.736Z" fill="#EBEBEB"/>
<path d="M60.7715 132.283C60.3437 127.364 55.3223 125.525 49.3689 126.045C43.4155 126.564 38.7964 129.248 39.214 134.168L60.7715 132.283Z" fill="#F0F0F0"/>
<path d="M49.1754 123.799C51.9356 123.555 52.8167 121.222 52.5773 118.462C52.3379 115.702 51.0495 113.558 48.2994 113.797C45.5493 114.036 44.6581 116.374 44.8975 119.134C45.1368 121.894 46.4151 124.038 49.1754 123.799Z" fill="#F0F0F0"/>
<path d="M173.204 27.5007C173.252 28.0467 173.137 28.5948 172.874 29.0755C172.611 29.5563 172.211 29.9482 171.725 30.2016C171.239 30.455 170.688 30.5585 170.143 30.499C169.599 30.4396 169.084 30.2199 168.664 29.8676C168.244 29.5154 167.938 29.0465 167.784 28.5203C167.631 27.9941 167.637 27.4342 167.802 26.9114C167.967 26.3887 168.283 25.9266 168.711 25.5837C169.138 25.2408 169.658 25.0324 170.204 24.9849C170.935 24.9213 171.662 25.1506 172.224 25.6223C172.787 26.0939 173.139 26.7695 173.204 27.5007Z" fill="#F5F5F5"/>
<path d="M188.517 26.146C188.565 26.6909 188.449 27.2376 188.186 27.7169C187.923 28.1962 187.523 28.5867 187.038 28.8389C186.552 29.0911 186.003 29.1938 185.46 29.1339C184.916 29.074 184.402 28.8543 183.984 28.5025C183.565 28.1507 183.26 27.6826 183.107 27.1575C182.954 26.6323 182.961 26.0736 183.126 25.5521C183.29 25.0306 183.606 24.5697 184.033 24.2276C184.459 23.8855 184.978 23.6776 185.523 23.6302C186.253 23.5681 186.979 23.798 187.54 24.2695C188.101 24.7411 188.453 25.4158 188.517 26.146Z" fill="#F5F5F5"/>
<path d="M203.836 24.8067C203.885 25.3526 203.77 25.9007 203.507 26.3815C203.243 26.8622 202.843 27.2541 202.357 27.5075C201.871 27.7609 201.321 27.8644 200.776 27.805C200.231 27.7455 199.716 27.5258 199.296 27.1736C198.876 26.8213 198.57 26.3524 198.417 25.8262C198.264 25.3 198.27 24.7401 198.435 24.2174C198.599 23.6947 198.916 23.2326 199.343 22.8897C199.771 22.5467 200.291 22.3383 200.837 22.2909C201.568 22.2273 202.295 22.4565 202.857 22.9282C203.419 23.3999 203.772 24.0755 203.836 24.8067Z" fill="#F5F5F5"/>
<path d="M174.568 43.0946C174.617 43.6406 174.502 44.1887 174.239 44.6695C173.976 45.1502 173.576 45.5421 173.09 45.7955C172.604 46.0489 172.053 46.1524 171.508 46.093C170.963 46.0335 170.448 45.8138 170.028 45.4616C169.608 45.1093 169.302 44.6404 169.149 44.1142C168.996 43.588 169.002 43.0281 169.167 42.5054C169.332 41.9826 169.648 41.5206 170.075 41.1776C170.503 40.8347 171.023 40.6263 171.569 40.5788C172.3 40.5153 173.027 40.7445 173.589 41.2162C174.152 41.6879 174.504 42.3635 174.568 43.0946Z" fill="#F5F5F5"/>
<path d="M189.882 41.7603C189.93 42.3052 189.814 42.8519 189.551 43.3312C189.287 43.8105 188.888 44.201 188.403 44.4532C187.917 44.7054 187.368 44.8081 186.825 44.7482C186.281 44.6883 185.767 44.4686 185.348 44.1168C184.93 43.765 184.625 43.2969 184.472 42.7717C184.319 42.2466 184.326 41.6879 184.49 41.1664C184.655 40.6449 184.971 40.184 185.398 39.8419C185.824 39.4998 186.343 39.2919 186.888 39.2445C187.25 39.2131 187.614 39.2532 187.96 39.3626C188.307 39.472 188.628 39.6486 188.906 39.8822C189.184 40.1158 189.414 40.4019 189.581 40.7242C189.748 41.0464 189.851 41.3985 189.882 41.7603Z" fill="#F5F5F5"/>
<path d="M205.201 40.4159C205.249 40.9619 205.135 41.5099 204.872 41.9907C204.608 42.4714 204.208 42.8633 203.722 43.1167C203.236 43.3701 202.686 43.4736 202.141 43.4142C201.596 43.3547 201.081 43.135 200.661 42.7828C200.241 42.4305 199.935 41.9617 199.782 41.4354C199.628 40.9092 199.635 40.3493 199.799 39.8266C199.964 39.3039 200.281 38.8418 200.708 38.4989C201.136 38.1559 201.656 37.9475 202.202 37.9001C202.933 37.8365 203.659 38.0657 204.222 38.5374C204.784 39.0091 205.136 39.6847 205.201 40.4159Z" fill="#F5F5F5"/>
<path d="M175.933 58.7089C175.981 59.2538 175.865 59.8005 175.602 60.2798C175.339 60.7591 174.939 61.1496 174.454 61.4018C173.968 61.654 173.419 61.7567 172.876 61.6968C172.332 61.6369 171.818 61.4172 171.399 61.0654C170.981 60.7136 170.676 60.2455 170.523 59.7203C170.37 59.1952 170.377 58.6365 170.541 58.115C170.706 57.5935 171.022 57.1325 171.449 56.7905C171.875 56.4484 172.394 56.2405 172.939 56.1931C173.301 56.161 173.665 56.2006 174.012 56.3098C174.359 56.4189 174.68 56.5954 174.958 56.8292C175.237 57.0629 175.466 57.3493 175.633 57.6718C175.801 57.9944 175.903 58.3469 175.933 58.7089Z" fill="#F5F5F5"/>
<path d="M191.252 57.3645C191.301 57.9105 191.186 58.4585 190.923 58.9393C190.659 59.4201 190.259 59.8119 189.773 60.0653C189.287 60.3187 188.737 60.4222 188.192 60.3628C187.647 60.3033 187.132 60.0836 186.712 59.7314C186.292 59.3792 185.986 58.9103 185.833 58.384C185.679 57.8578 185.686 57.2979 185.85 56.7752C186.015 56.2525 186.332 55.7904 186.759 55.4475C187.187 55.1045 187.707 54.8961 188.253 54.8487C188.984 54.7851 189.71 55.0143 190.273 55.486C190.835 55.9577 191.188 56.6333 191.252 57.3645Z" fill="#F5F5F5"/>
<path d="M206.566 56.02C206.614 56.566 206.5 57.114 206.236 57.5948C205.973 58.0756 205.573 58.4674 205.087 58.7208C204.601 58.9742 204.051 59.0778 203.506 59.0183C202.961 58.9589 202.446 58.7391 202.026 58.3869C201.606 58.0347 201.3 57.5658 201.147 57.0396C200.993 56.5133 200.999 55.9534 201.164 55.4307C201.329 54.908 201.645 54.4459 202.073 54.103C202.501 53.76 203.02 53.5517 203.566 53.5042C204.298 53.4406 205.024 53.6698 205.587 54.1415C206.149 54.6132 206.501 55.2888 206.566 56.02Z" fill="#F5F5F5"/>
<path d="M203.256 56.9265L171.793 59.6766L199.691 25.7794L171.116 28.2799C171.036 28.2876 170.955 28.2792 170.879 28.2553C170.802 28.2314 170.731 28.1925 170.67 28.1408C170.609 28.089 170.559 28.0256 170.522 27.9542C170.486 27.8827 170.464 27.8047 170.459 27.7248C170.445 27.5648 170.495 27.4057 170.598 27.2825C170.701 27.1593 170.849 27.0821 171.009 27.0678L202.477 24.3178L174.574 58.215L203.159 55.7144C203.32 55.7017 203.48 55.7527 203.604 55.8565C203.727 55.9604 203.806 56.1087 203.821 56.2695C203.827 56.3498 203.818 56.4306 203.793 56.5071C203.768 56.5837 203.728 56.6545 203.675 56.7155C203.623 56.7766 203.558 56.8267 203.486 56.8629C203.415 56.8991 203.336 56.9207 203.256 56.9265Z" fill="#E6E6E6"/>
<path d="M203.74 117.443C203.691 117.295 203.6 117.164 203.478 117.067C203.356 116.97 203.207 116.912 203.052 116.898C201.684 116.835 200.389 116.263 199.421 115.294C198.163 114.026 197.425 112.106 197.302 109.825C197.291 109.619 197.201 109.425 197.051 109.283C196.902 109.141 196.704 109.062 196.498 109.061C196.386 109.061 196.276 109.084 196.174 109.129C196.072 109.173 195.979 109.238 195.903 109.318C195.826 109.399 195.767 109.495 195.728 109.599C195.689 109.704 195.672 109.815 195.678 109.926C195.82 112.605 196.727 114.897 198.27 116.44C199.478 117.65 201.082 118.386 202.787 118.513H202.904C203.038 118.523 203.173 118.5 203.295 118.446C203.418 118.391 203.526 118.308 203.608 118.202C203.691 118.096 203.746 117.971 203.769 117.839C203.792 117.707 203.782 117.571 203.74 117.443Z" fill="#F0F0F0"/>
<path d="M202.11 127.216C195.362 126.626 190.493 122.027 188.955 114.846C188.931 114.738 188.929 114.627 188.948 114.518C188.968 114.409 189.01 114.305 189.071 114.213C189.132 114.121 189.21 114.042 189.303 113.981C189.395 113.92 189.498 113.878 189.607 113.858C189.813 113.821 190.026 113.866 190.2 113.981C190.375 114.097 190.498 114.275 190.544 114.479C191.924 120.932 196.253 125.067 202.258 125.592C208.837 126.167 215.901 121.838 217.169 110.93C217.191 110.717 217.296 110.521 217.46 110.385C217.625 110.249 217.837 110.183 218.05 110.201C218.158 110.21 218.263 110.241 218.359 110.291C218.455 110.341 218.54 110.41 218.609 110.494C218.678 110.577 218.729 110.674 218.76 110.777C218.791 110.881 218.801 110.99 218.789 111.098C217.571 121.385 210.808 127.975 202.11 127.216Z" fill="#F0F0F0"/>
<path d="M189.378 107.691C189.27 107.682 189.165 107.651 189.069 107.601C188.973 107.551 188.888 107.482 188.819 107.399C188.751 107.315 188.699 107.219 188.668 107.115C188.637 107.011 188.628 106.902 188.64 106.794C189.852 96.5072 196.615 89.9121 205.308 90.676C212.947 91.3431 218.065 97.047 218.865 105.638C218.873 105.746 218.86 105.855 218.826 105.957C218.792 106.06 218.738 106.155 218.667 106.237C218.596 106.318 218.509 106.385 218.412 106.432C218.315 106.48 218.209 106.508 218.101 106.514C217.889 106.524 217.68 106.451 217.521 106.311C217.361 106.17 217.262 105.973 217.245 105.761C216.507 98.0197 211.939 92.8913 205.171 92.3006C198.616 91.7251 191.522 96.0488 190.259 106.947C190.25 107.054 190.22 107.158 190.171 107.253C190.122 107.348 190.055 107.433 189.973 107.502C189.891 107.571 189.796 107.623 189.694 107.655C189.592 107.688 189.485 107.7 189.378 107.691Z" fill="#F0F0F0"/>
<path d="M202.441 122.852C201.231 122.755 200.046 122.459 198.932 121.976C198.828 121.93 198.735 121.864 198.658 121.78C198.581 121.697 198.523 121.599 198.486 121.491C198.449 121.384 198.435 121.271 198.444 121.158C198.453 121.045 198.486 120.935 198.54 120.835C198.635 120.66 198.792 120.527 198.981 120.461C199.169 120.395 199.375 120.401 199.558 120.479C200.62 120.935 201.755 121.197 202.909 121.253C207.895 121.538 213.161 118.004 213.681 109.468C213.996 104.207 212.193 99.96 208.832 97.928C208.658 97.8227 208.53 97.6562 208.472 97.4612C208.415 97.2661 208.433 97.0566 208.522 96.8738C208.572 96.7728 208.643 96.6832 208.73 96.6107C208.817 96.5382 208.917 96.4843 209.026 96.4523C209.134 96.4203 209.248 96.4109 209.36 96.4247C209.472 96.4385 209.58 96.4753 209.678 96.5326C213.574 98.8854 215.662 103.662 215.305 109.565C214.796 117.795 209.673 123.274 202.813 122.882L202.441 122.852Z" fill="#F0F0F0"/>
<path d="M195.189 117.774C195.095 117.838 194.989 117.881 194.878 117.902C194.767 117.923 194.652 117.921 194.542 117.895C194.432 117.87 194.328 117.822 194.237 117.755C194.145 117.688 194.069 117.602 194.012 117.504C192.503 114.698 191.84 111.514 192.103 108.338C192.581 100.459 197.302 95.0965 203.714 95.0048C203.827 95.0025 203.939 95.0236 204.044 95.0667C204.148 95.1098 204.242 95.174 204.321 95.2553C204.399 95.3366 204.46 95.4332 204.499 95.539C204.539 95.6449 204.556 95.7578 204.549 95.8705C204.537 96.0742 204.448 96.2657 204.301 96.4072C204.154 96.5486 203.959 96.6297 203.755 96.6345C198.998 96.7261 194.221 100.322 193.732 108.434C193.485 111.301 194.076 114.178 195.433 116.715C195.535 116.891 195.567 117.099 195.522 117.298C195.476 117.496 195.357 117.67 195.189 117.785V117.774Z" fill="#F0F0F0"/>
<path d="M206.322 117.133C206.244 116.952 206.235 116.749 206.296 116.561C206.357 116.374 206.484 116.215 206.653 116.114C208.797 114.826 210.111 112.121 210.131 108.857C210.131 106.244 209.392 104.034 207.997 102.634C207.455 102.097 206.809 101.676 206.099 101.398C205.389 101.119 204.629 100.989 203.867 101.014C201.356 101.014 199.319 102.394 198.194 104.818C198.107 105.003 197.954 105.147 197.765 105.224C197.576 105.3 197.366 105.303 197.175 105.231C197.069 105.192 196.972 105.131 196.89 105.052C196.809 104.973 196.745 104.879 196.701 104.774C196.658 104.669 196.637 104.556 196.64 104.443C196.643 104.33 196.669 104.218 196.717 104.116C198.112 101.147 200.725 99.3896 203.846 99.3845C204.824 99.3593 205.797 99.5322 206.707 99.8928C207.616 100.253 208.443 100.794 209.138 101.483C210.844 103.194 211.771 105.817 211.75 108.872C211.72 112.717 210.1 115.946 207.462 117.53C207.362 117.584 207.252 117.617 207.139 117.627C207.025 117.636 206.911 117.622 206.804 117.584C206.696 117.547 206.598 117.487 206.515 117.41C206.432 117.332 206.366 117.237 206.322 117.133Z" fill="#F0F0F0"/>
<path d="M200.455 111.118C200.346 111.163 200.229 111.183 200.112 111.178C199.994 111.173 199.879 111.142 199.775 111.088C199.67 111.035 199.579 110.959 199.506 110.867C199.434 110.774 199.382 110.667 199.355 110.553C199.299 110.334 199.258 110.105 199.222 109.87C198.759 106.815 200.399 104.172 203.032 103.698C203.645 103.565 204.28 103.577 204.888 103.733C205.496 103.89 206.058 104.187 206.53 104.6C206.619 104.678 206.689 104.776 206.734 104.885C206.78 104.995 206.8 105.113 206.794 105.232C206.788 105.35 206.755 105.466 206.698 105.569C206.64 105.673 206.561 105.763 206.464 105.832L206.413 105.868C206.261 105.974 206.076 106.024 205.89 106.01C205.705 105.996 205.53 105.919 205.395 105.791C205.109 105.55 204.771 105.379 204.408 105.29C204.045 105.202 203.666 105.199 203.302 105.282C201.295 105.644 200.531 107.732 200.816 109.606C200.847 109.789 200.877 109.967 200.923 110.115C200.972 110.307 200.951 110.51 200.862 110.687C200.773 110.864 200.623 111.002 200.439 111.077L200.455 111.118Z" fill="#F0F0F0"/>
<path d="M203.149 114.255C203.02 114.243 202.897 114.198 202.791 114.124C202.685 114.051 202.599 113.952 202.542 113.836C202.485 113.72 202.459 113.592 202.465 113.463C202.471 113.334 202.51 113.209 202.578 113.099L202.65 112.987C202.723 112.87 202.827 112.776 202.95 112.714C203.073 112.652 203.21 112.625 203.347 112.636C203.603 112.65 203.859 112.635 204.111 112.59C205.863 112.274 206.658 110.645 206.658 108.984C206.653 108.785 206.72 108.59 206.847 108.437C206.975 108.283 207.153 108.181 207.35 108.149C207.463 108.132 207.579 108.139 207.689 108.169C207.799 108.199 207.902 108.252 207.99 108.325C208.079 108.397 208.151 108.488 208.202 108.59C208.253 108.692 208.282 108.804 208.287 108.918C208.333 111.577 206.76 113.772 204.402 114.194C203.989 114.271 203.567 114.291 203.149 114.255Z" fill="#F0F0F0"/>
<path d="M203.51 111.245C203.099 111.211 202.709 111.048 202.395 110.781C202.081 110.513 201.858 110.154 201.758 109.753C201.73 109.64 201.728 109.522 201.755 109.408C201.781 109.295 201.834 109.189 201.909 109.1C201.984 109.011 202.079 108.941 202.187 108.896C202.294 108.851 202.411 108.832 202.527 108.842H202.716C202.858 108.857 202.994 108.913 203.105 109.003C203.216 109.094 203.299 109.214 203.342 109.351C203.36 109.422 203.4 109.486 203.455 109.533C203.511 109.581 203.58 109.609 203.653 109.616C204.045 109.651 204.111 109.107 204.121 108.974C204.145 108.776 204.108 108.575 204.015 108.399C203.874 108.229 203.801 108.013 203.811 107.793C203.824 107.631 203.885 107.477 203.986 107.35C204.087 107.223 204.224 107.129 204.379 107.08C204.534 107.031 204.699 107.03 204.855 107.076C205.011 107.122 205.149 107.214 205.252 107.339C205.649 107.842 205.833 108.48 205.761 109.117C205.629 110.456 204.687 111.347 203.51 111.245Z" fill="#F0F0F0"/>
<path d="M188.191 93.0186C188.085 93.0097 187.981 92.9797 187.886 92.9305C187.792 92.8813 187.707 92.8138 187.639 92.7319C187.57 92.65 187.518 92.5553 187.486 92.4533C187.455 92.3513 187.443 92.244 187.453 92.1376L188.069 85.074L195.133 85.6953C195.239 85.7042 195.343 85.7342 195.438 85.7834C195.533 85.8326 195.617 85.9001 195.686 85.982C195.754 86.0639 195.806 86.1586 195.838 86.2606C195.87 86.3626 195.881 86.4699 195.871 86.5763C195.862 86.683 195.832 86.7869 195.783 86.882C195.734 86.9771 195.667 87.0616 195.585 87.1307C195.503 87.1997 195.408 87.252 195.306 87.2844C195.204 87.3169 195.097 87.3289 194.99 87.3199L189.551 86.8412L189.078 92.2802C189.068 92.3869 189.037 92.4907 188.988 92.5855C188.938 92.6804 188.87 92.7646 188.788 92.8332C188.705 92.9018 188.61 92.9535 188.508 92.9853C188.406 93.0171 188.298 93.0284 188.191 93.0186Z" fill="#F0F0F0"/>
<path d="M221.768 95.9571C221.661 95.9481 221.558 95.9182 221.463 95.869C221.368 95.8198 221.284 95.7523 221.215 95.6704C221.146 95.5885 221.095 95.4938 221.063 95.3918C221.031 95.2898 221.02 95.1825 221.029 95.0761L221.503 89.637L216.064 89.1634C215.957 89.1538 215.853 89.1233 215.759 89.0735C215.664 89.0238 215.58 88.9558 215.511 88.8735C215.442 88.7912 215.391 88.6962 215.359 88.5938C215.327 88.4915 215.316 88.384 215.326 88.2773C215.334 88.1708 215.364 88.0671 215.414 87.9723C215.463 87.8774 215.53 87.7932 215.612 87.7246C215.694 87.6559 215.789 87.6042 215.891 87.5723C215.993 87.5404 216.1 87.529 216.207 87.5388L223.27 88.155L222.654 95.2339C222.631 95.4467 222.525 95.6418 222.359 95.7771C222.193 95.9124 221.981 95.9771 221.768 95.9571Z" fill="#F0F0F0"/>
<path d="M219.267 133.939L212.204 133.322C212.097 133.313 211.993 133.282 211.898 133.233C211.803 133.183 211.719 133.115 211.651 133.033C211.582 132.95 211.53 132.855 211.499 132.753C211.467 132.651 211.455 132.543 211.465 132.436C211.474 132.33 211.504 132.226 211.553 132.131C211.603 132.036 211.67 131.952 211.752 131.884C211.834 131.815 211.929 131.763 212.031 131.731C212.133 131.699 212.24 131.688 212.346 131.698L217.785 132.171L218.259 126.738C218.268 126.63 218.298 126.526 218.347 126.431C218.397 126.335 218.465 126.25 218.547 126.181C218.63 126.112 218.725 126.06 218.827 126.028C218.93 125.996 219.038 125.984 219.145 125.994C219.252 126.003 219.355 126.033 219.45 126.082C219.545 126.131 219.629 126.199 219.698 126.281C219.766 126.363 219.818 126.457 219.85 126.559C219.882 126.661 219.893 126.769 219.883 126.875L219.267 133.939Z" fill="#F0F0F0"/>
<path d="M191.13 131.464L184.066 130.842L184.683 123.784C184.703 123.568 184.808 123.37 184.974 123.231C185.139 123.092 185.353 123.023 185.569 123.04C185.675 123.05 185.779 123.08 185.874 123.13C185.969 123.18 186.053 123.248 186.122 123.33C186.19 123.412 186.242 123.507 186.274 123.61C186.306 123.712 186.317 123.82 186.307 123.926L185.834 129.355L191.267 129.834C191.374 129.843 191.478 129.873 191.573 129.922C191.668 129.971 191.753 130.039 191.822 130.12C191.891 130.202 191.943 130.297 191.976 130.399C192.008 130.501 192.02 130.608 192.011 130.715C191.993 130.931 191.89 131.131 191.725 131.271C191.56 131.411 191.346 131.481 191.13 131.464Z" fill="#F0F0F0"/>
<path d="M38.0579 116.18C37.9252 116.19 37.7939 116.148 37.692 116.062C37.5902 115.977 37.5259 115.854 37.513 115.722L37.1361 111.383L41.4751 111.001C41.6078 110.991 41.7392 111.033 41.841 111.119C41.9429 111.205 42.0071 111.327 42.0201 111.459C42.0286 111.591 41.9856 111.721 41.9001 111.822C41.8146 111.923 41.6932 111.986 41.5617 111.999L38.2209 112.295L38.5112 115.635C38.5212 115.767 38.4795 115.898 38.3949 116C38.3103 116.101 38.1895 116.166 38.0579 116.18Z" fill="#E0E0E0"/>
<path d="M58.7039 114.372C58.5719 114.382 58.4413 114.341 58.3396 114.256C58.2379 114.172 58.1731 114.051 58.1589 113.919L57.8686 110.573L54.5227 110.869C54.39 110.879 54.2587 110.836 54.1568 110.751C54.055 110.665 53.9907 110.543 53.9778 110.41C53.9679 110.278 54.0103 110.146 54.0959 110.044C54.1816 109.943 54.3037 109.878 54.4362 109.865L58.7752 109.489L59.1571 113.828C59.1671 113.959 59.1254 114.09 59.0408 114.192C58.9562 114.293 58.8354 114.358 58.7039 114.372Z" fill="#E0E0E0"/>
<path d="M60.8428 133.068L56.4987 133.45C56.366 133.46 56.2346 133.417 56.1328 133.332C56.031 133.246 55.9667 133.124 55.9538 132.991C55.9438 132.859 55.9862 132.727 56.0719 132.626C56.1575 132.524 56.2797 132.459 56.4121 132.447L59.7529 132.156L59.4626 128.815C59.4526 128.683 59.4943 128.553 59.5789 128.451C59.6635 128.349 59.7844 128.285 59.9159 128.27C60.0478 128.26 60.1784 128.302 60.2801 128.387C60.3819 128.471 60.4466 128.592 60.4608 128.724L60.8428 133.068Z" fill="#E0E0E0"/>
<path d="M43.5377 134.58L39.214 134.957L38.832 130.613C38.8235 130.481 38.8665 130.351 38.952 130.25C39.0375 130.15 39.1589 130.086 39.2904 130.073C39.4214 130.065 39.5508 130.107 39.6514 130.191C39.752 130.276 39.816 130.396 39.8302 130.527L40.1256 133.872L43.4664 133.577C43.5991 133.567 43.7304 133.61 43.8323 133.695C43.9341 133.781 43.9984 133.903 44.0113 134.035C44.0162 134.102 44.0078 134.17 43.9866 134.233C43.9654 134.297 43.9318 134.356 43.8878 134.406C43.8438 134.457 43.7902 134.498 43.7301 134.528C43.67 134.558 43.6046 134.576 43.5377 134.58Z" fill="#E0E0E0"/>
<path d="M58.3524 43.7974L41.7603 45.2234L41.4191 41.3377C41.3942 39.4831 42.0714 37.6878 43.3149 36.3117C44.5584 34.9356 46.2762 34.0807 48.1238 33.9183C49.9714 33.7559 51.812 34.2981 53.2765 35.4361C54.741 36.5742 55.721 38.2239 56.02 40.0543L56.2135 42.3155L58.6122 42.1067L58.4135 39.8455C58.3019 38.5701 57.9401 37.3292 57.3488 36.1937C56.7576 35.0581 55.9484 34.0501 54.9676 33.2273C53.9868 32.4044 52.8536 31.7828 51.6325 31.3979C50.4115 31.0131 49.1266 30.8725 47.8512 30.9841C45.2755 31.2097 42.8949 32.4492 41.233 34.4301C40.4102 35.4109 39.7886 36.5441 39.4037 37.7652C39.0188 38.9862 38.8782 40.2711 38.9899 41.5465L39.3311 45.4577C38.3863 45.6426 37.5433 46.1703 36.9641 46.9394C36.385 47.7084 36.1107 48.6644 36.194 49.6235L37.3806 63.1905C37.4229 63.7026 37.566 64.2012 37.8016 64.6578C38.0371 65.1145 38.3606 65.52 38.7534 65.8513C39.1461 66.1825 39.6004 66.4329 40.0903 66.5881C40.5801 66.7432 41.0957 66.8001 41.6075 66.7554L60.2113 65.1309C60.7233 65.0885 61.222 64.9455 61.6786 64.7099C62.1352 64.4743 62.5408 64.1509 62.872 63.7581C63.2032 63.3653 63.4536 62.911 63.6088 62.4212C63.764 61.9314 63.8209 61.4158 63.7762 60.9039L62.5896 47.3369C62.5441 46.8261 62.3984 46.3293 62.1608 45.8749C61.9232 45.4205 61.5984 45.0174 61.2048 44.6887C60.8113 44.36 60.3568 44.112 59.8673 43.9591C59.3779 43.8062 58.8631 43.7512 58.3524 43.7974ZM51.2939 54.2528L51.7013 58.9228C51.7287 59.1108 51.7175 59.3024 51.6683 59.4858C51.6191 59.6693 51.5329 59.8408 51.4151 59.9897C51.2973 60.1387 51.1503 60.2621 50.9832 60.3523C50.816 60.4425 50.6322 60.4976 50.443 60.5143C50.2538 60.531 50.0631 60.5088 49.8828 60.4492C49.7024 60.3896 49.5361 60.2939 49.3941 60.1677C49.2521 60.0416 49.1373 59.8879 49.0567 59.7158C48.9762 59.5438 48.9317 59.3571 48.9258 59.1673L48.5184 54.4922C48.0982 54.2342 47.7702 53.8502 47.581 53.3949C47.3918 52.9396 47.3511 52.4362 47.4646 51.9565C47.5781 51.4767 47.8401 51.0449 48.2133 50.7227C48.5865 50.4005 49.0518 50.2043 49.543 50.1619C50.0342 50.1195 50.5263 50.2332 50.9491 50.4868C51.372 50.7404 51.704 51.1209 51.898 51.5741C52.092 52.0274 52.138 52.5303 52.0296 53.0113C51.9211 53.4922 51.6637 53.9267 51.2939 54.2528Z" fill="#EBEBEB"/>
<path d="M86.8004 51.6351L85.1249 48.8902C84.2804 49.0104 83.4231 49.0104 82.5785 48.8902L80.898 51.625L80.5771 51.5384C79.488 51.2515 78.443 50.818 77.4705 50.2499L77.1854 50.087L77.8932 47.1128C77.907 47.0551 77.932 47.0007 77.9669 46.9528C78.0018 46.9048 78.0459 46.8643 78.0966 46.8335C78.1473 46.8027 78.2035 46.7823 78.2622 46.7734C78.3208 46.7645 78.3806 46.7674 78.4382 46.7818C78.5536 46.8096 78.6533 46.882 78.7153 46.9832C78.7774 47.0844 78.7968 47.2061 78.7692 47.3216L78.209 49.6388C78.9327 50.0331 79.6957 50.3505 80.4854 50.586L82.1253 47.9073L82.4258 47.9582C83.3771 48.111 84.3467 48.111 85.2981 47.9582L85.5934 47.9073L87.2333 50.586C88.0237 50.3524 88.7869 50.0348 89.5097 49.6388L88.7815 46.5832L89.0259 46.4049C89.6893 45.9265 90.2839 45.3593 90.7931 44.7192C90.8639 44.627 90.9677 44.5659 91.0827 44.5488C91.1977 44.5317 91.3148 44.5599 91.4093 44.6276C91.4589 44.6619 91.5008 44.706 91.5327 44.7572C91.5646 44.8083 91.5858 44.8654 91.5948 44.925C91.6039 44.9846 91.6007 45.0454 91.5854 45.1037C91.5702 45.162 91.5432 45.2166 91.5061 45.2641C91.0057 45.8961 90.4292 46.464 89.7898 46.9549L90.5385 50.0768L90.2482 50.2397C89.2771 50.8069 88.2338 51.2403 87.1467 51.5282L86.8004 51.6351ZM76.5029 45.6563C76.3654 45.4984 76.2279 45.3303 76.0955 45.147L72.9737 45.8956L72.8056 45.6104C72.2417 44.6359 71.8085 43.5914 71.5171 42.5039L71.4357 42.183L74.1705 40.5024C74.0502 39.6579 74.0502 38.8006 74.1705 37.9561L71.4357 36.2806L71.5171 35.9546C71.8085 34.8687 72.2418 33.8259 72.8056 32.8532L72.9737 32.5629L76.0955 33.3115C76.6167 32.6294 77.2264 32.0197 77.9085 31.4985L77.3432 29.1355C77.3156 29.02 77.335 28.8983 77.3971 28.7971C77.4591 28.6959 77.5588 28.6234 77.6743 28.5957C77.7311 28.5821 77.7901 28.5798 77.8478 28.5891C77.9055 28.5984 77.9608 28.6191 78.0105 28.6498C78.0602 28.6806 78.1034 28.7209 78.1374 28.7684C78.1715 28.8159 78.1958 28.8697 78.209 28.9267L78.9169 31.8703L78.6724 32.0434C77.8878 32.608 77.1999 33.2959 76.6353 34.0805L76.4571 34.325L73.4015 33.5967C73.0054 34.3196 72.6879 35.0827 72.4542 35.8732L75.1279 37.513L75.0821 37.8084C74.912 38.7583 74.912 39.7308 75.0821 40.6807L75.1279 40.9812L72.4542 42.621C72.6888 43.4095 73.0063 44.1709 73.4015 44.8924L76.4571 44.1641L76.6353 44.4086C76.7936 44.6395 76.9636 44.8621 77.1446 45.0757C77.2231 45.1581 77.2668 45.2675 77.2668 45.3813C77.2668 45.495 77.2231 45.6045 77.1446 45.6868C77.1012 45.7284 77.0498 45.7607 76.9935 45.7817C76.9372 45.8028 76.8772 45.8121 76.8172 45.8093C76.7572 45.8064 76.6984 45.7914 76.6443 45.7651C76.5903 45.7388 76.5422 45.7018 76.5029 45.6563ZM94.7043 45.9058L93.5534 45.6308C93.4379 45.603 93.3383 45.5306 93.2762 45.4294C93.2141 45.3282 93.1948 45.2065 93.2223 45.091C93.2501 44.9756 93.3226 44.8759 93.4238 44.8138C93.525 44.7518 93.6467 44.7324 93.7622 44.76L94.2714 44.8771C94.6649 44.1554 94.9808 43.394 95.2136 42.6057L92.5399 40.9659L92.5908 40.6654C92.7609 39.7155 92.7609 38.743 92.5908 37.7931L92.5399 37.4977L95.2136 35.8579C94.9817 35.0676 94.6659 34.3044 94.2714 33.5814L91.2158 34.3097L91.0427 34.0652C90.4768 33.2818 89.789 32.594 89.0056 32.0281L88.7611 31.855L89.4894 28.7994C88.7664 28.4049 88.0032 28.0891 87.2129 27.8572L85.5578 30.5564L85.2624 30.5054C84.3111 30.3526 83.3415 30.3526 82.3901 30.5054L82.0896 30.5564L80.4651 27.8674L80.1595 27.9591C80.0507 27.9949 79.9323 27.9867 79.8294 27.9363C79.7266 27.8858 79.6477 27.7971 79.6095 27.6891C79.5885 27.6334 79.5788 27.5739 79.581 27.5143C79.5832 27.4548 79.5973 27.3962 79.6225 27.3422C79.6476 27.2881 79.6833 27.2396 79.7274 27.1995C79.7715 27.1594 79.8232 27.1285 79.8794 27.1086C80.1035 27.0373 80.3327 26.9711 80.5567 26.91L80.8776 26.8234L82.5582 29.5633C83.4023 29.4378 84.2604 29.4378 85.1045 29.5633L86.78 26.8234L87.106 26.91C88.1924 27.2 89.2353 27.6333 90.2075 28.1984L90.4977 28.3665L89.7491 31.4883C90.4322 32.0084 91.042 32.6182 91.5621 33.3013L94.684 32.5527L94.852 32.843C95.418 33.8147 95.8513 34.8578 96.1405 35.9445L96.2271 36.2704L93.4872 37.9459C93.6141 38.7899 93.6141 39.6482 93.4872 40.4923L96.2271 42.1729L96.1405 42.4937C95.8513 43.582 95.418 44.6268 94.852 45.6003L94.7043 45.9058ZM83.7142 43.5937C82.6045 43.5498 81.5521 43.0892 80.7669 42.304C79.9816 41.5187 79.521 40.4663 79.4771 39.3566C79.4468 38.2651 79.8262 37.2018 80.5407 36.3762C81.2552 35.5505 82.2529 35.0222 83.3374 34.8954C83.401 34.8874 83.4656 34.8931 83.5268 34.912C83.5881 34.9308 83.6447 34.9625 83.6928 35.0049C83.741 35.0472 83.7796 35.0993 83.8061 35.1577C83.8326 35.2161 83.8464 35.2794 83.8466 35.3435C83.8461 35.4518 83.8059 35.5562 83.7337 35.6369C83.6614 35.7176 83.5621 35.769 83.4545 35.7815C82.6998 35.8676 81.9943 36.199 81.4462 36.7249C80.8982 37.2508 80.5379 37.942 80.4208 38.6925C80.3037 39.443 80.4362 40.2112 80.7979 40.8791C81.1597 41.5469 81.7307 42.0776 82.4232 42.3895C83.1158 42.7014 83.8916 42.7774 84.6315 42.6057C85.3714 42.434 86.0344 42.0241 86.5188 41.439C87.0032 40.854 87.2822 40.1261 87.3128 39.3671C87.3434 38.6082 87.1241 37.8602 86.6884 37.238C86.6255 37.1499 86.5979 37.0413 86.6111 36.9339C86.6243 36.8264 86.6773 36.7278 86.7597 36.6574C86.8072 36.6152 86.8632 36.5836 86.9238 36.5647C86.9845 36.5457 87.0485 36.5399 87.1116 36.5476C87.1747 36.5554 87.2355 36.5764 87.2898 36.6094C87.3441 36.6423 87.3909 36.6865 87.4268 36.7389C87.8901 37.4017 88.1599 38.1802 88.206 38.9875C88.2522 39.7948 88.0729 40.5991 87.6882 41.3103C87.3036 42.0216 86.7286 42.6118 86.0277 43.0151C85.3268 43.4183 84.5276 43.6187 83.7193 43.5937H83.7142Z" fill="#F0F0F0"/>
<path d="M55.1593 88.9139L54.0746 87.1467C53.5259 87.2282 52.9681 87.2282 52.4194 87.1467L51.3347 88.9139L51.1259 88.8579C50.4228 88.6724 49.7479 88.3932 49.1193 88.0278L48.936 87.9208L49.3943 85.9958C49.4125 85.9218 49.4589 85.858 49.5237 85.8179C49.5885 85.7779 49.6664 85.765 49.7406 85.7819C49.7778 85.7908 49.8128 85.807 49.8437 85.8296C49.8746 85.8521 49.9007 85.8805 49.9206 85.9131C49.9405 85.9458 49.9537 85.982 49.9595 86.0198C49.9653 86.0576 49.9636 86.0961 49.9545 86.1333L49.598 87.6305C50.0653 87.8865 50.5587 88.0914 51.0698 88.2416L52.1291 86.5152L52.3176 86.5458C52.933 86.6476 53.561 86.6476 54.1764 86.5458L54.3648 86.5152L55.4292 88.2416C55.9376 88.0882 56.429 87.8834 56.8959 87.6305L56.4274 85.6647L56.5853 85.5476C57.0134 85.24 57.3973 84.875 57.726 84.4628C57.7708 84.4023 57.8376 84.3619 57.9121 84.3504C57.9865 84.339 58.0624 84.3574 58.1233 84.4017C58.1545 84.424 58.1811 84.4523 58.2014 84.4848C58.2216 84.5174 58.2352 84.5537 58.2414 84.5916C58.2476 84.6295 58.2461 84.6682 58.2372 84.7056C58.2283 84.7429 58.2121 84.7781 58.1895 84.8091C57.865 85.2177 57.4922 85.5853 57.0793 85.9041L57.5885 87.9412L57.4001 88.0481C56.7719 88.4144 56.0969 88.6936 55.3936 88.8782L55.1593 88.9139ZM48.5082 85.0485L48.2434 84.7277L46.2063 85.2064L46.0993 85.023C45.7406 84.3918 45.4682 83.7152 45.2896 83.0114L45.2336 82.8026L47.0008 81.7179C46.9193 81.1692 46.9193 80.6114 47.0008 80.0627L45.2336 78.978L45.2896 78.7692C45.4742 78.0658 45.7534 77.3908 46.1197 76.7626L46.2267 76.5742L48.2638 77.0835C48.5913 76.6376 48.9728 76.2339 49.3994 75.8816L49.0378 74.3538C49.0288 74.317 49.0272 74.2788 49.033 74.2413C49.0389 74.2039 49.0522 74.168 49.0721 74.1358C49.092 74.1035 49.1182 74.0756 49.149 74.0535C49.1799 74.0315 49.2148 74.0159 49.2517 74.0075C49.326 73.9906 49.4039 74.0036 49.4687 74.0436C49.5334 74.0836 49.5799 74.1474 49.598 74.2214L50.0564 76.121L49.8934 76.2381C49.3887 76.6001 48.9466 77.0422 48.5846 77.5469L48.4675 77.7048L46.5017 77.2363C46.2488 77.7032 46.044 78.1946 45.8905 78.703L47.617 79.7623L47.5864 79.9558C47.5339 80.262 47.5067 80.572 47.5049 80.8827C47.5066 81.195 47.5339 81.5067 47.5864 81.8146L47.617 82.0031L45.8905 83.0623C46.043 83.5727 46.2478 84.0659 46.5017 84.5341L48.4675 84.0605L48.5846 84.2184C48.6898 84.3692 48.8037 84.5137 48.9258 84.6513C48.976 84.7042 49.0039 84.7744 49.0039 84.8473C49.0039 84.9203 48.976 84.9905 48.9258 85.0434C48.8995 85.0724 48.8674 85.0957 48.8317 85.1118C48.796 85.1279 48.7573 85.1364 48.7181 85.1369C48.6789 85.1374 48.6401 85.1298 48.604 85.1146C48.5678 85.0994 48.5352 85.0769 48.5082 85.0485ZM60.2673 85.2064L59.5238 85.0332C59.4866 85.0243 59.4516 85.0081 59.4207 84.9855C59.3898 84.963 59.3637 84.9346 59.3438 84.902C59.324 84.8693 59.3107 84.8331 59.3049 84.7953C59.2991 84.7575 59.3008 84.719 59.3099 84.6818C59.3182 84.6449 59.3339 84.61 59.3559 84.5791C59.378 84.5483 59.4059 84.5221 59.4381 84.5022C59.4704 84.4823 59.5063 84.469 59.5437 84.4631C59.5811 84.4572 59.6194 84.4589 59.6562 84.4679L59.977 84.5443C60.233 84.0771 60.4379 83.5836 60.5881 83.0725L58.8617 82.0132L58.8923 81.8248C58.9448 81.5169 58.9721 81.2052 58.9738 80.8928C58.972 80.5822 58.9448 80.2722 58.8923 79.966L58.8617 79.7724L60.5881 78.7132C60.4369 78.204 60.232 77.7124 59.977 77.2464L58.0112 77.715L57.8941 77.5571C57.5321 77.0524 57.09 76.6103 56.5853 76.2483L56.4274 76.1311L56.8959 74.1654C56.43 73.9103 55.9384 73.7055 55.4292 73.5542L54.3648 75.2807L54.1764 75.2501C53.561 75.1483 52.933 75.1483 52.3176 75.2501L52.1291 75.2807L51.0698 73.5542L50.8712 73.6153C50.8003 73.6381 50.7233 73.6321 50.6567 73.5988C50.5901 73.5655 50.5391 73.5075 50.5147 73.4371C50.501 73.4014 50.4946 73.3633 50.496 73.325C50.4973 73.2868 50.5063 73.2492 50.5225 73.2145C50.5386 73.1798 50.5616 73.1487 50.59 73.1231C50.6184 73.0975 50.6517 73.0778 50.6879 73.0653L51.1259 72.9329L51.3347 72.882L52.4194 74.6492C52.9681 74.5677 53.5259 74.5677 54.0746 74.6492L55.1593 72.882L55.3681 72.9329C56.0709 73.1215 56.7456 73.4023 57.3746 73.7681L57.5631 73.8751L57.0538 75.9122C57.4923 76.2514 57.8859 76.645 58.2251 77.0835L60.2622 76.5742L60.3692 76.7626C60.7354 77.3908 61.0147 78.0658 61.1993 78.7692L61.2553 78.978L59.4881 80.0627C59.5696 80.6114 59.5696 81.1692 59.4881 81.7179L61.2553 82.8026L61.1993 83.0114C61.0138 83.7145 60.7346 84.3894 60.3692 85.018L60.2673 85.2064ZM53.168 83.7142C52.476 83.6668 51.8258 83.366 51.3414 82.8695C50.8571 82.373 50.5727 81.7154 50.5424 81.0225C50.5122 80.3295 50.7383 79.6497 51.1775 79.1128C51.6168 78.576 52.2384 78.2198 52.9236 78.1122C52.9644 78.108 53.0057 78.1123 53.0448 78.1249C53.0839 78.1375 53.12 78.1581 53.1506 78.1854C53.1813 78.2127 53.2059 78.2462 53.223 78.2835C53.24 78.3209 53.249 78.3614 53.2495 78.4025C53.2499 78.4731 53.2241 78.5414 53.1771 78.5941C53.13 78.6468 53.0651 78.6801 52.9949 78.6877C52.5653 78.7368 52.1592 78.9092 51.8254 79.184C51.4916 79.4588 51.2444 79.8243 51.1136 80.2364C50.9829 80.6485 50.9742 81.0896 51.0885 81.5066C51.2029 81.9236 51.4354 82.2985 51.7581 82.5863C52.0807 82.8741 52.4798 83.0624 52.9071 83.1285C53.3344 83.1945 53.7716 83.1356 54.1662 82.9587C54.5607 82.7819 54.8956 82.4946 55.1306 82.1317C55.3655 81.7687 55.4905 81.3456 55.4903 80.9132C55.4913 80.4535 55.3489 80.0049 55.0829 79.6298C55.044 79.572 55.0273 79.5021 55.0357 79.4329C55.0441 79.3637 55.0771 79.2998 55.1287 79.253C55.1594 79.2254 55.1956 79.2047 55.2349 79.1922C55.2742 79.1797 55.3157 79.1758 55.3567 79.1806C55.3977 79.1854 55.4371 79.1989 55.4725 79.2202C55.5078 79.2414 55.5382 79.27 55.5616 79.3039C55.8595 79.7324 56.0327 80.2351 56.0619 80.7562C56.0912 81.2772 55.9753 81.7961 55.7273 82.2553C55.4792 82.7144 55.1087 83.0958 54.6569 83.3569C54.2051 83.6181 53.6897 83.7488 53.168 83.7346V83.7142Z" fill="#E6E6E6"/>
<path d="M185.095 46.2572H168.513L156.8 180.323H173.382C175.709 180.278 177.94 179.383 179.653 177.807C181.366 176.231 182.443 174.083 182.681 171.767L192.912 54.8079C193.031 53.7182 192.917 52.6156 192.576 51.5737C192.235 50.5317 191.677 49.5744 190.937 48.7653C190.197 47.9562 189.294 47.3141 188.286 46.8816C187.279 46.4492 186.191 46.2363 185.095 46.2572Z" fill="#1D5BA4"/>
<path d="M181.714 46.2573H125.592C123.264 46.3009 121.033 47.1945 119.319 48.7696C117.605 50.3447 116.527 52.4925 116.287 54.808L106.056 171.767C105.938 172.856 106.053 173.958 106.394 174.999C106.734 176.04 107.292 176.997 108.03 177.806C108.768 178.615 109.67 179.258 110.676 179.692C111.682 180.126 112.768 180.341 113.863 180.323H169.98C172.304 180.274 174.53 179.377 176.24 177.801C177.95 176.226 179.025 174.08 179.264 171.767L189.495 54.808C189.614 53.7213 189.5 52.6218 189.161 51.5824C188.823 50.543 188.267 49.5874 187.531 48.7789C186.796 47.9704 185.896 47.3275 184.893 46.8928C183.89 46.4581 182.807 46.2415 181.714 46.2573Z" fill="#1D5BA4"/>
<path opacity="0.3" d="M181.714 46.2573H125.592C123.264 46.3009 121.033 47.1945 119.319 48.7696C117.605 50.3447 116.527 52.4925 116.287 54.808L106.056 171.767C105.938 172.856 106.053 173.958 106.394 174.999C106.734 176.04 107.292 176.997 108.03 177.806C108.768 178.615 109.67 179.258 110.676 179.692C111.682 180.126 112.768 180.341 113.863 180.323H169.98C172.304 180.274 174.53 179.377 176.24 177.801C177.95 176.226 179.025 174.08 179.264 171.767L189.495 54.808C189.614 53.7213 189.5 52.6218 189.161 51.5824C188.823 50.543 188.267 49.5874 187.531 48.7789C186.796 47.9704 185.896 47.3275 184.893 46.8928C183.89 46.4581 182.807 46.2415 181.714 46.2573Z" fill="white"/>
<path opacity="0.4" d="M181.474 48.9971H166.675C166.234 49.0007 165.804 49.1366 165.44 49.3872C165.077 49.6378 164.798 49.9915 164.638 50.4027C164.054 51.9132 163.033 53.2154 161.706 54.1434C160.379 55.0713 158.806 55.5828 157.187 55.6126H148.458C146.933 55.6433 145.445 55.1414 144.251 54.1932C143.056 53.245 142.23 51.91 141.914 50.418C141.83 50.0143 141.607 49.6529 141.284 49.3962C140.961 49.1395 140.559 49.0037 140.147 49.0124H125.352C123.771 49.0404 122.254 49.6472 121.089 50.718C119.925 51.7887 119.193 53.2493 119.032 54.8232L108.796 171.783C108.714 172.523 108.791 173.273 109.021 173.981C109.252 174.69 109.631 175.341 110.133 175.891C110.636 176.442 111.249 176.879 111.934 177.173C112.618 177.467 113.358 177.613 114.103 177.599H170.224C171.807 177.569 173.323 176.962 174.488 175.89C175.652 174.818 176.384 173.357 176.544 171.783L186.776 54.8232C186.859 54.0823 186.784 53.3321 186.554 52.6228C186.324 51.9134 185.946 51.2612 185.444 50.7098C184.942 50.1583 184.329 49.7203 183.644 49.4249C182.959 49.1296 182.22 48.9838 181.474 48.9971Z" fill="white"/>
<path d="M167.49 112.549H128.214C127.945 112.554 127.677 112.501 127.429 112.394C127.181 112.287 126.959 112.128 126.777 111.929C126.595 111.73 126.457 111.494 126.373 111.237C126.289 110.981 126.26 110.709 126.289 110.441L126.488 108.19C126.546 107.619 126.812 107.089 127.234 106.701C127.656 106.313 128.206 106.092 128.78 106.081H168.06C168.33 106.077 168.598 106.13 168.846 106.237C169.093 106.344 169.316 106.502 169.498 106.702C169.68 106.901 169.817 107.137 169.901 107.393C169.985 107.65 170.014 107.921 169.985 108.19L169.791 110.441C169.732 111.013 169.465 111.543 169.04 111.932C168.616 112.32 168.065 112.54 167.49 112.549Z" fill="white"/>
<path d="M166.644 122.225H127.364C127.094 122.23 126.827 122.177 126.579 122.07C126.331 121.963 126.109 121.805 125.928 121.605C125.746 121.406 125.609 121.17 125.525 120.913C125.442 120.657 125.414 120.385 125.444 120.117L125.638 117.866C125.697 117.296 125.963 116.767 126.385 116.378C126.807 115.99 127.356 115.769 127.929 115.758H167.209C167.479 115.753 167.747 115.806 167.995 115.913C168.243 116.02 168.465 116.178 168.647 116.378C168.829 116.577 168.967 116.813 169.051 117.07C169.135 117.326 169.163 117.598 169.135 117.866L168.936 120.117C168.876 120.687 168.611 121.216 168.189 121.605C167.767 121.993 167.217 122.214 166.644 122.225Z" fill="white"/>
<path opacity="0.1" d="M155.557 51.187C155.493 51.8208 155.198 52.4088 154.728 52.8396C154.259 53.2704 153.648 53.5141 153.011 53.5246C152.712 53.53 152.414 53.4715 152.139 53.3531C151.864 53.2347 151.618 53.0591 151.416 52.838C151.214 52.6168 151.061 52.3552 150.969 52.0705C150.876 51.7859 150.844 51.4847 150.877 51.187C150.942 50.5532 151.237 49.9652 151.706 49.5344C152.175 49.1036 152.786 48.8598 153.423 48.8494C153.723 48.844 154.02 48.9025 154.295 49.0209C154.57 49.1393 154.817 49.3149 155.019 49.536C155.22 49.7572 155.373 50.0188 155.466 50.3035C155.559 50.5881 155.59 50.8893 155.557 51.187Z" fill="black"/>
<path opacity="0.1" d="M154.498 51.187C154.462 51.533 154.301 51.8539 154.045 52.0893C153.789 52.3247 153.455 52.4585 153.108 52.4653C152.944 52.4685 152.781 52.4367 152.631 52.372C152.48 52.3073 152.345 52.2113 152.235 52.0903C152.125 51.9693 152.041 51.8261 151.991 51.6703C151.94 51.5146 151.923 51.3498 151.941 51.187C151.976 50.8406 152.137 50.5191 152.394 50.2835C152.65 50.0478 152.984 49.9145 153.332 49.9087C153.495 49.9064 153.657 49.9387 153.808 50.0037C153.958 50.0686 154.092 50.1647 154.202 50.2855C154.313 50.4063 154.396 50.5491 154.447 50.7046C154.498 50.86 154.515 51.0244 154.498 51.187Z" fill="black"/>
<g opacity="0.8">
<path d="M174.563 55.088C174.475 55.0893 174.388 55.0718 174.308 55.0369C174.227 55.0019 174.155 54.9502 174.095 54.8852C174.036 54.8202 173.992 54.7434 173.964 54.6599C173.937 54.5763 173.928 54.4879 173.937 54.4005L174.049 53.1477C174.068 52.9626 174.154 52.7908 174.291 52.665C174.428 52.5391 174.606 52.4681 174.793 52.4653C174.88 52.4641 174.967 52.4815 175.047 52.5161C175.127 52.5508 175.199 52.602 175.258 52.6664C175.317 52.7308 175.362 52.807 175.39 52.8899C175.418 52.9729 175.428 53.0607 175.419 53.1477L175.307 54.4005C175.288 54.5861 175.202 54.7585 175.065 54.8852C174.928 55.0118 174.75 55.084 174.563 55.088Z" fill="white"/>
<path d="M180.043 55.088C179.955 55.0893 179.868 55.0718 179.787 55.0369C179.707 55.0019 179.634 54.9502 179.575 54.8852C179.516 54.8202 179.471 54.7434 179.444 54.6599C179.417 54.5763 179.407 54.4879 179.417 54.4005L179.676 51.462C179.695 51.2769 179.781 51.1051 179.918 50.9793C180.055 50.8535 180.234 50.7824 180.42 50.7796C180.507 50.7785 180.594 50.7958 180.674 50.8304C180.755 50.8651 180.827 50.9163 180.886 50.9807C180.945 51.0451 180.99 51.1213 181.017 51.2042C181.045 51.2872 181.055 51.375 181.046 51.462L180.787 54.4005C180.768 54.5861 180.682 54.7585 180.545 54.8852C180.408 55.0118 180.23 55.084 180.043 55.088Z" fill="white"/>
<path d="M177.303 55.088C177.215 55.0893 177.128 55.0718 177.047 55.0369C176.967 55.0019 176.895 54.9502 176.835 54.8852C176.776 54.8202 176.731 54.7434 176.704 54.6599C176.677 54.5763 176.667 54.4879 176.677 54.4005L176.86 52.3074C176.879 52.1209 176.966 51.9478 177.104 51.8211C177.242 51.6943 177.421 51.6227 177.609 51.6199C177.697 51.6186 177.783 51.636 177.864 51.671C177.944 51.706 178.016 51.7578 178.075 51.8229C178.134 51.888 178.178 51.9649 178.205 52.0484C178.232 52.132 178.24 52.2203 178.23 52.3074L178.047 54.4005C178.028 54.5861 177.942 54.7585 177.805 54.8852C177.668 55.0118 177.49 55.084 177.303 55.088Z" fill="white"/>
</g>
<g opacity="0.8">
<path d="M127.644 55.088H124.201C124.152 55.0891 124.103 55.0795 124.057 55.06C124.012 55.0404 123.971 55.0113 123.937 54.9746C123.904 54.9379 123.879 54.8945 123.864 54.8473C123.849 54.8001 123.844 54.7502 123.85 54.701L124.008 52.8523C124.019 52.7474 124.068 52.6501 124.146 52.5788C124.224 52.5076 124.325 52.4672 124.431 52.4653H127.873C127.923 52.4642 127.972 52.4738 128.017 52.4934C128.063 52.5129 128.104 52.542 128.137 52.5787C128.17 52.6154 128.195 52.6588 128.211 52.706C128.226 52.7532 128.23 52.8031 128.225 52.8523L128.062 54.701C128.053 54.8059 128.005 54.9038 127.928 54.9754C127.851 55.047 127.749 55.0871 127.644 55.088Z" fill="white"/>
<path d="M129.238 54.5838C129.188 54.5848 129.139 54.5752 129.093 54.5557C129.047 54.5362 129.006 54.5072 128.973 54.4706C128.939 54.434 128.913 54.3907 128.898 54.3435C128.882 54.2963 128.877 54.2463 128.882 54.1968L128.958 53.3514C128.968 53.246 129.017 53.1481 129.095 53.0766C129.173 53.0051 129.275 52.9651 129.381 52.9643C129.43 52.9633 129.479 52.9728 129.525 52.9924C129.57 53.012 129.611 53.0411 129.645 53.0778C129.678 53.1145 129.703 53.1579 129.718 53.2051C129.733 53.2523 129.738 53.3022 129.732 53.3514L129.661 54.1968C129.65 54.3017 129.6 54.399 129.523 54.4703C129.445 54.5416 129.344 54.5819 129.238 54.5838Z" fill="white"/>
</g>
<path d="M161.018 97.7451C167.871 91.1847 168.555 80.777 162.545 74.4989C156.535 68.2208 146.107 68.4497 139.254 75.0101C132.401 81.5705 131.717 91.9781 137.727 98.2562C143.737 104.534 154.165 104.305 161.018 97.7451Z" fill="white"/>
<path d="M150.195 85.7513C145.876 85.7513 142.225 87.3963 141.914 90.9663L141.568 94.9335H157.218L157.564 90.9663C157.874 87.3963 154.518 85.7513 150.195 85.7513Z" fill="#1D5BA4"/>
<path d="M150.337 84.1166C152.344 84.1166 153.271 82.492 153.444 80.4854C153.617 78.4789 152.98 76.8543 150.974 76.8543C148.967 76.8543 148.046 78.484 147.867 80.4854C147.689 82.4869 148.331 84.1166 150.337 84.1166Z" fill="#1D5BA4"/>
<path d="M165.697 109.178C164.633 109.178 163.731 109.585 163.66 110.466L163.573 111.449H167.439L167.525 110.466C167.596 109.585 166.766 109.178 165.697 109.178Z" fill="#1D5BA4"/>
<path d="M165.733 108.776C166.242 108.776 166.456 108.373 166.502 107.879C166.547 107.385 166.384 106.983 165.89 106.983C165.396 106.983 165.167 107.385 165.121 107.879C165.076 108.373 165.239 108.776 165.733 108.776Z" fill="#1D5BA4"/>
<path d="M153.8 131.902H138.522C138.108 131.909 137.697 131.828 137.316 131.665C136.935 131.501 136.594 131.258 136.315 130.952C136.035 130.646 135.824 130.284 135.695 129.89C135.567 129.496 135.523 129.08 135.568 128.668C135.659 127.792 136.067 126.98 136.715 126.384C137.363 125.788 138.207 125.45 139.087 125.434H154.366C154.78 125.427 155.19 125.509 155.571 125.673C155.951 125.837 156.292 126.08 156.571 126.385C156.85 126.691 157.062 127.053 157.191 127.446C157.319 127.84 157.363 128.256 157.319 128.668C157.23 129.544 156.822 130.357 156.174 130.953C155.525 131.549 154.681 131.886 153.8 131.902Z" fill="#1D5BA4"/>
<path d="M151.952 167.968H135.599C135.16 167.98 134.724 167.897 134.32 167.726C133.916 167.554 133.554 167.297 133.259 166.973C132.963 166.649 132.74 166.264 132.606 165.847C132.472 165.429 132.43 164.987 132.482 164.551L133.526 152.624C133.62 151.699 134.049 150.84 134.733 150.21C135.417 149.58 136.309 149.223 137.239 149.207H153.597C154.034 149.199 154.468 149.285 154.87 149.458C155.272 149.631 155.632 149.888 155.927 150.211C156.222 150.534 156.445 150.917 156.58 151.333C156.716 151.749 156.761 152.189 156.713 152.624L155.669 164.551C155.574 165.476 155.143 166.335 154.458 166.964C153.773 167.594 152.882 167.951 151.952 167.968Z" fill="#1D5BA4"/>
<g opacity="0.6">
<path d="M146.91 155.634C146.937 155.373 146.908 155.11 146.825 154.862C146.743 154.614 146.608 154.386 146.431 154.193C146.254 154.001 146.038 153.848 145.798 153.745C145.557 153.642 145.297 153.592 145.036 153.597C144.479 153.605 143.944 153.816 143.532 154.191C143.12 154.567 142.86 155.08 142.8 155.634C142.768 155.944 142.814 156.257 142.934 156.544C143.054 156.831 143.244 157.084 143.488 157.279L143.131 161.388C143.114 161.544 143.13 161.702 143.178 161.851C143.226 162 143.306 162.137 143.412 162.252C143.517 162.368 143.646 162.46 143.79 162.522C143.934 162.584 144.09 162.614 144.246 162.611C144.578 162.604 144.896 162.476 145.14 162.25C145.384 162.025 145.537 161.719 145.57 161.388L145.932 157.279C146.205 157.092 146.434 156.848 146.603 156.564C146.772 156.28 146.876 155.963 146.91 155.634Z" fill="white"/>
</g>
<path d="M153.739 151.692H151.631L152.14 145.789C152.229 144.97 152.143 144.142 151.887 143.358C151.631 142.575 151.212 141.855 150.656 141.246C150.101 140.637 149.422 140.154 148.666 139.827C147.909 139.501 147.092 139.339 146.268 139.352C144.517 139.386 142.839 140.06 141.55 141.246C140.261 142.431 139.451 144.047 139.271 145.789L138.761 151.692H136.653L137.162 145.789C137.4 143.478 138.475 141.333 140.185 139.759C141.896 138.186 144.123 137.293 146.446 137.249C147.54 137.23 148.625 137.445 149.629 137.877C150.634 138.31 151.535 138.952 152.272 139.76C153.01 140.567 153.567 141.523 153.907 142.562C154.246 143.602 154.361 144.702 154.243 145.789L153.739 151.692Z" fill="#1D5BA4"/>
<path d="M165.957 118.217L166.023 117.642C166.037 117.509 166.022 117.374 165.98 117.247C165.938 117.119 165.869 117.002 165.779 116.903C165.689 116.804 165.578 116.725 165.455 116.672C165.332 116.618 165.2 116.591 165.065 116.593C164.78 116.599 164.507 116.709 164.297 116.902C164.087 117.095 163.954 117.358 163.925 117.642L163.874 118.207C163.76 118.21 163.651 118.255 163.567 118.333C163.484 118.411 163.432 118.516 163.42 118.63L163.288 120.158C163.281 120.211 163.286 120.265 163.303 120.317C163.319 120.368 163.346 120.415 163.383 120.455C163.419 120.494 163.463 120.526 163.513 120.547C163.563 120.567 163.616 120.577 163.67 120.575H165.768C165.882 120.573 165.991 120.53 166.074 120.453C166.158 120.376 166.21 120.271 166.221 120.158L166.354 118.63C166.358 118.576 166.351 118.522 166.333 118.471C166.315 118.42 166.286 118.373 166.248 118.334C166.211 118.295 166.165 118.265 166.115 118.244C166.065 118.224 166.011 118.215 165.957 118.217ZM165.004 116.863C165.105 116.862 165.206 116.882 165.298 116.922C165.391 116.962 165.474 117.021 165.542 117.096C165.611 117.17 165.662 117.258 165.694 117.354C165.726 117.45 165.738 117.552 165.728 117.652L165.677 118.217H164.098L164.149 117.652C164.171 117.439 164.27 117.241 164.428 117.096C164.585 116.951 164.79 116.868 165.004 116.863Z" fill="#1D5BA4"/>
<path d="M134.372 118.823L133.638 118.671C133.618 118.666 133.599 118.658 133.582 118.645C133.565 118.632 133.552 118.616 133.543 118.597C133.533 118.579 133.528 118.558 133.528 118.537C133.528 118.517 133.533 118.496 133.541 118.477L133.847 117.754C133.86 117.723 133.861 117.688 133.85 117.656C133.84 117.624 133.818 117.597 133.79 117.579C133.761 117.561 133.727 117.554 133.694 117.559C133.66 117.564 133.63 117.581 133.608 117.606L133.053 118.177C133.039 118.194 133.022 118.207 133.003 118.217C132.983 118.226 132.962 118.231 132.94 118.231C132.919 118.231 132.898 118.226 132.878 118.217C132.859 118.207 132.842 118.194 132.828 118.177L132.375 117.606C132.278 117.484 132.07 117.606 132.105 117.754L132.284 118.477C132.289 118.498 132.29 118.52 132.286 118.542C132.282 118.563 132.274 118.584 132.262 118.602C132.25 118.62 132.235 118.635 132.216 118.647C132.198 118.659 132.178 118.667 132.156 118.671L131.397 118.823C131.234 118.854 131.214 119.083 131.372 119.114L132.105 119.267C132.126 119.27 132.145 119.279 132.162 119.292C132.178 119.305 132.191 119.321 132.2 119.34C132.209 119.359 132.214 119.38 132.213 119.4C132.212 119.421 132.207 119.442 132.197 119.46L131.902 120.188C131.889 120.22 131.888 120.254 131.898 120.286C131.909 120.318 131.93 120.346 131.959 120.363C131.987 120.381 132.022 120.388 132.055 120.383C132.088 120.378 132.119 120.361 132.141 120.336L132.696 119.766C132.71 119.75 132.728 119.738 132.747 119.729C132.766 119.721 132.787 119.717 132.808 119.717C132.829 119.717 132.85 119.721 132.869 119.729C132.888 119.738 132.906 119.75 132.92 119.766L133.373 120.336C133.47 120.458 133.679 120.336 133.638 120.188L133.46 119.465C133.452 119.422 133.462 119.378 133.487 119.341C133.512 119.305 133.549 119.28 133.592 119.272L134.351 119.119C134.509 119.083 134.529 118.854 134.372 118.823Z" fill="#263238"/>
<path d="M139.189 118.823L138.456 118.671C138.436 118.666 138.416 118.658 138.4 118.645C138.383 118.632 138.37 118.616 138.36 118.597C138.351 118.579 138.346 118.558 138.346 118.537C138.346 118.517 138.35 118.496 138.359 118.477L138.665 117.754C138.677 117.723 138.679 117.688 138.668 117.656C138.658 117.624 138.636 117.597 138.608 117.579C138.579 117.561 138.545 117.554 138.511 117.559C138.478 117.564 138.448 117.581 138.425 117.606L137.87 118.177C137.857 118.194 137.84 118.207 137.821 118.217C137.801 118.226 137.78 118.231 137.758 118.231C137.737 118.231 137.715 118.226 137.696 118.217C137.677 118.207 137.66 118.194 137.646 118.177L137.193 117.606C137.096 117.484 136.887 117.606 136.928 117.754L137.106 118.477C137.111 118.499 137.111 118.521 137.107 118.542C137.102 118.564 137.094 118.584 137.081 118.602C137.069 118.62 137.053 118.635 137.035 118.647C137.016 118.659 136.996 118.667 136.974 118.671L136.215 118.823C136.052 118.854 136.032 119.083 136.19 119.114L136.923 119.267C136.943 119.271 136.963 119.279 136.979 119.292C136.996 119.305 137.009 119.321 137.018 119.34C137.028 119.358 137.033 119.379 137.033 119.4C137.033 119.421 137.029 119.441 137.02 119.46L136.714 120.183C136.702 120.214 136.7 120.249 136.711 120.281C136.721 120.313 136.743 120.341 136.771 120.358C136.8 120.376 136.834 120.383 136.868 120.378C136.901 120.373 136.931 120.356 136.954 120.331L137.509 119.761C137.523 119.745 137.54 119.733 137.56 119.724C137.579 119.716 137.6 119.712 137.621 119.712C137.642 119.712 137.663 119.716 137.682 119.724C137.701 119.733 137.718 119.745 137.733 119.761L138.186 120.331C138.283 120.453 138.492 120.331 138.456 120.183L138.278 119.46C138.273 119.439 138.273 119.417 138.277 119.396C138.281 119.375 138.289 119.355 138.301 119.337C138.313 119.319 138.328 119.303 138.346 119.291C138.364 119.279 138.384 119.271 138.405 119.267L139.164 119.114C139.327 119.083 139.347 118.854 139.189 118.823Z" fill="#263238"/>
<path d="M144.007 118.823L143.279 118.671C143.258 118.668 143.238 118.659 143.221 118.647C143.204 118.634 143.19 118.618 143.18 118.599C143.171 118.58 143.166 118.559 143.166 118.538C143.167 118.517 143.172 118.496 143.182 118.477L143.488 117.754C143.507 117.722 143.513 117.683 143.504 117.646C143.495 117.609 143.472 117.578 143.439 117.558C143.407 117.538 143.368 117.532 143.331 117.542C143.294 117.551 143.263 117.574 143.243 117.606L142.693 118.177C142.679 118.194 142.662 118.207 142.642 118.217C142.622 118.226 142.6 118.231 142.578 118.231C142.557 118.231 142.535 118.226 142.515 118.217C142.495 118.207 142.478 118.194 142.464 118.177L142.011 117.606C141.914 117.484 141.705 117.606 141.746 117.754L141.924 118.477C141.929 118.498 141.929 118.52 141.925 118.541C141.921 118.562 141.913 118.583 141.901 118.601C141.889 118.619 141.874 118.634 141.856 118.646C141.838 118.658 141.818 118.666 141.797 118.671L141.038 118.823C140.875 118.854 140.855 119.083 141.012 119.114L141.741 119.267C141.761 119.271 141.78 119.279 141.797 119.292C141.813 119.305 141.827 119.321 141.836 119.34C141.846 119.358 141.85 119.379 141.851 119.4C141.851 119.421 141.846 119.441 141.838 119.46L141.532 120.183C141.512 120.216 141.506 120.255 141.516 120.291C141.525 120.328 141.548 120.36 141.58 120.379C141.613 120.399 141.652 120.405 141.688 120.396C141.725 120.387 141.757 120.363 141.776 120.331L142.326 119.761C142.341 119.745 142.358 119.733 142.377 119.724C142.397 119.716 142.417 119.712 142.438 119.712C142.459 119.712 142.48 119.716 142.5 119.724C142.519 119.733 142.536 119.745 142.55 119.761L143.009 120.331C143.106 120.453 143.314 120.331 143.274 120.183L143.095 119.46C143.088 119.418 143.097 119.374 143.12 119.338C143.144 119.302 143.181 119.276 143.223 119.267L143.982 119.114C144.124 119.083 144.165 118.854 144.007 118.823Z" fill="#263238"/>
<path d="M148.83 118.823L148.096 118.671C148.076 118.666 148.057 118.658 148.04 118.645C148.024 118.632 148.01 118.616 148.001 118.597C147.992 118.579 147.987 118.558 147.986 118.537C147.986 118.517 147.991 118.496 148 118.477L148.305 117.754C148.318 117.723 148.319 117.688 148.309 117.656C148.298 117.624 148.277 117.597 148.248 117.579C148.219 117.561 148.185 117.554 148.152 117.559C148.119 117.564 148.088 117.581 148.066 117.606L147.511 118.177C147.497 118.194 147.48 118.207 147.461 118.217C147.442 118.226 147.42 118.231 147.399 118.231C147.377 118.231 147.356 118.226 147.336 118.217C147.317 118.207 147.3 118.194 147.287 118.177L146.833 117.606C146.737 117.484 146.528 117.606 146.564 117.754L146.742 118.477C146.747 118.498 146.748 118.52 146.744 118.542C146.74 118.563 146.732 118.584 146.72 118.602C146.708 118.62 146.693 118.635 146.675 118.647C146.656 118.659 146.636 118.667 146.614 118.671L145.856 118.823C145.693 118.854 145.672 119.083 145.856 119.114L146.589 119.267C146.609 119.27 146.629 119.279 146.645 119.292C146.662 119.305 146.675 119.321 146.684 119.34C146.693 119.359 146.697 119.38 146.697 119.4C146.696 119.421 146.691 119.442 146.681 119.46L146.38 120.183C146.367 120.214 146.366 120.249 146.377 120.281C146.387 120.313 146.409 120.341 146.437 120.358C146.466 120.376 146.5 120.383 146.533 120.378C146.567 120.373 146.597 120.356 146.62 120.331L147.175 119.761C147.189 119.745 147.206 119.733 147.226 119.724C147.245 119.716 147.266 119.712 147.287 119.712C147.308 119.712 147.329 119.716 147.348 119.724C147.367 119.733 147.384 119.745 147.399 119.761L147.852 120.331C147.949 120.453 148.158 120.331 148.117 120.183L147.939 119.46C147.931 119.417 147.941 119.373 147.965 119.336C147.99 119.3 148.028 119.275 148.071 119.267L148.83 119.114C148.967 119.083 148.988 118.854 148.83 118.823Z" fill="#263238"/>
<path d="M153.647 118.823L152.914 118.671C152.894 118.666 152.875 118.658 152.858 118.645C152.841 118.632 152.828 118.616 152.819 118.597C152.809 118.579 152.804 118.558 152.804 118.537C152.804 118.517 152.808 118.496 152.817 118.477L153.123 117.754C153.136 117.723 153.137 117.688 153.126 117.656C153.116 117.624 153.094 117.597 153.066 117.579C153.037 117.561 153.003 117.554 152.97 117.559C152.936 117.564 152.906 117.581 152.884 117.606L152.328 118.177C152.315 118.194 152.298 118.207 152.279 118.217C152.259 118.226 152.238 118.231 152.216 118.231C152.195 118.231 152.174 118.226 152.154 118.217C152.135 118.207 152.118 118.194 152.104 118.177L151.651 117.606C151.554 117.484 151.346 117.606 151.386 117.754L151.565 118.477C151.569 118.499 151.569 118.521 151.565 118.542C151.56 118.564 151.552 118.584 151.539 118.602C151.527 118.62 151.511 118.635 151.493 118.647C151.474 118.659 151.454 118.667 151.432 118.671L150.673 118.823C150.51 118.854 150.49 119.083 150.648 119.114L151.381 119.267C151.402 119.271 151.421 119.279 151.437 119.292C151.454 119.305 151.467 119.321 151.477 119.34C151.486 119.358 151.491 119.379 151.491 119.4C151.491 119.421 151.487 119.441 151.478 119.46L151.172 120.183C151.16 120.214 151.158 120.249 151.169 120.281C151.179 120.313 151.201 120.341 151.23 120.358C151.258 120.376 151.292 120.383 151.326 120.378C151.359 120.373 151.39 120.356 151.412 120.331L151.967 119.761C151.981 119.745 151.999 119.733 152.018 119.724C152.037 119.716 152.058 119.712 152.079 119.712C152.1 119.712 152.121 119.716 152.14 119.724C152.159 119.733 152.177 119.745 152.191 119.761L152.644 120.331C152.741 120.453 152.95 120.331 152.914 120.183L152.736 119.46C152.731 119.439 152.731 119.417 152.735 119.396C152.739 119.375 152.747 119.355 152.759 119.337C152.771 119.319 152.786 119.303 152.804 119.291C152.822 119.279 152.842 119.271 152.863 119.267L153.622 119.114C153.8 119.083 153.8 118.854 153.647 118.823Z" fill="#263238"/>
<path d="M158.465 118.823L157.732 118.671C157.711 118.667 157.692 118.658 157.676 118.645C157.659 118.633 157.646 118.616 157.637 118.597C157.628 118.578 157.624 118.558 157.624 118.537C157.625 118.516 157.63 118.496 157.64 118.477L157.946 117.754C157.956 117.738 157.962 117.72 157.965 117.702C157.968 117.683 157.967 117.664 157.962 117.646C157.958 117.628 157.95 117.611 157.939 117.596C157.927 117.58 157.913 117.568 157.897 117.558C157.881 117.548 157.864 117.542 157.845 117.539C157.826 117.536 157.808 117.537 157.789 117.542C157.771 117.546 157.754 117.554 157.739 117.565C157.724 117.576 157.711 117.59 157.701 117.606L157.151 118.177C157.137 118.194 157.12 118.207 157.1 118.217C157.08 118.226 157.059 118.231 157.037 118.231C157.015 118.231 156.993 118.226 156.973 118.217C156.953 118.207 156.936 118.194 156.922 118.177L156.469 117.606C156.372 117.484 156.163 117.606 156.204 117.754L156.382 118.477C156.387 118.498 156.387 118.52 156.383 118.541C156.379 118.562 156.371 118.583 156.359 118.601C156.347 118.618 156.332 118.634 156.314 118.646C156.296 118.658 156.276 118.666 156.255 118.671L155.496 118.823C155.333 118.854 155.313 119.083 155.471 119.114L156.199 119.267C156.219 119.271 156.239 119.279 156.255 119.292C156.272 119.305 156.285 119.321 156.294 119.34C156.304 119.358 156.309 119.379 156.309 119.4C156.309 119.421 156.305 119.441 156.296 119.46L155.99 120.183C155.971 120.216 155.965 120.255 155.974 120.291C155.983 120.328 156.006 120.36 156.039 120.379C156.071 120.399 156.11 120.405 156.147 120.396C156.183 120.387 156.215 120.363 156.235 120.331L156.785 119.761C156.799 119.745 156.816 119.733 156.836 119.724C156.855 119.716 156.876 119.712 156.897 119.712C156.918 119.712 156.939 119.716 156.958 119.724C156.977 119.733 156.994 119.745 157.009 119.761L157.462 120.331C157.486 120.358 157.518 120.375 157.553 120.382C157.588 120.388 157.624 120.382 157.656 120.364C157.687 120.347 157.712 120.32 157.725 120.287C157.739 120.254 157.742 120.218 157.732 120.183L157.554 119.46C157.546 119.418 157.555 119.374 157.579 119.338C157.602 119.302 157.639 119.276 157.681 119.267L158.44 119.114C158.603 119.083 158.623 118.854 158.465 118.823Z" fill="#263238"/>
<path d="M146.849 108.276H137.804C137.526 108.281 137.26 108.387 137.056 108.575C136.851 108.763 136.722 109.019 136.694 109.295C136.679 109.425 136.693 109.556 136.733 109.681C136.774 109.805 136.84 109.919 136.928 110.016C137.017 110.112 137.125 110.189 137.245 110.24C137.365 110.291 137.495 110.316 137.626 110.313H146.67C146.948 110.309 147.214 110.203 147.419 110.015C147.623 109.827 147.752 109.571 147.781 109.295C147.794 109.165 147.78 109.034 147.74 108.91C147.699 108.786 147.632 108.672 147.544 108.576C147.456 108.48 147.348 108.403 147.229 108.351C147.109 108.3 146.979 108.274 146.849 108.276Z" fill="#263238"/>
<path d="M156.036 108.276H150.785C150.508 108.281 150.243 108.388 150.039 108.575C149.835 108.763 149.708 109.019 149.68 109.295C149.666 109.424 149.679 109.556 149.719 109.68C149.759 109.804 149.826 109.918 149.913 110.014C150.001 110.11 150.108 110.187 150.228 110.239C150.348 110.29 150.477 110.316 150.607 110.314H155.837C156.114 110.309 156.38 110.202 156.584 110.014C156.787 109.827 156.915 109.571 156.943 109.295C156.957 109.167 156.944 109.038 156.905 108.915C156.866 108.793 156.802 108.68 156.716 108.584C156.631 108.488 156.526 108.411 156.409 108.358C156.292 108.305 156.165 108.277 156.036 108.276Z" fill="#263238"/>
<path d="M162.967 154.442C159.77 155.66 156.884 157.573 154.518 160.044C153.082 158.929 151.369 158.224 149.563 158.007L149.324 157.971L149.222 159.173L149.354 159.224C151.335 159.953 153.01 161.332 154.106 163.135L154.279 163.421L154.467 163.115C156.576 159.748 159.553 157.011 163.084 155.191L163.201 155.13L163.268 154.335L162.967 154.442Z" fill="#263238"/>
<path opacity="0.2" d="M117.459 54.1713C116.81 55.3046 116.41 56.5634 116.287 57.8636L108.704 144.552H132.172L136.887 126.478L135.334 108.399L140.05 90.3246L138.522 72.2505L143.238 54.1713H117.459Z" fill="black"/>
<path d="M136.46 67.1578L141.175 49.0786H81.8299L77.1191 67.1578L78.6673 85.2319L73.9566 103.306L75.5047 121.385L70.794 139.459H130.134L134.85 121.385L133.297 103.306L138.013 85.2319L136.46 67.1578Z" fill="#1D5BA4"/>
<path opacity="0.7" d="M136.46 67.1578L141.175 49.0786H81.8299L77.1191 67.1578L78.6673 85.2319L73.9566 103.306L75.5047 121.385L70.794 139.459H130.134L134.85 121.385L133.297 103.306L138.013 85.2319L136.46 67.1578Z" fill="white"/>
<path opacity="0.5" d="M136.46 67.1578H77.1191L81.8299 49.0786H141.175L136.46 67.1578Z" fill="white"/>
<path opacity="0.5" d="M133.297 103.306H73.9565L78.6673 85.2318H138.013L133.297 103.306Z" fill="white"/>
<path opacity="0.5" d="M130.134 139.459H70.7889L75.5047 121.385H134.85L130.134 139.459Z" fill="white"/>
<path opacity="0.2" d="M128.52 74.7103C127.911 74.8862 127.28 74.972 126.646 74.9649C125.787 75.0029 124.931 74.828 124.156 74.4556C124.015 74.3725 123.855 74.3285 123.692 74.3283C123.543 74.3304 123.396 74.3688 123.264 74.4403H123.234C123.006 74.568 122.763 74.6656 122.511 74.7306C121.941 74.8811 121.353 74.9547 120.764 74.9496C120.586 74.9496 120.412 74.9496 120.255 74.9496C119.797 74.9203 119.345 74.84 118.905 74.7103C118.84 74.691 118.774 74.6791 118.706 74.6746C118.594 74.6655 118.482 74.6796 118.375 74.7161C118.269 74.7526 118.171 74.8108 118.089 74.8868C118.006 74.9629 117.94 75.0552 117.895 75.158C117.849 75.2609 117.826 75.372 117.825 75.4844V76.0344H94.7247C94.3003 76.0344 93.88 76.118 93.4879 76.2806C93.0959 76.4432 92.7397 76.6815 92.4398 76.9819C92.1399 77.2822 91.9022 77.6388 91.7402 78.0311C91.5783 78.4234 91.4953 78.8438 91.4959 79.2682V82.5225C91.4946 82.9474 91.5771 83.3683 91.7388 83.7612C91.9004 84.1541 92.1381 84.5113 92.438 84.8122C92.738 85.1131 93.0943 85.3518 93.4867 85.5147C93.8791 85.6776 94.2998 85.7615 94.7247 85.7615H120.968H121.141C121.421 85.9957 121.716 86.23 122.032 86.4694C122.348 86.7087 122.796 87.0397 123.208 87.3351C123.349 87.437 123.518 87.4919 123.692 87.4919C123.866 87.4919 124.035 87.437 124.176 87.3351C127.476 84.9415 129.595 83.2915 129.595 78.759V75.4996C129.596 75.3693 129.567 75.2404 129.509 75.1238C129.45 75.0071 129.365 74.906 129.26 74.8288C129.155 74.7517 129.033 74.7006 128.904 74.68C128.776 74.6594 128.644 74.6698 128.52 74.7103Z" fill="black"/>
<path d="M120.463 74.2468H94.2256C92.4396 74.2468 90.9917 75.6947 90.9917 77.4807V80.735C90.9917 82.521 92.4396 83.9689 94.2256 83.9689H120.463C122.249 83.9689 123.697 82.521 123.697 80.735V77.4807C123.697 75.6947 122.249 74.2468 120.463 74.2468Z" fill="#1D5BA4"/>
<path d="M126.142 73.1723C125.282 73.209 124.427 73.0342 123.651 72.663C123.513 72.5783 123.355 72.5335 123.193 72.5335C123.031 72.5335 122.873 72.5783 122.735 72.663C121.957 73.0348 121.1 73.2097 120.239 73.1723C119.605 73.179 118.974 73.0932 118.365 72.9176C118.242 72.8764 118.112 72.8649 117.984 72.8843C117.856 72.9036 117.734 72.9532 117.629 73.0288C117.524 73.1045 117.439 73.2041 117.38 73.3194C117.321 73.4346 117.29 73.5623 117.291 73.6917V76.9511C117.291 81.4887 119.409 83.1387 122.709 85.5323C122.85 85.6342 123.019 85.6891 123.193 85.6891C123.367 85.6891 123.536 85.6342 123.677 85.5323C126.977 83.1387 129.095 81.4887 129.095 76.9511V73.6917C129.095 73.5621 129.064 73.4344 129.004 73.3192C128.945 73.204 128.859 73.1045 128.753 73.029C128.648 72.9534 128.526 72.904 128.398 72.8846C128.27 72.8652 128.139 72.8766 128.016 72.9176C127.407 73.0936 126.775 73.1794 126.142 73.1723Z" fill="#1D5BA4"/>
<path opacity="0.3" d="M126.142 73.1723C125.282 73.209 124.427 73.0342 123.651 72.663C123.513 72.5783 123.355 72.5335 123.193 72.5335C123.031 72.5335 122.873 72.5783 122.735 72.663C121.957 73.0348 121.1 73.2097 120.239 73.1723C119.605 73.179 118.974 73.0932 118.365 72.9176C118.242 72.8764 118.112 72.8649 117.984 72.8843C117.856 72.9036 117.734 72.9532 117.629 73.0288C117.524 73.1045 117.439 73.2041 117.38 73.3194C117.321 73.4346 117.29 73.5623 117.291 73.6917V76.9511C117.291 81.4887 119.409 83.1387 122.709 85.5323C122.85 85.6342 123.019 85.6891 123.193 85.6891C123.367 85.6891 123.536 85.6342 123.677 85.5323C126.977 83.1387 129.095 81.4887 129.095 76.9511V73.6917C129.095 73.5621 129.064 73.4344 129.004 73.3192C128.945 73.204 128.859 73.1045 128.753 73.029C128.648 72.9534 128.526 72.904 128.398 72.8846C128.27 72.8652 128.139 72.8766 128.016 72.9176C127.407 73.0936 126.775 73.1794 126.142 73.1723Z" fill="white"/>
<path opacity="0.2" d="M122.735 72.6528C121.957 73.0246 121.1 73.1995 120.239 73.1621C119.605 73.1685 118.974 73.0827 118.365 72.9075C118.242 72.8662 118.112 72.8548 117.984 72.8741C117.856 72.8934 117.734 72.943 117.629 73.0186C117.524 73.0943 117.439 73.1939 117.38 73.3092C117.321 73.4245 117.29 73.5521 117.291 73.6815V76.9409C117.291 81.4785 119.409 83.1286 122.709 85.5221C122.857 85.6293 123.036 85.6848 123.218 85.68V72.5204C123.048 72.517 122.88 72.563 122.735 72.6528Z" fill="white"/>
<path d="M127.924 76.0649C125.939 76.8427 124.171 78.0884 122.77 79.6961C121.794 78.9761 120.649 78.5184 119.445 78.3669H119.287V79.146L119.373 79.1766C120.712 79.6598 121.866 80.5503 122.674 81.723L122.801 81.9063L122.908 81.7077C124.079 79.5319 125.862 77.7471 128.036 76.5742L128.113 76.5386V76.0293L127.924 76.0649Z" fill="#263238"/>
<path d="M140.126 54.1662H137.875C137.586 54.1716 137.298 54.1152 137.032 54.0007C136.766 53.8862 136.528 53.7163 136.332 53.5023C136.137 53.2883 135.99 53.0352 135.9 52.7597C135.811 52.4843 135.781 52.1929 135.813 51.905L136.011 49.6541C136.072 49.0419 136.356 48.4734 136.809 48.0566C137.261 47.6398 137.851 47.4036 138.466 47.3929H140.717C141.007 47.3868 141.295 47.4427 141.562 47.5568C141.828 47.671 142.068 47.8408 142.263 48.0549C142.459 48.2689 142.607 48.5223 142.697 48.7981C142.787 49.0739 142.817 49.3657 142.785 49.6541L142.586 51.905C142.518 52.5152 142.231 53.08 141.779 53.4955C141.327 53.911 140.74 54.1492 140.126 54.1662Z" fill="#1D5BA4"/>
<path d="M141.063 49.649L140.574 49.1091L139.342 50.2397L138.313 49.1091L137.728 49.649L138.761 50.7795L137.534 51.9101L138.023 52.4449L139.25 51.3143L140.284 52.4449L140.865 51.9101L139.831 50.7795L141.063 49.649Z" fill="white"/>
<path d="M89.8204 73.5848C91.1241 75.0057 92.3668 76.4775 93.6043 77.9594C94.8418 79.4414 96.0386 80.954 97.2303 82.4716C97.2812 82.5378 97.2609 82.5123 97.271 82.5327C97.2812 82.5531 97.271 82.5582 97.271 82.5633C97.2799 82.5821 97.292 82.5994 97.3067 82.6142C97.3501 82.6759 97.4053 82.7283 97.4691 82.7686C97.5329 82.8088 97.6041 82.8359 97.6785 82.8485C97.7359 82.8562 97.7942 82.8562 97.8516 82.8485C97.8821 82.8508 97.9128 82.8508 97.9433 82.8485H97.9891C98.0146 82.8485 97.9891 82.8485 98.0706 82.8179L99.3438 82.1253C101.055 81.2188 102.781 80.3326 104.564 79.5382L106.056 81.3868C104.62 82.7059 103.123 84.361 101.61 85.5731L100.469 86.4694C100.398 86.5272 100.324 86.58 100.245 86.6273C100.159 86.6887 100.069 86.7449 99.9753 86.7953C99.7909 86.9015 99.6005 86.9967 99.4049 87.0805C99.0103 87.2463 98.5961 87.361 98.1725 87.4217C97.3156 87.5475 96.441 87.4601 95.6261 87.1671C95.2116 87.0199 94.8178 86.8196 94.4548 86.5712C94.2714 86.449 94.0983 86.3064 93.9455 86.1689C93.8589 86.0976 93.7876 86.0161 93.7061 85.9397L93.5024 85.736C92.1529 84.3508 90.8237 82.9554 89.5199 81.5345C88.2162 80.1137 86.9277 78.6826 85.6953 77.1955L89.8204 73.5848Z" fill="#B55B52"/>
<path d="M103.892 80.6586L105.078 76.8441L108.205 78.4025C108.205 78.4025 107.747 81.1831 105.475 81.667L103.892 80.6586Z" fill="#B55B52"/>
<path d="M106.326 75.7899L109.147 76.564L108.2 78.4025L105.073 76.8441L106.326 75.7899Z" fill="#B55B52"/>
<path d="M73.3811 74.6237C73.0449 76.2432 72.6273 77.8474 72.1945 79.4465C71.7616 81.0456 71.288 82.6295 70.794 84.2133L70.6106 84.8091L70.519 85.1045C70.5067 85.1471 70.4896 85.1881 70.468 85.2267C70.4099 85.3906 70.3773 85.5623 70.3713 85.736C70.3605 86.1061 70.4636 86.4705 70.6666 86.78C70.7668 86.9158 70.8775 87.0435 70.9977 87.162L71.4204 87.6254L72.2556 88.5574C72.8005 89.1889 73.3505 89.8204 73.87 90.4824L72.0926 92.5195C71.3593 92.1019 70.6565 91.6487 69.9537 91.2005L68.9097 90.5079L68.4004 90.1565C68.2272 90.0343 68.0846 89.9528 67.8045 89.7236C66.8081 88.8744 66.1205 87.7195 65.8489 86.4388C65.7122 85.786 65.6796 85.1157 65.7522 84.4527C65.7522 84.2897 65.8031 84.1063 65.8286 83.9434L65.8846 83.6378L65.9915 83.0267C66.2767 81.3919 66.5823 79.7623 66.9235 78.1428C67.2647 76.5233 67.6314 74.9089 68.0643 73.3149L73.3811 74.6237Z" fill="#B55B52"/>
<path d="M72.1283 90.3195L74.2265 89.2449L75.1533 92.8098C75.1533 92.8098 73.4676 93.4566 72.1639 92.6265L72.1283 90.3195Z" fill="#B55B52"/>
<path d="M77.1293 88.0991L77.2261 91.3788L74.8783 92.9117L74.0635 89.3111L77.1293 88.0991Z" fill="#B55B52"/>
<path d="M83.9994 57.7871C84.0503 58.0367 84.2286 58.2149 84.3915 58.1844C84.5545 58.1538 84.6513 57.9196 84.6003 57.6751C84.5494 57.4307 84.3712 57.2473 84.2082 57.2779C84.0452 57.3084 83.9485 57.5478 83.9994 57.7871Z" fill="#263238"/>
<path d="M84.2031 58.22C84.6616 58.9303 85.215 59.5746 85.8481 60.1349C85.7007 60.2936 85.5204 60.4183 85.3199 60.5001C85.1193 60.5819 84.9033 60.6189 84.6869 60.6085L84.2031 58.22Z" fill="#A02724"/>
<path d="M82.7924 56.575C82.7631 56.5747 82.7345 56.5659 82.71 56.5497C82.6855 56.5336 82.6662 56.5107 82.6544 56.4838C82.6426 56.457 82.6388 56.4273 82.6434 56.3983C82.648 56.3693 82.6608 56.3423 82.6804 56.3204C82.8398 56.14 83.0397 55.9998 83.2636 55.9113C83.4875 55.8228 83.7292 55.7885 83.9689 55.8111C83.9886 55.8148 84.0074 55.8223 84.0242 55.8333C84.041 55.8442 84.0555 55.8584 84.0669 55.8749C84.0782 55.8915 84.0862 55.9101 84.0904 55.9298C84.0945 55.9494 84.0948 55.9697 84.0911 55.9894C84.088 56.0089 84.0811 56.0276 84.0706 56.0444C84.0602 56.0612 84.0465 56.0757 84.0303 56.0871C84.0142 56.0985 83.9959 56.1066 83.9766 56.1108C83.9573 56.115 83.9373 56.1153 83.9179 56.1116C83.728 56.0934 83.5364 56.1209 83.3592 56.1918C83.182 56.2626 83.0244 56.3748 82.8994 56.519C82.8722 56.5507 82.8339 56.5708 82.7924 56.575Z" fill="#263238"/>
<path d="M76.6557 61.3368C77.2159 63.6744 77.7812 67.9573 75.7746 69.5106C75.7746 69.5106 76.5589 71.8838 81.8859 71.8838C87.7425 71.8838 84.6869 70.356 84.6869 70.356C81.4887 69.7347 81.5701 66.9592 82.1405 65.1411L76.6557 61.3368Z" fill="#B55B52"/>
<path d="M75.1482 69.9435C74.8019 69.2967 74.4149 68.5532 75.2093 68.3189C76.0853 68.0643 81.7026 67.5907 83.3577 68.0694C82.8484 68.9708 83.7091 70.1065 83.7091 70.1065L75.1482 69.9435Z" fill="#263238"/>
<path d="M79.803 179.223H83.4749L83.8415 171.829H80.1646L79.803 179.223Z" fill="#B55B52"/>
<path d="M56.4834 178.205L60.2062 178.403L62.4674 171.116L58.7446 170.917L56.4834 178.205Z" fill="#B55B52"/>
<path d="M60.0941 178.108L56.5853 177.349C56.5238 177.335 56.4594 177.343 56.4029 177.37C56.3463 177.398 56.301 177.445 56.2746 177.502L55.0574 180.145C55.0275 180.209 55.0126 180.279 55.014 180.35C55.0154 180.421 55.033 180.49 55.0654 180.553C55.0979 180.616 55.1444 180.671 55.2012 180.713C55.2581 180.755 55.3239 180.784 55.3936 180.797C56.6209 181.041 57.232 181.097 58.7751 181.433C59.7224 181.637 61.8664 182.162 63.1752 182.452C64.4841 182.742 64.9373 181.479 64.4281 181.245C62.1363 180.201 61.1789 179.279 60.5576 178.418C60.4461 178.262 60.2813 178.152 60.0941 178.108Z" fill="#263238"/>
<path d="M83.2814 178.851H79.7928C79.7298 178.852 79.6688 178.874 79.6198 178.914C79.5708 178.954 79.5367 179.009 79.5229 179.07L78.8914 181.907C78.8751 181.976 78.8747 182.047 78.8903 182.116C78.9058 182.185 78.9369 182.249 78.9811 182.304C79.0253 182.359 79.0815 182.404 79.1454 182.434C79.2093 182.464 79.2792 182.479 79.3498 182.477C80.6077 182.477 82.4054 182.381 84.0096 182.381C85.8583 182.381 87.4523 182.483 89.6116 182.483C90.9205 182.483 91.2871 181.158 90.7371 181.036C88.2366 180.491 86.1995 180.43 84.0402 179.101C83.8145 178.951 83.5522 178.864 83.2814 178.851Z" fill="#263238"/>
<path d="M69.1185 70.5902C66.348 71.9093 65.5943 79.9048 65.5943 79.9048L72.4542 83.0725C73.6137 81.1167 74.2455 78.8933 74.2876 76.62C74.4251 72.4898 71.9551 69.261 69.1185 70.5902Z" fill="#263238"/>
<path opacity="0.4" d="M72.826 75.52C71.5884 77.4451 71.7056 80.4192 72.1334 82.9299L72.4389 83.0725C73.5974 81.1163 74.229 78.8932 74.2723 76.62C74.2723 76.3756 74.2723 76.1108 74.2723 75.8918L72.826 75.52Z" fill="black"/>
<path d="M88.262 70.3967C88.262 70.3967 91.6639 74.2366 88.4504 97.9993H71.3745C71.2574 95.3766 72.9024 82.5887 70.356 70.2338C72.2432 69.8707 74.1518 69.6292 76.07 69.5106C78.4888 69.373 80.9135 69.373 83.3323 69.5106C84.9958 69.6791 86.6439 69.9753 88.262 70.3967Z" fill="#1D5BA4"/>
<path opacity="0.6" d="M88.262 70.3967C88.262 70.3967 91.6639 74.2366 88.4504 97.9993H71.3745C71.2574 95.3766 72.9024 82.5887 70.356 70.2338C72.2432 69.8707 74.1518 69.6292 76.07 69.5106C78.4888 69.373 80.9135 69.373 83.3323 69.5106C84.9958 69.6791 86.6439 69.9753 88.262 70.3967Z" fill="#FAFAFA"/>
<path opacity="0.2" d="M89.7542 77.659L89.6931 77.6029L86.2962 75.7899C85.9499 81.0202 88.2875 84.2999 89.6778 85.7309C89.8521 83.0437 89.8776 80.349 89.7542 77.659Z" fill="black"/>
<path opacity="0.2" d="M83.8415 171.829L83.6531 175.643H79.9761L80.1646 171.829H83.8415Z" fill="black"/>
<path opacity="0.2" d="M58.7446 170.922L62.4674 171.116L61.3011 174.874L57.5783 174.675L58.7446 170.922Z" fill="black"/>
<path d="M75.4742 58.9636C76.2941 62.0192 76.62 63.8577 78.5298 65.1309C81.3716 67.0457 84.9059 64.8457 85.0179 61.6016C85.1147 58.6835 83.76 54.1662 80.4752 53.55C79.75 53.4065 79.0001 53.4514 78.2972 53.6803C77.5942 53.9092 76.9617 54.3145 76.4601 54.8576C75.9584 55.4006 75.6044 56.0632 75.4318 56.782C75.2592 57.5009 75.2738 58.252 75.4742 58.9636Z" fill="#B55B52"/>
<path d="M82.3952 97.9993C82.3952 97.9993 78.7692 122.399 76.7932 131.545C74.6033 141.578 62.9206 174.68 62.9206 174.68L57.2015 173.443C57.2015 173.443 64.5299 146.451 66.3684 132.457C67.0814 126.992 67.9421 118.197 69.0319 110.848C70.0861 103.718 71.3847 98.0044 71.3847 98.0044L82.3952 97.9993Z" fill="#263238"/>
<path d="M64.2906 172.771L63.2211 174.838L56.7941 173.443L57.3339 171.513L64.2906 172.771Z" fill="#1D5BA4"/>
<path opacity="0.6" d="M64.2906 172.771L63.2211 174.838L56.7941 173.443L57.3339 171.513L64.2906 172.771Z" fill="white"/>
<path opacity="0.6" d="M80.1035 106.693C75.9121 107.513 76.3552 123.142 76.8594 131.178C78.0715 125.495 79.8386 114.566 81.0456 106.805C80.7536 106.661 80.4211 106.621 80.1035 106.693Z" fill="black"/>
<path d="M88.4504 97.9993C88.4504 97.9993 90.1565 121.874 89.8102 131.611C89.4486 141.741 84.6462 174.899 84.6462 174.899H79.2377C79.2377 174.899 79.0391 142.306 78.7997 132.38C78.5349 121.533 77.2261 97.9942 77.2261 97.9942L88.4504 97.9993Z" fill="#263238"/>
<path d="M85.6851 172.75C85.7106 172.75 85.3795 174.996 85.3795 174.996H78.7997L78.6215 172.99L85.6851 172.75Z" fill="#1D5BA4"/>
<path opacity="0.6" d="M85.6851 172.75C85.7106 172.75 85.3795 174.996 85.3795 174.996H78.7997L78.6215 172.99L85.6851 172.75Z" fill="white"/>
<path d="M86.2708 74.8631C86.2708 81.2697 89.6778 83.9077 89.6778 83.9077L95.234 78.4993C93.9188 76.3014 92.4214 74.218 90.7574 72.2709C87.5439 68.5888 86.2708 70.7481 86.2708 74.8631Z" fill="#263238"/>
<path opacity="0.2" d="M84.8041 62.7627C84.6908 63.0838 84.5007 63.3723 84.2504 63.6031C84.0001 63.8339 83.6971 63.9999 83.3679 64.0868C83.0058 64.1607 82.6771 64.3491 82.4304 64.6243C82.1837 64.8994 82.032 65.2467 81.998 65.6147C82.6574 65.3941 83.2553 65.0208 83.743 64.5252C84.2307 64.0296 84.5943 63.4257 84.8041 62.7627Z" fill="black"/>
<path d="M83.3679 52.8778C84.5087 51.4365 82.7517 51.3499 82.7517 51.3499C83.21 49.6337 81.1526 50.5555 81.1526 50.5555C79.9201 48.8545 79.2224 50.9272 79.2224 50.9272C77.9442 49.486 77.6946 51.8388 77.6946 51.8388C76.4113 50.0105 75.7594 52.6486 75.7594 52.6486C74.5779 50.749 73.8547 53.219 73.8547 53.219C71.4153 52.3481 72.5713 54.8843 72.5713 54.8843C70.4935 54.9403 72.1639 56.5547 72.1639 56.5547C69.6685 56.5547 71.8685 57.9858 71.8685 57.9858C69.8875 59.2844 72.3778 59.6358 72.3778 59.6358C70.7634 62.1822 73.539 61.2247 73.539 61.2247C72.4135 63.7304 74.9038 62.6252 74.9038 62.6252C74.7459 65.0392 76.1363 64.3822 76.8085 63.9341C76.9358 64.4433 77.1803 64.9526 77.6284 64.9933C78.4993 65.1105 78.647 63.4655 78.647 63.4655C78.647 63.4655 79.4516 64.097 80.1289 63.7558C80.8063 63.4146 80.5516 62.5539 80.5516 62.5539C80.6987 62.6639 80.8773 62.7233 81.0609 62.7233C81.2445 62.7233 81.4232 62.6639 81.5702 62.5539C81.8605 62.3299 81.8605 60.7104 81.4938 60.14L82.8179 59.6307C82.8179 59.6307 83.8008 59.4932 83.3628 58.1946C83.0985 57.4482 83.0754 56.6376 83.2966 55.8774C84.7939 55.1746 83.5614 54.3496 83.5614 54.3496C85.2981 53.2342 83.3679 52.8778 83.3679 52.8778Z" fill="#263238"/>
<path d="M80.684 59.0756C80.8913 59.8354 81.3444 60.5052 81.9725 60.9803C82.8026 61.6016 83.4239 60.9803 83.3628 60.0483C83.3119 59.2029 82.8128 57.8635 81.8961 57.6089C80.9794 57.3543 80.465 58.1742 80.684 59.0756Z" fill="#B55B52"/>
</svg>
