<svg width="22" height="22" viewBox="0 0 22 22" fill="none" xmlns="http://www.w3.org/2000/svg">
<path d="M14.3496 15.2849L18.8339 10.8006M18.8339 10.8006L14.3496 6.31632M18.8339 10.8006H8.07159M10.7622 15.2849C10.7622 16.119 10.7622 16.536 10.6705 16.8782C10.4217 17.8066 9.69643 18.5319 8.76796 18.7807C8.42581 18.8724 8.00878 18.8724 7.17473 18.8724H6.7263C5.47265 18.8724 4.84582 18.8724 4.35137 18.6675C3.69211 18.3945 3.16831 17.8706 2.89524 17.2115C2.69043 16.7169 2.69043 16.0901 2.69043 14.8365V6.76475C2.69043 5.51109 2.69043 4.88427 2.89524 4.38982C3.16831 3.73056 3.69211 3.20676 4.35137 2.93369C4.84582 2.72888 5.47265 2.72888 6.7263 2.72888H7.17473C8.00878 2.72888 8.42581 2.72888 8.76796 2.82056C9.69643 3.06935 10.4217 3.79459 10.6705 4.72308C10.7622 5.06524 10.7622 5.48227 10.7622 6.31632" stroke="#AA5151" stroke-width="1.79372" stroke-linecap="round" stroke-linejoin="round"/>
</svg>
