<svg width="34" height="34" viewBox="0 0 34 34" fill="none" xmlns="http://www.w3.org/2000/svg">
<g clip-path="url(#clip0_739_340)">
<path fill-rule="evenodd" clip-rule="evenodd" d="M25.0336 13.4714C22.2122 13.4714 19.925 15.7586 19.925 18.58C19.925 20.9094 21.484 22.8746 23.6155 23.4893C21.9328 23.6943 20.4895 24.2895 19.4023 25.361C18.0185 26.7248 17.3179 28.755 17.3179 31.4043C17.3179 31.7741 17.6176 32.0737 17.9873 32.0737C18.357 32.0737 18.6567 31.7741 18.6567 31.4043C18.6567 28.9803 19.2949 27.3466 20.342 26.3146C21.3911 25.2806 22.9574 24.7456 25.0335 24.7456C27.1097 24.7456 28.676 25.2806 29.7252 26.3146C30.7723 27.3466 31.4106 28.9803 31.4106 31.4043C31.4106 31.7741 31.7102 32.0737 32.08 32.0737C32.4496 32.0738 32.7494 31.7741 32.7494 31.4044C32.7494 28.755 32.0487 26.7248 30.6649 25.361C29.5777 24.2895 28.1344 23.6943 26.4517 23.4893C28.5831 22.8747 30.1422 20.9094 30.1422 18.58C30.1422 15.7586 27.855 13.4714 25.0336 13.4714ZM21.2638 18.58C21.2638 16.498 22.9516 14.8102 25.0336 14.8102C27.1156 14.8102 28.8034 16.498 28.8034 18.58C28.8034 20.6621 27.1156 22.3499 25.0336 22.3499C22.9516 22.3499 21.2638 20.6621 21.2638 18.58Z" fill="black"/>
</g>
<defs>
<clipPath id="clip0_739_340">
<rect width="33.3775" height="33.3775" fill="white"/>
</clipPath>
</defs>
</svg>
