<svg width="11" height="11" viewBox="0 0 11 11" fill="none" xmlns="http://www.w3.org/2000/svg">
<g clip-path="url(#clip0_152_873)">
<path fill-rule="evenodd" clip-rule="evenodd" d="M5.5 1.27939C7.83105 1.27939 9.72061 3.16916 9.72061 5.5C9.72061 7.83084 7.83105 9.72061 5.5 9.72061C3.16916 9.72061 1.27939 7.83084 1.27939 5.5C1.27939 3.16916 3.16916 1.27939 5.5 1.27939ZM5.5 0C7.01852 0 8.39373 0.615742 9.3891 1.6109C10.3843 2.60627 11 3.98127 11 5.5C11 7.01873 10.3843 8.39394 9.3891 9.3891C8.39394 10.3843 7.01873 11 5.5 11C3.98127 11 2.60627 10.3843 1.6109 9.3891C0.615742 8.39373 0 7.01852 0 5.5C0 3.98127 0.615742 2.60627 1.6109 1.6109C2.60627 0.615742 3.98127 0 5.5 0ZM9.00797 1.99203C8.11014 1.09441 6.86984 0.539043 5.5 0.539043C4.12994 0.539043 2.88965 1.09441 1.99203 1.99203C1.09441 2.88965 0.539043 4.12994 0.539043 5.5C0.539043 6.86984 1.09441 8.11014 1.99203 9.00797C2.88965 9.90559 4.12994 10.461 5.5 10.461C6.87006 10.461 8.11035 9.90559 9.00797 9.00797C9.90559 8.11035 10.461 6.87006 10.461 5.5C10.461 4.12994 9.90559 2.88965 9.00797 1.99203ZM6.14775 4.70014C6.13508 4.55619 6.07729 4.44533 5.97459 4.36477C5.90348 4.30912 5.81066 4.2726 5.69701 4.25563V5.09029L5.90412 5.13713C6.10113 5.18031 6.27602 5.23703 6.42813 5.30857C6.57938 5.38012 6.70678 5.46605 6.81033 5.5651C6.91389 5.66307 6.99252 5.77758 7.04559 5.90605C7.09887 6.03518 7.12637 6.17998 7.12809 6.33918C7.12637 6.59205 7.06234 6.8084 6.93666 6.98973C6.81033 7.17041 6.62879 7.30963 6.39246 7.40588C6.19523 7.48644 5.9632 7.53307 5.69701 7.54596V7.99863H5.37625V7.54574C5.1092 7.53199 4.8718 7.48344 4.66447 7.39943C4.41525 7.29953 4.22189 7.14742 4.08439 6.94311C3.94604 6.73879 3.87557 6.48033 3.8717 6.16795H4.79725C4.80455 6.29621 4.83936 6.40428 4.89973 6.48957C4.96117 6.57572 5.04561 6.64082 5.1526 6.68465C5.2207 6.71301 5.29525 6.73213 5.37625 6.74244V5.86158L5.08943 5.79498C4.74332 5.71549 4.47111 5.58701 4.27131 5.40934C4.07236 5.23166 3.97354 4.99147 3.97439 4.68811C3.97354 4.44082 4.04035 4.22361 4.1742 4.03756C4.30805 3.85172 4.49303 3.70691 4.73043 3.6025C4.924 3.51785 5.13906 3.46758 5.37625 3.45189V3.00137H5.69701V3.45125C5.94172 3.46607 6.15871 3.51699 6.34756 3.60336C6.57658 3.70863 6.7534 3.85537 6.87994 4.044C7.00648 4.23285 7.07051 4.45092 7.0733 4.70014H6.14775ZM5.37625 4.25563C5.32039 4.26379 5.27033 4.27625 5.22607 4.29322C5.14271 4.32631 5.08041 4.37121 5.03916 4.42707C4.99705 4.48379 4.976 4.54889 4.97406 4.62129C4.97213 4.68188 4.98416 4.73408 5.0108 4.77984C5.03723 4.82561 5.07676 4.86514 5.12789 4.89973C5.17945 4.93475 5.24176 4.96482 5.31395 4.99061C5.33414 4.99769 5.35498 5.00457 5.37625 5.01102V4.25563ZM5.69701 6.74008C5.75652 6.73127 5.81088 6.71752 5.86008 6.6984C5.9516 6.66359 6.02228 6.61504 6.0717 6.55273C6.12133 6.48957 6.14689 6.41803 6.14775 6.33746C6.14689 6.26227 6.12305 6.19738 6.07728 6.14324C6.03152 6.0891 5.9617 6.04248 5.86738 6.00295C5.81775 5.98189 5.76082 5.9617 5.69701 5.94236V6.74008Z" fill="#9B9B9B"/>
</g>
<defs>
<clipPath id="clip0_152_873">
<rect width="11" height="11" fill="white"/>
</clipPath>
</defs>
</svg>
