<svg width="24" height="24" viewBox="0 0 24 24" fill="none" xmlns="http://www.w3.org/2000/svg">
<path d="M11.6491 14.5615C13.2576 14.5615 14.5614 13.2577 14.5614 11.6492C14.5614 10.0408 13.2576 8.73694 11.6491 8.73694C10.0407 8.73694 8.73682 10.0408 8.73682 11.6492C8.73682 13.2577 10.0407 14.5615 11.6491 14.5615Z" stroke="#8193A9" stroke-width="1.45615" stroke-miterlimit="10" stroke-linecap="round" stroke-linejoin="round"/>
<path d="M1.94165 12.5033V10.7947C1.94165 9.78514 2.7668 8.95032 3.78611 8.95032C5.54319 8.95032 6.26156 7.70774 5.37816 6.18364C4.87336 5.30995 5.1743 4.17415 6.0577 3.66935L7.73713 2.70829C8.50403 2.25203 9.49421 2.52385 9.95047 3.29075L10.0573 3.4752C10.9309 4.9993 12.3677 4.9993 13.2511 3.4752L13.3579 3.29075C13.8141 2.52385 14.8043 2.25203 15.5712 2.70829L17.2506 3.66935C18.134 4.17415 18.435 5.30995 17.9302 6.18364C17.0468 7.70774 17.7651 8.95032 19.5222 8.95032C20.5318 8.95032 21.3667 9.77543 21.3667 10.7947V12.5033C21.3667 13.5129 20.5415 14.3477 19.5222 14.3477C17.7651 14.3477 17.0468 15.5903 17.9302 17.1144C18.435 17.9978 18.134 19.1239 17.2506 19.6287L15.5712 20.5898C14.8043 21.046 13.8141 20.7742 13.3579 20.0073L13.2511 19.8229C12.3774 18.2988 10.9407 18.2988 10.0573 19.8229L9.95047 20.0073C9.49421 20.7742 8.50403 21.046 7.73713 20.5898L6.0577 19.6287C5.1743 19.1239 4.87336 17.9881 5.37816 17.1144C6.26156 15.5903 5.54319 14.3477 3.78611 14.3477C2.7668 14.3477 1.94165 13.5129 1.94165 12.5033Z" stroke="#8193A9" stroke-width="1.45615" stroke-miterlimit="10" stroke-linecap="round" stroke-linejoin="round"/>
</svg>
