<svg width="262" height="262" viewBox="0 0 262 262" fill="none" xmlns="http://www.w3.org/2000/svg">
<path d="M193.063 87.922C171.479 64.9026 138.75 51.352 107.844 62.1516C82.137 71.1225 60.8783 93.3454 49.3189 118.11C41.1864 135.538 36.68 158.117 41.6318 177.112C45.9286 193.587 59.6574 200.912 75.3565 202.086C100.184 203.946 125.1 201.253 149.943 201.73C167.575 202.065 194.483 208.589 210.203 198.119C225.058 188.226 224.131 166.679 222.501 150.87C220.08 127.285 208.929 104.852 193.063 87.922Z" fill="#1D5BA4"/>
<path opacity="0.7" d="M193.063 87.922C171.479 64.9026 138.75 51.352 107.844 62.1516C82.137 71.1225 60.8783 93.3454 49.3189 118.11C41.1864 135.538 36.68 158.117 41.6318 177.112C45.9286 193.587 59.6574 200.912 75.3565 202.086C100.184 203.946 125.1 201.253 149.943 201.73C167.575 202.065 194.483 208.589 210.203 198.119C225.058 188.226 224.131 166.679 222.501 150.87C220.08 127.285 208.929 104.852 193.063 87.922Z" fill="white"/>
<path d="M62.4974 164.332H50.9694C50.8999 164.332 50.8333 164.304 50.7842 164.255C50.735 164.206 50.7074 164.139 50.7074 164.07V146.411H47.2857C47.2365 146.412 47.1881 146.398 47.1462 146.372C47.1044 146.346 47.071 146.309 47.0499 146.264C47.0244 146.222 47.011 146.174 47.011 146.125C47.011 146.076 47.0244 146.028 47.0499 145.986L56.4819 134.081C56.507 134.051 56.5383 134.027 56.5736 134.011C56.6089 133.995 56.6473 133.986 56.6863 133.986C56.7252 133.986 56.7636 133.995 56.7989 134.011C56.8342 134.027 56.8655 134.051 56.8906 134.081L66.3226 145.986C66.3531 146.025 66.3721 146.071 66.3775 146.12C66.3829 146.169 66.3744 146.218 66.3531 146.263C66.3318 146.307 66.2985 146.344 66.257 146.37C66.2154 146.397 66.1674 146.411 66.1183 146.411H62.6808V164.07C62.6835 164.127 62.6669 164.184 62.6337 164.232C62.6006 164.279 62.5526 164.314 62.4974 164.332ZM51.2419 163.808H62.2459V146.149C62.2459 146.079 62.2735 146.013 62.3226 145.964C62.3718 145.914 62.4384 145.887 62.5079 145.887H65.6519L56.7439 134.668L47.8359 145.887H50.9799C51.0494 145.887 51.116 145.914 51.1652 145.964C51.2143 146.013 51.2419 146.079 51.2419 146.149V163.808Z" fill="#1D5BA4"/>
<path d="M178.218 164.332H166.69C166.62 164.332 166.554 164.304 166.504 164.255C166.455 164.206 166.428 164.139 166.428 164.07V146.411H162.99C162.941 146.411 162.893 146.397 162.852 146.37C162.81 146.344 162.777 146.307 162.755 146.263C162.734 146.218 162.726 146.169 162.731 146.12C162.736 146.071 162.755 146.025 162.786 145.986L172.244 134.081C172.269 134.051 172.3 134.027 172.336 134.011C172.371 133.995 172.41 133.986 172.448 133.986C172.487 133.986 172.526 133.995 172.561 134.011C172.596 134.027 172.628 134.051 172.653 134.081L182.111 145.986C182.142 146.025 182.161 146.071 182.166 146.12C182.171 146.169 182.163 146.218 182.142 146.263C182.12 146.307 182.087 146.344 182.045 146.37C182.004 146.397 181.956 146.411 181.907 146.411H178.469V164.07C178.469 164.137 178.443 164.202 178.396 164.251C178.349 164.3 178.285 164.329 178.218 164.332ZM166.962 163.808H177.966V146.149C177.966 146.079 177.994 146.013 178.043 145.964C178.092 145.914 178.159 145.887 178.228 145.887H181.372L172.464 134.668L163.556 145.887H166.7C166.77 145.887 166.836 145.914 166.885 145.964C166.935 146.013 166.962 146.079 166.962 146.149V163.808Z" fill="#1D5BA4"/>
<path d="M207.415 193.65H195.887C195.817 193.65 195.751 193.622 195.702 193.573C195.652 193.524 195.625 193.457 195.625 193.388V175.729H192.203C192.154 175.728 192.106 175.714 192.064 175.688C192.023 175.662 191.99 175.625 191.968 175.58C191.947 175.536 191.939 175.487 191.944 175.438C191.949 175.389 191.968 175.343 191.999 175.304L201.431 163.404C201.456 163.374 201.487 163.351 201.522 163.334C201.558 163.318 201.596 163.309 201.635 163.309C201.674 163.309 201.713 163.318 201.748 163.334C201.783 163.351 201.814 163.374 201.84 163.404L211.272 175.304C211.302 175.343 211.321 175.389 211.326 175.438C211.332 175.487 211.323 175.536 211.302 175.58C211.281 175.625 211.247 175.662 211.206 175.688C211.164 175.714 211.116 175.728 211.067 175.729H207.63V193.388C207.631 193.45 207.61 193.51 207.57 193.558C207.531 193.606 207.476 193.638 207.415 193.65ZM196.165 193.126H207.169V175.467C207.169 175.397 207.196 175.331 207.245 175.281C207.294 175.232 207.361 175.205 207.431 175.205H210.575L201.667 163.986L192.759 175.205H195.903C195.972 175.206 196.038 175.234 196.086 175.283C196.135 175.332 196.163 175.398 196.165 175.467V193.126Z" fill="#1D5BA4"/>
<path d="M195.452 125.173H183.924C183.855 125.173 183.788 125.146 183.739 125.096C183.69 125.047 183.662 124.981 183.662 124.911V107.252H180.225C180.175 107.253 180.126 107.238 180.084 107.211C180.042 107.184 180.009 107.146 179.989 107.1C179.968 107.056 179.96 107.006 179.965 106.957C179.971 106.908 179.99 106.862 180.02 106.823L189.452 94.9226C189.478 94.8927 189.51 94.8687 189.545 94.8523C189.581 94.8358 189.62 94.8273 189.659 94.8273C189.699 94.8273 189.737 94.8358 189.773 94.8523C189.809 94.8687 189.841 94.8927 189.866 94.9226L199.298 106.823C199.328 106.862 199.347 106.908 199.352 106.957C199.357 107.006 199.349 107.056 199.327 107.1C199.306 107.144 199.273 107.182 199.232 107.209C199.191 107.236 199.143 107.251 199.094 107.252H195.656V124.911C195.658 124.972 195.638 125.031 195.601 125.079C195.564 125.126 195.511 125.16 195.452 125.173ZM184.202 124.649H195.206V106.99C195.206 106.921 195.233 106.854 195.283 106.805C195.332 106.756 195.398 106.728 195.468 106.728H198.612L189.704 95.5042L180.796 106.728H183.94C184.009 106.728 184.076 106.756 184.125 106.805C184.174 106.854 184.202 106.921 184.202 106.99V124.649Z" fill="#1D5BA4"/>
<path d="M86.5439 127.232H75.0159C74.9464 127.232 74.8798 127.205 74.8307 127.156C74.7815 127.107 74.7539 127.04 74.7539 126.97V109.312H71.3217C71.2722 109.312 71.2234 109.299 71.1811 109.273C71.1388 109.247 71.1047 109.21 71.0828 109.166C71.0608 109.121 71.0519 109.071 71.0571 109.022C71.0623 108.973 71.0814 108.926 71.1121 108.887L80.5703 96.9819C80.5954 96.9522 80.6267 96.9282 80.662 96.9118C80.6973 96.8954 80.7358 96.8869 80.7747 96.8869C80.8136 96.8869 80.8521 96.8954 80.8874 96.9118C80.9227 96.9282 80.954 96.9522 80.979 96.9819L90.4372 108.887C90.4677 108.926 90.4867 108.972 90.4921 109.021C90.4975 109.07 90.4891 109.119 90.4677 109.163C90.4464 109.208 90.4131 109.245 90.3716 109.271C90.3301 109.297 90.282 109.311 90.2329 109.312H86.7954V126.97C86.7955 127.038 86.7693 127.103 86.7224 127.152C86.6756 127.201 86.6116 127.23 86.5439 127.232ZM75.2884 126.708H86.2924V109.05C86.2924 108.98 86.32 108.914 86.3691 108.864C86.4183 108.815 86.4849 108.788 86.5544 108.788H89.6984L80.7904 97.5688L71.8824 108.788H75.0264C75.0959 108.788 75.1625 108.815 75.2117 108.864C75.2608 108.914 75.2884 108.98 75.2884 109.05V126.708Z" fill="#1D5BA4"/>
<path d="M104.884 193.65H93.356C93.2865 193.65 93.2199 193.622 93.1707 193.573C93.1216 193.524 93.094 193.457 93.094 193.388V175.729H89.6566C89.6074 175.728 89.5594 175.714 89.5178 175.688C89.4763 175.662 89.443 175.625 89.4217 175.58C89.4004 175.536 89.3919 175.487 89.3973 175.438C89.4027 175.389 89.4217 175.343 89.4522 175.304L98.9104 163.404C98.9355 163.374 98.9668 163.351 99.0021 163.334C99.0374 163.318 99.0758 163.309 99.1147 163.309C99.1537 163.309 99.1921 163.318 99.2274 163.334C99.2627 163.351 99.294 163.374 99.3191 163.404L108.777 175.304C108.808 175.343 108.827 175.39 108.832 175.439C108.838 175.489 108.829 175.538 108.807 175.583C108.785 175.627 108.751 175.665 108.708 175.69C108.666 175.716 108.617 175.729 108.568 175.729H105.136V193.388C105.136 193.455 105.109 193.52 105.063 193.569C105.016 193.618 104.952 193.647 104.884 193.65ZM93.6285 193.126H104.632V175.467C104.632 175.397 104.66 175.331 104.709 175.281C104.758 175.232 104.825 175.205 104.894 175.205H108.038L99.1305 163.986L90.2225 175.205H93.3665C93.436 175.205 93.5026 175.232 93.5517 175.281C93.6009 175.331 93.6285 175.397 93.6285 175.467V193.126Z" fill="#1D5BA4"/>
<path d="M133.096 225.666C162.614 225.666 186.544 222.891 186.544 219.467C186.544 216.043 162.614 213.268 133.096 213.268C103.577 213.268 79.6479 216.043 79.6479 219.467C79.6479 222.891 103.577 225.666 133.096 225.666Z" fill="#1D5BA4"/>
<path opacity="0.5" d="M133.096 225.666C162.614 225.666 186.544 222.891 186.544 219.467C186.544 216.043 162.614 213.268 133.096 213.268C103.577 213.268 79.6479 216.043 79.6479 219.467C79.6479 222.891 103.577 225.666 133.096 225.666Z" fill="white"/>
<path d="M167.298 70.6929C168.015 66.8746 167.588 62.9297 166.072 59.3528C164.556 55.7759 162.018 52.7263 158.775 50.5863C155.533 48.4463 151.731 47.3113 147.846 47.3235C143.961 47.3358 140.166 48.4947 136.937 50.6551C134.592 44.9545 130.341 40.2444 124.91 37.3288C119.479 34.4133 113.204 33.473 107.157 34.6685C101.11 35.8639 95.6652 39.121 91.752 43.8838C87.8389 48.6466 85.6999 54.6198 85.7004 60.784C85.7004 61.1141 85.7004 61.439 85.7004 61.7639C81.8774 62.8534 78.5452 65.2242 76.2626 68.4788C73.98 71.7334 72.8858 75.6738 73.1634 79.6393C73.4411 83.6048 75.0737 87.3543 77.7875 90.259C80.5013 93.1638 84.1313 95.0471 88.0688 95.5933V95.7767H166.449C169.633 95.6663 172.657 94.3512 174.909 92.0972C177.161 89.8431 178.474 86.8183 178.582 83.6337C178.689 80.4492 177.584 77.3425 175.49 74.9413C173.395 72.5402 170.467 71.0236 167.298 70.6981V70.6929Z" fill="#263238" stroke="#263238" stroke-width="0.524" stroke-linecap="round" stroke-linejoin="round"/>
<path d="M167.298 68.3348C168.015 64.5166 167.588 60.5717 166.072 56.9948C164.556 53.4179 162.018 50.3682 158.775 48.2283C155.533 46.0883 151.731 44.9532 147.846 44.9655C143.961 44.9777 140.166 46.1367 136.937 48.2971C134.592 42.5968 130.342 37.887 124.911 34.9714C119.481 32.0558 113.207 31.1151 107.16 32.3099C101.113 33.5047 95.6681 36.7609 91.7545 41.5227C87.8409 46.2846 85.7012 52.257 85.7004 58.4207C85.7004 58.7509 85.7004 59.0757 85.7004 59.4006C81.8774 60.4902 78.5452 62.861 76.2626 66.1155C73.98 69.3701 72.8858 73.3105 73.1634 77.276C73.4411 81.2415 75.0737 84.991 77.7875 87.8958C80.5013 90.8005 84.1313 92.6839 88.0688 93.2301V93.4135H166.449C169.633 93.303 172.657 91.9879 174.909 89.7339C177.161 87.4799 178.474 84.455 178.582 81.2705C178.689 78.0859 177.584 74.9792 175.49 72.5781C173.395 70.1769 170.467 68.6604 167.298 68.3348Z" fill="#1D5BA4" stroke="#263238" stroke-width="0.524" stroke-linecap="round" stroke-linejoin="round"/>
<path d="M140.118 138.577L136.822 140.306C136.822 140.306 133.211 141.878 130.853 143.131C128.495 144.383 116.878 153.338 116.878 153.338L114.525 153.495L113.111 154.439C113.111 154.439 110.753 154.91 110.753 155.382C110.753 155.853 111.224 156.005 111.696 156.005C112.405 155.826 113.091 155.564 113.739 155.225C113.739 155.225 112.141 157.562 112.77 157.562C113.681 157.656 114.585 157.801 115.479 157.996C116.519 157.803 117.569 157.663 118.623 157.577C119.409 157.577 121.29 153.338 121.29 153.338C121.29 153.338 134.794 147.999 136.523 146.741C138.252 145.483 143.272 142.345 143.272 142.345L140.118 138.577Z" fill="white" stroke="#263238" stroke-width="0.524" stroke-linecap="round" stroke-linejoin="round"/>
<path d="M152.793 125.676L138.074 139.049L142.318 144.074L150.482 140.935L153.306 125.86L152.793 125.676Z" fill="#1D5BA4" stroke="#263238" stroke-width="0.524" stroke-linecap="round" stroke-linejoin="round"/>
<path d="M140.039 137.267L138.074 139.049L142.318 144.074L144.849 143.099L140.039 137.267Z" fill="#263238" stroke="#263238" stroke-width="0.524" stroke-linecap="round" stroke-linejoin="round"/>
<path d="M178.485 209.354C178.485 209.354 183.159 214.216 183.636 216.601C184.112 218.985 182.97 221.086 181.063 220.51C179.155 219.933 177.437 214.028 176.96 212.98C176.483 211.932 175.912 210.784 175.912 210.784C175.912 210.784 177.342 208.877 178.485 209.354Z" fill="#1D5BA4" stroke="#263238" stroke-width="0.524" stroke-linecap="round" stroke-linejoin="round"/>
<path d="M183.678 216.857C184.023 219.132 182.897 221.049 181.058 220.525C180.392 220.332 179.753 219.477 179.182 218.429C180.429 216.412 182.436 216.522 183.678 216.857Z" fill="white" stroke="#263238" stroke-width="0.524" stroke-linecap="round" stroke-linejoin="round"/>
<path d="M178.532 217.051C179.58 218.482 180.911 220.017 181.917 219.75C182.923 219.483 183.452 217.591 183.636 216.606C184.107 218.985 182.965 221.07 181.063 220.499C180.13 220.232 179.25 218.686 178.532 217.051Z" fill="white" stroke="#263238" stroke-width="0.524" stroke-linecap="round" stroke-linejoin="round"/>
<path d="M177.531 212.026C177.531 212.026 179.627 210.879 179.727 211.261C179.826 211.644 177.725 212.692 177.437 212.692C177.149 212.692 176.96 212.597 177.531 212.026Z" fill="white" stroke="#263238" stroke-width="0.262" stroke-linecap="round" stroke-linejoin="round"/>
<path d="M178.008 212.692C178.008 212.692 180.104 211.549 180.203 211.932C180.303 212.314 178.202 213.362 177.914 213.362C177.625 213.362 177.437 213.268 178.008 212.692Z" fill="white" stroke="#263238" stroke-width="0.262" stroke-linecap="round" stroke-linejoin="round"/>
<path d="M178.485 213.362C178.485 213.362 180.581 212.215 180.68 212.597C180.78 212.98 178.679 214.028 178.391 214.028C178.102 214.028 177.914 213.934 178.485 213.362Z" fill="white" stroke="#263238" stroke-width="0.262" stroke-linecap="round" stroke-linejoin="round"/>
<path d="M178.961 214.028C178.961 214.028 181.057 212.885 181.157 213.263C181.257 213.64 179.155 214.693 178.867 214.693C178.579 214.693 178.39 214.599 178.961 214.028Z" fill="white" stroke="#263238" stroke-width="0.262" stroke-linecap="round" stroke-linejoin="round"/>
<path d="M140.825 213.729C140.825 213.729 142.648 216.271 142.811 217.712C142.973 219.153 141.763 219.189 140.222 219.027C138.682 218.864 136.843 220.001 134.673 219.944C132.504 219.886 129.994 218.938 131.199 217.905C132.404 216.873 135.548 216.024 136.229 215.432C136.636 215.076 137.018 214.693 137.372 214.285L140.825 213.729Z" fill="#1D5BA4" stroke="#263238" stroke-width="0.524" stroke-linecap="round" stroke-linejoin="round"/>
<path d="M131.199 217.905C131.623 217.572 132.088 217.296 132.582 217.083C133.136 217.379 133.624 217.786 134.015 218.278C134.406 218.77 134.692 219.337 134.857 219.944H134.668C132.499 219.886 129.994 218.938 131.199 217.905Z" fill="white" stroke="#263238" stroke-width="0.524" stroke-linecap="round" stroke-linejoin="round"/>
<path d="M136.429 215.097C136.429 215.097 138.666 216.265 138.1 216.496C137.534 216.726 135.836 215.416 136.429 215.097Z" fill="white" stroke="#263238" stroke-width="0.262" stroke-linecap="round" stroke-linejoin="round"/>
<path d="M135.559 215.333C135.559 215.333 137.796 216.501 137.23 216.732C136.664 216.962 134.967 215.652 135.559 215.333Z" fill="white" stroke="#263238" stroke-width="0.262" stroke-linecap="round" stroke-linejoin="round"/>
<path d="M135.056 215.678C135.056 215.678 137.293 216.847 136.727 217.077C136.161 217.308 134.464 215.998 135.056 215.678Z" fill="white" stroke="#263238" stroke-width="0.262" stroke-linecap="round" stroke-linejoin="round"/>
<path d="M134.144 216.098C134.144 216.098 136.381 217.266 135.815 217.497C135.249 217.727 133.541 216.412 134.144 216.098Z" fill="white" stroke="#263238" stroke-width="0.262" stroke-linecap="round" stroke-linejoin="round"/>
<path d="M130.947 218.225C132.516 219.148 134.382 219.425 136.151 218.995C137.793 218.635 139.461 218.403 141.139 218.304C141.71 218.287 142.276 218.192 142.821 218.021C142.779 219.158 141.647 219.179 140.201 219.027C138.661 218.859 136.821 220.001 134.652 219.944C132.724 219.891 130.523 219.126 130.947 218.225Z" fill="white" stroke="#263238" stroke-width="0.524" stroke-linecap="round" stroke-linejoin="round"/>
<path d="M163.739 157.724C163.739 157.724 162.639 173.046 163.304 176.761C163.97 180.476 165.61 191.538 165.61 191.538C165.61 191.538 168.094 193.351 170.572 197.354C173.051 201.357 178.485 209.369 178.485 209.369C178.485 209.369 178.679 210.8 176.96 211.277C176.96 211.277 176.101 211.659 175.624 211.277C175.147 210.894 158.856 195.829 156.933 192.685C155.01 189.541 152.452 170.195 152.452 170.195L149.974 169.718L139.494 189.746L141.317 214.091C141.317 214.091 141.459 214.929 140.269 215.27C139.08 215.61 138.121 215.731 137.408 215.118C136.696 214.505 131.178 187.843 131.644 186.89C132.111 185.936 142.685 159.726 142.685 159.726L143.539 157.535C143.539 157.535 153.553 158.678 158.033 157.818C162.513 156.959 163.362 156.278 163.739 157.724Z" fill="#263238" stroke="#263238" stroke-width="0.524" stroke-linecap="round" stroke-linejoin="round"/>
<path d="M149.974 169.703L144.535 168.083" stroke="white" stroke-width="0.524" stroke-linecap="round" stroke-linejoin="round"/>
<path d="M149.398 169.991L141.962 169.131" stroke="white" stroke-width="0.524" stroke-linecap="round" stroke-linejoin="round"/>
<path d="M162.031 160.69C162.031 160.69 158.007 163.257 162.031 164.971" stroke="white" stroke-width="0.524" stroke-linecap="round" stroke-linejoin="round"/>
<path d="M150.639 161.738L150.021 164.211L148.365 165.867L150.43 167.722" stroke="white" stroke-width="0.524" stroke-linecap="round" stroke-linejoin="round"/>
<path d="M174.214 132.425C170.546 129.449 165.993 125.854 165.993 125.854C165.993 125.854 156.335 125.634 152.793 125.676L147.815 141.564C147.815 141.564 143.241 157.389 143.429 158.059C143.618 158.73 146.867 160.25 154.114 161.109C161.361 161.968 164.41 158.919 164.594 157.965C164.673 157.101 164.609 156.23 164.405 155.387L166.884 151.001L175.084 137.513C175.579 136.703 175.763 135.742 175.603 134.806C175.443 133.871 174.95 133.025 174.214 132.425Z" fill="#1D5BA4" stroke="#263238" stroke-width="0.524" stroke-linecap="round" stroke-linejoin="round"/>
<path d="M171.348 130.104C168.539 127.851 166.008 125.854 166.008 125.854C166.008 125.854 162.801 125.781 159.411 125.729C158.552 127.688 157.069 131.692 158.29 133.672C159.778 136.114 164.698 136.843 171.348 130.104Z" fill="#263238" stroke="#263238" stroke-width="0.524" stroke-linecap="round" stroke-linejoin="round"/>
<path d="M166.983 109.516C166.983 109.516 164.221 110.281 163.074 111.995C161.926 113.708 158.594 123.727 158.688 124.571C158.782 125.414 163.074 124.571 163.074 124.571C163.074 124.571 160.119 130.769 160.119 131.817C160.119 132.865 161.455 133.442 163.168 133.059C164.882 132.677 170.735 122.616 170.735 122.616C170.735 122.616 172.469 124.628 173.564 123.936C174.822 123.145 174.424 121.552 173.47 121.552C172.516 121.552 176.137 117.643 174.901 115.07C173.664 112.498 168.13 108.662 166.983 109.516Z" fill="white" stroke="#263238" stroke-width="0.524" stroke-linecap="round" stroke-linejoin="round"/>
<path d="M165.935 106.472C165.935 106.472 160.595 106.472 160.307 109.044C160.019 111.617 162.791 112.765 165.84 112.288C168.89 111.811 171.657 112 172.039 112.477C172.422 112.953 168.319 113.907 169.273 114.573C169.827 114.971 170.498 115.173 171.18 115.149C171.18 115.149 169.844 115.526 169.938 116.48C170.032 117.434 170.866 121.647 171.51 121.647C172.155 121.647 173.449 121.563 173.449 121.563C174.656 120.956 175.753 120.15 176.693 119.179C178.123 117.654 178.5 114.41 176.693 112.508C174.885 110.606 173.449 108.756 172.018 107.231C170.588 105.707 169.252 104.087 166.391 103.705C163.53 103.322 162.026 104.465 165.935 106.472Z" fill="#263238" stroke="#263238" stroke-width="0.524" stroke-linecap="round" stroke-linejoin="round"/>
<path d="M177.07 116.328C177.169 116.887 177.188 117.456 177.128 118.021" stroke="white" stroke-width="0.524" stroke-linecap="round" stroke-linejoin="round"/>
<path d="M167.271 109.479C167.271 109.479 161.418 110.05 163.603 111.167C165.788 112.283 169.2 110.192 173.46 111.879C174.178 112.139 174.835 112.546 175.386 113.075C175.938 113.604 176.372 114.243 176.661 114.95" stroke="white" stroke-width="0.524" stroke-linecap="round" stroke-linejoin="round"/>
<path d="M170.824 113.923C170.824 113.923 174.822 115.877 175.351 118.717" stroke="white" stroke-width="0.524" stroke-linecap="round" stroke-linejoin="round"/>
<path d="M163.074 124.586C163.074 124.586 167.653 124.303 168.89 123.255" stroke="#263238" stroke-width="0.524" stroke-linecap="round" stroke-linejoin="round"/>
<path d="M161.643 120.772C161.643 120.772 164.981 121.725 165.935 119.724" stroke="#263238" stroke-width="0.524" stroke-linecap="round" stroke-linejoin="round"/>
<path d="M165.364 119.341L166.794 119.917" stroke="#263238" stroke-width="0.524" stroke-linecap="round" stroke-linejoin="round"/>
<path d="M162.691 116.386C162.691 116.386 159.736 116.768 159.736 117.245C159.736 117.722 161.643 119.058 161.643 119.058" fill="white"/>
<path d="M162.691 116.386C162.691 116.386 159.736 116.768 159.736 117.245C159.736 117.722 161.643 119.058 161.643 119.058" stroke="#263238" stroke-width="0.524" stroke-linecap="round" stroke-linejoin="round"/>
<path d="M163.069 115.469C162.933 115.883 162.655 116.16 162.445 116.092C162.236 116.024 162.183 115.636 162.325 115.222C162.466 114.808 162.739 114.531 162.948 114.599C163.158 114.667 163.21 115.06 163.069 115.469Z" fill="#263238"/>
<path d="M165.584 116.742C165.443 117.156 165.165 117.434 164.96 117.366C164.756 117.297 164.698 116.904 164.835 116.496C164.971 116.087 165.254 115.804 165.458 115.872C165.663 115.94 165.715 116.328 165.584 116.742Z" fill="#263238"/>
<path d="M165.715 114.033C165.715 114.033 167.161 114.164 167.025 116.129L165.715 114.033Z" fill="#263238" stroke="#263238" stroke-width="0.524" stroke-linecap="round" stroke-linejoin="round"/>
<path d="M164.405 113.116C164.405 113.116 163.614 112.068 162.566 113.509L164.405 113.116Z" fill="#263238" stroke="#263238" stroke-width="0.524" stroke-linecap="round" stroke-linejoin="round"/>
<path d="M138.09 78.2385L124.287 60.8679L110.49 78.2385H115.888V104.391H132.692V78.2385H138.09Z" fill="#263238" stroke="#263238" stroke-width="0.524" stroke-linecap="round" stroke-linejoin="round"/>
<path d="M138.09 77.1119L124.287 59.7413L110.49 77.1119H115.888V103.265H132.692V77.1119H138.09Z" fill="white" stroke="#263238" stroke-width="0.524" stroke-linecap="round" stroke-linejoin="round"/>
<path d="M151.205 100.315H95.0796V156.44H151.205V100.315Z" fill="white" stroke="#263238" stroke-width="0.524" stroke-linecap="round" stroke-linejoin="round"/>
<path d="M148.596 102.924H97.6892V153.831H148.596V102.924Z" fill="#263238" stroke="#263238" stroke-width="0.524" stroke-linecap="round" stroke-linejoin="round"/>
<path d="M122.507 119.058C123.854 115.776 122.286 112.023 119.003 110.676C115.721 109.328 111.968 110.897 110.621 114.179C109.273 117.461 110.842 121.214 114.124 122.562C117.406 123.909 121.159 122.341 122.507 119.058Z" fill="white" stroke="#263238" stroke-width="0.524" stroke-linecap="round" stroke-linejoin="round"/>
<path d="M167.203 134.851L153.176 149.272L131.796 155.162C131.796 155.162 129.889 152.945 128.516 152.929C127.143 152.914 122.721 154.501 122.721 154.501C122.721 154.501 122.16 155.874 123.245 155.885C124.36 155.806 125.466 155.631 126.551 155.361L120.489 156.409C120.562 156.87 120.796 157.291 121.15 157.596C121.504 157.901 121.955 158.071 122.422 158.075H125.152L129.821 158.667L134.238 157.331C134.238 157.331 155.167 155.052 156.272 154.784C157.378 154.517 175.136 139.274 175.136 139.274C175.136 139.274 177.143 137.508 176.378 135.459C175.613 133.41 171.699 131.959 171.699 131.959" fill="white"/>
<path d="M167.203 134.851L153.176 149.272L131.796 155.162C131.796 155.162 129.889 152.945 128.516 152.929C127.143 152.914 122.721 154.501 122.721 154.501C122.721 154.501 122.16 155.874 123.245 155.885C124.36 155.806 125.466 155.631 126.551 155.361L120.489 156.409C120.562 156.87 120.796 157.291 121.15 157.596C121.504 157.901 121.955 158.071 122.422 158.075H125.152L129.821 158.667L134.238 157.331C134.238 157.331 155.167 155.052 156.272 154.784C157.378 154.517 175.136 139.274 175.136 139.274C175.136 139.274 177.143 137.508 176.378 135.459C175.613 133.41 171.699 131.959 171.699 131.959" stroke="#263238" stroke-width="0.524" stroke-linecap="round" stroke-linejoin="round"/>
<path d="M164.672 136.355L153.977 147.082L161.916 152.809L175.708 139.819C176.381 139.189 176.818 138.347 176.947 137.434C177.075 136.521 176.888 135.591 176.415 134.799L176.368 134.726C175.379 133.157 173.98 131.889 172.323 131.058" fill="#1D5BA4"/>
<path d="M164.672 136.355L153.977 147.082L161.916 152.809L175.708 139.819C176.381 139.189 176.818 138.347 176.947 137.434C177.075 136.521 176.888 135.591 176.415 134.799L176.368 134.726C175.379 133.157 173.98 131.889 172.323 131.058" stroke="#263238" stroke-width="0.524" stroke-linecap="round" stroke-linejoin="round"/>
<path d="M161.937 152.809L163.802 151.048L155.822 145.232L153.977 147.082L161.937 152.809Z" fill="#263238" stroke="#263238" stroke-width="0.524" stroke-linecap="round" stroke-linejoin="round"/>
<path d="M110.753 155.382L112.77 157.562L114.725 157.776L111.691 155.177L110.753 155.382Z" fill="white" stroke="#263238" stroke-width="0.524" stroke-linecap="round" stroke-linejoin="round"/>
<path d="M114.546 155.382L116.564 157.562L118.513 157.776L115.479 155.177L114.546 155.382Z" fill="white" stroke="#263238" stroke-width="0.524" stroke-linecap="round" stroke-linejoin="round"/>
<path d="M114.724 157.776L112.445 154.853H113.855L116.674 157.776L115.479 157.997L114.724 157.776Z" fill="white" stroke="#263238" stroke-width="0.524" stroke-linecap="round" stroke-linejoin="round"/>
<path d="M109.956 155.612L110.931 157.452L112.77 157.562L110.753 155.382L109.956 155.612Z" fill="white" stroke="#263238" stroke-width="0.524" stroke-linecap="round" stroke-linejoin="round"/>
</svg>
