<svg width="23" height="23" viewBox="0 0 23 23" fill="none" xmlns="http://www.w3.org/2000/svg">
<g clip-path="url(#clip0_607_255)">
<path d="M11.5284 2.07231C11.7494 1.79133 12.175 1.79133 12.396 2.07231L14.0595 4.18812C14.1978 4.36398 14.4286 4.43895 14.6438 4.37796L17.2332 3.64403C17.5771 3.54657 17.9216 3.79679 17.9351 4.15398L18.0373 6.84351C18.0458 7.06705 18.1884 7.26334 18.3984 7.34051L20.9247 8.26881C21.2602 8.39209 21.3918 8.79696 21.1927 9.09391L19.6946 11.3298C19.5701 11.5157 19.5701 11.7583 19.6946 11.9442L21.1927 14.1801C21.3918 14.4771 21.2602 14.8819 20.9247 15.0052L18.3984 15.9335C18.1884 16.0107 18.0458 16.207 18.0373 16.4305L17.9351 19.12C17.9216 19.4772 17.5771 19.7275 17.2332 19.63L14.6438 18.8961C14.4286 18.835 14.1978 18.9101 14.0595 19.0859L12.396 21.2017C12.175 21.4827 11.7494 21.4827 11.5284 21.2017L9.86485 19.0859C9.72658 18.9101 9.49582 18.835 9.2806 18.8961L6.69112 19.63C6.34722 19.7275 6.00281 19.4772 5.98925 19.12L5.88706 16.4305C5.87856 16.207 5.73594 16.0107 5.52596 15.9335L2.99965 15.0052C2.66414 14.8819 2.53259 14.4771 2.73156 14.1801L4.22975 11.9442C4.35427 11.7583 4.35427 11.5157 4.22975 11.3298L2.73156 9.09391C2.53259 8.79696 2.66414 8.39209 2.99965 8.26881L5.52597 7.34051C5.73594 7.26334 5.87856 7.06705 5.88706 6.84351L5.98925 4.15398C6.00281 3.79679 6.34722 3.54657 6.69113 3.64403L9.2806 4.37796C9.49582 4.43895 9.72658 4.36398 9.86485 4.18812L11.5284 2.07231Z" stroke="#8193A9" stroke-width="1.37951"/>
<path d="M9.20312 11.637L11.0425 13.4763L14.7212 9.79761" stroke="#8193A9" stroke-width="1.37951" stroke-linecap="round" stroke-linejoin="round"/>
</g>
<defs>
<clipPath id="clip0_607_255">
<rect width="22.0722" height="22.0722" fill="white" transform="translate(0.926025 0.60083)"/>
</clipPath>
</defs>
</svg>
