<svg width="204" height="204" viewBox="0 0 204 204" fill="none" xmlns="http://www.w3.org/2000/svg">
<g clip-path="url(#clip0_140_1228)">
<path d="M204 156.019H0V156.121H204V156.019Z" fill="#EBEBEB"/>
<path d="M183.559 162.584H170.046V162.686H183.559V162.584Z" fill="#EBEBEB"/>
<path d="M135.138 163.694H131.592V163.796H135.138V163.694Z" fill="#EBEBEB"/>
<path d="M169.638 158.798H161.809V158.9H169.638V158.798Z" fill="#EBEBEB"/>
<path d="M39.0251 159.483H21.4036V159.585H39.0251V159.483Z" fill="#EBEBEB"/>
<path d="M45.243 159.483H42.6604V159.585H45.243V159.483Z" fill="#EBEBEB"/>
<path d="M91.8611 161.205H53.6396V161.307H91.8611V161.205Z" fill="#EBEBEB"/>
<path d="M96.6959 137.822H17.9152C17.298 137.821 16.7065 137.575 16.2705 137.139C15.8345 136.702 15.5896 136.11 15.5896 135.493V24.7493C15.595 24.1357 15.8422 23.5489 16.2777 23.1166C16.7131 22.6842 17.3016 22.441 17.9152 22.44H96.6959C97.3138 22.44 97.9064 22.6854 98.3433 23.1223C98.7802 23.5592 99.0256 24.1518 99.0256 24.7697V135.493C99.0256 136.111 98.7802 136.703 98.3433 137.14C97.9064 137.577 97.3138 137.822 96.6959 137.822ZM17.9152 22.5216C17.3251 22.5227 16.7595 22.7579 16.3426 23.1755C15.9257 23.5932 15.6916 24.1592 15.6916 24.7493V135.493C15.6916 136.083 15.9257 136.649 16.3426 137.066C16.7595 137.484 17.3251 137.719 17.9152 137.72H96.6959C97.2864 137.719 97.8524 137.484 98.2699 137.067C98.6875 136.649 98.9225 136.083 98.9236 135.493V24.7493C98.9225 24.1588 98.6875 23.5928 98.2699 23.1753C97.8524 22.7577 97.2864 22.5227 96.6959 22.5216H17.9152Z" fill="#EBEBEB"/>
<path d="M184.95 137.822H106.166C105.548 137.821 104.956 137.576 104.519 137.139C104.083 136.702 103.837 136.11 103.836 135.493V24.7493C103.842 24.1353 104.091 23.5486 104.527 23.1163C104.963 22.684 105.552 22.441 106.166 22.44H184.95C185.563 22.4421 186.151 22.6857 186.585 23.118C187.02 23.5502 187.267 24.1364 187.272 24.7493V135.493C187.272 136.109 187.028 136.7 186.592 137.137C186.157 137.574 185.567 137.82 184.95 137.822ZM106.166 22.5216C105.575 22.5227 105.009 22.7577 104.592 23.1753C104.174 23.5928 103.939 24.1588 103.938 24.7493V135.493C103.939 136.083 104.174 136.649 104.592 137.067C105.009 137.484 105.575 137.719 106.166 137.72H184.95C185.541 137.719 186.107 137.484 186.524 137.067C186.942 136.649 187.177 136.083 187.178 135.493V24.7493C187.177 24.1588 186.942 23.5928 186.524 23.1753C186.107 22.7577 185.541 22.5227 184.95 22.5216H106.166Z" fill="#EBEBEB"/>
<path d="M154.334 130.417V136.211L156.782 137.99H145.358L149.006 136.635V130.821L154.334 130.417Z" fill="#E0E0E0"/>
<path d="M123.518 137.822V156.072H174.518V137.822H123.518ZM124.436 139.006H164.355V144.971H124.44L124.436 139.006Z" fill="#E0E0E0"/>
<path d="M123.518 137.822V156.072H165.583V137.822H123.518ZM124.436 139.006H164.355V144.971H124.44L124.436 139.006Z" fill="#EBEBEB"/>
<path d="M124.436 144.971H132.661V139.006H124.436V144.971Z" fill="#E0E0E0"/>
<path d="M154.175 144.971H164.355V141.988H154.175V144.971Z" fill="#E0E0E0"/>
<path d="M145.762 144.971H153.424V143.2H145.762V144.971Z" fill="#E0E0E0"/>
<path d="M136.692 144.971H143.991V141.348H136.692V144.971Z" fill="#E0E0E0"/>
<path d="M157.121 146.268L157.337 146.982H160.266L160.487 146.268H164.355V154.187H151.515V146.268H157.121Z" fill="#E0E0E0"/>
<path d="M141.861 146.268L142.082 146.982H145.011L145.232 146.268H150.833V154.187H137.994V146.268H141.861Z" fill="#E0E0E0"/>
<path d="M130.079 146.268L130.295 146.982H133.224L133.445 146.268H137.312V154.187H124.473V146.268H130.079Z" fill="#E0E0E0"/>
<path d="M130.976 133.881H168.916C169.712 133.881 170.356 133.236 170.356 132.441V110.658C170.356 109.862 169.712 109.218 168.916 109.218H130.976C130.181 109.218 129.536 109.862 129.536 110.658V132.441C129.536 133.236 130.181 133.881 130.976 133.881Z" fill="#E0E0E0"/>
<path d="M130.017 133.881H167.957C168.753 133.881 169.397 133.236 169.397 132.441V110.658C169.397 109.862 168.753 109.218 167.957 109.218H130.017C129.222 109.218 128.577 109.862 128.577 110.658V132.441C128.577 133.236 129.222 133.881 130.017 133.881Z" fill="#E6E6E6"/>
<path d="M168.198 132.682V110.413H129.777V132.682H168.198Z" fill="#F0F0F0"/>
<path d="M77.985 43.9171H29.584V93.9298H77.985V43.9171Z" fill="#EBEBEB"/>
<path d="M79.6784 43.9171H31.2773V93.9298H79.6784V43.9171Z" fill="#F0F0F0"/>
<path d="M78.3973 45.1044H32.4973V92.771H78.3973V45.1044Z" fill="#E0E0E0"/>
<path d="M77.2508 45.1044H32.4973V92.771H77.2508V45.1044Z" fill="#F5F5F5"/>
<path d="M55.3371 45.1044H54.4272V92.771H55.3371V45.1044Z" fill="#EBEBEB"/>
<path d="M60.5513 45.1044L73.3053 92.7669H74.5293L61.7753 45.1044H60.5513Z" fill="white"/>
<path d="M55.7246 44.37H54.9453V93.685H55.7246V44.37Z" fill="#F0F0F0"/>
<path d="M65.178 45.1044L77.2507 90.2129V65.4187L71.8161 45.1044H65.178Z" fill="white"/>
<path d="M32.4973 49.4292V54.0029L42.8728 92.767H44.0968L32.4973 49.4292Z" fill="white"/>
<path d="M32.4973 58.6663V83.4605L34.9861 92.7669H41.6202L32.4973 58.6663Z" fill="white"/>
<path d="M163.016 46.769H133.71V82.4282H163.016V46.769Z" fill="#E6E6E6"/>
<path d="M156.309 73.595L140.911 58.4582L157.57 55.7083L156.309 73.595Z" fill="#E0E0E0"/>
<path d="M141.282 70.0087L140.519 58.4011L152.115 61.249L152.955 70.127L141.282 70.0087Z" fill="#F0F0F0"/>
<path d="M159.76 56.9826C161.587 55.155 161.587 52.192 159.76 50.3644C157.932 48.5369 154.969 48.5369 153.141 50.3644C151.314 52.192 151.314 55.155 153.141 56.9826C154.969 58.8102 157.932 58.8102 159.76 56.9826Z" fill="#FAFAFA"/>
<path d="M142.8 74.1458C142.801 73.696 142.668 73.2561 142.419 72.8817C142.169 72.5074 141.814 72.2155 141.399 72.043C140.984 71.8705 140.526 71.8251 140.085 71.9127C139.644 72.0002 139.239 72.2168 138.92 72.5348C138.602 72.8529 138.386 73.2582 138.298 73.6994C138.211 74.1406 138.256 74.5979 138.429 75.0133C138.601 75.4287 138.893 75.7836 139.267 76.033C139.642 76.2824 140.082 76.4151 140.532 76.4143C141.133 76.4132 141.709 76.1739 142.134 75.7487C142.56 75.3235 142.799 74.7472 142.8 74.1458Z" fill="#E0E0E0"/>
<path d="M141.066 78.1361L147.618 74.1458L142.11 69.6048L141.066 78.1361Z" fill="#F5F5F5"/>
<path d="M148.81 79.7803H150.099V51.306H148.81V79.7803Z" fill="#E0E0E0"/>
<path d="M136.46 78.5196H138.128V51.306H136.46V78.5196Z" fill="#EBEBEB"/>
<path d="M151.552 78.6502H160.071V70.1311H151.552V78.6502Z" fill="#EBEBEB"/>
<path d="M54.2231 138.137L48.8293 122.592C48.8293 122.592 56.3039 128.136 56.2631 121.992C56.2223 115.848 52.8522 120.621 51.6894 118.349C50.5266 116.076 55.0065 116.1 53.4316 112.657C51.8567 109.213 47.3891 114.505 46.5976 111.453C45.806 108.402 44.5576 106.851 41.2936 107.124C41.2936 107.124 39.5351 111.139 41.7016 114.04C43.868 116.941 36.3527 114.611 37.1279 117.528C37.9031 120.446 40.3919 122.992 41.4976 120.939C42.6032 118.887 43.9945 122.82 42.1136 123.836C40.2328 124.852 44.5616 129.242 45.5286 126.937C46.193 125.406 47.0133 123.947 47.9766 122.584L52.9501 139.218L54.2231 138.137Z" fill="#EBEBEB"/>
<path d="M59.7842 138.275L65.8634 128.332C65.8634 128.332 59.8495 131.041 60.8123 126.794C61.7752 122.547 63.3787 126.358 64.5292 124.962C65.6798 123.567 62.5708 122.922 64.1824 120.76C65.794 118.597 68.087 122.951 69.0784 120.96C70.0699 118.969 71.1878 118.083 73.4032 118.765C73.4032 118.765 74.0152 121.808 72.0813 123.489C70.1474 125.17 75.688 124.713 74.7211 126.598C73.7541 128.483 71.6366 129.887 71.1837 128.3C70.7308 126.713 69.1682 129.226 70.3187 130.209C71.4693 131.192 67.7973 133.579 67.4872 131.841C67.2585 130.681 66.9112 129.548 66.4509 128.459L60.4982 139.218L59.7842 138.275Z" fill="#E6E6E6"/>
<path d="M55.6879 138.369L58.4705 122.355C58.4705 122.355 52.0608 128.952 51.1265 122.951C50.1922 116.949 54.2314 121.07 55.0066 118.667C55.7818 116.264 51.4121 117.006 52.3994 113.395C53.3868 109.785 58.5888 114.236 58.8744 111.135C59.16 108.034 60.1392 106.321 63.3624 106.072C63.3624 106.072 65.7166 109.703 64.0723 112.877C62.4281 116.052 69.3763 112.588 69.0907 115.554C68.8051 118.52 66.7774 121.4 65.3779 119.573C63.9785 117.745 63.24 121.808 65.2351 122.494C67.2302 123.179 63.697 128.157 62.3995 126.064C61.5087 124.677 60.4764 123.386 59.3191 122.212L57.12 139.218L55.6879 138.369Z" fill="#F5F5F5"/>
<path d="M52.2241 156.374H61.7794C62.1019 156.375 62.4124 156.252 62.6475 156.032C62.8826 155.811 63.0245 155.509 63.0442 155.187L64.0561 138.72C64.0667 138.548 64.0419 138.375 63.9834 138.213C63.9248 138.051 63.8337 137.902 63.7156 137.777C63.5975 137.651 63.455 137.551 63.2967 137.482C63.1385 137.413 62.9679 137.378 62.7954 137.378H51.2082C51.0357 137.378 50.8651 137.413 50.7068 137.482C50.5486 137.551 50.406 137.651 50.2879 137.777C50.1699 137.902 50.0787 138.051 50.0202 138.213C49.9616 138.375 49.9369 138.548 49.9474 138.72L50.9593 155.207C50.984 155.525 51.1281 155.823 51.3627 156.039C51.5972 156.255 51.9049 156.375 52.2241 156.374Z" fill="#EBEBEB"/>
<path d="M50.0821 139.218H64.0561C64.3668 139.218 64.6666 139.103 64.8984 138.896C65.1302 138.689 65.2777 138.404 65.3128 138.096C65.3341 137.918 65.3175 137.738 65.2641 137.567C65.2107 137.396 65.1217 137.239 65.0029 137.105C64.8841 136.971 64.7383 136.864 64.5751 136.791C64.4119 136.718 64.235 136.68 64.0561 136.68H50.0821C49.904 136.68 49.7278 136.718 49.5653 136.79C49.4027 136.863 49.2573 136.97 49.1387 137.102C49.02 137.235 48.9308 137.392 48.8768 137.562C48.8229 137.731 48.8054 137.911 48.8255 138.088C48.8587 138.398 49.0054 138.685 49.2373 138.893C49.4693 139.102 49.7701 139.218 50.0821 139.218Z" fill="#F5F5F5"/>
<path d="M102 174.444C145.69 174.444 181.107 172.377 181.107 169.826C181.107 167.275 145.69 165.207 102 165.207C58.3103 165.207 22.8928 167.275 22.8928 169.826C22.8928 172.377 58.3103 174.444 102 174.444Z" fill="#F5F5F5"/>
<path d="M136.159 48.6728V163.513C136.159 163.75 136.112 163.985 136.02 164.205C135.928 164.424 135.793 164.623 135.624 164.789C135.455 164.956 135.254 165.087 135.033 165.176C134.813 165.264 134.577 165.307 134.339 165.304H72.6332C72.4179 165.307 72.2042 165.267 72.0047 165.186C71.8052 165.105 71.624 164.985 71.4718 164.833C71.3196 164.681 71.1995 164.5 71.1187 164.3C71.0378 164.101 70.9979 163.887 71.0012 163.672V48.5259C70.9935 48.3353 71.0236 48.1451 71.0896 47.9662C71.1557 47.7873 71.2564 47.6232 71.3861 47.4833C71.5157 47.3434 71.6717 47.2305 71.8451 47.1511C72.0185 47.0716 72.2059 47.0272 72.3965 47.0204H87.0641C87.2905 47.0249 87.5104 47.0967 87.6958 47.2268C87.8811 47.3569 88.0234 47.5393 88.1045 47.7507L88.7777 49.3827C88.8604 49.5932 89.0039 49.7744 89.1899 49.903C89.3759 50.0316 89.5961 50.1019 89.8222 50.1049H117.407C117.631 50.1031 117.85 50.0347 118.035 49.9083C118.221 49.7819 118.364 49.6032 118.447 49.395L119.121 47.7344C119.202 47.5225 119.344 47.3396 119.529 47.2088C119.714 47.078 119.934 47.0053 120.161 47H134.58C135.011 47.0139 135.418 47.1975 135.714 47.5109C136.01 47.8243 136.17 48.242 136.159 48.6728Z" fill="#263238"/>
<path d="M136.163 54.6826H71.0093V157.16H136.163V54.6826Z" fill="#1D5BA4"/>
<path opacity="0.7" d="M136.163 54.6826H71.0093V157.16H136.163V54.6826Z" fill="white"/>
<path opacity="0.6" d="M78.7043 51.9613H79.5488V50.8393H78.7043V51.9613Z" fill="white"/>
<path opacity="0.6" d="M77.3293 51.9613H78.1738V50.4639H77.3293V51.9613Z" fill="white"/>
<path opacity="0.6" d="M75.9543 51.9613H76.7988V50.0886H75.9543V51.9613Z" fill="white"/>
<path opacity="0.6" d="M74.5793 51.9613H75.4238V49.7132H74.5793V51.9613Z" fill="white"/>
<path opacity="0.6" d="M128.611 50.4272H128.113V51.5492H128.611V50.4272Z" fill="white"/>
<path opacity="0.6" d="M128.953 51.9613H132.936V50.0151H128.953V51.9613Z" fill="white"/>
<path d="M100.361 64.8582H121.801C121.865 64.8642 121.93 64.8568 121.991 64.8365C122.051 64.8162 122.107 64.7833 122.155 64.7401C122.202 64.6969 122.24 64.6443 122.266 64.5856C122.292 64.5268 122.306 64.4634 122.306 64.3992C122.306 64.335 122.292 64.2715 122.266 64.2128C122.24 64.154 122.202 64.1014 122.155 64.0582C122.107 64.015 122.051 63.9822 121.991 63.9618C121.93 63.9415 121.865 63.9341 121.801 63.9402H100.361C100.247 63.9509 100.14 64.004 100.063 64.0889C99.9859 64.1737 99.9431 64.2844 99.9431 64.3992C99.9431 64.5139 99.9859 64.6246 100.063 64.7095C100.14 64.7944 100.247 64.8474 100.361 64.8582Z" fill="#263238"/>
<path d="M126.681 66.5595H100.242C100.195 66.5543 100.147 66.5591 100.102 66.5737C100.057 66.5882 100.015 66.6121 99.9794 66.6439C99.9439 66.6756 99.9156 66.7145 99.8962 66.758C99.8767 66.8014 99.8667 66.8485 99.8667 66.8961C99.8667 66.9437 99.8767 66.9908 99.8962 67.0342C99.9156 67.0777 99.9439 67.1166 99.9794 67.1484C100.015 67.1801 100.057 67.204 100.102 67.2186C100.147 67.2331 100.195 67.2379 100.242 67.2327H126.681C126.764 67.2236 126.84 67.1842 126.896 67.1221C126.952 67.06 126.982 66.9795 126.982 66.8961C126.982 66.8127 126.952 66.7323 126.896 66.6702C126.84 66.6081 126.764 66.5687 126.681 66.5595Z" fill="#263238"/>
<path d="M118.925 68.4894H100.242C100.195 68.4842 100.147 68.489 100.102 68.5035C100.057 68.518 100.015 68.542 99.9794 68.5737C99.9439 68.6055 99.9156 68.6444 99.8962 68.6878C99.8767 68.7313 99.8667 68.7784 99.8667 68.826C99.8667 68.8736 99.8767 68.9206 99.8962 68.9641C99.9156 69.0076 99.9439 69.0464 99.9794 69.0782C100.015 69.11 100.057 69.1339 100.102 69.1484C100.147 69.163 100.195 69.1678 100.242 69.1626H118.925C119.008 69.1534 119.084 69.114 119.14 69.0519C119.196 68.9898 119.226 68.9094 119.226 68.826C119.226 68.7426 119.196 68.6621 119.14 68.6C119.084 68.5379 119.008 68.4985 118.925 68.4894Z" fill="#263238"/>
<path d="M135.383 80.9742H71.7844V144.573H135.383V80.9742Z" fill="#1D5BA4"/>
<path d="M133.335 151.452L131.544 149.906L129.749 151.452V147.201H133.335V151.452Z" fill="#1D5BA4"/>
<path d="M126.864 147.201H124.163C123.986 147.201 123.816 147.271 123.69 147.397C123.565 147.522 123.494 147.692 123.494 147.87V149.714C123.494 149.891 123.565 150.062 123.69 150.187C123.816 150.313 123.986 150.383 124.163 150.383H125.081V151.452L125.779 150.383H126.864C126.952 150.384 127.04 150.367 127.121 150.333C127.203 150.3 127.277 150.251 127.339 150.188C127.401 150.126 127.45 150.052 127.484 149.971C127.517 149.889 127.534 149.802 127.534 149.714V147.87C127.534 147.782 127.517 147.695 127.484 147.613C127.45 147.532 127.401 147.458 127.339 147.396C127.277 147.333 127.203 147.284 127.121 147.251C127.04 147.217 126.952 147.2 126.864 147.201Z" fill="#1D5BA4"/>
<path d="M121.45 147.707C120.953 146.891 119.99 147.197 119.492 147.829C118.998 147.193 118.04 146.87 117.53 147.686C116.677 149.057 118.415 150.342 119.239 150.848L119.472 150.991L119.708 150.848C120.52 150.355 122.291 149.09 121.45 147.707Z" fill="#1D5BA4"/>
<g opacity="0.3">
<path opacity="0.7" d="M122.397 86.3271H124.804L123.601 89.4483L122.397 86.3271Z" fill="white"/>
<path opacity="0.7" d="M130.153 101.864L130.883 104.157L127.546 103.953L130.153 101.864Z" fill="white"/>
<path d="M129.215 91.8025L128.072 94.6054L131.544 95.8172V93.5487L129.215 91.8025Z" fill="white"/>
<path d="M84.1958 85.5764H85.9624L84.1958 87.8898V85.5764Z" fill="white"/>
<path d="M77.5537 96.98L79.5529 96.523L80.1119 98.2407L77.8067 99.0445L77.5537 96.98Z" fill="white"/>
<path d="M97.7822 87.8897C98.2126 87.8897 98.5615 87.5409 98.5615 87.1105C98.5615 86.6801 98.2126 86.3312 97.7822 86.3312C97.3518 86.3312 97.0029 86.6801 97.0029 87.1105C97.0029 87.5409 97.3518 87.8897 97.7822 87.8897Z" fill="white"/>
<path d="M86.4276 139.363C86.4276 139.669 86.3368 139.968 86.1667 140.223C85.9966 140.477 85.7549 140.675 85.4721 140.792C85.1893 140.909 84.8782 140.939 84.5781 140.879C84.278 140.819 84.0025 140.672 83.7864 140.455C83.5703 140.238 83.4234 139.962 83.3642 139.662C83.305 139.362 83.3362 139.051 83.4538 138.768C83.5715 138.486 83.7703 138.245 84.0252 138.075C84.28 137.906 84.5794 137.816 84.8854 137.817C85.0882 137.817 85.2891 137.857 85.4765 137.935C85.6639 138.012 85.8341 138.126 85.9773 138.27C86.1206 138.414 86.2341 138.584 86.3114 138.772C86.3886 138.959 86.4281 139.16 86.4276 139.363Z" fill="white"/>
<path d="M78.9816 125.928L79.5528 126.895L76.7907 128.078L76.1624 127.433L78.9816 125.928Z" fill="white"/>
<path d="M97.0029 141.758L96.4644 140.391H98.5656L97.0029 141.758Z" fill="white"/>
<path d="M119.325 140.391L119.488 138.869L122.368 139.628V141.852L119.325 140.391Z" fill="white"/>
<path d="M125.514 132.545H128.089L126.803 134.067L125.514 132.545Z" fill="white"/>
<path d="M129.749 116.886L129.215 120.118L129.806 120.656L130.361 116.886H129.749Z" fill="white"/>
<path d="M74.51 107.421L76.7907 109.077L75.1587 110.277L74.51 107.421Z" fill="white"/>
<path d="M84.6284 94.3076C84.7703 94.3076 84.8854 94.1925 84.8854 94.0506C84.8854 93.9086 84.7703 93.7935 84.6284 93.7935C84.4864 93.7935 84.3713 93.9086 84.3713 94.0506C84.3713 94.1925 84.4864 94.3076 84.6284 94.3076Z" fill="white"/>
<path d="M117.66 91.2435C117.858 91.2435 118.019 91.0828 118.019 90.8845C118.019 90.6862 117.858 90.5254 117.66 90.5254C117.462 90.5254 117.301 90.6862 117.301 90.8845C117.301 91.0828 117.462 91.2435 117.66 91.2435Z" fill="white"/>
<path d="M108.023 140.097C108.023 140.174 107.992 140.248 107.938 140.302C107.884 140.357 107.81 140.387 107.733 140.387C107.656 140.387 107.583 140.357 107.528 140.302C107.474 140.248 107.444 140.174 107.444 140.097C107.444 140.021 107.474 139.947 107.528 139.893C107.583 139.838 107.656 139.808 107.733 139.808C107.81 139.808 107.884 139.838 107.938 139.893C107.992 139.947 108.023 140.021 108.023 140.097Z" fill="white"/>
<path d="M111.422 84.177L114.294 83.7445V85.1439L111.422 85.5764V84.177Z" fill="white"/>
<path d="M130.361 85.5764H131.304L130.83 86.731L130.361 85.5764Z" fill="white"/>
<path d="M76.1624 87.1105H77.5536L76.856 87.8898L76.1624 87.1105Z" fill="white"/>
<path d="M128.904 141.758L128.77 139.082L130.83 139.808L128.904 141.758Z" fill="white"/>
<path d="M130.883 126.356L129.806 125.495V126.356L130.883 127.005V126.356Z" fill="white"/>
<path d="M75.6484 117.747L76.856 118.771L76.2522 119.685L74.6528 118.404L75.6484 117.747Z" fill="white"/>
<path d="M74.6528 93.7935H76.1624L74.51 94.3076L74.6528 93.7935Z" fill="white"/>
</g>
<path d="M100.965 91.3496L103.694 88.7833L106.395 91.3741L109.676 89.5667L111.65 92.7491L115.277 91.8188L116.395 95.3888H120.141L120.341 99.1261L123.968 100.056L123.225 103.728L126.51 105.532L124.882 108.902L127.611 111.464L125.196 114.324L127.203 117.486L124.151 119.657L125.31 123.214L121.818 124.557L122.054 128.294L118.333 128.726L117.636 132.407L113.923 131.897L112.332 135.287L108.864 133.871L106.477 136.76L103.47 134.528L100.443 136.731L98.0843 133.822L94.6041 135.201L93.0455 131.799L89.3327 132.268L88.6677 128.584L84.9508 128.114L85.2242 124.381L81.7439 123.006L82.9353 119.457L79.9039 117.258L81.9439 114.116L79.553 111.231L82.3111 108.698L80.7158 105.307L84.0165 103.537L83.3107 99.8605L86.9459 98.967L87.1785 95.2297L90.9239 95.2664L92.0786 91.7046L95.6975 92.6715L97.7008 89.5095L100.965 91.3496Z" fill="#1D5BA4"/>
<path opacity="0.4" d="M125.604 115.14L128.019 112.284L125.29 109.722L126.922 106.352L123.637 104.548L124.38 100.876L120.753 99.9462L120.553 96.2089H116.807L115.689 92.6389L112.062 93.5691L110.088 90.3867L106.824 92.1942L104.123 89.6034L101.393 92.1697L98.1292 90.3296L96.1259 93.4957L92.5069 92.5247L91.3523 96.0865L87.6069 96.0498L87.3743 99.7871L83.739 100.681L84.4449 104.353L81.1441 106.123L82.7394 109.514L79.9609 112.064L82.3518 114.948L80.3118 118.09L83.3433 120.289L82.1519 123.839L85.6321 125.214L85.3588 128.947L89.0757 129.416L89.7366 133.088L93.4535 132.619L95.0121 136.022L98.4923 134.643L100.851 137.552L103.878 135.348L106.885 137.58L109.272 134.691L112.74 136.107L114.331 132.717L118.04 133.227L118.741 129.555L122.462 129.122L122.222 125.385L125.718 124.043L124.559 120.481L127.611 118.314L125.604 115.14ZM124.853 117.776L122.156 119.693L123.18 122.839L120.092 124.022L120.304 127.323L117.015 127.707L116.399 130.971L113.135 130.522L111.728 133.516L108.668 132.268L106.558 134.814L103.902 132.843L101.23 134.789L99.1492 132.219L96.0729 133.443L94.6979 130.436L91.4135 130.844L90.8301 127.58L87.5661 127.172L87.8109 123.875L84.7345 122.651L85.7872 119.518L83.1107 117.576L84.9141 114.801L82.8006 112.256L85.2486 110.016L83.8002 107.005L86.7174 105.442L86.0932 102.178L89.3082 101.39L89.5122 98.0898L92.817 98.1224L93.837 94.9767L97.0317 95.8335L98.8024 93.0387L101.687 94.6707L104.094 92.4023L106.481 94.6911L109.378 93.0959L111.124 95.907L114.327 95.091L115.314 98.2489H118.623L118.798 101.554L122.001 102.37L121.348 105.609L124.245 107.2L122.809 110.179L125.22 112.443L123.087 114.969L124.853 117.776Z" fill="black"/>
<path opacity="0.4" d="M100.965 91.3496L103.694 88.7833L106.395 91.3741L109.676 89.5667L111.65 92.7491L115.277 91.8188L116.395 95.3888H120.141L120.341 99.1261L123.968 100.056L123.225 103.728L126.51 105.532L124.882 108.902L127.611 111.464L125.196 114.324L127.203 117.486L124.151 119.657L125.31 123.214L121.818 124.557L122.054 128.294L118.333 128.726L117.636 132.407L113.923 131.897L112.332 135.287L108.864 133.871L106.477 136.76L103.47 134.528L100.443 136.731L98.0843 133.822L94.6041 135.201L93.0455 131.799L89.3327 132.268L88.6677 128.584L84.9508 128.114L85.2242 124.381L81.7439 123.006L82.9353 119.457L79.9039 117.258L81.9439 114.116L79.553 111.231L82.3111 108.698L80.7158 105.307L84.0165 103.537L83.3107 99.8605L86.9459 98.967L87.1785 95.2297L90.9239 95.2664L92.0786 91.7046L95.6975 92.6715L97.7008 89.5095L100.965 91.3496Z" fill="black"/>
<path d="M125.196 114.324L127.611 111.468L124.882 108.906L126.514 105.536L123.229 103.732L123.972 100.06L120.345 99.1302L120.145 95.3929H116.399L115.282 91.8229L111.654 92.7531L109.68 89.5707L106.416 91.3782L103.715 88.7874L100.985 91.3537L97.7212 89.5136L95.7179 92.6797L92.099 91.7087L90.9443 95.2705L87.1989 95.2338L86.9663 98.9711L83.3311 99.8646L84.0369 103.537L80.7362 105.307L82.3315 108.698L79.553 111.248L81.9439 114.132L79.9039 117.274L82.9353 119.473L81.7439 123.023L85.2242 124.398L84.9508 128.131L88.6677 128.6L89.3287 132.272L93.0455 131.803L94.6041 135.206L98.0843 133.826L100.443 136.736L103.47 134.532L106.477 136.764L108.864 133.875L112.332 135.291L113.923 131.901L117.632 132.411L118.333 128.739L122.054 128.306L121.814 124.569L125.31 123.227L124.151 119.665L127.203 117.498L125.196 114.324ZM124.445 116.96L121.748 118.877L122.772 122.023L119.684 123.206L119.896 126.507L116.608 126.89L115.991 130.154L112.727 129.706L111.32 132.7L108.26 131.452L106.15 133.998L103.494 132.027L100.822 133.973L98.7412 131.403L95.6649 132.627L94.2899 129.62L91.0055 130.028L90.4221 126.764L87.1581 126.356L87.4029 123.059L84.3266 121.835L85.3792 118.702L82.7027 116.76L84.5061 113.985L82.3927 111.44L84.8407 109.2L83.3923 106.189L86.3095 104.626L85.6852 101.362L88.9003 100.574L89.1043 97.2738L92.4091 97.3064L93.4291 94.1607L96.6237 95.0175L98.3944 92.2227L101.279 93.8547L103.686 91.5863L106.073 93.8751L108.97 92.2799L110.716 95.091L113.919 94.275L114.906 97.4329H118.215L118.39 100.738L121.593 101.554L120.94 104.793L123.837 106.384L122.401 109.363L124.812 111.627L122.679 114.153L124.445 116.96Z" fill="#1D5BA4"/>
<path opacity="0.6" d="M125.196 114.324L127.611 111.468L124.882 108.906L126.514 105.536L123.229 103.732L123.972 100.06L120.345 99.1302L120.145 95.3929H116.399L115.282 91.8229L111.654 92.7531L109.68 89.5707L106.416 91.3782L103.715 88.7874L100.985 91.3537L97.7212 89.5136L95.7179 92.6797L92.099 91.7087L90.9443 95.2705L87.1989 95.2338L86.9663 98.9711L83.3311 99.8646L84.0369 103.537L80.7362 105.307L82.3315 108.698L79.553 111.248L81.9439 114.132L79.9039 117.274L82.9353 119.473L81.7439 123.023L85.2242 124.398L84.9508 128.131L88.6677 128.6L89.3287 132.272L93.0455 131.803L94.6041 135.206L98.0843 133.826L100.443 136.736L103.47 134.532L106.477 136.764L108.864 133.875L112.332 135.291L113.923 131.901L117.632 132.411L118.333 128.739L122.054 128.306L121.814 124.569L125.31 123.227L124.151 119.665L127.203 117.498L125.196 114.324ZM124.445 116.96L121.748 118.877L122.772 122.023L119.684 123.206L119.896 126.507L116.608 126.89L115.991 130.154L112.727 129.706L111.32 132.7L108.26 131.452L106.15 133.998L103.494 132.027L100.822 133.973L98.7412 131.403L95.6649 132.627L94.2899 129.62L91.0055 130.028L90.4221 126.764L87.1581 126.356L87.4029 123.059L84.3266 121.835L85.3792 118.702L82.7027 116.76L84.5061 113.985L82.3927 111.44L84.8407 109.2L83.3923 106.189L86.3095 104.626L85.6852 101.362L88.9003 100.574L89.1043 97.2738L92.4091 97.3064L93.4291 94.1607L96.6237 95.0175L98.3944 92.2227L101.279 93.8547L103.686 91.5863L106.073 93.8751L108.97 92.2799L110.716 95.091L113.919 94.275L114.906 97.4329H118.215L118.39 100.738L121.593 101.554L120.94 104.793L123.837 106.384L122.401 109.363L124.812 111.627L122.679 114.153L124.445 116.96Z" fill="white"/>
<path opacity="0.4" d="M91.5929 111.578C91.5929 111.578 93.6737 111.219 94.6978 111.578C95.7219 111.937 100.055 119.33 100.055 119.33C100.055 119.33 108.46 107.768 115.179 102.712C115.179 102.712 106.46 110.522 101.405 123.631C101.405 123.631 99.704 124.381 98.5004 123.039C98.1536 122.631 94.249 115.977 93.4942 115.728C92.9026 115.528 90.9932 115.626 90.9932 115.626L91.5929 111.578Z" fill="black"/>
<path d="M91.185 111.17C91.185 111.17 93.2658 110.811 94.2898 111.17C95.3139 111.529 99.6469 118.922 99.6469 118.922C99.6469 118.922 108.052 107.36 114.771 102.304C114.771 102.304 106.052 110.114 100.997 123.223C100.997 123.223 99.296 123.973 98.0924 122.631C97.7456 122.223 93.841 115.568 93.0862 115.32C92.4946 115.12 90.5852 115.218 90.5852 115.218L91.185 111.17Z" fill="white"/>
<path d="M94.3222 68.469C94.3307 70.1414 93.9092 71.788 93.0982 73.2507L92.9187 73.5567C92.3356 74.5242 91.5888 75.3829 90.7114 76.0945L90.6625 76.1353C89.8319 76.8047 88.8975 77.3339 87.8962 77.702C86.8142 78.0986 85.6704 78.3002 84.518 78.2977C84.1512 78.2999 83.7847 78.2795 83.4205 78.2365C82.8088 78.1714 82.2048 78.0471 81.6171 77.8652C80.186 77.4252 78.8762 76.66 77.7901 75.6294C76.6024 74.5121 75.7111 73.1171 75.1964 71.57C74.6816 70.0228 74.5596 68.3719 74.8412 66.7658C75.1227 65.1597 75.7992 63.6488 76.8096 62.369C77.82 61.0893 79.1327 60.0807 80.6296 59.4341C82.1265 58.7875 83.7606 58.5232 85.385 58.6649C87.0094 58.8066 88.5731 59.3499 89.9355 60.2458C91.2978 61.1418 92.4161 62.3624 93.1897 63.7978C93.9632 65.2332 94.3678 66.8384 94.3671 68.469H94.3222Z" fill="#1D5BA4"/>
<path d="M87.8802 77.702C86.7982 78.0986 85.6544 78.3002 84.502 78.2977C84.1352 78.2999 83.7687 78.2795 83.4045 78.2365C82.7927 78.1715 82.1888 78.0471 81.6011 77.8652L81.2869 75.2989L81.136 74.0749L87.8639 75.0296V75.6049L87.8843 77.294V77.702H87.8802Z" fill="#1D5BA4"/>
<path d="M90.6463 76.1353C89.8157 76.8047 88.8814 77.3339 87.8801 77.702C86.798 78.0986 85.6543 78.3002 84.5018 78.2977C84.1351 78.2999 83.7686 78.2795 83.4043 78.2365C82.7926 78.1714 82.1886 78.0471 81.601 77.8652C80.1699 77.4252 78.86 76.66 77.7739 75.6294C78.084 75.5804 78.3982 75.5437 78.7123 75.5029H78.7898C79.1611 75.4621 79.5324 75.4254 79.9037 75.3968C80.3443 75.3601 80.7809 75.3315 81.2215 75.3152H81.299L81.8376 75.2948H82.4782H83.2289C84.0449 75.2948 84.8718 75.3247 85.7095 75.3846L86.5541 75.4539L86.9988 75.4988L87.6434 75.5967L87.7862 75.6171H87.8842L88.643 75.7477C88.7614 75.7681 88.8797 75.7967 88.998 75.813L89.2224 75.8579L89.4631 75.9027L89.8711 75.9843L90.1567 76.0415L90.6463 76.1353Z" fill="#263238"/>
<path d="M86.1583 77.7918C83.3553 77.3144 82.5557 76.0741 82.5557 76.0741C83.7552 75.0378 83.6124 73.4262 83.3717 72.4021C83.2945 72.0826 83.1908 71.77 83.0616 71.4678L86.4276 72.243C86.33 72.7111 86.2659 73.1856 86.2358 73.6628C86.2101 74.0159 86.228 74.3708 86.2889 74.7195C86.4765 75.7395 87.0559 75.7803 87.0559 75.7803C87.5904 76.9431 86.1583 77.7918 86.1583 77.7918Z" fill="#E4897B"/>
<path opacity="0.2" d="M86.2236 73.6873C86.1979 74.0404 86.2157 74.3953 86.2766 74.744C84.9384 74.5074 83.9592 73.3895 83.3594 72.4266C83.2823 72.107 83.1785 71.7945 83.0493 71.4923L86.4153 72.2675C86.3177 72.7356 86.2536 73.2101 86.2236 73.6873Z" fill="black"/>
<path d="M85.7666 62.6223C88.9531 62.7611 89.9078 64.5114 89.9976 67.8039C90.1159 71.9166 89.0796 74.793 85.1342 73.7485C79.7731 72.3246 80.4748 62.3939 85.7666 62.6223Z" fill="#E4897B"/>
<path d="M87.9453 67.5346C88.1809 68.0221 88.474 68.4796 88.8184 68.8974C88.7187 69.0244 88.5863 69.122 88.4353 69.1795C88.2844 69.237 88.1206 69.2523 87.9616 69.2238L87.9453 67.5346Z" fill="#DE5753"/>
<path d="M84.669 65.5518C84.633 65.552 84.5981 65.5389 84.5711 65.5151C84.5569 65.5017 84.5456 65.4856 84.5379 65.4677C84.5301 65.4498 84.5261 65.4305 84.5261 65.411C84.5261 65.3915 84.5301 65.3722 84.5379 65.3543C84.5456 65.3364 84.5569 65.3203 84.5711 65.307C84.7728 65.1137 85.0171 64.9706 85.2843 64.8891C85.5515 64.8076 85.8341 64.79 86.1093 64.8378C86.1283 64.8412 86.1465 64.8484 86.1628 64.8589C86.179 64.8693 86.193 64.8829 86.204 64.8989C86.215 64.9148 86.2228 64.9327 86.2268 64.9516C86.2309 64.9706 86.2311 64.9901 86.2276 65.0091C86.2242 65.0282 86.217 65.0463 86.2065 65.0626C86.196 65.0789 86.1824 65.0929 86.1665 65.1039C86.1506 65.1149 86.1326 65.1226 86.1137 65.1267C86.0948 65.1307 86.0753 65.131 86.0562 65.1275C85.8308 65.0917 85.6001 65.1068 85.3813 65.1718C85.1624 65.2367 84.9609 65.3498 84.7914 65.5028C84.7762 65.5199 84.7573 65.5333 84.736 65.5418C84.7148 65.5503 84.6918 65.5537 84.669 65.5518Z" fill="#263238"/>
<path d="M89.6508 65.4212C89.62 65.4204 89.5902 65.4105 89.5651 65.3927C89.4114 65.2624 89.2305 65.168 89.0357 65.1165C88.8409 65.065 88.6371 65.0576 88.439 65.0948C88.4205 65.1012 88.401 65.1038 88.3815 65.1025C88.362 65.1012 88.3429 65.0961 88.3255 65.0873C88.308 65.0786 88.2924 65.0665 88.2797 65.0516C88.267 65.0368 88.2573 65.0196 88.2513 65.001C88.2396 64.9636 88.2428 64.9232 88.2603 64.8882C88.2778 64.8532 88.3083 64.8263 88.3452 64.8133C88.5876 64.7603 88.8389 64.7632 89.0799 64.8219C89.321 64.8806 89.5456 64.9934 89.7365 65.1519C89.7679 65.1755 89.789 65.2105 89.7951 65.2493C89.8012 65.2882 89.7918 65.3279 89.7691 65.36C89.7552 65.3784 89.7373 65.3934 89.7169 65.404C89.6964 65.4146 89.6738 65.4205 89.6508 65.4212Z" fill="#263238"/>
<path d="M82.0539 67.8447C82.0539 67.8447 83.6574 65.2906 83.5187 63.2588C83.5187 63.2588 89.9447 60.9495 89.9814 67.3714C89.9814 67.3714 90.5933 61.2002 85.122 60.8371C79.6507 60.474 79.3284 68.4912 82.0539 71.0004C82.0539 71.0004 81.0625 69.44 82.0539 67.8447Z" fill="#263238"/>
<path d="M82.5477 68.5383C82.5317 68.1689 82.3707 67.8207 82.0995 67.5694C81.8283 67.318 81.4688 67.1838 81.0993 67.196C80.1037 67.2613 79.5489 69.2687 81.9846 69.8603C82.3314 69.9459 82.5436 69.6318 82.5477 68.5383Z" fill="#E4897B"/>
<path d="M88.0229 70.1622C87.806 70.4853 87.6124 70.8234 87.4435 71.174L87.2436 71.1169C86.3542 70.8394 86.0196 70.4192 85.9421 70.0357C85.9028 69.8464 85.9098 69.6505 85.9625 69.4645C85.9885 69.3585 86.0297 69.2568 86.0849 69.1626C86.5583 69.5762 87.1147 69.8836 87.7169 70.0642C87.9046 70.1295 88.0229 70.1622 88.0229 70.1622Z" fill="#263238"/>
<path d="M87.7209 70.0642L87.5414 70.358C86.7254 70.0969 86.146 69.8031 85.9624 69.4645C85.9884 69.3585 86.0296 69.2568 86.0848 69.1626C86.5594 69.5767 87.1173 69.8842 87.7209 70.0642Z" fill="white"/>
<path d="M87.2437 71.1169C86.3542 70.8394 86.0197 70.4192 85.9421 70.0357C86.2798 70.1459 86.5948 70.3159 86.8724 70.5375C87.0557 70.6853 87.186 70.8886 87.2437 71.1169Z" fill="#DE5753"/>
<path d="M85.6933 62.859C85.6933 62.859 84.1837 68.0487 80.887 67.8407C77.5904 67.6326 82.9678 61.2107 82.9678 61.2107C82.9678 61.2107 88.4391 59.4114 90.9769 62.3857C93.5146 65.36 89.9814 67.3715 89.9814 67.3715C89.9814 67.3715 90.3567 63.32 85.6933 62.859Z" fill="#263238"/>
<path d="M83.2453 67.3307C83.2249 67.3304 83.2051 67.324 83.1884 67.3124C83.1716 67.3008 83.1588 67.2844 83.1514 67.2654C83.1418 67.241 83.1419 67.2138 83.1518 67.1895C83.1617 67.1651 83.1805 67.1456 83.2045 67.1348C85.7749 66.0332 85.575 62.5285 85.575 62.4918C85.5738 62.4654 85.583 62.4396 85.6005 62.4198C85.618 62.4 85.6425 62.3878 85.6688 62.3857C85.6956 62.3845 85.7219 62.3935 85.7424 62.4109C85.7628 62.4283 85.7759 62.4529 85.779 62.4795C85.779 62.5163 85.987 66.1515 83.2861 67.3225L83.2453 67.3307Z" fill="#263238"/>
<path d="M86.0684 67.3551C86.097 67.5999 85.9869 67.8162 85.8237 67.8366C85.6605 67.857 85.5013 67.6693 85.4728 67.4286C85.4442 67.1879 85.5544 66.9675 85.7176 66.9471C85.8808 66.9267 86.0399 67.1063 86.0684 67.3551Z" fill="#263238"/>
<path d="M85.6484 66.9635L86.1625 66.6901C86.1625 66.6901 85.9463 67.1838 85.6484 66.9635Z" fill="#263238"/>
<path d="M89.1246 66.939C89.1532 67.1838 89.043 67.4 88.8798 67.4204C88.7166 67.4408 88.5575 67.2572 88.5289 67.0124C88.5004 66.7676 88.6105 66.5514 88.7737 66.531C88.9369 66.5106 89.1042 66.6942 89.1246 66.939Z" fill="#263238"/>
<path d="M88.696 66.5473L89.206 66.2739C89.206 66.2739 89.0061 66.7758 88.696 66.5473Z" fill="#263238"/>
<path d="M90.6954 76.0945L90.6464 76.1353C89.8158 76.8047 88.8814 77.3339 87.8802 77.702V77.4123V77.2859L87.3457 76.2047L87.6191 75.56L87.8516 75.0215L88.0883 75.5355L90.6954 76.0945Z" fill="#1D5BA4"/>
<path opacity="0.6" d="M90.6954 76.0945L90.6464 76.1353C89.8158 76.8047 88.8814 77.3339 87.8802 77.702V77.4123V77.2859L87.3457 76.2047L87.6191 75.56L87.8516 75.0215L88.0883 75.5355L90.6954 76.0945Z" fill="white"/>
<path d="M84.5631 76.1231L83.4492 77.5225L83.3921 78.2406C82.7804 78.1755 82.1764 78.0512 81.5888 77.8693C80.1577 77.4293 78.8478 76.6641 77.7617 75.6335L78.6879 75.5029H78.7654L80.7279 75.2255L81.1359 74.079L83.1351 75.2703L84.5753 76.1312L84.5631 76.1231Z" fill="#1D5BA4"/>
<path opacity="0.6" d="M84.559 76.1231L83.4492 77.5225L83.3921 78.2406C82.7804 78.1755 82.1764 78.0512 81.5888 77.8693C80.1577 77.4293 78.8478 76.664 77.7617 75.6335L78.7654 75.4947L80.7279 75.2214L81.1359 74.0749L83.1351 75.2663L84.559 76.1231Z" fill="white"/>
<path d="M94.9957 76.784C94.9957 77.3126 94.8389 77.8292 94.5453 78.2687C94.2517 78.7082 93.8343 79.0507 93.346 79.253C92.8576 79.4552 92.3203 79.5082 91.8019 79.4051C91.2835 79.3019 90.8074 79.0474 90.4336 78.6737C90.0599 78.2999 89.8053 77.8238 89.7022 77.3054C89.5991 76.787 89.652 76.2496 89.8543 75.7613C90.0566 75.273 90.3991 74.8556 90.8386 74.562C91.2781 74.2683 91.7947 74.1116 92.3233 74.1116C93.032 74.1116 93.7118 74.3932 94.213 74.8943C94.7141 75.3955 94.9957 76.0752 94.9957 76.784Z" fill="white"/>
<path d="M94.6039 76.784C94.6039 77.2351 94.4702 77.6761 94.2196 78.0511C93.9689 78.4262 93.6127 78.7185 93.196 78.8911C92.7793 79.0637 92.3207 79.1089 91.8783 79.0209C91.4358 78.9329 91.0295 78.7157 90.7105 78.3967C90.3915 78.0778 90.1743 77.6714 90.0863 77.229C89.9983 76.7865 90.0435 76.328 90.2161 75.9112C90.3887 75.4945 90.681 75.1383 91.0561 74.8877C91.4312 74.6371 91.8721 74.5033 92.3232 74.5033C92.9281 74.5033 93.5082 74.7436 93.9359 75.1713C94.3636 75.599 94.6039 76.1791 94.6039 76.784Z" fill="#263238"/>
<path d="M92.2334 77.9713L91.0176 76.8983L91.2869 76.5923L92.1681 77.3675L93.3269 75.7763L93.6573 76.017L92.2334 77.9713Z" fill="white"/>
<path d="M158.337 158.528C158.337 158.528 155.958 153.343 158.675 148.23C161.393 143.118 162.176 141.915 160.446 140.866C158.716 139.818 157.92 144.946 157.92 144.946C157.92 144.946 156.46 141.409 157.668 137.712C158.875 134.016 159.626 127.99 157.982 127.341C156.337 126.692 157.668 134.856 156.24 137.639C155.512 135.686 155.043 133.646 154.844 131.572C154.644 128.602 154.954 123.857 153.653 122.641C152.351 121.425 151.523 122.265 152.8 128.822C153.568 132.739 153.991 136.716 154.065 140.707C154.065 140.707 151.246 132.106 149.352 131.857C147.459 131.609 147.463 134.391 149.083 136.806C150.703 139.222 153.828 143.551 154.342 145.782C154.342 145.782 151.246 139.312 148.459 141.294C145.672 143.277 150.882 147.186 153.204 148.602C155.526 150.018 157.141 158.867 157.141 158.867L158.337 158.528Z" fill="#1D5BA4"/>
<path opacity="0.2" d="M158.337 158.528C158.337 158.528 155.958 153.343 158.675 148.23C161.393 143.118 162.176 141.915 160.446 140.866C158.716 139.818 157.92 144.946 157.92 144.946C157.92 144.946 156.46 141.409 157.668 137.712C158.875 134.016 159.626 127.99 157.982 127.341C156.337 126.692 157.668 134.856 156.24 137.639C155.512 135.686 155.043 133.646 154.844 131.572C154.644 128.602 154.954 123.857 153.653 122.641C152.351 121.425 151.523 122.265 152.8 128.822C153.568 132.739 153.991 136.716 154.065 140.707C154.065 140.707 151.246 132.106 149.352 131.857C147.459 131.609 147.463 134.391 149.083 136.806C150.703 139.222 153.828 143.551 154.342 145.782C154.342 145.782 151.246 139.312 148.459 141.294C145.672 143.277 150.882 147.186 153.204 148.602C155.526 150.018 157.141 158.867 157.141 158.867L158.337 158.528Z" fill="black"/>
<path d="M156.46 160.658C156.46 160.658 158.773 155.436 155.995 150.364C153.216 145.293 152.417 144.102 154.138 143.02C155.86 141.939 156.713 147.072 156.713 147.072C156.713 147.072 158.129 143.514 156.88 139.834C155.632 136.154 154.803 130.14 156.439 129.471C158.075 128.802 156.847 136.982 158.304 139.74C159.008 137.777 159.454 135.731 159.63 133.653C159.789 130.678 159.426 125.941 160.711 124.705C161.996 123.469 162.837 124.297 161.637 130.874C160.917 134.809 160.542 138.8 160.515 142.8C160.515 142.8 163.233 134.159 165.122 133.881C167.011 133.604 167.043 136.386 165.452 138.826C163.861 141.266 160.785 145.64 160.299 147.871C160.299 147.871 163.318 141.343 166.125 143.298C168.932 145.252 163.775 149.226 161.47 150.67C159.165 152.115 157.659 160.997 157.659 160.997L156.46 160.658Z" fill="#1D5BA4"/>
<path d="M167.133 156.933H148.014L149.56 170.617H165.587L167.133 156.933Z" fill="#263238"/>
</g>
<defs>
<clipPath id="clip0_140_1228">
<rect width="204" height="204" fill="white"/>
</clipPath>
</defs>
</svg>
