<svg width="53" height="47" viewBox="0 0 53 47" fill="none" xmlns="http://www.w3.org/2000/svg">
<path d="M50.0509 46.3698H2.94614C2.0381 46.3698 1.19907 45.8853 0.745054 45.0989C0.291037 44.3126 0.291037 43.3437 0.745054 42.5573L24.2962 1.89059C24.7506 1.1055 25.5889 0.62207 26.496 0.62207C27.4031 0.62207 28.2414 1.1055 28.6958 1.89059L52.2469 42.5573C52.7006 43.3432 52.7008 44.3115 52.2474 45.0977C51.7942 45.8841 50.9585 46.3688 50.0509 46.3698ZM23.9581 33.6614V38.7448H26.3295H26.4947H26.6599H29.0364V33.6614H23.9581ZM23.9581 15.8698V28.5781H29.0415V15.8698H23.9581Z" fill="#E25B5B"/>
</svg>
