<svg width="22" height="22" viewBox="0 0 22 22" fill="none" xmlns="http://www.w3.org/2000/svg">
<path d="M17.875 5.5H14.4375V4.125C14.4375 3.36875 13.8188 2.75 13.0625 2.75H8.9375C8.18125 2.75 7.5625 3.36875 7.5625 4.125V5.5H4.125C3.36875 5.5 2.75 6.11875 2.75 6.875V17.875C2.75 18.6313 3.36875 19.25 4.125 19.25H17.875C18.6313 19.25 19.25 18.6313 19.25 17.875V6.875C19.25 6.11875 18.6313 5.5 17.875 5.5ZM8.9375 4.125H13.0625V5.5H8.9375V4.125ZM11.6875 6.875V11H10.3125V6.875H11.6875ZM17.875 17.875H4.125V15.8125H17.875V17.875ZM17.875 14.4375H4.125V6.875H8.9375V11C8.9375 11.7563 9.55625 12.375 10.3125 12.375H11.6875C12.4438 12.375 13.0625 11.7563 13.0625 11V6.875H17.875V14.4375Z" fill="#0B1719"/>
</svg>
