<svg width="12" height="12" viewBox="0 0 12 12" fill="none" xmlns="http://www.w3.org/2000/svg">
<path d="M5.99975 9.68511C5.10475 9.68511 4.20973 9.34511 3.52473 8.66011C2.15973 7.29511 2.15973 5.07511 3.52473 3.71009C4.88973 2.34509 7.10975 2.34509 8.47475 3.71009C9.83975 5.07511 9.83975 7.29511 8.47475 8.66011C7.78975 9.34511 6.89475 9.68511 5.99975 9.68511ZM5.99975 3.4351C5.29475 3.4351 4.58973 3.70509 4.05473 4.24009C2.98473 5.31511 2.98473 7.05511 4.05473 8.13011C5.12975 9.20511 6.87475 9.20011 7.94475 8.13011C9.01475 7.05511 9.01475 5.31511 7.94475 4.24009C7.40975 3.70509 6.70475 3.4351 5.99975 3.4351Z" fill="#9B9B9B"/>
<path d="M4.12453 11.1949C4.07953 11.1949 4.02953 11.1849 3.98453 11.1699C2.85953 10.7199 1.94953 9.92493 1.33953 8.87493C0.749527 7.84993 0.514527 6.68993 0.669527 5.50993C0.694527 5.30493 0.884527 5.15993 1.08953 5.18493C1.29453 5.20993 1.43952 5.39993 1.41452 5.60493C1.28452 6.61493 1.48454 7.61493 1.98954 8.49493C2.50954 9.39493 3.29453 10.0799 4.25953 10.4649C4.44953 10.5449 4.54453 10.7599 4.46953 10.9549C4.41453 11.1049 4.26953 11.1949 4.12453 11.1949Z" fill="#9B9B9B"/>
<path d="M2.92478 2.61493C2.81478 2.61493 2.70478 2.56494 2.62978 2.46994C2.49978 2.30494 2.52978 2.06995 2.69478 1.94495C3.64978 1.19995 4.78978 0.804932 5.99977 0.804932C7.17977 0.804932 8.30477 1.18494 9.24977 1.90494C9.41477 2.02994 9.44477 2.26493 9.31977 2.42993C9.19477 2.59493 8.95977 2.62494 8.79477 2.49994C7.98477 1.87994 7.01977 1.55493 5.99977 1.55493C4.95978 1.55493 3.97477 1.89495 3.15477 2.53495C3.08477 2.58995 3.00478 2.61493 2.92478 2.61493Z" fill="#9B9B9B"/>
<path d="M7.87534 11.195C7.72534 11.195 7.58534 11.105 7.52534 10.96C7.45034 10.77 7.54034 10.55 7.73534 10.47C8.70034 10.08 9.48534 9.4 10.0053 8.5C10.5153 7.62 10.7153 6.62 10.5803 5.61C10.5553 5.405 10.7003 5.215 10.9053 5.19C11.1053 5.165 11.3003 5.31 11.3253 5.515C11.4753 6.69 11.2453 7.855 10.6553 8.88C10.0503 9.93 9.13534 10.72 8.01034 11.175C7.97034 11.185 7.92534 11.195 7.87534 11.195Z" fill="#9B9B9B"/>
</svg>
